<svg width="452" height="100" viewBox="0 0 452 100" fill="none" xmlns="http://www.w3.org/2000/svg">
<path d="M375.823 98.4951C372.531 99.9882 368.991 100.416 365.926 99.5668C363.326 98.8459 361.371 97.4897 358.569 94.6931C355.753 91.8834 354.406 89.9489 353.68 87.342C352.834 84.3036 353.246 81.9929 355.038 77.861L367.189 49.9995L355.033 22.1263C353.246 18.0056 352.835 15.6947 353.68 12.657C354.406 10.0502 355.753 8.11557 358.569 5.30596C361.371 2.50935 363.326 1.15314 365.926 0.43226C368.988 -0.416418 372.529 0.00969737 375.792 1.48993L402.488 13.4297L429.152 1.50389C432.444 0.0108656 435.984 -0.417148 439.049 0.43226C441.649 1.15314 443.604 2.50935 446.406 5.30596C449.222 8.11557 450.569 10.0502 451.295 12.657C452.141 15.6954 451.729 18.0061 449.937 22.138L437.786 49.9995L449.94 77.8677L449.942 77.8727C451.73 81.9934 452.141 84.3043 451.295 87.342C450.569 89.9489 449.222 91.8834 446.406 94.6931C443.604 97.4897 441.649 98.8459 439.049 99.5668C435.987 100.415 432.447 99.9893 429.183 98.5091L402.488 86.5693L375.823 98.4951ZM419.863 49.9995L420.198 49.2206L433.777 17.9346L402.488 31.5116L371.199 17.9346L384.777 49.2206L385.124 49.9995L384.777 50.7785L371.199 82.0644L402.488 68.4875L433.777 82.0644L420.198 50.7785L419.863 49.9995Z" fill="white"/>
<path d="M335.865 51.0873C335.865 44.4839 330.512 39.1309 323.909 39.1309C317.305 39.1309 311.952 44.4839 311.952 51.0873C311.952 57.6907 317.305 63.0438 323.909 63.0438C330.512 63.0438 335.865 57.6907 335.865 51.0873Z" fill="white"/>
<path fill-rule="evenodd" clip-rule="evenodd" d="M21.7389 100H0L34.3711 12.6651C36.2148 8.00719 37.9561 4.06763 41.3039 2.17536C44.6518 0.28308 49.1071 0.00146484 54.3473 0.00146484C59.4904 0.00146484 64.0428 0.28308 67.3906 2.17536C70.7385 4.06763 73.672 8.00719 75.4187 12.6651L108.695 100H86.9557L54.3473 17.3926L21.7389 100Z" fill="white"/>
<path fill-rule="evenodd" clip-rule="evenodd" d="M115.215 0.000736187H93.4766L127.848 87.3361C129.691 91.994 131.433 95.9336 134.781 97.8259C138.128 99.7181 142.584 99.9998 147.824 99.9998C152.967 99.9998 157.519 99.7181 160.867 97.8259C164.215 95.9336 167.149 91.994 168.895 87.3361L202.171 0.000736187H180.432L147.824 82.6086L115.215 0.000736187Z" fill="white"/>
<path fill-rule="evenodd" clip-rule="evenodd" d="M208.695 99.999H186.956L221.327 12.6636C223.171 8.00572 224.912 4.06617 228.26 2.17389C231.608 0.281615 236.063 0 241.303 0C246.446 0 250.999 0.281615 254.347 2.17389C257.695 4.06617 260.628 8.00572 262.375 12.6636L295.651 99.999H273.912L241.303 17.3911L208.695 99.999Z" fill="white"/>
</svg>
