<svg width="28" height="28" viewBox="0 0 28 28" fill="none" xmlns="http://www.w3.org/2000/svg">
<path d="M22.7513 25.5108L2.58897 5.34849C1.85316 4.61267 1.85316 3.38631 2.58897 2.65049C3.32479 1.91468 4.55115 1.91468 5.28696 2.65049L25.4493 22.8128C26.1851 23.5487 26.1851 24.775 25.4493 25.5108C24.7135 26.2946 23.4871 26.2946 22.7513 25.5108Z" fill="white" stroke="white" stroke-width="2.66667" stroke-miterlimit="10"/>
<path d="M2.58878 22.8128L22.7511 2.65049C23.4869 1.91468 24.7133 1.91468 25.4491 2.65049C26.1849 3.38631 26.1849 4.61267 25.4491 5.34849L5.28678 25.5108C4.55096 26.2466 3.3246 26.2466 2.58878 25.5108C1.80504 24.775 1.80504 23.5487 2.58878 22.8128V22.8128Z" fill="white" stroke="white" stroke-width="2.66667" stroke-miterlimit="10"/>
</svg>
