<svg width="114" height="40" viewBox="0 0 114 40" fill="none" xmlns="http://www.w3.org/2000/svg">
<path d="M73.5062 33.435C73.0411 33.4059 72.6049 33.1442 72.3433 32.7372C71.6164 31.7778 71.4711 30.6439 71.5292 29.4809C71.5292 29.2193 71.5583 28.9576 71.6164 28.5506C71.2966 28.8122 71.1222 28.9576 70.9477 29.103C68.5637 31.2544 66.1505 33.3768 63.563 35.2666C63.0396 35.6446 62.4872 35.9644 61.9348 36.3133C61.3824 36.6622 60.8009 36.575 60.2485 36.2842C58.2424 35.2085 56.9632 32.5628 57.3702 30.2078C57.1376 30.4113 56.9922 30.5276 56.8469 30.6439C55.4513 31.9522 54.0558 33.2605 52.6312 34.5689C52.166 34.9759 51.6717 35.3538 51.1484 35.6737C50.7414 35.9353 50.2471 35.9935 49.811 35.8481C47.8921 35.3538 46.6419 33.4931 46.9036 31.5452C46.9908 30.9055 47.1653 30.2659 47.3106 29.6554C47.3397 29.4809 47.3979 29.3355 47.4851 28.9867L46.8164 29.5681C44.8393 31.3707 42.8914 33.1733 40.9144 34.9468C40.5946 35.2376 40.2166 35.4992 39.8677 35.79C39.577 36.0807 39.1118 36.1098 38.7629 35.8772C38.2977 35.5574 37.8616 35.1794 37.4836 34.7724C36.5242 33.6966 36.2044 32.1848 36.6405 30.7892C37.1638 29.1902 37.8325 27.6783 38.6757 26.2246C38.8792 25.9048 38.9955 25.5559 39.0827 25.2071C38.7338 25.4687 38.3849 25.7304 38.0651 26.0211C35.6811 28.2017 33.297 30.3822 30.942 32.6209C29.6046 33.8711 28.2963 35.1794 26.988 36.4587C26.3774 37.0692 25.8831 37.0983 25.2435 36.5459C24.0515 35.5864 23.4119 34.1037 23.5282 32.5918C23.5863 32.1557 23.7608 31.7196 24.0224 31.3707C25.1854 29.5681 26.4065 27.7656 27.5985 25.963C28.7033 24.3348 29.8081 22.7067 30.9129 21.0786C31.0583 20.875 31.1746 20.6715 31.349 20.3517C31.0874 20.3808 30.9129 20.4099 30.7676 20.4389C28.8196 20.9913 26.9589 21.7182 25.1563 22.5904C25.0109 22.6485 24.8946 22.7358 24.7493 22.7939C24.5167 22.9102 24.255 22.823 24.1387 22.5904C24.1387 22.5613 24.1096 22.5613 24.1096 22.5322C24.0515 22.3869 23.9933 22.2706 23.9643 22.1252C23.7317 21.1658 23.7608 20.1773 24.0806 19.2469C24.1387 18.9271 24.4295 18.6363 24.7783 18.491C25.3017 18.2584 25.825 18.0549 26.3774 17.8804C28.3544 17.2989 30.3605 16.8628 32.4248 16.5721C33.1807 16.4558 33.9366 16.7175 34.46 17.2989C35.245 18.0839 35.6811 19.1306 35.7683 20.2354C35.7683 20.6134 35.6229 20.9623 35.4194 21.253C34.8379 22.0961 34.1692 22.8811 33.5296 23.6661C31.9015 25.7013 30.2442 27.7365 28.587 29.7426C28.4126 29.9461 28.2672 30.2078 28.18 30.4985C28.3835 30.3822 28.558 30.2368 28.7615 30.1205C31.9305 27.8819 35.0996 25.6432 38.2977 23.4335C39.4025 22.6776 40.5946 22.0671 41.7575 21.3693C42.0773 21.1367 42.3681 20.875 42.6588 20.5843C43.3857 19.8865 43.7345 19.8865 44.3742 20.6715C44.7812 21.2239 45.1301 21.8345 45.4208 22.4741C45.7406 23.1719 45.5953 23.7824 45.0138 24.3639C43.124 26.3119 41.554 28.5506 40.391 31.0218C40.2457 31.3126 40.1294 31.6615 40.1294 31.9813C40.3038 31.8941 40.5073 31.8068 40.6818 31.6905C42.2808 30.5857 43.7636 29.3065 45.0719 27.8819C47.6886 25.0035 50.2471 22.0961 52.8347 19.2178C53.7941 18.1421 53.6778 17.8804 55.1606 18.7236C55.5676 18.9271 55.9747 19.1887 56.3526 19.4795C56.905 19.9447 56.9341 20.3517 56.5561 20.9913C55.5386 22.7067 54.521 24.4221 53.5325 26.1374C52.5149 27.8237 51.7008 29.6263 51.0902 31.487C51.0612 31.6324 51.0321 31.7487 50.9449 32.0394C51.2647 31.8068 51.4973 31.6905 51.6717 31.5452C55.2187 28.7831 58.5041 25.7304 61.4987 22.3869C61.8476 21.9798 62.1383 21.5728 62.4291 21.1076C63.2431 19.7702 64.0572 18.4328 64.8713 17.0954C65.0167 16.8628 65.1329 16.6302 65.3074 16.2814C65.1039 16.3104 64.9004 16.3395 64.6968 16.3686C62.1674 17.0373 59.7252 17.9386 57.3411 19.0434C57.2248 19.1015 57.1085 19.1597 56.9922 19.1887C56.5852 19.3341 56.4108 19.2469 56.2654 18.8399C56.1782 18.6654 56.1491 18.4619 56.1491 18.2584C56.1782 17.706 56.2654 17.1826 56.4108 16.6593C56.6143 15.7871 57.283 15.0893 58.1261 14.8858C60.2485 14.3043 62.3709 13.6938 64.5224 13.1123C65.3946 12.8797 66.2668 12.7053 67.139 12.5308C67.4589 12.5017 67.7496 12.2982 67.895 12.0075C68.5637 10.6701 69.2905 9.36176 69.9301 8.02436C70.1337 7.53011 70.25 6.9777 70.3081 6.45437C70.3953 5.84382 70.6279 5.6403 71.2094 5.87289C72.3723 6.33807 73.2736 7.32659 73.5935 8.54769C73.6516 8.83843 73.6225 9.12917 73.5353 9.41991C73.3899 9.88509 73.1573 10.3212 72.9538 10.7864C72.8666 11.019 72.7503 11.2225 72.634 11.5132C73.3027 11.4551 73.8551 11.3679 74.4366 11.3388C75.4833 11.3097 76.5299 11.3388 77.5475 11.426C78.6814 11.5714 79.6699 12.2401 80.2223 13.2577C80.3968 13.5484 80.5712 13.8682 80.3968 14.2462C80.3095 14.2753 80.2223 14.3334 80.1642 14.3043C78.507 13.8973 76.8497 14.0427 75.1925 14.2171C73.8842 14.3625 72.5759 14.5951 71.2675 14.7986C70.8605 14.8277 70.5116 15.0603 70.3372 15.4091C68.1566 19.2469 65.8889 23.0556 63.7374 26.9224C62.8942 28.4052 62.3128 30.0333 61.615 31.6033C61.5278 31.8359 61.4406 32.0976 61.3824 32.3592L61.4987 32.4755C61.7313 32.3302 61.9348 32.2139 62.1674 32.0685C64.755 30.295 67.2263 28.347 69.5813 26.3119C70.9768 25.1198 72.3723 23.9278 73.7679 22.7067C74.1459 22.3869 74.4947 22.0089 74.8146 21.66C75.1925 21.253 75.4251 21.1658 75.9484 21.3693C76.7625 21.6891 77.4894 22.2124 78.0127 22.9102C78.4197 23.4335 78.3616 23.7534 78.0127 24.3348C77.0823 25.8176 76.1229 27.2713 75.2797 28.7831C74.4366 30.2078 73.6516 31.6615 73.5062 33.435Z" fill="white"/>
<path d="M36.3787 5.20423C30.3313 6.0183 24.4293 7.29755 18.382 8.54773C18.5855 8.78032 18.7308 8.92569 18.8762 9.07106C19.2542 9.53625 19.6612 9.97235 20.0101 10.4666C20.3299 10.9027 20.3299 11.4842 20.0392 11.9203C19.3123 13.1705 18.6145 14.4207 17.8586 15.6708C16.3177 18.2875 14.7768 20.9041 13.2068 23.4917C13.0905 23.6952 12.9742 23.9278 12.7998 24.2186C12.9161 24.2476 13.0614 24.2477 13.1777 24.2477C15.7944 23.7534 18.3529 22.9975 20.8242 22.009C21.5219 21.7182 22.2197 21.3693 22.8884 20.9914C23.4408 20.7006 23.6734 20.8169 23.7025 21.4275C23.7025 22.2125 23.528 22.9684 23.1792 23.6662C23.0338 23.9569 22.7721 24.1604 22.4814 24.3058C21.3184 24.8873 20.1555 25.3815 18.9344 25.8467C16.5794 26.6317 14.1662 27.2423 11.6659 27.6493C11.0553 27.7074 10.5611 28.0854 10.3285 28.6378C9.39812 30.673 8.4096 32.6791 7.50831 34.7143C6.83961 36.168 6.5198 37.767 6.5198 39.3661C6.54887 39.9476 6.28721 40.0929 5.70573 39.9476C5.1824 39.8022 4.71721 39.4533 4.3974 39.0172C3.67055 38.145 3.37981 36.982 3.58333 35.8481C3.81592 34.627 4.10666 33.4059 4.45555 32.243C4.74629 31.2254 5.1824 30.2369 5.53128 29.2193C5.61851 28.9867 5.67665 28.7541 5.79295 28.4052C5.50221 28.4343 5.21147 28.4343 4.92073 28.4052C4.3974 28.3761 3.87407 28.2889 3.37981 28.2017C0.559643 27.5039 -0.254427 24.8001 0.0653863 22.8812C0.0653863 22.823 0.0944602 22.794 0.0944602 22.7358C0.23983 22.3578 0.297978 21.8927 0.76316 21.8345C1.22834 21.7764 1.34464 22.2125 1.51908 22.5323C1.8389 23.1719 2.36223 23.7243 3.00185 24.0441C4.33925 24.771 5.82202 24.9745 7.36294 24.9163C9.65978 19.7703 12.2183 14.7405 14.5442 9.44902C13.1487 9.73976 11.8985 10.0014 10.6774 10.2631C9.0783 10.5829 7.50831 10.9027 5.90924 11.1644C4.45555 11.4551 3.00185 10.7573 2.36223 9.41995C1.31557 7.3557 1.57723 5.26238 3.29259 3.60517C3.58333 3.31443 3.93222 2.93647 4.36833 3.11091C4.80444 3.28535 4.68814 3.77961 4.71721 4.15757C4.74629 4.73905 4.71721 5.3496 4.71721 5.98923C5.0661 6.0183 5.35684 6.04738 5.64758 6.04738C8.06072 6.07645 10.4739 5.90201 12.8579 5.52404C19.4868 4.53553 25.9993 3.05276 32.541 1.65721C34.9541 1.13388 37.3672 0.6687 39.7804 0.174444C40.2165 0.0872218 40.6526 0.0290739 41.0887 0C41.3213 0 41.5248 0.0872218 41.6992 0.232591C42.7168 1.07574 43.5018 2.09332 43.7635 3.43072C43.9379 4.30294 43.6763 4.94257 42.8913 5.40775C42.4261 5.66941 41.9318 5.93108 41.4085 6.1346C39.7513 6.86145 38.0069 7.41385 36.2043 7.73366C35.7972 7.79181 35.3611 7.79181 34.9541 7.73366C34.3435 7.61737 34.2272 7.23941 34.6634 6.77422C35.0995 6.30904 35.5646 5.93108 36.0298 5.49497C36.1752 5.40775 36.2624 5.29145 36.3787 5.20423Z" fill="white"/>
<path d="M104.034 20.1486C105.197 19.3926 106.883 20.8463 106.854 22.0965C106.825 22.8234 106.738 23.5211 106.65 24.248C106.592 24.7422 106.447 25.2074 106.331 25.7017C107.028 25.6435 107.959 25.1784 109.907 23.8119C111.012 23.056 112.058 22.2128 113.163 21.3697C113.541 21.515 113.686 21.8639 113.744 22.271C113.861 22.9978 113.57 23.7537 113.018 24.2189C111.913 25.1493 110.837 26.1087 109.703 26.9809C108.104 28.173 106.476 29.3069 104.557 29.9465C104.295 30.0918 104.092 30.2954 103.947 30.528C103.045 31.9526 101.911 33.2318 100.632 34.3366C99.9925 34.8309 99.3529 35.267 98.6551 35.645C98.0446 35.9648 97.3177 35.9648 96.7072 35.6159C94.9046 34.7437 94.0324 33.2609 93.8579 31.2839C93.8289 31.0513 93.8289 30.8478 93.8289 30.6152C93.8289 30.5861 93.7998 30.5861 93.7126 30.528L93.1602 30.935C91.4157 32.1852 89.6713 33.4935 87.8687 34.7146C87.0837 35.2089 86.2696 35.6159 85.3974 35.9357C84.1763 36.43 83.0715 36.1974 82.0539 35.3833C79.9606 33.6679 79.3791 31.4583 80.0187 28.8998C80.513 26.8937 81.4724 25.0911 82.6354 23.4048C83.9728 21.4278 85.6591 19.6834 87.607 18.3169C88.6246 17.561 89.8457 17.0958 91.0959 16.9504C91.9972 16.8632 92.6659 17.183 93.0439 17.9971C93.3927 18.753 93.7416 19.538 94.0324 20.323C94.2359 20.9336 94.2068 21.6313 93.9161 22.2128C93.1311 24.0154 91.5902 25.3819 89.7004 25.9634C88.7991 26.2541 87.8396 26.1087 87.0546 25.5854C86.822 25.44 86.5604 25.2656 86.5894 24.8876C89.0898 24.248 90.3981 22.2419 91.8228 20.3521C91.8518 20.2939 91.8518 20.2067 91.8809 20.0613C91.5902 20.2067 91.3576 20.323 91.125 20.4684C88.0431 22.3582 85.3974 24.8876 83.4204 27.9113C82.7226 28.8998 82.2865 30.0337 82.1411 31.2257C82.1121 31.7781 82.1411 32.3015 82.1702 32.8539C82.5191 32.8248 82.7517 32.8248 82.9843 32.7666C84.5543 32.4468 86.037 31.8654 87.4035 31.0513C89.7585 29.7139 91.8809 27.9985 94.0033 26.3122C94.0905 26.2541 94.1487 26.1959 94.2359 26.1378C95.3407 25.3528 96.3001 24.3352 96.9979 23.1723C98.0155 21.486 99.2948 19.9741 100.778 18.6949C101.359 18.1715 102.028 17.7354 102.755 17.3865C104.005 16.8341 105.604 17.7354 105.982 19.1601C105.749 19.2473 105.517 19.3636 105.284 19.4508C104.848 19.6252 104.325 19.7125 104.034 20.1486C103.394 20.2649 103.045 20.7591 102.609 21.108C101.097 22.3582 100.138 24.0735 99.0331 25.6726C97.9864 27.2426 97.2014 28.987 96.7653 30.8187C96.649 31.313 96.5618 31.8363 96.4746 32.3305C96.62 32.3305 96.6781 32.3596 96.7072 32.3305C98.1027 31.313 99.4111 30.1209 100.574 28.8417C100.661 28.6963 100.69 28.5219 100.661 28.3765C100.283 26.7193 100.661 25.1784 101.301 23.6665C101.911 22.3291 102.842 21.108 104.034 20.1486Z" fill="white"/>
<path d="M80.2225 17.2121C80.1062 17.939 79.9899 18.6658 79.8736 19.3927C79.8155 19.6252 79.7282 19.8578 79.5829 20.0614C79.4084 20.4393 78.9432 20.6138 78.5653 20.4102C78.5071 20.3812 78.449 20.3521 78.3908 20.2939C78.1582 20.1486 77.9838 19.9451 77.8094 19.7415C77.1116 18.8693 76.5883 17.8517 76.3266 16.776C76.0359 15.6421 76.5883 14.9153 77.7221 14.8862H77.8094C79.4956 14.8571 80.1643 15.4968 80.2225 17.2121Z" fill="white"/>
</svg>
