<svg width="120" height="40" viewBox="0 0 120 40" fill="none" xmlns="http://www.w3.org/2000/svg">
<path d="M3.07692 0H36.9231C38.6325 0 40 1.36752 40 3.07692V36.9231C40 38.6325 38.6325 40 36.9231 40H3.07692C1.36752 40 0 38.6325 0 36.9231V3.19088C0 1.48148 1.36752 0 3.07692 0Z" fill="#CA3637"/>
<path d="M12.7637 13.6756C12.7637 13.4476 12.9916 13.2197 13.2195 13.2197H15.7266C15.9546 13.2197 16.1825 13.4476 16.1825 13.6756V27.8066C16.1825 28.0345 15.9546 28.2625 15.7266 28.2625H13.2195C12.9916 28.2625 12.7637 28.0345 12.7637 27.8066V13.6756Z" fill="white"/>
<path d="M21.6529 16.4101H18.576C18.348 16.4101 18.1201 16.1822 18.1201 15.9543V13.6751C18.1201 13.4472 18.2341 13.2192 18.576 13.2192H28.0347C28.2626 13.2192 28.4905 13.4472 28.4905 13.6751V15.9543C28.4905 16.1822 28.3765 16.4101 28.0347 16.4101H24.9577V27.8061C24.9577 28.0341 24.7298 28.262 24.5019 28.262H21.9948C21.7668 28.262 21.5389 28.0341 21.5389 27.8061L21.6529 16.4101Z" fill="white"/>
<path d="M49.0029 15.0186C49.0029 14.9047 49.1169 14.6768 49.3448 14.6768H51.2821C51.3961 14.6768 51.624 14.7907 51.624 15.0186V25.9588C51.624 26.0728 51.5101 26.3007 51.2821 26.3007H49.3448C49.2309 26.3007 49.0029 26.1867 49.0029 25.9588V15.0186Z" fill="white"/>
<path d="M54.3594 14.9054C54.3594 14.7914 54.4733 14.5635 54.7013 14.5635H55.1571L61.7668 20.9452V15.1333C61.7668 15.0193 61.8807 14.7914 62.1087 14.7914H64.046C64.1599 14.7914 64.3879 14.9054 64.3879 15.1333V26.1874C64.3879 26.3014 64.2739 26.5293 64.046 26.5293H63.8181C63.8181 26.5293 63.5901 26.5293 63.5901 26.4153L57.0944 19.9196V26.0735C57.0944 26.1874 56.9805 26.4153 56.7525 26.4153H54.8152C54.7013 26.4153 54.4733 26.3014 54.4733 26.0735L54.3594 14.9054Z" fill="white"/>
<path d="M66.5524 24.7056L67.3501 23.3381C67.4641 23.1102 67.806 23.1102 67.9199 23.2241C68.0339 23.2241 69.1735 24.1358 70.3131 24.1358C70.9968 24.1358 71.4527 23.68 71.4527 23.1102C71.4527 22.4264 70.8829 21.8566 69.7433 21.4008C68.3758 20.831 66.5524 19.6914 66.5524 17.7541C66.5524 16.1586 67.806 14.4492 70.3131 14.4492C72.0225 14.4492 73.39 15.3609 73.8458 15.7028C74.0738 15.8167 73.9598 16.1586 73.9598 16.2726L73.1621 17.5261C73.0481 17.7541 72.7062 17.868 72.5923 17.7541C72.4783 17.6401 71.2248 16.7284 70.1991 16.7284C69.6293 16.7284 69.1735 17.0703 69.1735 17.5261C69.1735 18.0959 69.6293 18.5518 70.9968 19.1216C72.2504 19.5774 74.3017 20.6031 74.3017 22.8823C74.3017 24.5917 72.8202 26.3011 70.427 26.3011C68.2618 26.3011 67.1222 25.3894 66.6664 25.0475C66.4384 25.0475 66.4384 24.9335 66.5524 24.7056Z" fill="white"/>
<path d="M76.2393 15.0186C76.2393 14.9047 76.3532 14.6768 76.5811 14.6768H78.5185C78.6324 14.6768 78.8603 14.7907 78.8603 15.0186V25.9588C78.8603 26.0728 78.7464 26.3007 78.5185 26.3007H76.5811C76.4672 26.3007 76.2393 26.1867 76.2393 25.9588V15.0186Z" fill="white"/>
<path d="M81.709 15.0186C81.709 14.9047 81.8229 14.6768 82.0509 14.6768H86.0395C89.2303 14.6768 91.8514 17.2978 91.8514 20.4887C91.8514 23.6796 89.2303 26.3007 86.0395 26.3007H82.0509C81.9369 26.3007 81.709 26.1867 81.709 25.9588V15.0186ZM85.8115 23.9075C87.6349 23.9075 89.0024 22.426 89.0024 20.6027C89.0024 18.7793 87.6349 17.2978 85.8115 17.2978H84.2161V23.9075H85.8115Z" fill="white"/>
<path d="M93.7891 15.0186C93.7891 14.9047 93.903 14.6768 94.1309 14.6768H100.969C101.196 14.6768 101.31 14.7907 101.31 15.0186V16.842C101.31 16.956 101.196 17.1839 100.969 17.1839H96.4101V19.2352H100.171C100.285 19.2352 100.513 19.3491 100.513 19.577V21.4004C100.513 21.6283 100.399 21.7423 100.171 21.7423H96.4101V24.0215H100.969C101.196 24.0215 101.31 24.1355 101.31 24.3634V26.1867C101.31 26.3007 101.196 26.5286 100.969 26.5286H94.1309C93.903 26.5286 93.7891 26.4147 93.7891 26.1867V15.0186Z" fill="white"/>
<path d="M107.123 15.0186C107.123 14.9047 107.237 14.6768 107.465 14.6768H109.402C109.516 14.6768 109.744 14.7907 109.744 15.0186V25.9588C109.744 26.0728 109.63 26.3007 109.402 26.3007H107.465C107.351 26.3007 107.123 26.1867 107.123 25.9588V15.0186Z" fill="white"/>
<path d="M114.074 17.1839H111.681C111.453 17.1839 111.339 17.0699 111.339 16.842V15.0186C111.339 14.9047 111.453 14.6768 111.681 14.6768H118.974C119.202 14.6768 119.316 14.7907 119.316 15.0186V16.842C119.316 16.956 119.202 17.1839 118.974 17.1839H116.581V25.9588C116.581 26.0728 116.467 26.3007 116.239 26.3007H114.302C114.188 26.3007 113.96 26.1867 113.96 25.9588V17.1839H114.074Z" fill="white"/>
</svg>
