<svg width="186" height="20" viewBox="0 0 186 20" fill="none" xmlns="http://www.w3.org/2000/svg">
<path d="M106.331 0V19.9245H103.575L103.571 0H106.331ZM109.842 20L113.423 0.0742278L119.264 14.4782L125.313 0.0742278L128.531 20H125.898L124.256 8.81298L119.22 20L114.327 8.8004L112.498 20H109.842ZM134.541 9.13632H135.575C138.113 9.13632 139.383 8.07196 139.383 5.94326C139.383 3.88375 138.073 2.85337 135.455 2.85337H134.541V9.13632ZM134.541 11.9293V20H131.776V0.0742278H134.909C136.444 0.0742278 137.603 0.191231 138.387 0.423979C139.177 0.656728 139.874 1.0958 140.475 1.74247C141.528 2.86218 142.053 4.27628 142.053 5.98226C142.053 7.80902 141.491 9.25709 140.368 10.3252C139.244 11.3946 137.729 11.928 135.823 11.928H134.541V11.9293ZM152.061 12.8087L149.503 6.42385L146.824 12.8087H152.061ZM153.121 15.4721H145.742L143.821 20H141.018L149.55 0.0742278L157.779 20H154.931L153.121 15.4721ZM171.326 1.47575V4.89778C169.793 3.50129 168.207 2.80304 166.567 2.80304C164.761 2.80304 163.24 3.50884 162.003 4.92294C160.758 6.32824 160.135 8.04806 160.135 10.0811C160.135 12.0891 160.758 13.7837 162.003 15.1639C163.248 16.5453 164.773 17.236 166.578 17.236C167.512 17.236 168.305 17.0699 168.958 16.739C169.323 16.5755 169.7 16.3515 170.091 16.0697C170.481 15.7891 170.893 15.4507 171.326 15.0532V18.5381C169.808 19.4716 168.214 20 166.544 20C164.033 20 161.889 18.9835 160.113 17.0749C158.345 15.1488 157.461 12.8251 157.461 10.1051C157.461 7.66686 158.201 5.49286 159.68 3.58307C161.501 1.24552 163.858 0.0754859 166.75 0.0754859C168.328 0.0754859 169.854 0.543499 171.326 1.47701V1.47575ZM181.52 2.90118V19.9987H178.761V2.90243H174.554V0.0742278H185.714V2.90118H181.52Z" fill="white"/>
<path d="M50.6955 12.1915C50.4771 12.8398 50.131 13.4378 49.6776 13.9502C49.231 14.4409 48.6875 14.8308 48.0421 15.1139C47.3954 15.3932 46.6619 15.5353 45.8403 15.5353H44.747V4.38557H45.839C46.6443 4.38557 47.3702 4.52772 48.0156 4.807C48.6383 5.07327 49.1965 5.4701 49.6525 5.97066C50.0954 6.46129 50.4401 7.05507 50.6816 7.74068C50.9245 8.4263 51.044 9.16978 51.044 9.95856C51.044 10.7712 50.927 11.5135 50.6955 12.1915ZM55.3104 6.17069C54.8649 5.00545 54.2113 3.93085 53.3816 2.99924C52.5752 2.09866 51.6052 1.35929 50.5231 0.820365C49.4386 0.27389 48.2399 -0.00723179 47.0255 0.000141377L40 0V19.9207H47.0267C48.2836 19.9207 49.46 19.644 50.5483 19.1005C51.632 18.5577 52.6022 17.8131 53.4068 16.9066C54.4989 15.68 55.2751 14.1918 55.7281 12.4419C55.7998 12.1651 55.8551 11.8808 55.8941 11.5965C56.1584 9.67299 55.9659 7.86019 55.3104 6.17069ZM69.5299 4.46105V0.074364H59.1402V19.9987H69.5299V15.6121H63.8834V12.1764H69.2141V7.78975H63.8834V4.46105H69.5299ZM83.333 4.46105V0.074364H72.9433V19.9987H83.333V15.6121H77.6902V12.1764H83.0172V7.78975H77.6902V4.46105H83.333ZM93.1126 9.23017H91.5336V4.27109H93.1138C94.8614 4.27109 95.7383 5.0976 95.7383 6.75063C95.7383 8.40743 94.8614 9.22891 93.1138 9.22891L93.1126 9.23017ZM99.0774 1.84187C97.9816 0.683241 96.4064 0.100782 94.3493 0.100782H86.7728V20H91.5323V13.4005H94.3493C96.4064 13.4005 97.9803 12.8218 99.0762 11.6594C100.168 10.497 100.714 8.86283 100.714 6.75063C100.714 4.63843 100.168 3.00553 99.0762 1.84187H99.0774Z" fill="#F16521"/>
<path d="M2.71775 17.2348V2.76515H8.37662V0H0L0.00372294 17.2348H0L0.00372294 17.9861V19.9962H0.0136508V20H8.37662V17.2348H2.71775ZM27.9965 17.2348V2.76515H22.3377V0H30.7143L30.7106 17.2348H30.7143L30.7106 17.9861V19.9962H30.7006V20H22.3377V17.2348H27.9965Z" fill="white"/>
<path d="M12.8574 15H17.8574V20H12.8574V15ZM12.8574 0H17.8574V12.8571H12.8574V0Z" fill="#F16521"/>
</svg>
