<svg width="138" height="40" viewBox="0 0 138 40" fill="none" xmlns="http://www.w3.org/2000/svg">
<path d="M3.125 0H36.875C38.625 0 40 1.375 40 3.125V36.875C40 38.625 38.625 40 36.875 40H3.125C1.375 40 0 38.625 0 36.875V3.125C0 1.4375 1.375 0 3.125 0Z" fill="#73C8E1"/>
<path d="M50.063 14.3748C50.063 14.2498 50.2505 14.1248 50.3755 14.1248H50.6255C50.688 14.1248 50.8755 14.1873 50.8755 14.3123L54.688 21.4373H54.7505L58.563 14.3123C58.6255 14.1873 58.7505 14.1248 58.813 14.1248H59.063C59.188 14.1248 59.313 14.2498 59.3755 14.3748L61.2505 25.4373C61.313 25.6248 61.1255 25.8123 60.938 25.8123H59.0005C58.8755 25.8123 58.688 25.6873 58.688 25.5623L57.938 20.4998H57.8755L55.1255 25.8123C55.063 25.9373 54.938 25.9998 54.8755 25.9998H54.563C54.438 25.9998 54.313 25.9373 54.313 25.8123L51.5005 20.4998H51.438L50.688 25.5623C50.688 25.6873 50.563 25.8123 50.3755 25.8123H48.438C48.2505 25.8123 48.063 25.6873 48.1255 25.4373L50.063 14.3748Z" fill="white"/>
<path d="M63.376 14.5623C63.376 14.3748 63.501 14.2498 63.6885 14.2498H70.501C70.6885 14.2498 70.8135 14.3748 70.8135 14.5623V16.3748C70.8135 16.5623 70.6885 16.6873 70.501 16.6873H65.9385V18.7498H69.6885C69.876 18.7498 70.001 18.8748 70.001 19.0623V20.8748C70.001 21.0623 69.876 21.1873 69.6885 21.1873H65.9385V23.4373H70.501C70.6885 23.4373 70.8135 23.5623 70.8135 23.7498V25.5623C70.8135 25.7498 70.6885 25.8748 70.501 25.8748H63.6885C63.501 25.8748 63.376 25.7498 63.376 25.5623V14.5623Z" fill="white"/>
<path d="M73.0635 14.5623C73.0635 14.3748 73.1885 14.2498 73.376 14.2498H77.376C80.5635 14.2498 83.1885 16.8123 83.1885 19.9998C83.1885 23.1873 80.5635 25.8123 77.376 25.8123H73.376C73.1885 25.8123 73.0635 25.6873 73.0635 25.4998V14.5623ZM77.1885 23.3748C79.0635 23.3748 80.376 21.9373 80.376 19.9998C80.376 18.1248 79.001 16.6873 77.1885 16.6873H75.626V23.3748H77.1885Z" fill="white"/>
<path d="M85.125 14.5623C85.125 14.3748 85.25 14.2498 85.4375 14.2498H87.4375C87.625 14.2498 87.75 14.3748 87.75 14.5623V25.4998C87.75 25.6873 87.625 25.8123 87.4375 25.8123H85.4375C85.25 25.8123 85.125 25.6873 85.125 25.4998V14.5623Z" fill="white"/>
<path d="M90.5635 14.3748C90.5635 14.1873 90.6885 14.0623 90.876 14.0623H91.3135L97.876 20.3748V14.4998C97.876 14.3123 98.001 14.1873 98.1885 14.1873H100.188C100.376 14.1873 100.501 14.3123 100.501 14.4998V25.5623C100.501 25.7498 100.376 25.8748 100.188 25.8748H99.9385C99.876 25.8748 99.751 25.8123 99.751 25.8123L93.1885 19.3123V25.4373C93.1885 25.6248 93.0635 25.7498 92.876 25.7498H90.9385C90.751 25.7498 90.626 25.6248 90.626 25.4373L90.5635 14.3748Z" fill="white"/>
<path d="M102.688 24.2498L103.438 22.8748C103.563 22.6873 103.876 22.6873 104.001 22.7498C104.063 22.8123 105.251 23.6873 106.313 23.6873C107.001 23.6873 107.438 23.2498 107.438 22.6873C107.438 21.9998 106.876 21.4373 105.751 20.9998C104.313 20.4373 102.563 19.3123 102.563 17.3748C102.563 15.7498 103.813 14.1248 106.376 14.1248C108.063 14.1248 109.438 14.9998 109.876 15.3748C110.063 15.4998 110.063 15.8123 110.001 15.8748L109.188 17.1248C109.063 17.3123 108.751 17.4373 108.626 17.3123C108.501 17.2498 107.251 16.3123 106.251 16.3123C105.688 16.3123 105.188 16.6873 105.188 17.1248C105.188 17.7498 105.688 18.1873 107.001 18.7498C108.313 19.2498 110.313 20.2498 110.313 22.4998C110.313 24.1873 108.876 25.9373 106.438 25.9373C104.313 25.9373 103.126 25.0623 102.751 24.6873C102.563 24.4998 102.501 24.4373 102.688 24.2498Z" fill="white"/>
<path d="M112.376 14.5623C112.376 14.3748 112.501 14.2498 112.688 14.2498H114.688C114.876 14.2498 115.001 14.3748 115.001 14.5623V25.4998C115.001 25.6873 114.876 25.8123 114.688 25.8123H112.688C112.501 25.8123 112.376 25.6873 112.376 25.4998V14.5623Z" fill="white"/>
<path d="M117.813 14.5623C117.813 14.3748 117.938 14.2498 118.126 14.2498H122.126C125.313 14.2498 127.938 16.8123 127.938 19.9998C127.938 23.1873 125.313 25.8123 122.126 25.8123H118.126C117.938 25.8123 117.813 25.6873 117.813 25.4998V14.5623ZM121.938 23.3748C123.813 23.3748 125.126 21.9373 125.126 19.9998C125.126 18.1248 123.751 16.6873 121.938 16.6873H120.376V23.3748H121.938Z" fill="white"/>
<path d="M129.875 14.5623C129.875 14.3748 130 14.2498 130.188 14.2498H137C137.188 14.2498 137.313 14.3748 137.313 14.5623V16.3748C137.313 16.5623 137.188 16.6873 137 16.6873H132.438V18.7498H136.188C136.375 18.7498 136.5 18.8748 136.5 19.0623V20.8748C136.5 21.0623 136.375 21.1873 136.188 21.1873H132.438V23.4373H137C137.188 23.4373 137.313 23.5623 137.313 23.7498V25.5623C137.313 25.7498 137.188 25.8748 137 25.8748H130.188C130 25.8748 129.875 25.7498 129.875 25.5623V14.5623Z" fill="white"/>
<path d="M14.1879 13.4375C14.1879 13.25 14.3754 13.125 14.5629 13.125H14.8754C15.0004 13.125 15.1879 13.1875 15.2504 13.3125L20.1879 22.5H20.2504L25.1879 13.3125C25.2504 13.1875 25.4379 13.125 25.5629 13.125H25.8754C26.0629 13.125 26.2504 13.25 26.2504 13.4375L28.6254 27.6875C28.6879 27.9375 28.5004 28.125 28.2504 28.125H25.7504C25.5629 28.125 25.3754 27.9375 25.3754 27.8125L24.4379 21.25H24.3754L20.8129 28.125C20.7504 28.25 20.5629 28.375 20.4379 28.375H20.0629C19.9379 28.375 19.7504 28.25 19.6879 28.125L16.1254 21.25H16.0629L15.1254 27.8125C15.1254 28 14.9379 28.125 14.7504 28.125H12.2504C12.0004 28.125 11.8129 27.9375 11.8754 27.6875L14.1879 13.4375Z" fill="white"/>
</svg>
