<svg width="179" height="282" viewBox="0 0 179 282" fill="none" xmlns="http://www.w3.org/2000/svg">
<path d="M176.503 93.0167C176.503 93.0167 169.503 100.435 168.765 103.395C168.027 106.355 169.521 126.903 170.525 131.794C171.528 136.686 174.175 141.721 174.175 151.903C174.175 162.086 175.306 185.846 175.306 188.436C175.306 191.027 178.464 211.245 177.727 213.327C177.352 214.388 174.838 216.807 172.481 217.446C170.213 218.061 168.097 216.927 167.84 216.409C167.317 215.355 165.837 214.342 165.281 211.926C164.725 209.51 159.078 189.254 158.309 184.932C157.54 180.611 155.586 164.107 155.586 164.107C155.586 164.107 155.106 167.411 154.967 170.29C154.73 175.229 154.191 177.482 154.231 177.962C154.325 179.101 155.586 183.076 155.586 190.176C155.586 195.202 154.691 200.596 154.657 203.35C154.643 204.487 153.945 205.524 153.786 205.869C153.239 207.053 155.304 214.236 153.786 215.841C152.267 217.446 149.688 215.346 147.002 217.446C144.315 219.546 141.234 222.336 138.351 221.784C135.467 221.231 135.071 217.616 138.16 214.771C141.248 211.926 147.002 208.29 147.002 207.234C147.002 206.178 145.464 205.529 145.464 203.35C145.464 201.172 142.392 182.812 142.392 175.363C142.392 167.913 140.764 127.775 140.86 123.419C140.955 119.062 142.392 110.355 142.392 106.97C142.392 103.586 141.798 100.608 141.798 100.608C141.798 100.608 139.677 111.319 138.504 113.635C137.331 115.951 127.865 127.503 127.865 127.503L123.591 124.478C123.591 124.478 130.706 109.397 131.171 108.189C131.637 106.981 138.226 81.5239 141.051 80.2631C144.312 78.8072 149.726 77.7731 160.76 82.5366C172.101 87.4325 176.503 93.0167 176.503 93.0167Z" fill="#380085"/>
<path d="M143.436 136.467L141.203 136.804L142.125 164.241C142.269 168.877 142.372 172.687 142.39 174.786L142.392 175.363C142.392 182.812 145.465 201.172 145.465 203.351C145.465 205.529 147.002 206.178 147.002 207.234C147.002 207.527 146.559 208.019 145.853 208.637L147.348 208.638L146.217 194.074C145.564 185.873 145.142 181.095 144.952 179.739L144.885 179.319C144.701 177.874 144.382 169.426 143.928 153.976L143.436 136.467Z" fill="black" fill-opacity="0.275213"/>
<path d="M154.831 154.929L152.828 175.955L156.502 192.242L156.49 191.661L156.486 191.076C156.486 183.976 154.326 179.101 154.232 177.962L154.23 177.874C154.245 177.278 154.691 175.216 154.929 171.029L154.968 170.29C155.06 168.37 155.266 166.309 155.586 164.107L156.444 171.228C157.276 177.999 157.888 182.513 158.281 184.771L158.309 184.932C159.078 189.254 164.726 209.51 165.282 211.926C165.837 214.342 167.318 215.355 167.841 216.409C167.91 216.548 167.951 216.744 167.973 216.984C168.191 215.457 168.09 213.603 167.671 211.422C166.047 202.982 160.736 188.599 159.902 177.914L159.856 177.251C159.418 170.087 157.743 162.646 154.831 154.929Z" fill="black" fill-opacity="0.275213"/>
<path d="M141.09 96.4961L140.825 97.7081C139.136 105.265 137.27 110.559 135.227 113.589L131.655 118.92C130.175 121.137 128.478 123.69 126.562 126.579L127.866 127.503L130.694 124.029C135.244 118.396 137.848 114.931 138.504 113.635C139.266 112.131 140.328 107.972 141.689 101.158L141.61 100.381C141.497 99.3577 141.324 98.0625 141.09 96.4961Z" fill="black" fill-opacity="0.275213"/>
<path d="M168.708 109.976L166.811 102.889L166.573 103.924C164.707 111.899 162.79 116.757 160.823 118.496L160.508 118.765C156.729 121.912 140.6 133.036 144.39 136.973C146.83 139.508 155.885 138.427 171.555 133.731C171.401 132.876 171.246 132.071 171.095 131.311L170.765 129.681C170.081 126.344 169.056 116.706 168.708 109.976Z" fill="black" fill-opacity="0.275213"/>
<path d="M123.62 124.419L123.591 124.478C121.144 124.575 119.797 124.963 119.551 125.64L119.526 125.723C119.28 126.816 116.536 130.032 117.331 130.032C117.835 130.032 118.808 129.412 120.251 128.174L120.482 127.973L117.442 133.817L117.205 134.819C116.855 136.343 116.738 137.135 116.855 137.195C117.019 137.278 117.587 136.479 118.559 134.795L118.688 134.571L120.688 131.902L120.357 132.89C119.138 136.578 118.709 138.421 119.072 138.421C119.465 138.421 120.485 136.505 122.133 132.672L121.844 134.001C121.118 137.447 120.931 139.17 121.283 139.17C121.679 139.17 122.448 137.359 123.591 133.738L123.488 134.709C123.192 137.683 123.226 139.17 123.591 139.17C124.177 139.17 124.354 135.993 125.357 133.928L125.453 133.738C126.179 132.369 126.983 130.291 127.865 127.503L128.066 127.258C127.331 126.297 126.635 125.604 125.979 125.18C125.469 124.849 124.683 124.595 123.62 124.419Z" fill="#FFAF8A"/>
<path d="M122.133 130.285C122.449 131.194 123.383 132.76 124.934 134.985C125.082 134.544 125.252 134.118 125.453 133.738C126.179 132.369 126.983 130.291 127.865 127.503L128.066 127.258C127.331 126.297 126.635 125.604 125.979 125.179C125.862 125.104 125.731 125.032 125.585 124.964C122.954 127.569 121.804 129.343 122.133 130.285Z" fill="black" fill-opacity="0.175153"/>
<path d="M172.692 217.071C171.834 217.388 170.493 217.402 168.669 217.113C168.734 217.212 168.791 217.31 168.841 217.409C169.345 218.428 168.388 222.49 168.792 224.718L168.841 224.95C169.363 227.116 168.841 230.67 168.841 235.363C168.841 240.056 174.306 239.31 176.728 237.278C179.15 235.247 178.503 224.853 177.947 222.784L177.396 220.798C176.837 218.734 176.243 216.135 176.656 214.56L176.075 214.983C174.483 216.13 173.356 216.826 172.692 217.071Z" fill="#733DFF"/>
<path d="M168.669 217.113C168.734 217.212 168.791 217.31 168.84 217.409C169.345 218.428 168.388 222.49 168.792 224.718L168.84 224.95C169.363 227.116 168.84 230.67 168.84 235.363C168.84 236.242 169.032 236.93 169.36 237.455L169.545 236.303C170.404 230.833 170.718 226.78 170.486 224.142C170.257 221.544 169.887 219.234 169.375 217.212C169.148 217.185 168.913 217.152 168.669 217.113Z" fill="black" fill-opacity="0.275213"/>
<path d="M149.944 207.146C149.029 207.264 148.039 207.211 146.973 206.986C146.992 207.067 147.002 207.149 147.002 207.234C147.002 208.29 141.249 211.926 138.16 214.771C135.072 217.617 135.467 221.232 138.351 221.784C141.235 222.336 144.316 219.546 147.002 217.446C149.688 215.346 152.268 217.446 153.786 215.841C155.242 214.302 153.403 207.631 153.732 206.044C152.48 206.615 151.217 206.981 149.944 207.146Z" fill="#733DFF"/>
<path d="M146.973 206.986C146.992 207.066 147.002 207.149 147.002 207.234C147.002 208.29 141.248 211.926 138.16 214.771C137.031 215.811 136.368 216.953 136.121 218.011L136.109 218.069L140.353 215.075C144.417 212.192 146.749 210.48 147.347 209.94C148.066 209.291 148.222 208.354 147.814 207.13C147.539 207.094 147.259 207.046 146.973 206.986Z" fill="black" fill-opacity="0.275213"/>
<path d="M143.612 115.837L141.737 114.191L141.44 116.725C141.31 117.851 141.188 118.96 141.089 119.999L143.279 121.118C143.486 121.223 143.714 121.278 143.946 121.278C144.756 121.278 145.412 120.622 145.412 119.812C145.412 118.379 144.831 117.012 143.809 116.019L143.612 115.837Z" fill="#733DFF"/>
<path d="M145.994 79.0438C144.64 81.8586 144.467 82.7133 144.467 83.1911C144.467 84.311 148.028 86.6981 148.537 86.0974C148.777 85.8149 151.741 80.558 152.419 79.7747C150.138 79.2067 147.867 78.9143 145.994 79.0438Z" fill="#733DFF"/>
<path d="M166.462 85.3839L165.318 84.7341L164.731 85.534C164.124 86.3723 163.666 87.0426 163.358 87.5448L163.271 87.6904C161.339 90.9481 161.723 91.1751 161.723 91.6944C161.723 92.8143 165.862 95.2013 166.455 94.6006L166.493 94.5573C166.698 94.2886 166.434 93.946 168.605 91.0439C169.08 90.4086 169.978 89.4658 171.299 88.2153C169.759 87.2838 168.087 86.3126 166.462 85.3839Z" fill="#733DFF"/>
<path d="M151.907 130.285L151.43 130.273L152.037 105.997L152.311 106.047C155.263 106.58 157.408 105.999 158.783 104.315C160.193 102.589 162.397 97.6892 163.584 93.2222L164.045 93.3447C162.842 97.8717 160.615 102.827 159.153 104.617C157.701 106.395 155.472 107.04 152.5 106.563L151.907 130.285Z" fill="#733DFF"/>
<path d="M146.796 84.8312C146.046 91.7748 146.046 96.5748 146.788 99.2124C147.524 101.827 149.39 104.117 152.399 106.082L152.139 106.481C149.039 104.457 147.098 102.077 146.329 99.3415C145.566 96.6284 145.566 91.7809 146.321 84.78L146.796 84.8312Z" fill="#733DFF"/>
<path d="M160.761 82.5366C153.847 79.552 149.14 78.8434 145.786 79.0884C144.364 80.0418 143.436 81.2353 143.436 82.5366C143.436 85.6979 148.91 88.2979 153.652 88.2979C158.092 88.2979 161.745 86.0513 162.192 83.1702C161.725 82.9578 161.248 82.7467 160.761 82.5366Z" fill="black" fill-opacity="0.275213"/>
<path d="M168.257 126.134C168.257 126.134 158.095 130.711 151.668 128.771C145.24 126.831 140.86 122.774 140.86 122.774V126.134C140.86 126.134 145.59 130.36 151.668 132.241C157.746 134.122 168.706 128.867 168.706 128.867L168.257 126.134Z" fill="#733DFF"/>
<path d="M131.233 152.602C132.935 152.054 134.104 150.627 134.051 149.331C133.99 147.864 132.401 146.576 128.984 146.035C125.34 145.457 122.482 145.923 120.505 147.139C119.048 148.035 118.23 149.286 118.23 150.159C118.23 150.818 117.696 151.352 117.037 151.352C116.379 151.352 115.845 150.818 115.845 150.159C115.845 145.915 121.504 142.435 129.357 143.679C133.778 144.379 136.319 146.439 136.434 149.233C136.534 151.682 134.623 154.016 131.964 154.872C131.337 155.074 130.665 154.729 130.463 154.102C130.262 153.475 130.606 152.803 131.233 152.602Z" fill="#5C66C0"/>
<path d="M111.5 138.216C111.5 146.897 118.537 153.934 127.218 153.934C135.898 153.934 142.936 146.897 142.936 138.216C142.936 129.535 135.898 122.498 127.218 122.498C118.537 122.498 111.5 129.535 111.5 138.216Z" fill="#9286FF" fill-opacity="0.193018" stroke="#ECEAFE"/>
<path opacity="0.504464" fill-rule="evenodd" clip-rule="evenodd" d="M133.683 130.96C132.754 129.681 132.692 128.142 133.544 127.523C134.397 126.903 135.841 127.438 136.77 128.717C137.699 129.995 137.761 131.534 136.909 132.153C136.056 132.773 134.612 132.238 133.683 130.96Z" fill="white"/>
<path d="M145.115 134.726C145.115 134.726 140.236 133.797 139.336 133.797C138.436 133.797 133.205 132.868 133.205 133.797C133.205 134.726 138.251 135.656 137.727 136.081C137.204 136.506 132.703 138.514 132.703 138.514C132.703 138.514 129 139.413 129 140.149C129 140.885 132.996 140.149 132.996 140.149L134.118 139.904C134.118 139.904 132.294 140.915 131.792 140.915C131.29 140.915 129.45 141.059 129.45 141.72C129.45 142.382 131.84 142.849 132.996 142.596C134.152 142.344 135.345 142.064 135.345 142.064C135.345 142.064 133.929 143.223 132.703 143.223C131.477 143.223 130.483 143.199 130.483 143.928C130.483 144.657 133.695 144.458 134.597 144.458C135.5 144.458 136.334 144.13 136.334 144.13C136.334 144.13 134.157 145.236 133.43 145.236C132.703 145.236 131.23 145.131 131.616 145.849C132.003 146.568 134.892 146.338 135.837 146.338C136.783 146.338 147.199 139.383 147.199 139.383C147.199 139.383 172.083 128.597 173.503 125.877C174.922 123.157 179.504 95.1837 176.503 93.0168C173.503 90.8499 167.661 97.688 166.812 101.099C165.962 104.509 166.526 118.145 165.121 118.93C163.716 119.715 145.115 134.726 145.115 134.726Z" fill="#380085"/>
<path d="M133.205 133.797C133.205 134.727 138.251 135.656 137.728 136.081L137.632 136.15C137.133 136.483 135.49 137.271 132.703 138.514C130.235 139.113 129 139.658 129 140.149C129 140.64 130.332 140.64 132.997 140.149L134.119 139.904C132.902 140.578 132.127 140.915 131.792 140.915L131.615 140.919C130.957 140.947 129.451 141.122 129.451 141.72C129.451 142.382 131.841 142.849 132.997 142.597C133.767 142.428 134.55 142.251 135.346 142.064C134.401 142.837 133.521 143.223 132.703 143.223L132.016 143.226C131.126 143.243 130.483 143.342 130.483 143.928C130.483 144.657 133.695 144.458 134.598 144.458C135.199 144.458 135.778 144.349 136.335 144.13L135.813 144.389C134.649 144.954 133.854 145.237 133.43 145.237L132.786 145.231C132.083 145.235 131.327 145.311 131.617 145.85C132.003 146.568 134.893 146.338 135.838 146.338C136.445 146.338 139.979 144.188 146.441 139.888C146.328 139.19 146.187 138.469 146.02 137.727C145.797 136.728 145.48 135.725 145.07 134.717L143.803 134.48C141.442 134.044 139.977 133.816 139.406 133.798L139.336 133.797C138.436 133.797 133.205 132.868 133.205 133.797Z" fill="#FFAF8A"/>
<path d="M166.029 62.4406C166.029 66.4751 163.553 73.7131 163.553 75.8085C163.553 77.9039 163.553 84.5334 163.553 84.5334C163.553 84.5334 159.026 88.2978 155.259 85.865C151.491 83.4323 153.011 79.3128 153.011 79.3128C153.011 79.3128 150.471 79.1307 149.056 77.1411C147.641 75.1516 148.395 61.5308 148.395 61.5308C148.395 61.5308 150.868 57.4859 155.259 57.7125C159.649 57.939 166.029 58.4062 166.029 62.4406Z" fill="#FFAF8A"/>
<path d="M164.205 73.2219C164.205 73.2219 166.54 70.541 166.971 68.3022C167.401 66.0634 167.912 61.4408 166.971 60.0286C166.029 58.6164 164.668 58.2062 164.668 58.2062C164.668 58.2062 164.672 56.873 162.701 55.5396C160.73 54.2062 149.248 52.873 147.269 55.5396C145.29 58.2062 147.851 62.3224 149.055 62.9667C150.26 63.611 156.528 61.923 157.767 63.2609C159.006 64.5988 159.782 71.0185 160.622 71.0185C161.463 71.0185 161.293 65.7376 163.657 66.4286C166.021 67.1196 164.205 73.2219 164.205 73.2219Z" fill="#380085"/>
<path d="M153.011 79.3127H158.075C158.075 79.3127 157.105 80.8649 155.702 82.2645C154.298 83.6641 153.011 84.0333 153.011 84.0333C153.011 84.0333 152.557 82.5394 152.557 81.673C152.557 80.8067 153.011 79.3127 153.011 79.3127Z" fill="black" fill-opacity="0.175153"/>
<path d="M39.2734 34.7706C39.2734 37.3013 47.0839 63.5905 51.5177 63.5905C55.9515 63.5905 58.1896 48.0325 58.1896 48.0325C58.1896 48.0325 58.2098 57.7381 59.6471 59.2889C61.0844 60.8398 61.6087 67.339 60.6279 69.9899C59.6471 72.6408 58.1896 96.1021 58.1896 102.504C58.1896 108.905 57.7026 118.707 59.5329 125.098C60.6279 128.921 62.5479 145.384 63.2065 155.002C63.2954 156.3 64.2697 156.317 64.2944 157.424C64.3346 159.226 64.2825 160.731 64.1134 161.792C63.0704 168.339 56.5848 173.851 58.3191 176.06C60.0535 178.269 63.1768 177.326 64.9456 175.693C66.7144 174.061 67.5062 171.1 69.7503 169.596C71.9945 168.092 72.9793 167.035 72.3245 164.986C71.6698 162.938 71.0693 159.759 71.0693 157.479C71.0693 157.04 72.1348 156.286 72.3245 155.002C73.12 149.621 74.2027 136.396 73.8226 132.534C73.3519 127.75 72.8234 122.754 72.8234 122.754L74.4803 94.798C74.4803 94.798 78.0207 121.921 79.2226 125.098C80.2162 127.724 84.5363 149.742 86.2194 158.27C86.5723 160.059 87.4032 160.882 87.4032 161.222C87.4032 163.186 85.5914 169.023 86.8146 170.454C88.0378 171.884 89.9351 172.946 89.9351 175.693C89.9351 178.441 92.2323 179.885 95.0303 179.885C97.8284 179.885 100.13 176.31 98.3128 173.711C96.4952 171.113 92.6547 163.596 92.6547 159.992C92.6547 159.438 93.5039 158.654 93.5351 157.06C93.6393 151.743 93.5351 123.468 93.5351 123.468C93.5351 123.468 90.7254 88.8938 90.7254 83.4521C90.7254 78.0105 88.6834 66.1222 88.6834 66.1222C88.6834 66.1222 90.801 43.8848 91.7279 39.3526C92.6547 34.8204 95.0303 30.17 95.0303 30.17C95.0303 30.17 84.3784 26.9935 75.6226 27.0835C66.8668 27.1735 61.2815 27.4446 59.6471 29.5478C58.0127 31.651 50.7719 43.8947 50.7719 43.8947C50.7719 43.8947 47.7854 33.3994 45.7715 32.4564C43.2765 31.2882 39.2734 33.3702 39.2734 34.7706Z" fill="#380085"/>
<path d="M61.3729 37.7441L60.8169 39.9688C59.8598 43.735 59.1386 46.2141 58.6535 47.4061L58.6006 47.5333C58.4697 47.8403 58.3347 48.293 58.1937 48.8507L58.1893 48.0327C58.0621 48.9035 57.9329 49.7466 57.8017 50.5617L57.2078 53.3715C56.6027 56.1978 55.8754 59.2579 54.9432 60.8768C53.5489 63.2984 51.9516 63.9878 50.1514 62.9451C51.2109 59.0851 52.5106 55.5871 54.0504 52.4512L56.0876 48.3294C57.4844 45.5163 59.2462 41.9879 61.3729 37.7441Z" fill="black" fill-opacity="0.275213"/>
<path d="M73.2223 87.1428L74.4716 94.9468L72.8237 122.754L73.2373 126.717C73.372 128.027 73.5037 129.325 73.6323 130.612L73.823 132.534C74.203 136.397 73.1204 149.621 72.3249 155.002C72.1352 156.286 71.0697 157.041 71.0697 157.48C71.0697 158.771 71.2624 160.351 71.5486 161.851L69.7424 162.427L69.5293 144.539C69.388 133.888 69.2586 126.758 69.1413 123.149L69.1172 122.453C68.9467 117.853 70.1714 107.012 72.7912 89.9293L73.2223 87.1428Z" fill="black" fill-opacity="0.275213"/>
<path d="M44.2422 24.0367C45.165 23.4994 46.1693 21.3987 47.548 21.8265C48.9267 22.2543 46.2681 25.3593 45.2458 27.0812C44.2235 28.8031 45.2458 33.0372 45.2458 33.0372C45.2458 33.0372 43.8803 33.9401 42.9077 34.3459C41.7724 34.8196 40.0682 34.6863 40.0682 34.6863C40.0682 34.6863 39.0421 32.6496 38.5086 32.0524C37.538 30.9658 35.4721 28.6676 36.1253 26.1566C36.7784 23.6455 37.7321 21.2887 39.2735 20.9265C40.815 20.5643 43.3194 24.5739 44.2422 24.0367Z" fill="#FFAF8A"/>
<path d="M44.1485 24.0746L44.1881 24.06C44.0436 25.9725 43.6385 27.5913 42.9727 28.9164C42.2657 30.3236 40.8247 31.4261 38.6499 32.224L38.5775 32.1323L38.1837 31.685C38.0081 31.4837 37.8161 31.2567 37.6211 31.0075C39.0443 30.749 40.2629 30.0518 41.2789 28.9164C42.3421 27.7284 42.908 25.9115 42.9767 23.4658C43.4056 23.8386 43.7837 24.0961 44.0666 24.0859L44.1485 24.0746Z" fill="black" fill-opacity="0.175153"/>
<path d="M62.2006 61.2564C63.6918 61.2564 64.9006 62.4652 64.9006 63.9564C64.9006 65.4476 63.6918 66.6564 62.2006 66.6564L61.124 66.6564C61.1678 64.8226 60.9592 62.7774 60.5479 61.2554L62.2006 61.2564Z" fill="#733DFF"/>
<path d="M89.2051 69.6709L89.2764 69.7098L89.5012 71.1601C89.5729 71.6336 89.6415 72.0971 89.707 72.5507L87.915 72.8979C78.934 74.6018 72.6812 75.2214 69.1558 74.7564C65.6757 74.2973 62.6755 73.544 60.1553 72.4965L60.2255 71.9925C60.342 71.1892 60.4554 70.5729 60.5636 70.1907L60.6153 70.0239L60.8509 69.8064C63.1355 70.8827 66.1742 71.5539 69.967 71.8201C73.7598 72.0862 80.1725 71.3698 89.2051 69.6709Z" fill="#733DFF"/>
<path d="M88.6742 34.1936L91.3774 41.409L91.2002 42.6482C90.587 47.1148 89.7479 54.9395 88.683 66.1223L88.8844 67.3084C90.0393 74.1962 90.6507 79.3682 90.7186 82.8243L90.7323 84.0833C90.823 88.4663 91.7572 101.595 93.5347 123.468L93.5867 146.972C93.5847 152.029 93.5674 155.392 93.5347 157.06C93.5035 158.654 92.6543 159.438 92.6543 159.992C92.6543 163.596 96.4948 171.113 98.3124 173.712C99.3443 175.187 99.0483 176.977 98.0876 178.249C93.5839 172.978 91.0989 168.395 90.6307 164.499C89.8992 158.411 90.6015 126.772 90.6298 123.06L90.6285 122.748C90.5572 120.472 88.7392 102.833 85.1745 69.8292L84.2447 69.8577C76.7746 70.0385 72.3158 68.955 70.8666 66.6068L70.7067 66.341C69.324 63.981 68.0871 60.1742 72.1519 56.637C73.7549 55.242 77.8103 53.2598 84.3182 50.6903L86.2443 49.9402L88.6742 34.1936Z" fill="black" fill-opacity="0.275213"/>
<path d="M83.0044 27.5738L83.0212 27.5459C85.2634 27.836 87.5844 28.2619 89.9843 28.8236L89.5087 29.2859C88.6804 30.1015 88.0927 30.741 87.745 31.2059C85.5863 34.0918 85.1306 35.993 84.8676 36.2595C84.3083 36.8262 80.4033 34.5742 80.4033 33.5177L80.4096 33.4052C80.4717 32.7763 81.0079 30.9173 82.7123 28.0423L82.8976 27.7406L83.0212 27.5459L83.0044 27.5738Z" fill="#733DFF"/>
<path d="M67.3819 27.3302L68.5944 27.2563L68.3085 27.6931C67.2647 29.3305 65.3964 32.6238 65.2132 32.8395C64.7321 33.4062 61.373 31.1543 61.373 30.0978L61.3753 29.9685C61.3892 29.691 61.4882 29.5194 62.1791 28.1016C63.5041 27.714 65.2482 27.478 67.3819 27.3302Z" fill="#733DFF"/>
<path d="M70.1924 71.8257L69.7425 71.8144L70.3152 48.9208L70.567 48.9584C73.9554 49.4647 76.2844 48.9123 77.58 47.326C78.9084 45.6997 80.527 41.5803 82.4151 34.9944L82.8477 35.1184C80.9423 41.7647 79.3096 45.9199 77.9286 47.6107C76.5487 49.3 74.1486 49.9019 70.7523 49.4395L70.1924 71.8257Z" fill="#733DFF"/>
<path d="M63.5704 32.5451C63.0262 37.5609 63.1071 41.318 63.8076 43.8086C64.4921 46.2425 66.8536 48.0098 70.9258 49.0982L70.8096 49.5329C66.5993 48.4077 64.1096 46.5443 63.3744 43.9304C62.6551 41.3732 62.5732 37.5646 63.1231 32.4966L63.5704 32.5451Z" fill="#733DFF"/>
<path d="M92.5593 160.04L92.6548 159.996C92.6575 163.434 96.1472 170.423 98.0469 173.318L98.3129 173.712C100.131 176.31 97.8285 179.885 95.0305 179.885C92.3102 179.885 90.0633 178.52 89.9406 175.919L89.9353 175.693C89.9353 172.946 88.0379 171.884 86.8147 170.454C85.5915 169.023 87.4033 163.186 87.4033 161.222C87.4033 161.128 87.3395 160.997 87.2397 160.818C88.2356 161.068 89.1163 161.106 89.8817 160.932C90.7247 160.741 91.6172 160.443 92.5593 160.04L92.6548 159.996L92.5593 160.04Z" fill="#733DFF"/>
<path d="M92.5592 160.04L92.6548 159.996C92.6576 163.602 96.496 171.114 98.3129 173.712C99.3451 175.187 99.0487 176.978 98.0874 178.25C93.5845 172.978 91.0994 168.395 90.6312 164.499L90.5878 164.09C90.5113 163.282 90.4529 162.159 90.4092 160.799C91.0941 160.614 91.811 160.36 92.5592 160.04Z" fill="black" fill-opacity="0.275213"/>
<path d="M67.8937 158.116C68.7968 158.116 69.8562 157.962 71.0718 157.653C71.0975 159.773 71.615 162.607 72.2058 164.599L72.3249 164.986C72.9796 167.035 71.9948 168.092 69.7507 169.596C67.5065 171.1 66.7147 174.061 64.9459 175.693C63.1771 177.326 60.0538 178.269 58.3194 176.06C56.5851 173.851 63.0707 168.339 64.1137 161.792C64.2698 160.813 64.3262 159.455 64.3023 157.835L64.292 157.358C65.6998 157.864 66.9009 158.116 67.8937 158.116Z" fill="#733DFF"/>
<path d="M71.0714 157.653C71.0971 159.773 71.6146 162.607 72.2054 164.599L72.3244 164.986C72.9792 167.035 71.9944 168.092 69.7502 169.596C67.5061 171.1 66.7143 174.061 64.9455 175.693C63.9963 176.57 62.657 177.247 61.3516 177.345L66.1629 170.219C67.8987 167.626 68.973 165.982 69.386 165.286C70.1333 164.029 70.3285 161.566 69.9716 157.899C70.3217 157.832 70.6888 157.75 71.0714 157.653Z" fill="black" fill-opacity="0.275213"/>
<path d="M95.1108 30.3603C91.0602 29.4327 88.504 32.9869 88.504 35.2912C88.504 37.5954 91.0602 55.7935 91.0602 55.7935C91.0602 55.7935 73.2436 59.5053 70.9635 60.761C68.6834 62.0167 63.5908 64.6956 63.5908 66.0881C63.5908 67.4805 67.7626 69.6709 69.5479 69.6709C71.3333 69.6709 75.3661 66.4838 75.3661 65.371C75.3661 64.2582 76.6408 64.216 77.5887 64.7935C78.5366 65.371 100.278 67.3506 101.989 62.6811C102.882 60.2429 99.1614 31.2879 95.1108 30.3603Z" fill="#380085"/>
<path d="M93.7982 30.2106L93.9181 30.2104C94.2991 30.2179 94.6969 30.2659 95.1102 30.3605C99.1608 31.2881 102.882 60.2431 101.988 62.6813C101.344 64.4392 97.8617 65.2547 93.7183 65.5575L93.2734 62.7643L93.9221 62.3414C96.8595 60.4066 98.5388 59.0202 98.9602 58.1823C99.3926 57.3224 97.672 47.9985 93.7982 30.2106L93.9181 30.2104L93.7982 30.2106Z" fill="black" fill-opacity="0.275213"/>
<path d="M75.6193 59.1411L78.0583 59.6334L78.4434 65.0039C77.5128 64.4629 75.5155 64.2845 75.374 65.2582L75.3661 65.3711C75.3661 66.4839 71.6593 69.877 69.8739 69.877C68.0886 69.877 64.9014 66.4172 64.9014 65.0248C64.9014 64.0543 66.6919 62.9093 68.549 61.8794L70.8675 60.625C71.5126 60.2697 73.0966 59.7751 75.6193 59.1411Z" fill="#FFAF8A"/>
<path d="M75.3658 61.2566L78.416 64.6206L78.4432 65.004C77.5126 64.463 75.5152 64.2846 75.3738 65.2582L75.3658 65.3712C75.3658 66.1144 73.7123 67.8749 72.082 68.9622C72.4989 67.8274 73.5571 66.3339 74.2523 65.6716L74.3782 65.5575C75.109 64.9309 75.4424 63.6008 75.3784 61.5669L75.3658 61.2566Z" fill="black" fill-opacity="0.175153"/>
<path d="M72.1523 60.202C72.1523 58.1094 73.5829 56.2879 75.616 55.7919L87.2221 52.9606C88.5638 52.6333 89.9799 52.8325 91.1792 53.5173L95.0237 55.7122C96.5684 56.594 97.5797 58.18 97.7276 59.9525L97.7948 60.7575C98.0577 63.906 95.5731 66.6067 92.4136 66.6067H78.7241C77.3052 66.6067 76.0941 65.5812 75.8602 64.1817C75.8602 64.1817 75.7051 62.6916 74.687 61.5989C73.669 60.5063 72.1523 60.202 72.1523 60.202Z" fill="#959FFA"/>
<path d="M76.5874 58.5699C77.232 59.2512 77.7452 59.9023 78.1271 60.5232C78.7117 61.4738 79.8209 61.9667 80.9182 61.7637L97.4714 58.7003C97.6047 59.1017 97.6917 59.5216 97.7276 59.9525L97.8872 61.8638C98.0883 64.2737 96.2978 66.3903 93.888 66.5915C93.7668 66.6016 93.6453 66.6067 93.5237 66.6067H78.7241C77.3643 66.6067 76.1954 65.6648 75.8945 64.3546L75.8602 64.1817C75.7568 63.1883 75.3657 62.3274 74.687 61.5989C74.0083 60.8705 73.1634 60.4049 72.1523 60.202C72.1523 58.9451 72.6685 57.7859 73.5213 56.9531C74.791 57.2123 75.8128 57.7511 76.5874 58.5699Z" fill="#5C66C0"/>
<path d="M72.1524 30.3604C76.8374 31.6903 82.1536 27.6147 82.1536 27.6147C82.1536 27.6147 80.2637 25.1489 80.2637 22.8979C80.2637 20.647 81.1267 17.0936 81.1267 17.0936C81.1267 17.0936 83.7665 16.0143 83.7665 14.3874C83.7665 12.7606 83.7665 8.33515 83.7665 8.33515L71.5504 3.14355C71.5504 3.14355 65.7842 10.3625 65.7842 12.7606C65.7842 15.1586 66.9857 22.4108 69.5691 24.0702C72.1524 25.7295 69.6986 28.3119 69.6986 28.3119C69.6986 28.3119 69.6986 29.6638 72.1524 30.3604Z" fill="#FFAF8A"/>
<path d="M69.8781 6.04507L77.7778 5.78955L83.7667 8.33514V14.3874C83.7667 15.472 82.8868 16.374 81.1269 17.0936C80.5516 19.4625 80.2639 21.3973 80.2639 22.8979C80.2639 24.3986 80.8939 25.9708 82.1539 27.6147C79.1298 29.9331 76.2589 30.9396 73.5412 30.6343C76.5544 29.4574 78.2527 28.3331 78.6378 27.2603C79.334 25.3208 78.1385 13.0322 76.9377 10.9415C76.1561 9.58096 73.0361 9.18291 67.5774 9.74739L67.1738 9.79042L69.8781 6.04507Z" fill="black" fill-opacity="0.175153"/>
<path d="M79.4581 1.41764L79.86 1.93446C80.2996 2.50632 80.6369 2.96937 80.8717 3.32361C82.0763 3.03168 83.2365 3.23444 84.3523 3.93187C85.982 4.95049 87.2834 7.89852 86.3082 11.581L86.2241 11.8811C85.4713 14.429 85.708 17.877 86.9343 22.2252H80.3041L80.2816 22.2283C80.352 20.8357 80.6338 19.1242 81.127 17.0936C82.4938 16.5779 83.1773 15.7778 83.1773 14.6932C83.1773 13.0664 82.1539 10.1572 81.127 10.9762C80.4424 11.5223 80.0509 12.5229 79.9527 13.9782L79.5823 13.2601C78.8739 11.8731 78.3597 10.7803 78.0399 9.98163L77.964 9.78811C77.6047 8.85113 77.2852 8.28853 77.0054 8.1003L74.5354 8.48147C72.3253 8.82955 70.8952 9.07839 70.2451 9.22798C66.3497 10.1243 65.8088 12.2417 65.7852 12.728L65.7844 12.7606C65.7844 15.1586 66.9284 21.0461 68.5929 23.0177L68.7164 23.172L67.4042 23.2796C67.4809 23.3609 67.1244 23.552 66.3344 23.8529C65.5445 24.1537 64.2468 24.4047 62.4414 24.6057C63.5474 20.4428 63.9432 17.3659 63.6286 15.3753L63.5907 15.1586C63.0196 12.1872 62.7911 7.79238 64.5627 4.97802C66.3344 2.16367 70.6394 0 73.0345 0L73.557 0.00328606C75.8571 0.0330808 78.5659 0.282196 79.4581 1.41764Z" fill="#0D134E"/>
<path d="M70.4053 24.7615C70.4053 24.7615 71.0474 25.5058 73.1368 25.5058C75.2262 25.5058 77.8735 22.3169 77.8735 22.3169C77.8735 22.3169 76.1398 26.2748 74.1272 27.1292C72.1145 27.9837 70.4053 27.2604 70.4053 27.2604C70.4053 27.2604 70.925 26.6599 70.925 25.9874C70.925 25.3149 70.4053 24.7615 70.4053 24.7615Z" fill="black" fill-opacity="0.175153"/>
<path d="M80.1435 57.9686C79.7399 57.6067 79.9298 56.9389 80.4634 56.8435L89.7571 55.1819C89.9252 55.1518 90.0983 55.1925 90.2354 55.2942C90.6701 55.6167 90.5114 56.3024 89.9792 56.4012L80.6967 58.1239C80.4982 58.1607 80.2938 58.1033 80.1435 57.9686Z" fill="#F8FCFF"/>
<path d="M79.1475 40.0822L79.3632 40.2822L79.5258 40.0371L81.9635 36.3616C82.2306 35.9588 82.7736 35.8489 83.1763 36.116C83.579 36.3831 83.689 36.9261 83.4219 37.3288L80.8379 41.225C80.2961 42.0419 79.1946 42.265 78.3776 41.7231C78.2977 41.6701 78.2222 41.6107 78.1519 41.5455L70.6239 34.566C70.2695 34.2374 70.2485 33.6838 70.5771 33.3294C70.9057 32.975 71.4593 32.9541 71.8137 33.2827L79.1475 40.0822Z" fill="#FF3F87" fill-opacity="0.280021" stroke="#F8458D" stroke-width="0.5"/>
<path d="M67.4736 29.2905C67.4736 28.5321 68.0224 27.8851 68.7705 27.7613L105.092 21.7499C106.036 21.5937 106.895 22.322 106.895 23.2791V45.9867C106.895 46.7301 106.368 47.3687 105.638 47.5089L69.316 54.485C68.3602 54.6686 67.4736 53.9361 67.4736 52.9628V29.2905Z" fill="#FF3F87" fill-opacity="0.280021" stroke="#F8458D" stroke-width="0.5"/>
<path d="M95.1738 29.1114C95.1738 28.8808 95.3411 28.6843 95.5687 28.6474L110.329 26.2561C110.615 26.2098 110.874 26.4305 110.874 26.7201V28.531C110.874 28.757 110.713 28.9511 110.491 28.9929L95.7307 31.7679C95.4414 31.8223 95.1738 31.6004 95.1738 31.306V29.1114Z" fill="#9286FF" fill-opacity="0.193018" stroke="#F8F8F8" stroke-width="0.5"/>
<path d="M95.1738 35.4112C95.1738 35.1806 95.3411 34.9841 95.5687 34.9472L110.329 32.5559C110.615 32.5096 110.874 32.7303 110.874 33.0199V34.8308C110.874 35.0568 110.713 35.2509 110.491 35.2927L95.7307 38.0677C95.4414 38.1221 95.1738 37.9002 95.1738 37.6058V35.4112Z" fill="#9286FF" fill-opacity="0.193018" stroke="#F8F8F8" stroke-width="0.5"/>
<path d="M95.1738 41.7112C95.1738 41.4807 95.3411 41.2842 95.5687 41.2473L110.329 38.856C110.615 38.8097 110.874 39.0303 110.874 39.3199V41.1308C110.874 41.3569 110.713 41.5509 110.491 41.5927L95.7307 44.3678C95.4414 44.4222 95.1738 44.2003 95.1738 43.9059V41.7112Z" fill="#9286FF" fill-opacity="0.193018" stroke="#F8F8F8" stroke-width="0.5"/>
<path d="M86.5738 39.3738C86.5738 43.2122 83.4622 46.3238 79.6238 46.3238C75.7854 46.3238 72.6738 43.2122 72.6738 39.3738C72.6738 35.5354 75.7854 32.4238 79.6238 32.4238C83.4622 32.4238 86.5738 35.5354 86.5738 39.3738Z" fill="#FF3F87" fill-opacity="0.280021" stroke="#F8458D" stroke-width="0.5"/>
<path fill-rule="evenodd" clip-rule="evenodd" d="M91.8998 239.438L92.0998 224.938C92.0998 224.238 91.6998 223.638 91.0998 223.338L72.0998 213.638C71.6998 213.438 71.2998 213.438 70.8998 213.438L35.7998 220.838L91.0998 240.938C91.5998 240.738 91.8998 240.138 91.8998 239.438Z" fill="#BAC8FF"/>
<path d="M91.9 239.438L92.1 224.938C92.1 224.238 91.7 223.638 91.1 223.338L72.1 213.638C71.7 213.438 71.3 213.438 70.9 213.438L35.8 220.838L0.6 251.538C0.2 251.838 0 252.338 0 252.838V266.938C0 267.538 0.3 268.138 0.9 268.438L22.1 280.838C22.7 281.138 23.3 281.138 23.9 280.838L91.1 240.938C91.6 240.738 91.9 240.138 91.9 239.438Z" fill="#959FFA"/>
<path d="M91.8998 239.438L92.0998 224.938C92.0998 224.238 91.6998 223.638 91.0998 223.338L72.0998 213.638C71.6998 213.438 71.2998 213.438 70.8998 213.438L35.7998 220.838L91.0998 240.938C91.5998 240.738 91.8998 240.138 91.8998 239.438Z" fill="#D0D4FF"/>
<path d="M74.8996 225.439C71.5859 225.439 68.8996 224.648 68.8996 222.439C68.8996 220.23 71.1859 218.5 74.4996 218.5C77.8133 218.5 80.0996 220.27 80.0996 222C80.0996 223.73 78.2133 225.439 74.8996 225.439Z" fill="#5C66C0"/>
<path d="M74.6997 225.839C71.9383 225.839 69.6997 224.496 69.6997 222.839C69.6997 221.182 71.9383 219.839 74.6997 219.839C77.4611 219.839 79.7324 221.182 79.7324 222.839C79.7324 224.496 77.4611 225.839 74.6997 225.839Z" fill="#F8FCFF"/>
<path d="M76.2603 221.13L76.958 221.38L73.6558 224.306L73.1203 223.881L76.2603 221.13Z" fill="#A4B6C5"/>
<path d="M23 281.139V267.039C23 265.939 23.5 264.839 24.4 264.239L59.8 237.239L92 224.539C92 224.739 92.1 224.839 92.1 225.039L91.9 239.539C91.9 240.139 91.6 240.739 91 241.039L23.8 280.939C23.6 281.039 23.3 281.139 23 281.139Z" fill="#5C66C0"/>
<path d="M8.44043 238.564V224.764C8.44043 224.164 8.74043 223.564 9.34043 223.264L27.1824 213.539C27.5824 213.339 28.0824 213.239 28.4824 213.339L61.3404 219.264L100.24 251.564C100.64 251.864 100.84 252.464 100.84 252.964L100.64 266.964C100.64 267.564 100.34 268.164 99.7404 268.464L78.6404 280.664C78.0404 280.964 77.4404 280.964 76.8404 280.664L9.24043 240.164C8.74043 239.764 8.44043 239.264 8.44043 238.564Z" fill="#F8FCFF"/>
<path d="M28.208 224.9C24.8943 224.9 22.0686 223.709 22.0686 221.5C22.0686 219.291 24.3548 217.561 27.6686 217.561C30.9823 217.561 33.2686 219.331 33.2686 221.061C33.2686 222.791 31.5217 224.9 28.208 224.9Z" fill="#5C66C0"/>
<path d="M27.8686 224.9C25.1072 224.9 22.8686 223.557 22.8686 221.9C22.8686 220.243 25.1072 218.9 27.8686 218.9C30.6301 218.9 32.9014 220.243 32.9014 221.9C32.9014 223.557 30.6301 224.9 27.8686 224.9Z" fill="#F8FCFF"/>
<path d="M29.6689 221.838V222.5L25.5345 222V221.419L29.6689 221.838Z" fill="#A4B6C5"/>
<path d="M61.3402 219.264L100.24 251.564C100.64 251.864 100.84 252.464 100.84 252.964L100.64 266.964C100.64 267.564 100.34 268.164 99.7402 268.464L78.6402 280.664C78.0402 280.964 77.4402 280.964 76.8402 280.664L51.0684 246.5L61.3402 219.264Z" fill="#D0D4FF"/>
<path d="M79.5684 255.5C83.7105 255.5 87.0684 253.261 87.0684 250.5C87.0684 247.739 83.7105 245.5 79.5684 245.5C75.4262 245.5 72.0684 247.739 72.0684 250.5C72.0684 253.261 75.4262 255.5 79.5684 255.5Z" fill="#5C66C0"/>
<path d="M79.5684 255.5C83.1582 255.5 86.0684 253.933 86.0684 252C86.0684 250.067 83.1582 248.5 79.5684 248.5C75.9785 248.5 73.0684 250.067 73.0684 252C73.0684 253.933 75.9785 255.5 79.5684 255.5Z" fill="#F8FCFF"/>
<path d="M76.5709 250.5L76.0684 251.162L83.847 252.858L84.1319 252.149L76.5709 250.5Z" fill="#A4B6C5"/>
<path d="M100.241 251.563C100.641 251.963 100.941 252.463 100.941 252.963L100.741 266.863C100.741 267.463 100.441 268.063 99.8406 268.363L78.7406 280.563C78.4406 280.763 78.0406 280.863 77.6406 280.763V266.163C77.6406 264.863 78.3406 263.663 79.4406 263.063L100.241 251.563Z" fill="#5C66C0"/>
<path d="M8.64043 224.063L33.3341 231.798L77.0404 263.663C77.4404 263.963 77.6404 264.463 77.6404 265.063V280.863C77.4404 280.863 77.1404 280.763 76.9404 280.663L9.34043 241.163C8.74043 240.863 8.44043 240.263 8.44043 239.663V224.863C8.44043 224.563 8.54043 224.263 8.64043 224.063Z" fill="#959FFA"/>
<path d="M35.8 220.839L0.6 251.539C0.2 251.839 0 252.339 0 252.839L23 266.184L50.5466 265.414L51.0691 243.318L35.8 220.839Z" fill="#F8FCFF"/>
<path d="M22.5693 254.5C26.7115 254.5 30.0693 252.261 30.0693 249.5C30.0693 246.739 26.7115 244.5 22.5693 244.5C18.4272 244.5 15.0693 246.739 15.0693 249.5C15.0693 252.261 18.4272 254.5 22.5693 254.5Z" fill="#5C66C0"/>
<path d="M22.5693 254.5C26.1592 254.5 29.0693 252.933 29.0693 251C29.0693 249.067 26.1592 247.5 22.5693 247.5C18.9795 247.5 16.0693 249.067 16.0693 251C16.0693 252.933 18.9795 254.5 22.5693 254.5Z" fill="#F8FCFF"/>
<rect x="22.0693" y="248.5" width="1" height="5" fill="#A4B6C5"/>
<path d="M23 281.139V267.039C23 265.939 23.5 264.839 24.4 264.239L51.469 244.882L50.5629 265.446L23.8 280.939C23.6 281.039 23.3 281.139 23 281.139Z" fill="#5C66C0"/>
<path d="M74.188 213.352L73.624 230.03C73.5448 238.241 63.1381 244.882 50.312 244.882C37.4371 244.882 27 238.19 27 229.936C27 229.416 27.0414 228.902 27.1222 228.396L27.47 213.352H74.188Z" fill="#959FFA"/>
<path d="M74.1877 213.352L73.6237 230.03C73.5882 233.712 71.4763 237.078 68.0008 239.671L68 213.351L74.1877 213.352Z" fill="#5C66C0"/>
<path d="M50.4569 227.799C63.5382 227.799 74.1885 221.328 74.1885 213.299C74.1885 205.27 63.5382 198.799 50.4569 198.799C37.3757 198.799 27.1885 205.27 27.1885 213.299C27.1885 221.328 37.3757 227.799 50.4569 227.799Z" fill="#F8FCFF"/>
<path d="M46 205.9L66.0195 202.351C71.0209 205.006 74.188 208.921 74.188 213.3C74.188 217.039 71.8783 220.44 68.0891 223.007L46 205.9L66.0195 202.351L46 205.9Z" fill="#D0D4FF"/>
<path d="M50.9688 218.7C57.8723 218.7 63.4688 215.566 63.4688 211.7C63.4688 207.834 57.8723 204.7 50.9688 204.7C44.0652 204.7 38.4688 207.834 38.4688 211.7C38.4688 215.566 44.0652 218.7 50.9688 218.7Z" fill="#FFC8DC"/>
<path d="M52.8332 200.867L47.5322 211.283L47.8106 211.594L52.8332 201.728L56.509 208.369L56.8009 208.102L52.8332 200.867Z" fill="#D5316F"/>
<path d="M47.0687 214C48.7808 214 50.1687 212.612 50.1687 210.9C50.1687 209.188 48.7808 207.8 47.0687 207.8C45.3567 207.8 43.9688 209.188 43.9688 210.9C43.9688 212.612 45.3567 214 47.0687 214Z" fill="#FF3F87"/>
<path d="M52.9688 204.5C54.3495 204.5 55.4688 203.381 55.4688 202C55.4688 200.619 54.3495 199.5 52.9688 199.5C51.588 199.5 50.4688 200.619 50.4688 202C50.4688 203.381 51.588 204.5 52.9688 204.5Z" fill="#FF3F87"/>
<path d="M56.4689 209.5C57.4631 209.5 58.2689 208.694 58.2689 207.7C58.2689 206.706 57.4631 205.9 56.4689 205.9C55.4748 205.9 54.6689 206.706 54.6689 207.7C54.6689 208.694 55.4748 209.5 56.4689 209.5Z" fill="#FF3F87"/>
<path d="M50.6691 189.5C53.3579 189.5 55.755 190.039 57.5117 190.899C59.2871 191.769 60.3067 192.91 60.4737 194.067L62.6691 211.132V211.132V211.133V211.134V211.135V211.136V211.137V211.139V211.14V211.141V211.142V211.143V211.144V211.145V211.146V211.147V211.148V211.149V211.151V211.152V211.153V211.154V211.155V211.156V211.157V211.158V211.159V211.16V211.161V211.162V211.163V211.164V211.165V211.167V211.168V211.169V211.17V211.171V211.172V211.173V211.174V211.175V211.176V211.177V211.178V211.179V211.18V211.181V211.182V211.183V211.184V211.185V211.186V211.187V211.188V211.189V211.19V211.191V211.192V211.193V211.194V211.195V211.196V211.197V211.198V211.199V211.2V211.201V211.202V211.203V211.204V211.205V211.206V211.207V211.208V211.209V211.21V211.211V211.212V211.213V211.214V211.215V211.216V211.217V211.218V211.219V211.22V211.221V211.222V211.223V211.224V211.225V211.226V211.227V211.228V211.229V211.23V211.231V211.232V211.232V211.233V211.234V211.235V211.236V211.237V211.238V211.239V211.24V211.241V211.242V211.243V211.244V211.245V211.246V211.247V211.248V211.249V211.249V211.25V211.251V211.252V211.253V211.254V211.255V211.256V211.257V211.258V211.259V211.26V211.261V211.262V211.262V211.263V211.264V211.265V211.266V211.267V211.268V211.269V211.27V211.271V211.272V211.273V211.273V211.274V211.275V211.276V211.277V211.278V211.279V211.28V211.281V211.282V211.283V211.283V211.284V211.285V211.286V211.287V211.288V211.289V211.29V211.291V211.292V211.292V211.293V211.294V211.295V211.296V211.297V211.298V211.299V211.3V211.301V211.301V211.302V211.303V211.304V211.305V211.306V211.307V211.308V211.309V211.309V211.31V211.311V211.312V211.313V211.314V211.315V211.316V211.317V211.317V211.318V211.319V211.32V211.321V211.322V211.323V211.324V211.324V211.325V211.326V211.327V211.328V211.329V211.33V211.331V211.332V211.332V211.333V211.334V211.335V211.336V211.337V211.338V211.339V211.339V211.34V211.341V211.342V211.343V211.344V211.345V211.346V211.346V211.347V211.348V211.349V211.35V211.351V211.352V211.353V211.354V211.354V211.355V211.356V211.357V211.358V211.359V211.36V211.361V211.361V211.362V211.363V211.364V211.365V211.366V211.367V211.368V211.368V211.369V211.37V211.371V211.372V211.373V211.374V211.375V211.376V211.376V211.377V211.378V211.379V211.38V211.381V211.382V211.383V211.383V211.384V211.385V211.386V211.387V211.388V211.389V211.39V211.391V211.391V211.392V211.393V211.394V211.395V211.396V211.397V211.398V211.399V211.399V211.4V211.401V211.402V211.403V211.404V211.405V211.406V211.407V211.408V211.408V211.409V211.41V211.411V211.412V211.413V211.414V211.415V211.416V211.417V211.417V211.418V211.419V211.42V211.421V211.422V211.423V211.424V211.425V211.426V211.427V211.427V211.428V211.429V211.43V211.431V211.432V211.433V211.434V211.435V211.436V211.437V211.438V211.438V211.439V211.44V211.441V211.442V211.443V211.444V211.445V211.446V211.447V211.448V211.449V211.45V211.451V211.451V211.452V211.453V211.454V211.455V211.456V211.457V211.458V211.459V211.46V211.461V211.462V211.463V211.464V211.465V211.466V211.467V211.468V211.468V211.469V211.47V211.471V211.472V211.473V211.474V211.475V211.476V211.477V211.478V211.479V211.48V211.481V211.482V211.483V211.484V211.485V211.486V211.487V211.488V211.489V211.49V211.491V211.492V211.493V211.494V211.495V211.496V211.497V211.498V211.499V211.5V211.501V211.502V211.503V211.504V211.505V211.506V211.507V211.508V211.509V211.51V211.511V211.512V211.513V211.514V211.515V211.516V211.517V211.518V211.519V211.52V211.521V211.522V211.523V211.524V211.525V211.526V211.527V211.528V211.529V211.53V211.531V211.532V211.533V211.535V211.536V211.537V211.538V211.539V211.54V211.541V211.542V211.543V211.544V211.545V211.546V211.547V211.548V211.549V211.551V211.552V211.553V211.554V211.555V211.556V211.557V211.558V211.559V211.56V211.561V211.563V211.564V211.565V211.566V211.567V211.568V211.569V211.57V211.571V211.573V211.574V211.575V211.576V211.577V211.578V211.579V211.58V211.582V211.583V211.584V211.585V211.586V211.587V211.588V211.59V211.591V211.592V211.593V211.594V211.595V211.596V211.598V211.599V211.6C62.6691 213.234 61.4578 214.826 59.2763 216.038C57.113 217.24 54.0996 218 50.7691 218C47.4387 218 44.4253 217.24 42.262 216.038C40.0804 214.826 38.8691 213.234 38.8691 211.6V211.599V211.598V211.596V211.595V211.594V211.593V211.592V211.591V211.59V211.588V211.587V211.586V211.585V211.584V211.583V211.582V211.58V211.579V211.578V211.577V211.576V211.575V211.574V211.573V211.571V211.57V211.569V211.568V211.567V211.566V211.565V211.564V211.563V211.561V211.56V211.559V211.558V211.557V211.556V211.555V211.554V211.553V211.552V211.551V211.549V211.548V211.547V211.546V211.545V211.544V211.543V211.542V211.541V211.54V211.539V211.538V211.537V211.536V211.535V211.533V211.532V211.531V211.53V211.529V211.528V211.527V211.526V211.525V211.524V211.523V211.522V211.521V211.52V211.519V211.518V211.517V211.516V211.515V211.514V211.513V211.512V211.511V211.51V211.509V211.508V211.507V211.506V211.505V211.504V211.503V211.502V211.501V211.5V211.499V211.498V211.497V211.496V211.495V211.494V211.493V211.492V211.491V211.49V211.489V211.488V211.487V211.486V211.485V211.484V211.483V211.482V211.481V211.48V211.479V211.478V211.477V211.476V211.475V211.474V211.473V211.472V211.471V211.47V211.469V211.468V211.468V211.467V211.466V211.465V211.464V211.463V211.462V211.461V211.46V211.459V211.458V211.457V211.456V211.455V211.454V211.453V211.452V211.451V211.451V211.45V211.449V211.448V211.447V211.446V211.445V211.444V211.443V211.442V211.441V211.44V211.439V211.438V211.438V211.437V211.436V211.435V211.434V211.433V211.432V211.431V211.43V211.429V211.428V211.427V211.427V211.426V211.425V211.424V211.423V211.422V211.421V211.42V211.419V211.418V211.417V211.417V211.416V211.415V211.414V211.413V211.412V211.411V211.41V211.409V211.408V211.408V211.407V211.406V211.405V211.404V211.403V211.402V211.401V211.4V211.399V211.399V211.398V211.397V211.396V211.395V211.394V211.393V211.392V211.391V211.391V211.39V211.389V211.388V211.387V211.386V211.385V211.384V211.383V211.383V211.382V211.381V211.38V211.379V211.378V211.377V211.376V211.376V211.375V211.374V211.373V211.372V211.371V211.37V211.369V211.368V211.368V211.367V211.366V211.365V211.364V211.363V211.362V211.361V211.361V211.36V211.359V211.358V211.357V211.356V211.355V211.354V211.354V211.353V211.352V211.351V211.35V211.349V211.348V211.347V211.346V211.346V211.345V211.344V211.343V211.342V211.341V211.34V211.339V211.339V211.338V211.337V211.336V211.335V211.334V211.333V211.332V211.332V211.331V211.33V211.329V211.328V211.327V211.326V211.325V211.324V211.324V211.323V211.322V211.321V211.32V211.319V211.318V211.317V211.317V211.316V211.315V211.314V211.313V211.312V211.311V211.31V211.309V211.309V211.308V211.307V211.306V211.305V211.304V211.303V211.302V211.301V211.301V211.3V211.299V211.298V211.297V211.296V211.295V211.294V211.293V211.292V211.292V211.291V211.29V211.289V211.288V211.287V211.286V211.285V211.284V211.283V211.283V211.282V211.281V211.28V211.279V211.278V211.277V211.276V211.275V211.274V211.273V211.273V211.272V211.271V211.27V211.269V211.268V211.267V211.266V211.265V211.264V211.263V211.262V211.262V211.261V211.26V211.259V211.258V211.257V211.256V211.255V211.254V211.253V211.252V211.251V211.25V211.249V211.249V211.248V211.247V211.246V211.245V211.244V211.243V211.242V211.241V211.24V211.239V211.238V211.237V211.236V211.235V211.234V211.233V211.232V211.232V211.231V211.23V211.229V211.228V211.227V211.226V211.225V211.224V211.223V211.222V211.221V211.22V211.219V211.218V211.217V211.216V211.215V211.214V211.213V211.212V211.211V211.21V211.209V211.208V211.207V211.206V211.205V211.204V211.203V211.202V211.201V211.2V211.199V211.198V211.197V211.196V211.195V211.194V211.193V211.192V211.191V211.19V211.189V211.188V211.187V211.186V211.185V211.184V211.183V211.182V211.181V211.18V211.179V211.178V211.177V211.176V211.175V211.174V211.173V211.172V211.171V211.17V211.169V211.168V211.167V211.165V211.164V211.163V211.162V211.161V211.16V211.159V211.158V211.157V211.156V211.155V211.154V211.153V211.152V211.151V211.149V211.148V211.147V211.146V211.145V211.144V211.143V211.142V211.141V211.14V211.139V211.137V211.136V211.135V211.134V211.133V211.132V211.132L41.0646 194.067C41.2322 192.905 42.2331 191.765 43.9677 190.897C45.686 190.038 48.0317 189.5 50.6691 189.5Z" fill="#9286FF" fill-opacity="0.193018" stroke="#ECEAFE"/>
<path d="M60.4693 194.3C60.4693 195.466 59.5326 196.66 57.7273 197.593C55.9489 198.512 53.4557 199.1 50.6693 199.1C47.9347 199.1 45.5184 198.513 43.7913 197.596C42.0481 196.67 41.1145 195.475 41.0694 194.291C41.0737 193.118 41.9737 191.93 43.7163 191.004C45.4422 190.088 47.8831 189.5 50.6693 189.5C53.4557 189.5 55.9489 190.088 57.7273 191.007C59.5326 191.94 60.4693 193.134 60.4693 194.3Z" fill="#9286FF" fill-opacity="0.193018" stroke="#ECEAFE"/>
</svg>
