<svg width="509" height="309" viewBox="0 0 509 309" fill="none" xmlns="http://www.w3.org/2000/svg">
<path d="M361.188 171.199C429.96 213.753 464.753 229.353 478.374 211.919C487.452 200.3 503.948 179.185 480.826 152.296C469.257 138.841 427.555 121.38 410.513 108.065C359.414 68.1418 285.975 72.9678 272.354 90.4018C258.733 107.836 292.416 128.645 361.188 171.199Z" fill="black" fill-opacity="0.180698"/>
<path d="M465.518 180.978C467.575 185.599 468.075 190.366 467.242 194.329C466.409 198.293 464.256 201.413 461.037 202.846C457.817 204.279 454.059 203.791 450.556 201.758C447.053 199.726 443.844 196.165 441.787 191.544C439.73 186.924 439.231 182.156 440.064 178.193C440.897 174.23 443.049 171.11 446.269 169.677C449.488 168.243 453.247 168.731 456.75 170.764C460.252 172.797 463.461 176.358 465.518 180.978Z" fill="#F8FCFF" stroke="#D0D4FF"/>
<path d="M442.13 191.392C439.091 184.568 439.531 177.522 442.523 173.279C448.191 172.82 454.832 177.387 458.288 185.149C461.326 191.973 460.886 199.018 457.895 203.261C452.227 203.72 445.586 199.155 442.13 191.392Z" stroke="#467FFF" stroke-width="1.75"/>
<path d="M448.896 170.222C448.777 170.155 448.671 170.076 448.584 170L439.101 120.533L441.257 120.164L450.557 168.24L450.563 168.271L450.568 168.292C450.568 168.292 450.568 168.292 450.568 168.292C450.569 168.298 450.572 168.311 450.575 168.33C450.582 168.37 450.593 168.437 450.602 168.522C450.62 168.697 450.628 168.929 450.599 169.169C450.539 169.648 450.362 170.008 449.946 170.225C449.495 170.46 449.177 170.378 448.896 170.222Z" fill="#F8FCFF" stroke="#D0D4FF" stroke-width="2.8"/>
<path d="M433.388 107.275L440.389 105.953L448.495 144.984C448.495 144.984 447.638 146.788 445.65 147.519C443.661 148.25 441.6 147.321 441.6 147.321L433.388 107.275Z" fill="#959FFA"/>
<path d="M407.251 154.408L384.94 158.545L376.186 138.909L389.06 126.944L407.251 154.408Z" fill="#5C66C0"/>
<path d="M385.272 158.545L399.985 144.947L402.418 155.267L385.272 158.545Z" fill="#1B215B"/>
<path d="M279.002 71.0926L277.504 71.9708C270.323 76.1034 265.881 83.7488 265.881 92.0141V93.5638C265.881 102.087 270.582 109.939 278.124 113.969L314.698 133.392C322.291 137.421 331.435 136.853 338.46 131.946L340.062 130.809C346.209 126.47 349.877 119.444 349.877 111.902V110.249C349.877 101.829 345.227 94.132 337.789 90.206L301.215 70.8343C294.241 67.0117 285.872 67.1666 279.002 71.0926Z" fill="#5C66C0"/>
<path d="M274.561 85.1433C274.922 82.5604 275.749 80.7007 277.04 79.6159C279.003 78.0145 281.276 80.0292 285.202 76.5681C289.128 73.107 286.39 71.5573 287.992 70.2142C289.076 69.2843 290.533 68.7971 293.684 68.3838" stroke="white" stroke-width="0.5" stroke-linecap="round"/>
<path d="M270.427 90.4641C269.239 89.1726 268.464 88.0878 268.154 87.158C267.844 86.2281 267.771 84.6772 267.771 82.8691" stroke="white" stroke-width="0.5" stroke-linecap="round"/>
<path d="M292.124 90.2057C292.176 88.8626 292.847 87.6228 294.139 86.538C296.102 84.9366 298.788 86.383 302.766 82.9219C306.692 79.4609 303.489 78.4794 305.142 77.1363C306.227 76.2064 307.518 75.7415 310.049 75.6382" stroke="white" stroke-width="0.5" stroke-linecap="round"/>
<path d="M310.101 99.6593C310.152 98.3162 310.824 97.0764 312.115 95.9916C314.078 94.3902 316.764 95.8366 320.742 92.3756C324.668 88.9145 321.465 87.933 323.118 86.5899C324.203 85.66 325.495 85.1951 328.026 85.0918" stroke="white" stroke-width="0.5" stroke-linecap="round"/>
<path d="M326.271 113.09C326.942 110.817 327.924 109.113 329.215 108.028C331.178 106.426 334.329 108.544 338.255 105.135C342.181 101.674 338.772 100.227 340.425 98.8843C341.51 97.9545 342.801 97.4895 345.332 97.3862" stroke="white" stroke-width="0.5" stroke-linecap="round"/>
<path d="M328.249 126.069C329.995 124.467 331.714 123.511 333.38 123.246C335.888 122.884 337.498 126.323 342.619 125.422C345.507 124.928 346.265 123.681 346.966 122.715" stroke="white" stroke-width="0.5" stroke-linecap="round"/>
<path d="M321.875 131.625C322.811 132.928 323.972 134.396 326.644 135.163C329.442 136.034 330.696 135.311 331.95 135.076" stroke="white" stroke-width="0.5" stroke-linecap="round"/>
<path d="M305.403 124.95C305.58 125.815 305.953 126.763 306.573 127.803C308.113 130.296 309.533 130.573 310.634 131.218" stroke="white" stroke-width="0.5" stroke-linecap="round"/>
<path d="M288.069 115.732C288.246 116.597 288.619 117.545 289.239 118.585C290.779 121.078 292.199 121.355 293.3 122" stroke="white" stroke-width="0.5" stroke-linecap="round"/>
<path d="M273.623 106.241C273.6 107.123 273.75 108.131 274.12 109.283C275.061 112.059 276.382 112.649 277.31 113.525" stroke="white" stroke-width="0.5" stroke-linecap="round"/>
<path d="M270.893 101.106C269.756 100.796 268.878 100.486 268.31 100.176C267.69 99.8658 267.151 99.1414 266.479 98.5215" stroke="white" stroke-width="0.5" stroke-linecap="round"/>
<path d="M282.566 84.9366C281.378 84.3167 279.983 83.9551 278.64 83.9551C273.991 83.9551 270.22 87.7261 270.22 92.3753V96.3013C270.22 102.552 273.681 108.234 279.157 111.127L316.35 130.757C317.538 131.377 318.933 131.739 320.276 131.739C324.925 131.739 328.696 127.968 328.696 123.318V123.163C328.696 114.64 323.996 106.788 316.402 102.81L282.566 84.9366Z" fill="#1B215B"/>
<path d="M292.764 114.485C299.079 110.839 300.342 101.207 295.588 92.9716C290.833 84.7358 281.859 81.0145 275.545 84.66C269.231 88.3055 267.967 97.9372 272.722 106.173C277.477 114.409 286.45 118.13 292.764 114.485Z" fill="#F8FCFF"/>
<path d="M324.907 131.13C331.221 127.485 332.485 117.853 327.73 109.617C322.975 101.381 314.002 97.66 307.688 101.306C301.374 104.951 300.11 114.583 304.865 122.819C309.619 131.054 318.593 134.776 324.907 131.13Z" fill="#F8FCFF"/>
<path d="M354.503 111.519C350.33 113.936 345.182 113.928 341.016 111.499L288.871 81.0923L288.905 78.5192L314.741 64.4824L354.671 88.3918C363.447 93.6463 363.354 106.393 354.503 111.519Z" fill="#380085"/>
<path d="M350.762 110.816C348.902 111.893 346.606 111.893 344.746 110.814L288.871 78.4191L317.046 63.231L365.435 92.0033C369.372 94.3446 369.339 100.057 365.375 102.353L350.762 110.816Z" fill="#959FFA"/>
<path d="M341.671 108.327L324.721 98.4903V91.7382C324.721 87.6583 326.912 83.8927 330.459 81.8769L345.229 73.4835C348.665 71.5309 352.87 71.5076 356.328 73.4221L364.386 77.884C366.804 79.2233 368.305 81.7702 368.305 84.5351V92.6218L341.671 108.327Z" fill="#F8FCFF" stroke="#D0D4FF"/>
<path d="M368.806 84.1577V92.9079L343.068 108.084L343.069 93.317L367.375 79.7637C368.289 81.0189 368.806 82.5508 368.806 84.1577Z" fill="#9593F3" fill-opacity="0.33143"/>
<path d="M311.949 91.3281L294.999 81.4913V74.8118C294.999 70.6948 297.23 66.901 300.828 64.8997L316.016 56.4515C319.486 54.5212 323.713 54.5463 327.161 56.5178L334.755 60.8614C337.123 62.2153 338.584 64.7337 338.584 67.4609V75.6228L311.949 91.3281Z" fill="#F8FCFF" stroke="#D0D4FF"/>
<path d="M338.478 67.6045V76.3546L312.741 91.5308V76.7638L337.047 63.2104C337.962 64.4657 338.478 65.9976 338.478 67.6045Z" fill="#9593F3" fill-opacity="0.33143"/>
<path d="M305.279 70.9146C309.4 70.9146 312.74 74.5122 312.74 78.9502C312.74 82.2585 310.884 85.0999 308.232 86.332L299.564 95.8343L299.583 95.8523L297.688 97.8914L292.432 100.515L289.406 86.1182L298.57 75.4288C299.782 72.7558 302.331 70.9146 305.279 70.9146Z" fill="#1B215B"/>
<path d="M301.835 71.4883C305.956 71.4883 309.297 75.086 309.297 79.5239C309.297 82.8886 307.376 85.7702 304.652 86.9673L304.664 86.9856L292.431 100.515C291.942 97.8868 290.667 95.4817 288.606 93.2994C286.545 91.1171 284.735 89.8588 283.175 89.5245L295.26 75.7208C296.52 73.201 298.991 71.4883 301.835 71.4883Z" fill="#959FFA"/>
<path d="M288.633 111.697C293.3 109.003 294.257 101.922 290.77 95.8827C287.283 89.8431 280.673 87.1313 276.006 89.8258C271.339 92.5203 270.382 99.6007 273.869 105.64C277.356 111.68 283.966 114.392 288.633 111.697Z" fill="#959FFA"/>
<path d="M337.141 87.5605C341.262 87.5605 344.603 91.1582 344.603 95.5962C344.603 98.9045 342.746 101.746 340.094 102.978L331.426 112.48L331.445 112.498L329.551 114.537L324.294 117.161L321.269 102.764L330.432 92.0748C331.644 89.4018 334.193 87.5605 337.141 87.5605Z" fill="#1B215B"/>
<path d="M333.697 88.1343C337.818 88.1343 341.159 91.732 341.159 96.1699C341.159 99.5346 339.239 102.416 336.514 103.613L336.526 103.632L324.294 117.161C323.805 114.533 322.529 112.128 320.468 109.945C318.407 107.763 316.597 106.505 315.037 106.17L327.122 92.3668C328.382 89.847 330.854 88.1343 333.697 88.1343Z" fill="#959FFA"/>
<path d="M320.777 128.343C325.444 125.649 326.401 118.568 322.914 112.529C319.427 106.489 312.817 103.777 308.15 106.472C303.483 109.166 302.526 116.247 306.013 122.286C309.5 128.326 316.11 131.038 320.777 128.343Z" fill="#959FFA"/>
<path d="M345.171 120.799L377.027 104.206L410.249 124.392L363.693 149.384L345.171 120.799Z" fill="#5C66C0"/>
<path d="M371.723 139.875L379.197 126.944L382.953 130.013L371.723 139.875Z" fill="#1B215B"/>
<path d="M347.681 121.085C347.681 121.085 358.404 122.838 362.05 126.569C365.696 130.299 367.11 145.724 367.11 145.724L377.711 124.392L348.87 106.815L347.681 121.085Z" fill="#1B215B"/>
<path d="M348.726 110.712C348.076 110.315 347.77 109.534 347.978 108.801C349.41 103.761 354.014 100.283 359.254 100.283H361.049C363.558 100.283 366.023 100.953 368.187 102.224L399.986 120.895L382.193 131.113L348.726 110.712Z" fill="#FF3F87"/>
<path d="M358.629 111.338C353.257 108.138 353.345 100.328 358.788 97.2502C361.295 95.8328 364.364 95.8441 366.86 97.2801L399.904 116.29L383.118 125.929L358.629 111.338Z" fill="#F8FCFF" stroke="#D0D4FF"/>
<path d="M408.455 109.993C412.463 110.886 418.721 113.22 424.312 115.829C427.104 117.132 429.716 118.497 431.787 119.777C432.822 120.416 433.716 121.031 434.427 121.601C435.143 122.176 435.649 122.686 435.932 123.114C436.207 123.528 436.535 124.42 436.889 125.75C437.236 127.056 437.592 128.722 437.943 130.627C438.646 134.438 439.326 139.183 439.883 143.888C440.439 148.592 440.871 153.248 441.077 156.878C441.18 158.694 441.226 160.246 441.205 161.416C441.194 162.002 441.166 162.483 441.122 162.849C441.075 163.238 441.016 163.43 440.982 163.491C440.859 163.713 440.509 164.087 439.904 164.598C439.318 165.092 438.545 165.673 437.638 166.308C435.825 167.576 433.507 169.04 431.154 170.429C428.802 171.818 426.424 173.128 424.492 174.088C423.525 174.569 422.677 174.959 422.004 175.228C421.667 175.362 421.38 175.464 421.148 175.531C420.907 175.6 420.758 175.623 420.685 175.623C420.489 175.623 420.054 175.522 419.372 175.285C418.714 175.056 417.889 174.722 416.949 174.307C415.07 173.479 412.755 172.339 410.447 171.098C408.14 169.857 405.848 168.52 404.013 167.298C403.096 166.687 402.299 166.109 401.673 165.59C401.039 165.063 400.615 164.625 400.409 164.297C400.197 163.958 399.993 163.446 399.801 162.767C399.61 162.096 399.437 161.291 399.273 160.384C399.029 159.032 398.808 157.481 398.575 155.842C398.495 155.279 398.413 154.706 398.329 154.127C397.999 151.871 397.627 149.536 397.126 147.438C396.627 145.348 395.991 143.447 395.115 142.083C393.378 139.379 390.134 137.457 387.16 135.756C387.002 135.666 386.844 135.575 386.687 135.486C385.351 134.724 384.081 133.999 382.995 133.25C381.777 132.409 380.847 131.575 380.329 130.683C379.219 128.768 377.971 125.321 377.593 121.612C377.216 117.9 377.718 114.02 379.992 111.151C381.089 109.767 382.867 108.857 385.116 108.321C387.361 107.786 390.022 107.637 392.813 107.733C398.394 107.925 404.404 109.089 408.455 109.993Z" fill="#F8FCFF" stroke="#D0D4FE"/>
<path d="M420.663 135.318C419.808 135.81 419.324 136.761 419.429 137.742L422.562 167.128C422.756 168.949 424.783 169.946 426.344 168.989L436.965 162.48C437.805 161.965 438.263 161.003 438.134 160.027L434.095 129.563C433.979 128.683 433.006 128.204 432.237 128.647L420.663 135.318Z" fill="#959FFA"/>
<path d="M421.314 136.72C420.614 137.117 420.221 137.896 420.318 138.694L423.762 167.121C423.936 168.557 425.534 169.336 426.773 168.588L435.602 163.26C436.288 162.845 436.66 162.061 436.546 161.268L432.335 132.029C432.234 131.334 431.466 130.958 430.855 131.304L421.314 136.72Z" fill="#1B215B"/>
<path d="M438.478 193.57C445.55 209.454 459.463 219.228 471.837 218.071C470.615 219.004 469.284 219.798 467.849 220.436C454.238 226.496 436.463 216.267 428.147 197.588C419.83 178.909 424.122 158.855 437.733 152.795C439.769 151.888 441.899 151.346 444.076 151.143C433.689 159.05 431.039 176.861 438.478 193.57Z" fill="#4A529E"/>
<path fill-rule="evenodd" clip-rule="evenodd" d="M477.436 175.643C469.119 156.964 451.344 146.735 437.733 152.795C424.122 158.855 419.83 178.909 428.147 197.588C436.463 216.267 454.238 226.496 467.849 220.436C481.46 214.376 485.752 194.322 477.436 175.643ZM431.309 197.901C425.378 184.58 428.434 170.279 438.136 165.96C447.837 161.641 460.51 168.938 466.441 182.259C472.372 195.581 469.315 209.881 459.614 214.2C449.912 218.52 437.24 211.222 431.309 197.901Z" fill="#5C66C0"/>
<path d="M458.213 210.478C466.344 206.858 468.826 194.695 463.758 183.312C458.69 171.928 447.99 165.635 439.859 169.255C431.728 172.875 429.245 185.038 434.313 196.421C439.382 207.805 450.082 214.098 458.213 210.478Z" fill="#959FFA"/>
<path d="M436.636 172.479C444.767 168.858 455.467 175.152 460.535 186.535C464.318 195.031 463.894 203.961 460.056 209.45C459.479 209.844 458.864 210.188 458.213 210.478C450.082 214.098 439.382 207.805 434.314 196.422C430.531 187.926 430.955 178.997 434.792 173.508C435.37 173.113 435.985 172.769 436.636 172.479Z" fill="#1B215B"/>
<path d="M450.021 187.293C452.078 191.914 452.578 196.681 451.745 200.644C450.912 204.608 448.759 207.728 445.54 209.161C442.32 210.594 438.562 210.106 435.059 208.073C431.556 206.041 428.347 202.48 426.29 197.859C424.233 193.239 423.734 188.471 424.567 184.508C425.4 180.545 427.552 177.425 430.772 175.992C433.991 174.558 437.75 175.046 441.253 177.079C444.755 179.112 447.964 182.673 450.021 187.293Z" fill="#F8FCFF" stroke="#D0D4FF"/>
<path d="M426.39 179.978C432.471 177.27 440.485 182 444.288 190.543C447.905 198.666 446.413 207.311 441.03 210.469C435.253 210.173 429.104 205.409 425.833 198.062C423.003 191.705 423.051 185.039 425.479 180.449C425.771 180.275 426.075 180.118 426.39 179.978Z" fill="#959FFA"/>
<path d="M434.547 177.683C434.428 177.616 434.321 177.537 434.235 177.461L424.751 127.994L426.908 127.625L436.207 175.701L436.213 175.732L436.218 175.753C436.218 175.753 436.218 175.753 436.218 175.753C436.219 175.759 436.222 175.772 436.226 175.791C436.233 175.831 436.243 175.897 436.252 175.983C436.27 176.158 436.279 176.39 436.249 176.63C436.19 177.109 436.012 177.469 435.597 177.686C435.146 177.921 434.827 177.839 434.547 177.683Z" fill="#F8FCFF" stroke="#D0D4FF" stroke-width="2.8"/>
<path d="M419.258 111.723L426.26 110.401L434.145 152.445C434.145 152.445 433.288 154.249 431.3 154.98C429.312 155.711 427.251 154.781 427.251 154.781L419.258 111.723Z" fill="#959FFA"/>
<path d="M426.312 109.505L428.043 118.89C428.022 118.905 428 118.921 427.977 118.938C427.783 119.079 427.491 119.275 427.109 119.486C426.346 119.908 425.229 120.386 423.824 120.607C422.392 120.831 421.178 120.831 420.325 120.775C419.899 120.747 419.563 120.706 419.337 120.671C419.336 120.671 419.334 120.671 419.333 120.671L417.847 111.226C417.806 110.963 417.978 110.713 418.239 110.659L425.719 109.106C425.994 109.049 426.262 109.229 426.312 109.505Z" fill="#F8FCFF" stroke="#D0D4FF"/>
<path d="M420.089 120.457C421.801 120.125 422.796 117.837 422.312 115.348C421.828 112.858 420.049 111.11 418.337 111.443C416.626 111.775 415.631 114.063 416.114 116.552C416.598 119.042 418.378 120.79 420.089 120.457Z" fill="#5C66C0"/>
<path d="M417.868 120.533C419.424 120.231 420.342 118.22 419.919 116.042C419.495 113.863 417.891 112.343 416.335 112.645C414.779 112.948 413.861 114.959 414.284 117.137C414.708 119.315 416.312 120.836 417.868 120.533Z" fill="#5C66C0"/>
<path d="M416.177 114.405L394.837 118.898C394.837 118.898 394.551 119.856 394.837 121.06C395.124 122.264 395.681 123.412 395.681 123.412L417.101 118.479C417.101 118.479 417.703 117.206 417.423 116.022C417.143 114.838 416.177 114.405 416.177 114.405Z" fill="#1B215B"/>
<path d="M441.291 104.407L446.987 100.919C446.987 100.919 448.258 100.949 448.688 101.743C449.118 102.538 449.02 103.637 449.02 103.637L441.351 108.853L441.291 104.407Z" fill="#1B215B"/>
<path d="M442.785 108.522L452.089 106.566" stroke="#1B215B" stroke-width="1.75" stroke-linecap="round"/>
<path d="M442.428 110.517C444.134 110.154 445.169 108.227 444.741 106.211C444.312 104.196 442.582 102.856 440.877 103.218C439.172 103.581 438.136 105.508 438.565 107.524C438.993 109.539 440.723 110.879 442.428 110.517Z" fill="#5C66C0"/>
<path d="M440.665 103.778L442.393 113.15C442.372 113.165 442.35 113.181 442.327 113.198C442.133 113.34 441.841 113.536 441.459 113.746C440.696 114.168 439.579 114.647 438.174 114.867C436.731 115.093 435.81 115.09 435.264 115.037C435.071 115.018 434.925 114.993 434.821 114.97L432.822 105.489C432.766 105.221 432.936 104.957 433.204 104.898L440.065 103.38C440.341 103.319 440.613 103.5 440.665 103.778Z" fill="#F8FCFF" stroke="#D0D4FF"/>
<path d="M449.862 134.292L448.878 122.929L454.417 125.872C456.569 127.016 457.415 129.668 456.322 131.846L456.053 132.383C454.92 134.64 452.148 135.518 449.922 134.324L449.862 134.292Z" fill="#F8FCFF" stroke="#D0D4FF"/>
<path d="M453.449 134.148C454.655 134.54 456.109 133.391 456.696 131.582C457.284 129.774 456.783 127.989 455.577 127.598C454.371 127.206 452.917 128.355 452.329 130.163C451.742 131.972 452.243 133.756 453.449 134.148Z" fill="#733DFF"/>
<path d="M432.487 142.777L432.362 142.701L432.216 142.704L427.114 142.82L422.435 140.088C422.058 139.868 421.795 139.494 421.716 139.064L419.162 125.212C419.088 124.814 419.493 124.498 419.861 124.667L426.096 127.52L426.325 127.625L426.546 127.503L443.839 117.92C444.025 117.817 444.247 117.798 444.449 117.869L447.985 119.114C448.261 119.211 448.455 119.46 448.481 119.751L450.706 144.294C450.759 144.876 450.469 145.435 449.964 145.728L444.257 149.032C443.782 149.307 443.194 149.301 442.725 149.015L432.487 142.777Z" fill="#F8FCFF" stroke="#D0D4FF"/>
<path d="M426.304 127.066L443.635 117.461C443.881 117.325 444.167 117.284 444.438 117.344L444.573 117.383L448.211 118.663C448.454 118.749 448.655 118.911 448.791 119.118L431.241 129.077C430.9 129.271 430.484 129.277 430.137 129.094L426.304 127.066L443.635 117.461L426.304 127.066Z" fill="#5C66C0"/>
<path d="M439.103 129.146C437.448 130.097 436.86 132.199 437.782 133.871L443.056 143.435C443.939 145.037 445.959 145.61 447.551 144.711C448.701 144.061 449.351 142.787 449.201 141.476L447.563 127.104C447.421 125.854 446.044 125.158 444.953 125.785L439.103 129.146Z" fill="#FF3F87"/>
<path d="M362.79 150.336C369.104 146.69 370.368 137.059 365.613 128.823C360.858 120.587 351.885 116.866 345.57 120.511C339.256 124.157 337.992 133.788 342.747 142.024C347.502 150.26 356.476 153.981 362.79 150.336Z" fill="#959FFA"/>
<path d="M360.146 132.109C363.521 137.955 362.446 144.496 358.284 146.899C354.121 149.302 347.92 146.963 344.544 141.116C341.169 135.27 342.244 128.73 346.406 126.326C350.569 123.923 356.77 126.262 360.146 132.109Z" fill="#0D134E" stroke="#FF3F87" stroke-width="1.5"/>
<path d="M385.586 158.47C389.991 155.927 390.882 149.224 387.576 143.498C384.27 137.772 378.019 135.191 373.615 137.734C369.21 140.277 368.32 146.981 371.625 152.707C374.931 158.433 381.182 161.013 385.586 158.47Z" fill="#959FFA"/>
<path d="M383.24 146.889C384.208 148.566 384.565 150.363 384.38 151.9C384.194 153.437 383.476 154.682 382.321 155.349C381.167 156.015 379.729 156.015 378.305 155.407C376.881 154.799 375.504 153.592 374.536 151.914C373.567 150.237 373.211 148.441 373.396 146.904C373.581 145.367 374.3 144.121 375.454 143.455C376.609 142.788 378.046 142.788 379.47 143.396C380.894 144.005 382.271 145.212 383.24 146.889Z" fill="#F8FCFF" stroke="#D0D4FF"/>
<path d="M417.512 118.37L402.985 130.012" stroke="#1B215B" stroke-width="1.75" stroke-linecap="round"/>
<path opacity="0.338611" d="M224.017 174.473C237.24 174.473 247.96 166.021 247.96 155.595C247.96 145.168 237.24 136.716 224.017 136.716C210.793 136.716 200.073 145.168 200.073 155.595C200.073 166.021 210.793 174.473 224.017 174.473Z" fill="black" fill-opacity="0.28827"/>
<path d="M217.396 24.0356L234.303 26.2734C241.1 27.1851 246.238 32.821 246.487 39.6172L247.481 61.8292C247.647 66.139 245.824 70.3659 242.509 73.1839L234.884 79.6485L216.318 76.7477L217.396 24.0356Z" fill="#959FFA"/>
<path d="M227.17 26.1499C232.078 27.3261 235.817 28.9797 238.388 31.1106C242.244 34.3069 244.015 37.4768 245.005 39.6172C245.996 41.7575 247.128 47.5332 244.541 51.2915L244.12 51.9097C241.786 55.3689 240.402 58.118 240.906 62.1095L240.968 62.5866C241.279 64.8951 241.873 68.3578 242.748 72.9744L242.509 73.1838L235.9 78.7857L216.807 52.8507L217.228 32.2168L227.17 26.1499Z" fill="black" fill-opacity="0.28827"/>
<path d="M205.305 80.3332C208.123 94.5058 210.112 103.125 211.438 106.109C213.427 110.585 223.87 137.42 224.699 137.917C225.113 138.166 225.776 138.166 225.942 138.331C226.191 138.497 226.191 139.077 226.025 139.16C225.942 139.326 218.731 145.791 218.068 147.282C217.405 148.691 217.82 152.504 221.549 152.007C225.279 151.509 225.693 148.691 227.434 147.863C229.174 147.034 234.147 144.962 234.147 143.387C234.147 141.812 232.075 137.917 232.49 137.42C232.904 136.922 233.07 137.005 233.07 135.099C233.07 133.193 232.241 119.453 230.915 115.889C229.589 112.325 229.091 111.745 228.677 109.756C228.428 108.43 228.097 97.821 227.765 77.9297L205.305 80.3332Z" fill="#5428C6"/>
<path d="M232.572 137.502C232.324 138.165 234.23 141.895 234.23 143.387C234.23 144.962 229.34 147.034 227.517 147.863C225.776 148.691 225.279 151.509 221.632 152.007C217.902 152.504 217.488 148.691 218.151 147.282C218.814 145.873 225.942 139.326 226.108 139.16C226.19 139.077 226.19 138.746 226.108 138.497C227.185 138.58 228.18 138.58 229.257 138.414C230.334 138.248 231.412 138 232.572 137.502Z" fill="#959FFA"/>
<path d="M234.23 143.387C234.23 144.962 229.34 147.034 227.517 147.862C225.777 148.691 225.279 151.509 221.632 152.006C221.226 152.061 220.858 152.064 220.527 152.024L220.745 151.932C222.237 151.295 223.226 150.799 223.713 150.442C225.11 149.416 226.088 147.859 226.636 147.395C227.983 146.256 229.911 145.691 231.704 144.481C232.583 143.887 233.376 143.211 234.084 142.453C234.175 142.812 234.23 143.132 234.23 143.387Z" fill="#5C66C0"/>
<path d="M228.677 106.026C228.76 108.181 228.843 109.424 228.926 109.839C227.019 110.999 225.113 112.159 223.29 113.237C221.384 114.397 219.063 115.143 216.411 115.475C214.173 111.331 212.267 107.601 211.521 106.109C211.189 105.363 210.858 104.369 210.443 103.043C211.604 102.877 213.178 102.794 215.168 102.794C218.234 102.794 222.71 103.871 228.677 106.026Z" fill="#959FFA"/>
<path d="M213.417 28.6768C212.09 28.2624 210.93 28.511 209.853 29.5885C208.278 31.1632 202.062 46.9105 200.984 47.9051C199.907 48.8996 198.498 51.5518 198.084 52.9608C197.586 54.3698 187.43 68.3405 187.43 70.9927C187.43 72.7332 187.732 74.1782 191.296 75.5872L208.2 59.2298L213.417 28.6768Z" fill="#380085"/>
<path d="M223.666 27.3098C233.031 28.8846 238.75 32.1169 240.905 36.8411C239.081 45.1292 238.17 52.174 238.17 57.727C238.17 66.1808 240.822 72.5626 240.242 74.2203C239.662 75.9608 236.844 77.2868 236.844 78.8616C236.844 80.4363 238.17 81.8453 238.17 86.7352C238.17 91.5423 228.97 108.118 228.97 112.345C228.97 116.572 229.633 120.716 228.97 125.109C228.307 129.502 224.329 138.121 223.749 140.773C223.168 143.426 223.583 144.503 222.671 145.083C222.091 145.415 221.759 145.746 221.676 145.829V154.614C221.676 155.278 218.941 158.593 217.698 160.002C216.455 161.411 209.99 166.301 206.675 164.063C203.36 161.825 207.421 157.847 209.907 155.278C212.394 152.708 213.554 152.294 213.554 148.15C213.554 145.912 213.554 145 213.554 145.58C212.56 144.669 211.979 143.923 211.979 143.177C211.979 142.099 211.814 116.655 212.643 111.682C213.223 108.367 214.88 99.8304 217.615 86.0722L208.167 84.0002C207.504 62.617 207.504 50.102 208.167 46.621C208.83 43.14 210.322 37.1726 212.394 28.6359C215.295 26.8954 219.024 26.481 223.666 27.3098Z" fill="#E3EFF9"/>
<path d="M223.666 27.3098C233.031 28.8846 238.75 32.1169 240.905 36.8411C239.081 45.1292 238.17 52.174 238.17 57.727C238.17 66.1808 240.822 72.5626 240.242 74.2203C239.662 75.9608 236.844 77.2868 236.844 78.8616C236.844 80.4363 238.17 81.8453 238.17 86.7352C238.17 91.5423 228.97 108.118 228.97 112.345C228.97 116.572 229.633 120.716 228.97 125.109C228.307 129.502 224.329 138.121 223.749 140.773C223.168 143.426 223.583 144.503 222.671 145.083C222.091 145.415 221.759 145.746 221.676 145.829V154.614C221.676 155.278 218.941 158.593 217.698 160.002C216.455 161.411 209.99 166.301 206.675 164.063C203.36 161.825 207.421 157.847 209.907 155.278C212.394 152.708 213.554 152.294 213.554 148.15C213.554 145.912 213.554 145 213.554 145.58C212.56 144.669 211.979 143.923 211.979 143.177C211.979 142.099 211.814 116.655 212.643 111.682C213.223 108.367 214.88 99.8304 217.615 86.0722L208.167 84.0002C207.504 62.617 206.604 49.825 207.267 46.344C207.93 42.863 210.322 37.1726 212.394 28.6359C215.295 26.8954 219.024 26.481 223.666 27.3098Z" fill="#733DFF"/>
<path d="M210.831 35.4766L210.606 36.6123C209.545 42.0203 208.862 46.2521 208.556 49.3076L208.333 51.7387C208.254 52.5705 208.168 53.4356 208.076 54.334C211.928 56.6443 218.697 56.3254 221.484 54.8381C225.916 52.4735 229.714 47.9567 232.878 41.2876L238.35 53.1675C238.23 54.7826 238.17 56.3039 238.17 57.7272C238.17 63.1421 239.258 67.7069 239.888 70.7247L216.564 91.3741L217.615 86.0723L207.158 84.2796C206.893 76.3951 206.76 68.0983 206.868 60.2421C205.371 55.0057 205.168 50.5892 206.259 46.9933C207.44 43.0982 208.964 39.2593 210.831 35.4766Z" fill="black" fill-opacity="0.28827"/>
<path d="M216.805 91.3739C216.805 91.3739 224.568 84.1865 228.925 83.4505C233.282 82.7146 238.16 83.7518 238.16 83.7518L236.433 77.8893C236.433 77.8893 232.445 77.7294 228.254 78.8383C224.062 79.9471 216.98 86.0928 216.98 86.0928H213.416L216.805 91.3739Z" fill="#959FFA"/>
<path d="M221.759 145.663C221.676 145.746 221.593 145.829 221.593 145.912V154.615C221.593 155.278 218.858 158.593 217.615 160.002C216.372 161.411 209.907 166.301 206.592 164.063C203.277 161.825 207.338 157.847 209.824 155.278C212.311 152.708 213.471 152.294 213.471 148.15V145.581C214.466 145.912 215.626 146.078 216.869 146.078C218.278 146.078 219.936 145.912 221.759 145.663Z" fill="#959FFA"/>
<path d="M221.594 153.768L221.594 154.615C221.594 155.278 218.859 158.593 217.616 160.002L217.482 160.146C215.965 161.714 209.802 166.23 206.592 164.063C206.081 163.718 205.745 163.331 205.552 162.914C206.864 163.613 208.021 163.903 209.023 163.785C210.804 163.575 214.822 161.705 216.659 159.659L217.094 159.167C218.171 157.94 219.67 156.14 221.594 153.768Z" fill="#5C66C0"/>
<path d="M229.218 110.771C229.052 111.434 228.97 112.014 228.97 112.429C228.97 113.589 229.052 114.666 229.052 115.744C224.08 117.65 220.35 118.479 217.864 118.396C215.792 118.313 213.968 117.982 212.311 117.401C212.393 114.749 212.559 112.677 212.725 111.517C212.891 110.439 213.222 108.782 213.637 106.461C215.626 106.295 217.615 106.212 219.77 106.461C222.422 106.71 225.571 108.119 229.218 110.771Z" fill="#959FFA"/>
<path d="M216.396 91.9167L231.6 77.8691H216.234L212.311 85.8866L216.396 91.9167Z" fill="black" fill-opacity="0.28827"/>
<path d="M227.686 28.68L222.906 37.0919C222.741 37.3405 222.409 37.5063 222.16 37.4234L218.928 36.8432C218.514 36.7604 218.265 36.4288 218.348 36.0144L219.221 28.4873C220.298 28.5702 221.209 29.7542 222.452 30.0029C223.861 30.4173 226.36 28.3484 227.686 28.68Z" fill="#380085"/>
<path fill-rule="evenodd" clip-rule="evenodd" d="M226.596 29.3396L222.7 36.1358C222.535 36.3845 222.203 36.5502 221.954 36.4674L218.722 35.8872C218.308 35.8043 218.059 35.4728 218.142 35.0584L218.971 27.9307C220.048 28.0135 221.208 28.0964 222.452 28.3451C223.861 28.7595 225.27 29.0081 226.596 29.3396Z" fill="#BAC8FF"/>
<path d="M208.907 41.0836L207.188 47.2419C207.105 47.5735 207.188 47.8221 207.52 48.0707C208.701 48.6509 209.464 49.4821 213.335 50.5163C216.221 51.287 221.521 51.8358 224.034 52.0653C224.853 52.1401 225.61 51.6396 225.874 50.8604L227.781 45.2346C227.963 44.6983 227.611 44.1292 227.05 44.0523C224.638 43.7215 218.87 42.918 216.791 42.5179C212.832 41.756 211.095 40.5343 209.735 40.5034C209.321 40.5034 208.989 40.7521 208.907 41.0836Z" fill="#E7F0F8"/>
<path d="M204.254 49.379L222.239 52.6114C222.985 52.7771 223.482 53.3573 223.482 54.1032V73.8288C223.482 74.2432 223.316 74.6576 222.985 74.9891L209.89 85.9294C209.558 86.2609 209.061 86.3438 208.646 86.2609L188.755 81.9511C188.092 81.7853 187.595 81.2052 187.595 80.5421V60.485C187.595 59.9877 187.843 59.4905 188.258 59.2418L203.259 49.7105C203.508 49.379 203.839 49.2961 204.254 49.379Z" fill="#D0D4FF"/>
<path d="M222.902 52.9429C223.234 53.1915 223.482 53.6059 223.482 54.1032V73.8288C223.482 74.2432 223.316 74.6576 222.985 74.9891L209.89 85.9294C209.724 86.0951 209.558 86.178 209.31 86.2609V65.1263C209.31 64.5462 209.558 64.0489 209.973 63.7174L222.902 52.9429Z" fill="#5C66C0"/>
<path d="M209.227 86.1781C208.979 86.2609 208.73 86.2609 208.481 86.1781L188.59 81.8683C187.927 81.7025 187.43 81.1223 187.43 80.4593V60.4022C187.43 60.1535 187.513 59.822 187.678 59.6562L208.398 64.0489C208.896 64.1318 209.31 64.6291 209.31 65.1264V86.1781H209.227Z" fill="#F8FCFF"/>
<path d="M238.199 33.8985C242.592 32.8211 245.161 43.0154 242.84 47.491C240.52 51.9665 233.889 65.3932 232.977 66.8022C231.983 68.2111 221.54 78.3226 219.799 79.0685C218.059 79.8144 217.147 78.9027 216.733 79.4C216.318 79.8973 215.572 80.3946 215.572 81.3063C215.572 82.2179 216.07 82.3837 215.821 83.1296C215.572 83.8756 214.081 88.5998 213.335 89.5114C212.589 90.4231 205.793 92.9924 204.384 91.4177C202.975 89.843 206.953 83.0468 206.621 82.7152C206.207 82.3008 205.627 83.8756 204.218 84.2071C202.809 84.5386 202.394 83.544 202.643 83.2954C202.892 83.0468 205.378 80.9747 205.875 79.8144C206.456 78.6541 209.191 77.4938 210.019 77.4938C210.848 77.4938 211.843 76.5821 211.843 75.919C211.843 75.256 211.428 74.1785 211.843 73.5984C212.257 73.0182 221.954 60.2546 223.28 60.2546C224.524 60.2546 224.772 59.0943 224.772 58.3483C224.689 57.7682 231.817 35.4733 238.199 33.8985Z" fill="#380085"/>
<path d="M216.981 79.317C216.899 79.317 216.816 79.3999 216.733 79.3999C216.318 79.8143 215.572 80.3945 215.572 81.3062C215.572 82.2179 216.07 82.3836 215.821 83.1295C215.572 83.8755 214.081 88.5997 213.335 89.5113C212.589 90.423 205.793 92.9923 204.384 91.4176C202.975 89.8429 206.953 83.0467 206.621 82.7151C206.207 82.3007 205.627 83.8755 204.218 84.207C202.809 84.5385 202.394 83.5439 202.643 83.2953C202.892 83.0467 205.378 80.9746 205.875 79.8143C206.456 78.654 209.191 77.4937 210.019 77.4937C210.848 77.4937 211.843 76.582 211.843 75.9189C211.843 75.836 211.843 75.6703 211.843 75.5874C212.672 76.4991 213.418 77.1621 213.998 77.5765C214.578 78.1567 215.572 78.7369 216.981 79.317Z" fill="#959FFA"/>
<path d="M239.51 46.9934C241.341 46.9934 242.825 45.1752 242.825 42.9322C242.825 40.6893 241.341 38.8711 239.51 38.8711C237.679 38.8711 236.194 40.6893 236.194 42.9322C236.194 45.1752 237.679 46.9934 239.51 46.9934Z" fill="#959FFA"/>
<path d="M240.587 46.9934C242.418 46.9934 243.902 45.1752 243.902 42.9322C243.902 40.6893 242.418 38.8711 240.587 38.8711C238.756 38.8711 237.271 40.6893 237.271 42.9322C237.271 45.1752 238.756 46.9934 240.587 46.9934Z" fill="#E7F0F8"/>
<path d="M221.458 30.1688C223.115 30.5832 225.685 30.086 228.917 28.677C228.585 27.6824 228.42 26.6878 228.42 25.5275C228.42 23.787 229.497 19.8916 230.077 17.7367C230.657 15.5818 230.657 10.4432 228.171 8.61987C225.685 6.71361 220.256 6.30996 217.213 7.34167C213.444 8.61987 214.394 10.1605 214.166 13.5254C213.937 16.8902 214.479 25.2836 215.557 26.15C216.636 27.0163 219.514 27.3279 219.1 27.5766C219.597 28.5711 219.8 29.7544 221.458 30.1688Z" fill="#FFA877"/>
<path d="M223.877 30.2265L223.723 30.2465C222.845 30.3516 222.085 30.3256 221.457 30.1684C219.865 29.7706 219.615 28.6641 219.157 27.6963L219.099 27.5761C220.278 28.067 221.828 27.9916 223.749 27.3499L224.04 27.2494C225.902 26.5855 225.847 27.5778 223.877 30.2265Z" fill="black" fill-opacity="0.28827"/>
<path d="M219.484 6.26935C222.42 6.26935 227.258 5.87987 229.578 7.7002C231.898 9.52053 231.898 14.4275 231.357 16.4061C230.97 17.9099 229.037 21.1548 228.109 23.45L228.032 23.5292C229.269 17.7516 229.269 14.4275 228.032 13.7152C226.176 12.6072 225.634 17.3559 224.938 17.3559C224.243 17.3559 225.325 12.9238 224.011 12.2115C223.457 11.9116 221.582 11.6774 219.262 12.2115C217.746 12.5603 213.418 12.2115 213.418 12.2115C213.418 12.2115 214.114 6.26935 219.484 6.26935Z" fill="#0D134E"/>
<path d="M185.998 69.3479C185.469 70.6536 184.852 74.3019 185.919 76.5232C186.986 78.7445 188.37 80.0159 189.931 80.6018C191.228 81.0488 193.641 78.6285 193.194 76.7586C192.704 74.4767 188.826 72.4675 188.436 71.9252C188.046 71.3828 187.482 70.7754 188.098 70.294C189.182 69.5133 190.284 68.8974 190.198 68.0732C190.05 66.6719 186.454 68.1333 185.998 69.3479Z" fill="#959FFA"/>
<path d="M238.279 16.1617C238.279 24.8115 231.267 31.8234 222.617 31.8234C213.967 31.8234 206.955 24.8115 206.955 16.1617C206.955 7.51199 213.967 0.5 222.617 0.5C231.267 0.5 238.279 7.51199 238.279 16.1617Z" fill="#9286FF" fill-opacity="0.193018" stroke="#ECEAFE"/>
<path opacity="0.504464" fill-rule="evenodd" clip-rule="evenodd" d="M212.531 10.9279C213.157 9.45315 212.981 7.96768 212.138 7.60997C211.296 7.25227 210.105 8.15779 209.479 9.63251C208.853 11.1072 209.029 12.5927 209.872 12.9504C210.714 13.3081 211.905 12.4026 212.531 10.9279Z" fill="white"/>
<path d="M155.838 231.057C224.61 273.611 259.404 289.212 273.024 271.778C282.103 260.158 298.598 239.044 275.477 212.154C263.907 198.699 222.205 181.238 205.164 167.923C154.064 128 80.6251 132.826 67.0043 150.26C53.3834 167.694 87.0659 188.503 155.838 231.057Z" fill="black" fill-opacity="0.180698"/>
<path d="M35.2333 264.721C50.4912 264.721 62.8602 256.268 62.8602 245.842C62.8602 235.416 50.4912 226.964 35.2333 226.964C19.9754 226.964 7.60645 235.416 7.60645 245.842C7.60645 256.268 19.9754 264.721 35.2333 264.721Z" fill="black" fill-opacity="0.180698"/>
<path d="M260.546 238.291C262.683 242.874 263.266 247.632 262.502 251.609C261.738 255.587 259.64 258.744 256.447 260.233C253.253 261.722 249.486 261.3 245.948 259.328C242.411 257.357 239.14 253.853 237.003 249.269C234.865 244.685 234.283 239.927 235.047 235.95C235.81 231.973 237.908 228.816 241.102 227.326C244.296 225.837 248.063 226.259 251.6 228.231C255.138 230.202 258.408 233.707 260.546 238.291Z" fill="#F8FCFF" stroke="#D0D4FF"/>
<path d="M237.343 249.111C234.186 242.341 234.503 235.288 237.421 230.994C243.079 230.436 249.799 234.886 253.39 242.587C256.547 249.357 256.23 256.409 253.313 260.703C247.654 261.261 240.934 256.812 237.343 249.111Z" stroke="#467FFF" stroke-width="1.75"/>
<path d="M243.738 227.824C243.618 227.76 243.51 227.682 243.422 227.608L233.077 178.314L235.227 177.908L245.364 225.814L245.37 225.845L245.376 225.866C245.376 225.866 245.376 225.866 245.376 225.866C245.377 225.872 245.38 225.884 245.384 225.904C245.392 225.944 245.403 226.01 245.414 226.095C245.435 226.27 245.447 226.501 245.422 226.743C245.371 227.222 245.2 227.585 244.788 227.809C244.341 228.052 244.021 227.976 243.738 227.824Z" fill="#F8FCFF" stroke="#D0D4FF" stroke-width="2.8"/>
<path d="M227.134 165.158L234.111 163.714L242.897 202.597C242.897 202.597 242.071 204.416 240.096 205.182C238.121 205.948 236.044 205.054 236.044 205.054L227.134 165.158Z" fill="#959FFA"/>
<path d="M201.824 212.74L179.589 217.266L170.493 197.786L183.156 185.598L201.824 212.74Z" fill="#5C66C0"/>
<path d="M179.922 217.26L194.395 203.407L197.008 213.684L179.922 217.26Z" fill="#1B215B"/>
<path d="M72.1418 131.676L70.6593 132.58C63.5521 136.837 59.2436 144.559 59.3879 152.823L59.4149 154.372C59.5637 162.895 64.4008 170.663 72.0121 174.56L108.919 193.343C116.582 197.239 125.714 196.511 132.653 191.482L134.234 190.317C140.305 185.872 143.849 178.783 143.718 171.242L143.689 169.589C143.542 161.17 138.759 153.556 131.253 149.76L94.3468 131.03C87.3073 127.329 78.9427 127.63 72.1418 131.676Z" fill="#5C66C0"/>
<path d="M67.9448 145.802C68.2613 143.213 69.0553 141.339 70.3276 140.232C72.2623 138.597 74.5701 140.571 78.4351 137.042C82.3001 133.513 79.5356 132.011 81.1133 130.641C82.1817 129.692 83.6292 129.179 86.7726 128.711" stroke="white" stroke-width="0.5" stroke-linecap="round"/>
<path d="M63.9062 151.194C62.6957 149.923 61.902 148.852 61.5759 147.928C61.2498 147.004 61.1487 145.454 61.1172 143.646" stroke="white" stroke-width="0.5" stroke-linecap="round"/>
<path d="M85.5941 150.557C85.6223 149.214 86.2721 147.962 87.5444 146.855C89.4792 145.22 92.1902 146.619 96.1069 143.089C99.9719 139.56 96.7524 138.635 98.3818 137.263C99.4502 136.314 100.733 135.827 103.262 135.679" stroke="white" stroke-width="0.5" stroke-linecap="round"/>
<path d="M103.734 159.696C103.762 158.352 104.412 157.101 105.684 155.993C107.619 154.358 110.33 155.757 114.247 152.227C118.111 148.698 114.892 147.773 116.521 146.401C117.59 145.452 118.873 144.965 121.402 144.818" stroke="white" stroke-width="0.5" stroke-linecap="round"/>
<path d="M120.134 172.843C120.766 170.558 121.718 168.837 122.99 167.73C124.925 166.094 128.112 168.157 131.978 164.679C135.843 161.15 132.409 159.764 134.039 158.392C135.107 157.443 136.39 156.956 138.919 156.808" stroke="white" stroke-width="0.5" stroke-linecap="round"/>
<path d="M122.339 185.784C124.057 184.152 125.76 183.166 127.421 182.872C129.921 182.467 131.591 185.877 136.696 184.887C139.575 184.342 140.312 183.082 140.995 182.105" stroke="white" stroke-width="0.5" stroke-linecap="round"/>
<path d="M116.064 191.451C117.023 192.738 118.209 194.185 120.894 194.905C123.707 195.727 124.948 194.982 126.198 194.725" stroke="white" stroke-width="0.5" stroke-linecap="round"/>
<path d="M99.477 185.065C99.6689 185.926 100.058 186.868 100.696 187.897C102.28 190.362 103.705 190.615 104.817 191.241" stroke="white" stroke-width="0.5" stroke-linecap="round"/>
<path d="M81.9848 176.151C82.1767 177.012 82.566 177.954 83.204 178.983C84.7876 181.448 86.2127 181.701 87.3246 182.326" stroke="white" stroke-width="0.5" stroke-linecap="round"/>
<path d="M67.3763 166.913C67.3694 167.795 67.537 168.8 67.9271 169.946C68.9155 172.705 70.2473 173.271 71.1899 174.131" stroke="white" stroke-width="0.5" stroke-linecap="round"/>
<path d="M64.5572 161.826C63.4155 161.536 62.5321 161.241 61.9585 160.941C61.3333 160.642 60.7819 159.927 60.0996 159.319" stroke="white" stroke-width="0.5" stroke-linecap="round"/>
<path d="M75.9474 145.456C74.7486 144.857 73.3478 144.52 72.0049 144.543C67.3564 144.624 63.6518 148.46 63.7329 153.109L63.8014 157.034C63.9105 163.284 67.4702 168.905 72.9956 171.702L110.526 190.68C111.725 191.279 113.126 191.616 114.469 191.593C119.117 191.511 122.822 187.675 122.741 183.027L122.738 182.872C122.589 174.349 117.752 166.581 110.09 162.736L75.9474 145.456Z" fill="#1B215B"/>
<path d="M86.6585 174.821C92.9081 171.066 94.0037 161.414 89.1058 153.262C84.2078 145.11 75.1709 141.546 68.9213 145.301C62.6717 149.056 61.5761 158.709 66.4741 166.86C71.372 175.012 80.4089 178.576 86.6585 174.821Z" fill="#F8FCFF"/>
<path d="M119.087 190.903C125.337 187.148 126.432 177.496 121.534 169.344C116.636 161.192 107.6 157.628 101.35 161.383C95.1005 165.138 94.0048 174.791 98.9028 182.942C103.801 191.094 112.838 194.658 119.087 190.903Z" fill="#F8FCFF"/>
<path d="M148.336 170.779C144.206 173.268 139.059 173.35 134.852 170.994L82.1834 141.502L82.1721 138.929L107.759 124.443L148.101 147.652C156.967 152.752 157.096 165.499 148.336 170.779Z" fill="#380085"/>
<path d="M144.583 170.141C142.742 171.251 140.447 171.29 138.568 170.244L82.1362 138.829L110.042 123.152L158.925 151.075C162.903 153.348 162.97 159.059 159.046 161.424L144.583 170.141Z" fill="#959FFA"/>
<path d="M135.451 167.811L118.331 158.271L118.213 151.52C118.142 147.441 120.267 143.638 123.779 141.56L138.4 132.91C141.802 130.898 146.006 130.801 149.496 132.655L157.631 136.976C160.072 138.273 161.618 140.793 161.666 143.557L161.807 151.643L135.451 167.811Z" fill="#F8FCFF" stroke="#D0D4FF"/>
<path d="M162.159 143.171L162.311 151.92L136.843 167.543L136.585 152.778L160.651 138.803C161.587 140.042 162.131 141.565 162.159 143.171Z" fill="#9593F3" fill-opacity="0.33143"/>
<path d="M105.437 151.333L88.3176 141.794L88.2011 135.115C88.1292 130.999 90.2936 127.167 93.856 125.103L108.895 116.391C112.331 114.4 116.557 114.352 120.038 116.263L127.708 120.473C130.099 121.785 131.603 124.278 131.651 127.005L131.793 135.165L105.437 151.333Z" fill="#F8FCFF" stroke="#D0D4FF"/>
<path d="M131.547 127.15L131.7 135.899L106.232 151.522L105.974 136.757L130.04 122.781C130.976 124.02 131.519 125.543 131.547 127.15Z" fill="#9593F3" fill-opacity="0.33143"/>
<path d="M98.4111 131.039C102.531 130.967 105.934 134.506 106.012 138.943C106.07 142.251 104.263 145.124 101.633 146.403L93.1319 156.055L93.151 156.072L91.2927 158.144L86.0824 160.859L82.8064 146.517L91.782 135.67C92.9472 132.976 95.4635 131.09 98.4111 131.039Z" fill="#1B215B"/>
<path d="M94.9775 131.673C99.0978 131.601 102.501 135.14 102.578 139.577C102.637 142.941 100.767 145.856 98.0641 147.1L98.0764 147.118L86.0821 160.859C85.5471 158.24 84.2302 155.858 82.1314 153.712C80.0325 151.566 78.2004 150.339 76.6351 150.032L88.4776 136.019C89.6929 133.478 92.1345 131.722 94.9775 131.673Z" fill="#959FFA"/>
<path d="M82.4805 172.106C87.0998 169.33 87.9326 162.234 84.3408 156.256C80.7489 150.278 74.0925 147.682 69.4733 150.458C64.854 153.233 64.0211 160.329 67.613 166.307C71.2049 172.285 77.8613 174.881 82.4805 172.106Z" fill="#959FFA"/>
<path d="M130.559 147.126C134.679 147.054 138.082 150.593 138.159 155.031C138.217 158.338 136.411 161.212 133.78 162.49L125.279 172.142L125.298 172.16L123.44 174.232L118.23 176.947L114.954 162.605L123.929 151.757C125.095 149.063 127.611 147.178 130.559 147.126Z" fill="#1B215B"/>
<path d="M127.125 147.76C131.245 147.688 134.648 151.227 134.726 155.664C134.784 159.029 132.915 161.943 130.212 163.188L130.224 163.206L118.23 176.946C117.695 174.327 116.378 171.945 114.279 169.799C112.18 167.653 110.348 166.426 108.783 166.119L120.625 152.107C121.84 149.566 124.282 147.81 127.125 147.76Z" fill="#959FFA"/>
<path d="M114.908 188.188C119.528 185.413 120.36 178.317 116.769 172.339C113.177 166.361 106.52 163.765 101.901 166.54C97.2817 169.316 96.4489 176.412 100.041 182.39C103.633 188.368 110.289 190.964 114.908 188.188Z" fill="#959FFA"/>
<path d="M139.167 180.219L170.728 163.072L204.297 182.676L158.184 208.476L139.167 180.219Z" fill="#5C66C0"/>
<path d="M166.047 198.829L173.295 185.77L177.103 188.772L166.047 198.829Z" fill="#1B215B"/>
<path d="M141.681 180.462C141.681 180.462 152.433 182.027 156.144 185.694C159.854 189.36 161.537 204.758 161.537 204.758L171.764 183.244L142.621 166.173L141.681 180.462Z" fill="#1B215B"/>
<path d="M142.545 170.072C141.888 169.687 141.568 168.911 141.764 168.175C143.108 163.111 147.65 159.553 152.889 159.462L154.683 159.43C157.193 159.386 159.668 160.013 161.854 161.246L193.975 179.359L176.363 189.886L142.545 170.072Z" fill="#FF3F87"/>
<path d="M152.457 170.525C147.03 167.419 146.982 159.609 152.37 156.437C154.852 154.976 157.92 154.934 160.441 156.326L193.812 174.756L177.197 184.687L152.457 170.525Z" fill="#F8FCFF" stroke="#D0D4FF"/>
<path d="M202.253 168.31C206.276 169.133 212.573 171.358 218.209 173.869C221.023 175.123 223.659 176.442 225.752 177.685C226.798 178.307 227.703 178.906 228.423 179.463C229.15 180.026 229.664 180.527 229.955 180.95C230.237 181.359 230.58 182.246 230.957 183.569C231.327 184.869 231.712 186.528 232.097 188.427C232.866 192.225 233.629 196.957 234.267 201.651C234.906 206.346 235.418 210.993 235.688 214.619C235.823 216.433 235.896 217.984 235.895 219.155C235.894 219.74 235.875 220.222 235.837 220.589C235.797 220.978 235.741 221.171 235.708 221.233C235.589 221.456 235.246 221.837 234.65 222.358C234.073 222.863 233.31 223.457 232.414 224.107C230.624 225.407 228.331 226.911 226.003 228.341C223.676 229.771 221.32 231.122 219.406 232.116C218.448 232.614 217.607 233.019 216.938 233.299C216.603 233.439 216.318 233.545 216.088 233.616C215.848 233.69 215.7 233.715 215.626 233.717C215.43 233.72 214.994 233.627 214.307 233.402C213.646 233.184 212.815 232.865 211.868 232.467C209.974 231.672 207.64 230.572 205.311 229.372C202.982 228.171 200.668 226.874 198.812 225.685C197.884 225.09 197.077 224.526 196.443 224.018C195.799 223.502 195.368 223.071 195.156 222.746C194.937 222.411 194.725 221.903 194.521 221.228C194.318 220.56 194.132 219.758 193.952 218.854C193.684 217.506 193.436 215.959 193.174 214.325C193.084 213.763 192.993 213.192 192.898 212.614C192.53 210.365 192.116 208.037 191.579 205.947C191.044 203.867 190.375 201.977 189.475 200.628C187.691 197.955 184.414 196.09 181.411 194.441C181.251 194.354 181.091 194.266 180.933 194.179C179.584 193.441 178.301 192.738 177.202 192.008C175.97 191.189 175.025 190.371 174.492 189.488C173.348 187.593 172.041 184.168 171.599 180.467C171.156 176.761 171.591 172.873 173.815 169.965C174.887 168.562 176.648 167.621 178.888 167.046C181.123 166.472 183.781 166.277 186.574 166.324C192.158 166.418 198.187 167.478 202.253 168.31Z" fill="#F8FCFF" stroke="#D0D4FE"/>
<path d="M214.901 193.418C214.055 193.926 213.588 194.885 213.709 195.864L217.355 225.191C217.581 227.008 219.624 227.97 221.169 226.986L231.674 220.292C232.505 219.762 232.947 218.793 232.8 217.819L228.231 187.43C228.099 186.553 227.118 186.09 226.357 186.547L214.901 193.418Z" fill="#959FFA"/>
<path d="M215.576 194.81C214.883 195.219 214.504 196.004 214.615 196.801L218.554 225.163C218.754 226.596 220.365 227.347 221.59 226.578L230.325 221.096C231.004 220.67 231.362 219.879 231.234 219.088L226.513 189.928C226.401 189.234 225.626 188.871 225.021 189.228L215.576 194.81Z" fill="#1B215B"/>
<path d="M233.73 251.351C241.078 267.109 255.159 276.639 267.512 275.266C266.306 276.22 264.989 277.037 263.565 277.7C250.062 283.997 232.111 274.079 223.47 255.549C214.829 237.018 218.771 216.891 232.274 210.595C234.294 209.653 236.413 209.074 238.586 208.832C228.339 216.92 226 234.774 233.73 251.351Z" fill="#4A529E"/>
<path fill-rule="evenodd" clip-rule="evenodd" d="M272.369 232.747C263.728 214.216 245.776 204.299 232.273 210.595C218.77 216.892 214.829 237.018 223.47 255.549C232.111 274.08 250.062 283.997 263.565 277.701C277.068 271.404 281.01 251.278 272.369 232.747ZM226.637 255.807C220.474 242.591 223.28 228.239 232.905 223.751C242.529 219.263 255.327 226.339 261.49 239.554C267.653 252.77 264.846 267.122 255.222 271.61C245.597 276.098 232.799 269.022 226.637 255.807Z" fill="#5C66C0"/>
<path d="M253.756 267.912C261.823 264.151 264.093 251.946 258.827 240.653C253.561 229.36 242.752 223.254 234.686 227.016C226.619 230.777 224.349 242.982 229.615 254.275C234.881 265.568 245.689 271.674 253.756 267.912Z" fill="#959FFA"/>
<path d="M231.521 230.295C239.587 226.533 250.395 232.639 255.661 243.932C259.592 252.361 259.324 261.297 255.582 266.852C255.012 267.256 254.403 267.611 253.757 267.912C245.691 271.674 234.882 265.568 229.616 254.275C225.686 245.847 225.954 236.911 229.695 231.356C230.265 230.952 230.874 230.596 231.521 230.295Z" fill="#1B215B"/>
<path d="M245.16 244.874C247.298 249.457 247.88 254.215 247.116 258.192C246.352 262.17 244.255 265.327 241.061 266.816C237.867 268.305 234.1 267.883 230.562 265.911C227.025 263.94 223.755 260.436 221.617 255.852C219.48 251.268 218.897 246.51 219.661 242.533C220.425 238.556 222.522 235.399 225.716 233.909C228.91 232.42 232.677 232.842 236.215 234.814C239.752 236.785 243.023 240.29 245.16 244.874Z" fill="#F8FCFF" stroke="#D0D4FF"/>
<path d="M221.405 237.972C227.438 235.158 235.533 239.748 239.485 248.224C243.242 256.282 241.902 264.951 236.575 268.203C230.793 268.008 224.562 263.352 221.164 256.063C218.223 249.756 218.155 243.091 220.502 238.459C220.791 238.28 221.092 238.117 221.405 237.972Z" fill="#959FFA"/>
<path d="M229.521 235.535C229.401 235.471 229.294 235.393 229.206 235.319L218.86 186.025L221.01 185.618L231.147 233.525L231.154 233.556L231.159 233.577C231.159 233.577 231.159 233.577 231.159 233.577C231.16 233.583 231.163 233.595 231.167 233.615C231.175 233.655 231.187 233.721 231.197 233.806C231.218 233.981 231.231 234.212 231.205 234.453C231.154 234.933 230.983 235.296 230.571 235.52C230.124 235.763 229.805 235.687 229.521 235.535Z" fill="#F8FCFF" stroke="#D0D4FF" stroke-width="2.8"/>
<path d="M213.085 169.852L220.063 168.409L228.68 210.308C228.68 210.308 227.855 212.127 225.88 212.893C223.905 213.658 221.828 212.765 221.828 212.765L213.085 169.852Z" fill="#959FFA"/>
<path d="M220.099 167.511L221.993 176.864C221.972 176.88 221.951 176.896 221.928 176.914C221.736 177.059 221.447 177.26 221.07 177.477C220.314 177.912 219.206 178.41 217.805 178.655C216.377 178.904 215.163 178.925 214.309 178.884C213.882 178.864 213.546 178.828 213.319 178.798C213.318 178.798 213.317 178.797 213.315 178.797L211.665 169.38C211.619 169.118 211.787 168.865 212.047 168.806L219.499 167.123C219.772 167.061 220.043 167.236 220.099 167.511Z" fill="#F8FCFF" stroke="#D0D4FF"/>
<path d="M214.069 178.571C215.774 178.208 216.729 175.903 216.202 173.423C215.674 170.942 213.865 169.225 212.159 169.588C210.454 169.95 209.499 172.255 210.026 174.736C210.553 177.216 212.363 178.933 214.069 178.571Z" fill="#5C66C0"/>
<path d="M211.848 178.685C213.398 178.356 214.281 176.329 213.82 174.159C213.358 171.988 211.728 170.496 210.177 170.825C208.627 171.155 207.744 173.181 208.205 175.352C208.667 177.522 210.298 179.015 211.848 178.685Z" fill="#5C66C0"/>
<path d="M210.051 172.587L188.793 177.452C188.793 177.452 188.523 178.415 188.831 179.614C189.138 180.812 189.715 181.95 189.715 181.95L211.045 176.644C211.045 176.644 211.626 175.361 211.325 174.182C211.024 173.003 210.051 172.587 210.051 172.587Z" fill="#1B215B"/>
<path d="M234.986 162.153L240.62 158.566C240.62 158.566 241.891 158.574 242.335 159.36C242.779 160.147 242.701 161.248 242.701 161.248L235.123 166.597L234.986 162.153Z" fill="#1B215B"/>
<path d="M236.553 166.241L245.821 164.124" stroke="#1B215B" stroke-width="1.75" stroke-linecap="round"/>
<path d="M236.229 168.242C237.928 167.85 238.929 165.904 238.466 163.897C238.002 161.889 236.249 160.579 234.551 160.971C232.852 161.364 231.85 163.309 232.314 165.317C232.777 167.325 234.53 168.634 236.229 168.242Z" fill="#5C66C0"/>
<path d="M234.349 161.535L236.24 170.875C236.22 170.891 236.198 170.907 236.175 170.925C235.983 171.07 235.695 171.271 235.317 171.488C234.561 171.923 233.453 172.421 232.052 172.666C230.614 172.917 229.692 172.93 229.146 172.886C228.952 172.871 228.806 172.849 228.701 172.828L226.538 163.383C226.476 163.116 226.642 162.849 226.908 162.785L233.742 161.148C234.018 161.082 234.293 161.258 234.349 161.535Z" fill="#F8FCFF" stroke="#D0D4FF"/>
<path d="M244.077 191.883L242.895 180.54L248.485 183.386C250.657 184.491 251.548 187.128 250.494 189.325L250.234 189.867C249.14 192.143 246.384 193.069 244.138 191.914L244.077 191.883Z" fill="#F8FCFF" stroke="#D0D4FF"/>
<path d="M247.661 191.678C248.874 192.049 250.308 190.875 250.864 189.056C251.42 187.237 250.888 185.462 249.675 185.091C248.462 184.72 247.029 185.894 246.473 187.713C245.917 189.532 246.449 191.307 247.661 191.678Z" fill="#733DFF"/>
<path d="M226.853 200.671L226.727 200.596L226.58 200.602L221.482 200.807L216.755 198.157C216.374 197.943 216.105 197.574 216.019 197.146L213.223 183.341C213.143 182.944 213.542 182.621 213.913 182.783L220.196 185.528L220.428 185.629L220.646 185.502L237.769 175.619C237.954 175.513 238.176 175.49 238.378 175.557L241.936 176.74C242.213 176.833 242.411 177.078 242.443 177.369L245.096 201.87C245.158 202.45 244.879 203.015 244.378 203.316L238.73 206.719C238.26 207.003 237.672 207.006 237.198 206.729L226.853 200.671Z" fill="#F8FCFF" stroke="#D0D4FF"/>
<path d="M220.397 185.069L237.558 175.164C237.801 175.024 238.087 174.978 238.359 175.033L238.494 175.069L242.154 176.286C242.398 176.367 242.603 176.526 242.742 176.731L225.368 186.995C225.031 187.194 224.615 187.207 224.265 187.03L220.397 185.069L237.558 175.164L220.397 185.069Z" fill="#5C66C0"/>
<path d="M233.231 186.927C231.593 187.906 231.042 190.018 231.993 191.674L237.433 201.145C238.344 202.73 240.373 203.268 241.95 202.341C243.088 201.672 243.715 200.387 243.543 199.078L241.654 184.737C241.49 183.489 240.102 182.818 239.021 183.464L233.231 186.927Z" fill="#FF3F87"/>
<path d="M157.298 209.445C163.548 205.69 164.643 196.038 159.745 187.886C154.847 179.735 145.811 176.171 139.561 179.926C133.311 183.681 132.216 193.333 137.114 201.485C142.012 209.637 151.049 213.201 157.298 209.445Z" fill="#959FFA"/>
<path d="M154.338 191.267C157.815 197.054 156.854 203.612 152.734 206.088C148.614 208.563 142.373 206.333 138.896 200.546C135.418 194.759 136.379 188.201 140.499 185.726C144.619 183.25 150.86 185.481 154.338 191.267Z" fill="#0D134E" stroke="#FF3F87" stroke-width="1.5"/>
<path d="M180.233 217.18C184.593 214.56 185.366 207.843 181.961 202.175C178.556 196.508 172.261 194.037 167.901 196.656C163.542 199.276 162.768 205.994 166.174 211.661C169.579 217.329 175.874 219.799 180.233 217.18Z" fill="#959FFA"/>
<path d="M177.685 205.643C178.682 207.303 179.07 209.093 178.912 210.633C178.754 212.173 178.057 213.431 176.914 214.117C175.771 214.804 174.334 214.828 172.9 214.245C171.465 213.662 170.067 212.479 169.07 210.819C168.072 209.159 167.684 207.369 167.843 205.829C168.001 204.289 168.698 203.031 169.84 202.345C170.983 201.658 172.421 201.633 173.855 202.216C175.289 202.8 176.687 203.983 177.685 205.643Z" fill="#F8FCFF" stroke="#D0D4FF"/>
<path d="M211.455 176.528L197.134 188.423" stroke="#1B215B" stroke-width="1.75" stroke-linecap="round"/>
<path d="M85.7221 131.706C85.4094 131.525 85.2168 131.191 85.2168 130.83V109.504C85.2168 109.138 85.4143 108.8 85.7333 108.621L124.835 86.6618C125.143 86.489 125.518 86.489 125.826 86.6618L164.928 108.621C165.247 108.8 165.444 109.138 165.444 109.504V130.83C165.444 131.191 165.252 131.525 164.939 131.706L125.815 154.308C125.501 154.489 125.115 154.489 124.802 154.308L85.7221 131.706Z" fill="#F8FCFF" stroke="#D0D4FE"/>
<path d="M125.988 131.56L165.817 108.853C165.879 108.987 165.92 109.132 165.936 109.282L165.944 109.434V130.899C165.944 131.351 165.725 131.772 165.362 132.032L165.248 132.105L126.005 154.776C125.617 155 125.148 155.022 124.743 154.843L124.611 154.775L85.4121 132.105C85.0209 131.878 84.7663 131.478 84.7233 131.034L84.7168 130.899V109.434C84.7168 109.237 84.7585 109.046 84.8355 108.871L124.258 131.556C124.793 131.864 125.451 131.865 125.988 131.56L165.817 108.853L125.988 131.56Z" fill="#F8FCFF"/>
<path d="M125.988 131.559L165.818 108.853C165.879 108.987 165.92 109.132 165.936 109.282L165.945 109.433V130.898C165.945 131.351 165.725 131.771 165.362 132.031L165.249 132.104L126.005 154.775C125.776 154.907 125.519 154.969 125.264 154.961L125.305 131.778C125.541 131.754 125.774 131.681 125.988 131.559L165.818 108.853L125.988 131.559Z" fill="#D6D9FB"/>
<path d="M123.811 127.786C124.843 128.377 126.11 128.378 127.142 127.787L158.501 109.841C159.379 109.338 159.38 108.072 158.503 107.568L127.166 89.5566C126.132 88.9623 124.86 88.9622 123.826 89.5566L92.4877 107.568C91.6105 108.072 91.6113 109.338 92.4893 109.841L123.811 127.786Z" fill="#9593F3" fill-opacity="0.33143"/>
<path d="M128.972 104.645C129.044 104.604 129.134 104.605 129.205 104.648L131.206 105.849C131.51 106.031 131.504 106.473 131.196 106.648L121.644 112.067C121.572 112.108 121.483 112.107 121.412 112.065L119.415 110.879C119.11 110.698 119.114 110.255 119.423 110.079L128.972 104.645Z" fill="#F8FCFF"/>
<path d="M130.987 106.766L129.612 105.94C129.325 105.768 128.975 105.745 128.67 105.873L128.558 105.928L119.633 111.007L121.421 112.07C121.47 112.099 121.528 112.107 121.582 112.093L121.635 112.072L130.987 106.766L129.612 105.94L130.987 106.766Z" fill="#FF3F87"/>
<path fill-rule="evenodd" clip-rule="evenodd" d="M140.508 128.36C140.662 128.272 140.854 128.384 140.854 128.561V130.971C140.854 131.137 140.764 131.291 140.619 131.373L130.841 136.921C130.687 137.008 130.495 136.897 130.495 136.72V134.327C130.495 134.161 130.585 134.008 130.729 133.925L140.508 128.36Z" fill="white"/>
<path d="M140.081 128.604L130.711 133.936C130.6 133.999 130.525 134.108 130.502 134.231L130.496 134.306L130.496 136.299L139.864 131.008C139.975 130.945 140.052 130.836 140.074 130.713L140.081 130.637L140.081 128.604Z" fill="#959FFA"/>
<path fill-rule="evenodd" clip-rule="evenodd" d="M140.508 133.602C140.662 133.514 140.854 133.626 140.854 133.803V136.212C140.854 136.379 140.764 136.533 140.619 136.615L130.841 142.162C130.687 142.25 130.495 142.139 130.495 141.961V139.569C130.495 139.403 130.585 139.249 130.729 139.167L140.508 133.602Z" fill="white"/>
<path d="M140.081 133.845L130.711 139.178C130.6 139.241 130.525 139.349 130.502 139.473L130.496 139.548L130.496 141.54L139.864 136.25C139.975 136.187 140.052 136.078 140.074 135.954L140.081 135.879L140.081 133.845Z" fill="#959FFA"/>
<path d="M91.3642 119.284C91.172 119.156 90.915 119.294 90.915 119.525V121.584C90.915 121.78 91.0141 121.963 91.1784 122.069L92.915 123.197C93.1073 123.322 93.3616 123.184 93.3616 122.955V120.921C93.3616 120.727 93.2647 120.547 93.1034 120.439L91.3642 119.284Z" fill="#733DFF"/>
<path d="M91.3642 123.827C91.172 123.699 90.915 123.837 90.915 124.068V126.127C90.915 126.323 91.0141 126.506 91.1784 126.612L92.915 127.74C93.1073 127.865 93.3616 127.727 93.3616 127.498V125.464C93.3616 125.27 93.2647 125.09 93.1034 124.982L91.3642 123.827Z" fill="#FF3F87"/>
<path d="M35.417 96.9337L33.391 93.158C31.4571 89.6586 27.4973 87.8168 23.5374 88.6456L11.0133 91.3162C7.23758 92.145 4.3828 95.2761 3.92235 99.1438L0.0545883 132.941C-0.405861 137.085 2.08056 141.045 5.94832 142.518L20.7747 147.859L35.417 96.9337Z" fill="#959FFA"/>
<path d="M28.2178 121.973L26.2599 88.7227L25.2859 89.079C15.6872 92.617 10.3363 95.4041 9.23321 97.4404L9.18159 97.5416C7.6969 100.647 5.12217 100.291 4.39896 105.961L3.36508 114.834C2.40481 123.247 1.28862 134.363 1.99802 137.981C2.14364 138.723 2.33901 139.492 2.58414 140.286C3.51212 141.251 4.65287 142.024 5.94867 142.518L12.3949 144.84L25.3556 131.929L28.2178 121.973Z" fill="black" fill-opacity="0.28827"/>
<path d="M24.4584 91.4083C22.3403 92.4213 17.92 95.0919 11.2896 99.4201C14.0523 158.173 15.5257 188.471 15.8941 190.22C16.3545 192.891 9.53989 224.57 10.4608 226.964C11.3817 229.266 13.0393 231.016 14.1444 231.661C15.2494 232.305 12.8551 237.923 12.8551 239.028C12.8551 240.133 11.9342 246.487 12.3026 248.513C12.6709 250.539 12.8551 253.854 17.0912 253.854C21.3274 253.854 22.1562 250.723 21.6957 247.592C21.2353 244.369 21.0511 244.277 21.6957 242.435C22.3403 240.593 21.7878 240.225 21.1432 237.462C20.4065 234.608 20.8669 231.016 21.6957 230.464C22.5245 229.911 25.7477 227.701 26.3002 225.583C26.8527 223.465 32.4702 197.127 32.4702 193.351C32.4702 190.773 32.9306 173.31 32.9306 173.31C32.9306 173.31 35.9696 191.694 35.9696 193.075C35.9696 195.101 35.6933 210.756 34.8645 213.151C34.1278 215.637 34.0357 219.044 34.8645 219.873C35.4171 220.426 35.7854 220.794 35.8775 221.07C35.1408 226.043 34.9566 228.898 35.325 229.727C35.8775 230.924 39.8374 230.924 41.9554 233.871C44.0735 236.818 46.0074 238.199 49.2305 238.199C52.4536 238.199 55.4005 237.647 53.0062 234.239C50.7039 230.832 44.626 225.767 44.626 223.649V219.137C46.2836 217.939 47.1124 216.834 47.1124 215.821C47.1124 214.256 50.8881 198.416 51.3486 195.562C51.809 192.707 51.9011 187.918 51.3486 183.866C50.796 179.814 48.9542 152.832 47.665 149.425C46.3757 146.017 45.639 145.741 45.639 144.36C45.639 142.978 45.5469 141.321 46.0074 140.676C46.4678 140.032 47.2045 139.295 47.3887 138.282C47.5729 137.269 49.8751 126.586 49.1384 116.365C48.4017 106.143 43.1526 94.171 41.1266 92.9738C39.7453 92.145 37.8114 91.6845 35.2329 91.5004C30.26 90.3953 26.5765 90.3953 24.4584 91.4083Z" fill="#733DFF"/>
<path d="M48.5852 109.748C48.5852 109.748 35.9167 119.237 31.0881 118.298C26.2596 117.36 20.7281 107.892 20.7281 107.892L11.9499 132.25L16.3272 151.635C16.3272 151.635 19.8747 152.712 20.7281 149.364C21.5814 146.017 17.897 132.776 20.7281 130.73C23.5591 128.685 25.8002 139.474 29.9949 139.474C34.1896 139.474 47.4056 137.044 47.4056 137.044L50.0586 118.298L48.5852 109.748Z" fill="black" fill-opacity="0.28827"/>
<path d="M35.6053 190.555C35.6973 191.844 35.8963 192.703 35.8963 192.979C35.8963 193.624 35.7121 195.469 35.8963 198.14C38.1986 198.692 40.2057 199.429 44.5339 198.14C46.8361 197.495 50.4276 195.746 51.809 194.917C51.901 192.615 52.1773 189.699 51.809 187.304C51.7169 186.568 51.7169 184.717 51.1643 183.313C47.4807 184.234 43.1525 186.076 41.8633 186.813C40.4819 187.734 39.3809 188.437 35.6053 190.555Z" fill="#959FFA"/>
<path d="M14.6042 163.791C18.1957 164.067 21.5708 163.509 23.873 164.338C26.4515 165.258 31.0044 167.26 33.1142 168.487C35.4165 167.053 38.7347 163.972 41.6303 162.009C44.5048 160.06 45.6521 159.352 48.9805 158.005C48.4853 153.741 48.1248 150.438 47.6644 149.425C46.9277 147.491 46.455 146.846 46.0866 146.109C42.7714 148.32 40.2972 150.345 38.7317 152.464C36.8899 154.858 35.2323 158.634 33.5747 163.791C31.2725 159.739 28.5098 155.871 25.3787 152.464C22.4319 149.148 18.472 147.03 13.5913 146.109C14.1438 152.74 14.4201 158.726 14.6042 163.791Z" fill="#959FFA"/>
<path d="M12.8547 155.134C12.9468 155.226 12.9468 155.318 13.0388 155.503C13.8676 157.621 12.7626 157.805 12.3942 159.831C12.0259 161.949 13.3634 170.567 14.7448 171.948C14.7448 173.801 18.0772 175.127 18.6297 175.495C19.1822 175.863 20.9585 176.223 22.0636 175.946C23.1687 175.67 20.0376 165.264 20.8665 164.619C21.6032 163.975 23.8133 166.645 24.8263 167.198C25.8393 167.658 26.4839 166.093 25.2868 164.159C24.1817 162.225 20.6883 156.516 19.9516 155.503C19.2149 154.49 20.6823 149.324 20.6823 148.311C20.6823 148.034 20.4981 147.399 20.6823 147.03C19.393 147.03 18.1959 147.03 16.9987 147.214C15.8936 147.491 14.4202 154.397 12.8547 155.134Z" fill="black" fill-opacity="0.28827"/>
<path d="M35.8775 220.886C35.9696 220.886 35.9696 220.886 35.8775 220.886C35.1408 225.951 34.9566 228.806 35.325 229.634C35.8775 230.832 39.8374 230.832 41.9554 233.778C44.0735 236.725 46.0074 238.107 49.2305 238.107C52.4536 238.107 55.4005 237.554 53.0062 234.147C50.7039 230.74 44.626 225.675 44.626 223.557V219.136C43.0605 219.689 41.495 220.149 40.0215 220.425C38.6402 220.702 37.2589 220.886 35.8775 220.886Z" fill="#959FFA"/>
<path d="M35.3255 229.635C35.878 230.832 39.8378 230.832 41.9559 233.779C44.074 236.725 46.0078 238.107 49.231 238.107L49.7281 238.102C51.4554 238.068 53.0241 237.835 53.623 237.036C50.0415 237.163 47.6253 236.921 46.3738 236.312C44.2201 235.263 42.4642 232.543 41.0371 231.108C40.2584 230.325 38.3072 229.628 35.1835 229.016C35.2138 229.284 35.2612 229.49 35.3255 229.635Z" fill="#5C66C0"/>
<path d="M12.3029 250.354C12.6713 252.38 13.9608 255.128 17.0997 255.128C19.9958 255.128 22.055 252.9 21.76 249.95C21.5066 252.124 20.2404 253.854 17.0916 253.854C12.8554 253.854 12.6713 250.539 12.3029 248.513C12.2756 248.362 12.2553 248.188 12.2413 247.994C12.1981 248.967 12.2047 249.814 12.3029 250.354Z" fill="#5C66C0"/>
<path d="M14.2368 231.753C15.0656 232.673 12.8555 237.923 12.8555 239.028C12.8555 240.133 11.9346 246.487 12.3029 248.513C12.6713 250.539 12.8555 253.854 17.0916 253.854C21.3277 253.854 22.1565 250.723 21.6961 247.592C21.2356 244.369 21.0514 244.277 21.6961 242.435C22.3407 240.593 21.7881 240.225 21.1435 237.462C20.591 235.16 20.7752 232.397 21.2356 231.108C20.6831 231.384 19.7622 231.66 18.565 231.937C17.1837 232.121 15.7102 232.121 14.2368 231.753Z" fill="#959FFA"/>
<path d="M15.8946 190.404C15.9867 191.417 15.4341 194.916 14.6974 199.245C17.9205 200.35 20.7753 200.902 23.1697 200.902C25.8403 200.902 28.6029 200.534 31.5498 199.889C32.1023 196.666 32.4707 194.18 32.4707 193.259C32.4707 192.706 32.4707 191.877 32.4707 190.864C29.4317 190.312 26.6691 190.036 24.2747 190.036C22.1567 190.036 19.394 190.128 15.8946 190.404Z" fill="#959FFA"/>
<path d="M39.9294 92.5132C42.6 93.1578 45.2706 93.8024 46.2836 94.355C47.757 95.1838 62.5834 115.075 63.5043 118.759C64.4252 122.534 63.6885 126.494 60.7416 128.336C57.7948 130.178 45.9152 135.427 43.8893 134.598C41.8633 133.861 42.4158 133.493 40.8503 133.953C39.2848 134.414 37.2588 136.808 34.8645 137.729C31.0888 139.418 25.5634 132.112 28.0498 130.27C28.7866 129.165 31.3907 128.52 32.1274 128.336C33.8771 127.876 34.8645 128.336 35.3249 128.336C36.43 128.336 37.8113 127.876 37.8113 127.231C37.8113 126.586 37.8113 125.665 38.6401 125.113C39.469 124.652 49.3225 118.114 49.3225 117.654C49.3225 117.193 48.339 110.975 46.313 105.357C43.6424 97.7136 41.4028 93.342 39.9294 92.5132Z" fill="#380085"/>
<path d="M35.6934 128.465C35.6934 128.465 33.3064 127.042 32.4861 127.042C31.6659 127.042 28.1298 126.965 27.8861 127.563C27.6423 128.161 29.4017 130.33 29.4017 130.33L35.6934 128.465Z" fill="#5C66C0"/>
<path d="M37.4771 127.925L37.3411 127.849C36.8411 128.15 36.0273 128.336 35.325 128.336C34.8865 128.336 33.9701 127.918 32.3723 128.276L32.1275 128.336C31.3908 128.52 28.7867 129.164 28.0499 130.269C25.5958 132.087 30.9467 139.229 34.7166 137.79L34.8646 137.729C37.2589 136.808 39.2849 134.413 40.8504 133.953L41.1653 133.864C41.3546 133.814 41.505 133.781 41.6318 133.764L41.5281 133.424C41.2154 132.423 40.8645 131.525 40.4754 130.73C39.9824 129.722 38.983 128.787 37.4771 127.925L37.3411 127.849L37.4771 127.925Z" fill="#959FFA"/>
<path fill-rule="evenodd" clip-rule="evenodd" d="M36.3379 127.691C38.0876 127.323 39.7452 127.323 41.4028 127.691C43.0604 128.06 44.4418 129.073 45.5469 130.73L58.2552 124.653C58.2552 123.732 58.071 123.087 57.5185 122.627C57.1064 120.136 52.5457 118.298 50.0592 118.298C47.5728 118.298 38.456 122.35 37.3509 123.179C36.7062 123.824 36.3379 125.297 36.3379 127.691Z" fill="#BAC8FF"/>
<path d="M47.2339 127.039L57.4559 122.533C57.9163 122.993 58.3727 123.42 58.2552 124.652L45.5469 130.73C44.4418 129.073 43.0604 128.31 41.4028 127.849C39.7452 127.481 38.0876 127.481 36.3379 127.849C36.3379 125.547 36.6436 124.743 37.3803 124.098C43.5978 123.047 46.313 127.131 47.2339 127.039Z" fill="#5C66C0"/>
<path d="M7.97476 101.17C9.3561 99.604 11.3821 99.1436 13.0397 99.1436C14.6973 99.1436 22.2486 101.998 21.2357 110.931C20.2227 119.956 17.6442 124.008 17.6442 127.691C17.6442 131.375 18.3809 133.677 18.9334 136.44C19.486 139.203 20.0385 147.767 19.486 149.056C18.9334 150.345 17.7363 151.819 17.7363 152.74C17.7363 153.753 17.3679 155.042 18.1046 156.055C18.8413 157.068 21.4198 159.462 22.617 161.488C23.7221 163.422 23.1695 165.08 22.1566 164.527C21.1436 164.067 18.9334 161.304 18.1967 161.949C17.46 162.593 19.578 172.999 18.473 173.276C17.3679 173.552 16.9995 172.079 16.447 171.71C15.8945 171.342 12.303 171.158 11.0137 169.868C9.63237 168.487 9.3561 160.199 9.72446 158.081C10.0928 155.963 11.1979 155.871 10.3691 153.753C9.54028 151.635 7.69849 151.635 7.23804 149.977C6.7776 148.319 3.27819 133.861 3.73864 130.638C4.29118 127.415 5.11998 117.746 5.11998 115.72C5.02789 113.602 6.59342 102.735 7.97476 101.17Z" fill="#380085"/>
<path d="M10.092 153.292C10.1841 153.384 10.1841 153.476 10.2761 153.66C11.105 155.779 9.99988 155.963 9.63152 157.989C9.26316 160.107 9.53943 168.395 10.9208 169.776C12.21 171.157 16.2354 172.364 16.7879 172.732C17.3404 173.1 18.1959 174.381 19.3009 174.104C20.406 173.828 18.1959 163.422 19.0247 162.777C19.7614 162.133 21.9715 164.803 22.9845 165.356C23.9975 165.816 24.6421 164.251 23.445 162.317C22.3399 160.383 18.7082 156.978 18.1264 155.977C17.5447 154.976 17.8502 153.608 17.8502 152.595C17.8502 152.319 17.9423 151.95 18.1264 151.582C16.8372 151.582 15.4332 151.634 14.236 151.819C13.1309 152.095 11.6575 152.555 10.092 153.292Z" fill="#959FFA"/>
<path d="M10.8047 104.609C12.9327 104.795 14.4565 107.246 14.2083 110.083C13.9601 112.921 12.0338 115.07 9.90578 114.883C7.7778 114.697 6.25397 112.246 6.50221 109.409C6.75045 106.572 8.67675 104.423 10.8047 104.609Z" fill="#959FFA"/>
<path d="M9.62992 104.506C11.7579 104.692 13.2817 107.143 13.0335 109.98C12.7853 112.817 10.859 114.967 8.73098 114.78C6.603 114.594 5.07917 112.143 5.3274 109.306C5.57564 106.469 7.50195 104.319 9.62992 104.506Z" fill="#F8FCFF"/>
<path d="M45.8231 106.971C45.731 106.511 45.3626 106.235 44.9022 106.327L23.169 109.642C22.7086 109.734 22.4323 110.102 22.5244 110.563L23.9058 120.416C23.9979 120.877 24.3662 121.153 24.8267 121.061L46.744 117.47C47.2044 117.377 47.4807 117.009 47.3886 116.549L45.8231 106.971Z" fill="#F8FCFF"/>
<path d="M55.1239 121.836L55.1062 121.842L55.0895 121.85C55.0125 121.889 54.9647 121.903 54.9336 121.909C54.909 121.914 54.8888 121.916 54.8586 121.916C54.4894 121.833 54.2879 121.561 54.3414 121.294L54.3431 121.286L54.3442 121.277L58.21 91.0866C58.2904 90.7759 58.4284 90.6058 58.6693 90.5455L58.6693 90.5459L58.682 90.542L78.4454 84.4751H78.4457H78.4462H78.4467H78.4473H78.4478H78.4484H78.4489H78.4494H78.45H78.4505H78.4511H78.4516H78.4521H78.4527H78.4532H78.4538H78.4543H78.4548H78.4554H78.4559H78.4565H78.457H78.4575H78.4581H78.4586H78.4592H78.4597H78.4602H78.4608H78.4613H78.4618H78.4624H78.4629H78.4635H78.464H78.4645H78.4651H78.4656H78.4662H78.4667H78.4672H78.4678H78.4683H78.4689H78.4694H78.4699H78.4705H78.471H78.4716H78.4721H78.4726H78.4732H78.4737H78.4743H78.4748H78.4753H78.4759H78.4764H78.477H78.4775H78.478H78.4786H78.4791H78.4797H78.4802H78.4807H78.4813H78.4818H78.4824H78.4829H78.4834H78.484H78.4845H78.4851H78.4856H78.4861H78.4867H78.4872H78.4877H78.4883H78.4888H78.4894H78.4899H78.4904H78.491H78.4915H78.4921H78.4926H78.4931H78.4937H78.4942H78.4948H78.4953H78.4958H78.4964H78.4969H78.4975H78.498H78.4985H78.4991H78.4996H78.5002H78.5007H78.5012H78.5018H78.5023H78.5029H78.5034H78.5039H78.5045H78.505H78.5056H78.5061H78.5066H78.5072H78.5077H78.5083H78.5088H78.5093H78.5099H78.5104H78.511H78.5115H78.512H78.5126H78.5131H78.5136H78.5142H78.5147H78.5153H78.5158H78.5163H78.5169H78.5174H78.518H78.5185H78.519H78.5196H78.5201H78.5207H78.5212H78.5217H78.5223H78.5228H78.5234H78.5239H78.5244H78.525H78.5255H78.5261H78.5266H78.5271H78.5277H78.5282H78.5288H78.5293H78.5298H78.5304H78.5309H78.5315H78.532H78.5325H78.5331H78.5336H78.5342H78.5347H78.5352H78.5358H78.5363H78.5368H78.5374H78.5379H78.5385H78.539H78.5395H78.5401H78.5406H78.5412H78.5417H78.5422H78.5428H78.5433H78.5439H78.5444H78.5449H78.5455H78.546H78.5466H78.5471H78.5476H78.5482H78.5487H78.5493H78.5498H78.5503H78.5509H78.5514H78.552H78.5525H78.553H78.5536H78.5541H78.5547H78.5552H78.5557H78.5563H78.5568H78.5574H78.5579H78.5584H78.559H78.5595H78.5601H78.5606H78.5611H78.5617H78.5622H78.5627H78.5633H78.5638H78.5644H78.5649H78.5654H78.566H78.5665H78.5671H78.5676H78.5681H78.5687H78.5692H78.5698H78.5703H78.5708H78.5714H78.5719H78.5725H78.573H78.5735H78.5741H78.5746H78.5752H78.5757H78.5762H78.5768H78.5773H78.5779H78.5784H78.5789H78.5795H78.58H78.5806H78.5811H78.5816H78.5822H78.5827H78.5833H78.5838H78.5843H78.5849H78.5854H78.586H78.5865H78.587H78.5876H78.5881H78.5887H78.5892H78.5897H78.5903H78.5908H78.5913H78.5919H78.5924H78.593H78.5935H78.594H78.5946H78.5951H78.5957H78.5962H78.5967H78.5973H78.5978H78.5984H78.5989H78.5994H78.6H78.6005H78.6011H78.6016H78.6021H78.6027H78.6032H78.6038H78.6043H78.6048H78.6054H78.6059H78.6065H78.607H78.6075H78.6081H78.6086H78.6092H78.6097H78.6102H78.6108H78.6113H78.6119H78.6124H78.6129H78.6135H78.614H78.6146H78.6151H78.6156H78.6162H78.6167H78.6172H78.6178H78.6183H78.6189H78.6194H78.6199H78.6205H78.621H78.6216H78.6221H78.6226H78.6232H78.6237H78.6243H78.6248H78.6253H78.6259H78.6264H78.627H78.6275H78.628H78.6286H78.6291H78.6297H78.6302H78.6307H78.6313H78.6318H78.6324H78.6329H78.6334H78.634H78.6345H78.6351H78.6356H78.6361H78.6367H78.6372H78.6378H78.6383H78.6388H78.6394H78.6399H78.6405H78.641H78.6415H78.6421H78.6426H78.6431H78.6437H78.6442H78.6448H78.6453H78.6458H78.6464H78.6469H78.6475H78.648H78.6485H78.6491H78.6496H78.6502H78.6507H78.6512H78.6518H78.6523H78.6529H78.6534H78.6539H78.6545H78.655H78.6556H78.6561H78.6566H78.6572H78.6577H78.658C79.0275 84.5582 79.2292 84.8296 79.1757 85.097L79.1741 85.1054L79.173 85.1139L75.3052 114.951L75.3031 114.967V114.983C75.3031 115.039 75.2729 115.12 75.1946 115.207C75.1183 115.292 75.0166 115.359 74.9223 115.39C74.9221 115.39 74.9218 115.39 74.9215 115.39L55.1239 121.836Z" fill="#FF3F87" fill-opacity="0.280021" stroke="#F8458D" stroke-width="0.5"/>
<path d="M34.6334 91.1841L24.9276 91.1284L23.6437 91.7957L30.2042 100.249C30.3883 100.525 30.6646 100.709 31.033 100.709L36.0623 99.8803H36.1544C36.6149 99.7882 36.8911 99.3278 36.707 98.8673L34.6334 91.1841Z" fill="#380085"/>
<path fill-rule="evenodd" clip-rule="evenodd" d="M34.9573 91.4077H24.5511L30.9053 99.3274C31.0895 99.6037 31.3658 99.7879 31.7341 99.7879L36.0623 98.9591H36.1544C36.6149 98.867 36.8911 98.4065 36.707 97.9461L34.9573 91.4077Z" fill="#BAC8FF"/>
<path d="M31.0891 92.5131C28.879 92.5131 26.7609 92.1447 24.4587 91.408C24.735 88.0007 24.735 85.238 24.4587 83.1199C24.0903 79.9889 23.8141 68.6618 28.3265 67.4647C32.8388 66.1754 38.4563 68.0172 40.5744 72.0692C43.7054 77.9629 39.4693 89.5662 37.6275 89.9345C36.9829 90.1187 36.062 90.0266 34.7727 89.8425V92.0526C34.4965 92.421 33.2993 92.5131 31.0891 92.5131Z" fill="#FFA877"/>
<path d="M30.2032 88.895C30.9737 90.0711 31.8884 90.8155 32.9472 91.1281C33.6128 91.3247 34.2215 91.4138 34.7732 91.3954L34.7721 89.8422L34.9736 89.8706L34.9563 89.8404C34.1192 89.8423 33.3904 89.7816 32.77 89.6581C32.1495 89.5347 31.2939 89.2804 30.2032 88.895Z" fill="black" fill-opacity="0.28827"/>
<path d="M44.7176 70.7804C45.3622 72.0696 44.8097 77.0424 41.7707 77.0424C38.6397 77.0424 34.4035 73.9114 33.0222 73.9114C31.733 73.9114 32.0092 78.7001 31.0883 78.9763C30.1674 79.3447 31.4567 76.3057 29.9832 75.7532C28.5098 75.2007 27.681 76.0295 27.681 76.4899C27.681 76.9504 27.3127 80.0814 26.1155 80.8181C25.2867 81.2786 24.7341 81.739 24.4579 82.2916C23.3528 81.0944 22.7082 79.8051 22.7082 78.4238C22.7082 76.3057 22.7082 71.7013 23.4449 70.5041C23.9974 69.6753 25.0104 68.7544 26.668 67.8335C27.3127 65.6233 28.3256 64.6104 29.5228 64.6104C31.4567 64.6104 33.9431 66.268 34.9561 66.268C35.9691 66.268 39.6527 66.0838 40.7577 67.0968C41.8628 68.2018 40.8498 69.9515 41.3103 70.2278C41.7707 70.5041 44.073 69.4911 44.7176 70.7804Z" fill="#380085"/>
<path d="M13.9995 77.8708C13.9995 87.8175 22.0629 95.8809 32.0095 95.8809C41.9562 95.8809 50.0195 87.8175 50.0195 77.8708C50.0195 67.9242 41.9562 59.8608 32.0095 59.8608C22.0629 59.8608 13.9995 67.9242 13.9995 77.8708Z" fill="#9286FF" fill-opacity="0.193018" stroke="#ECEAFE"/>
<path opacity="0.504464" fill-rule="evenodd" clip-rule="evenodd" d="M20.5481 71.9418C21.2437 70.3032 21.0485 68.6526 20.1121 68.2552C19.1758 67.8577 17.8529 68.8639 17.1574 70.5025C16.4618 72.141 16.657 73.7916 17.5934 74.189C18.5297 74.5865 19.8526 73.5803 20.5481 71.9418Z" fill="white"/>
</svg>
