<svg width="292" height="406" viewBox="0 0 292 406" fill="none" xmlns="http://www.w3.org/2000/svg">
<path d="M68.0825 84.1166C68.3953 83.9357 68.5879 83.6018 68.5879 83.2405V59.1383C68.5879 58.7725 68.3904 58.4351 68.0714 58.256L35.0936 39.7358C34.7859 39.5629 34.4103 39.5629 34.1025 39.7358L1.12471 58.2559C0.80571 58.4351 0.608246 58.7725 0.608246 59.1383V83.24C0.608246 83.6015 0.801033 83.9355 1.11402 84.1163L34.1107 103.178C34.4241 103.359 34.8103 103.359 35.1236 103.178L68.0825 84.1166Z" fill="#F8FCFF" stroke="#D0D4FE"/>
<path d="M0.709473 161.835C0.709473 161.835 0.709473 161.835 0.709473 161.836C0.709602 162.05 0.81028 162.25 0.97818 162.378L34.3769 181.679C34.3769 181.679 34.3769 181.679 34.3769 181.679C34.5603 181.785 34.7808 181.799 34.9739 181.72L68.3483 162.426C68.5338 162.319 68.6567 162.132 68.6836 161.923L68.5891 59.5329L35.8599 78.3665C35.2516 78.7166 34.5034 78.7181 33.8937 78.3705L0.816521 59.513L0.709473 161.835Z" fill="#F8FCFF" stroke="#D0D4FF"/>
<path d="M56.8843 86.395C57.8477 85.8744 59.0176 86.572 59.0176 87.667V95.939C59.0176 97.0136 58.4217 97.9996 57.4703 98.4992L50.9238 101.937C49.9611 102.442 48.8058 101.744 48.8058 100.657V92.4851C48.8058 91.4228 49.3882 90.4461 50.3227 89.9411L56.8843 86.395Z" fill="#1B215B"/>
<path d="M56.8843 102.818C57.8477 102.297 59.0176 102.995 59.0176 104.09V112.362C59.0176 113.436 58.4217 114.422 57.4703 114.922L50.9238 118.36C49.9611 118.865 48.8058 118.167 48.8058 117.08V108.908C48.8058 107.846 49.3882 106.869 50.3227 106.364L56.8843 102.818Z" fill="#1B215B"/>
<path d="M56.8843 118.459C57.8477 117.938 59.0176 118.636 59.0176 119.731V128.003C59.0176 129.077 58.4217 130.063 57.4703 130.563L50.9238 134C49.9611 134.506 48.8058 133.808 48.8058 132.72V124.549C48.8058 123.486 49.3882 122.51 50.3227 122.005L56.8843 118.459Z" fill="#FF3F87"/>
<path d="M60.9612 157.011L89.0004 178.359C93.696 181.618 94.8367 188.033 91.5481 192.687C88.2595 197.341 81.787 198.471 77.0913 195.212L49.0522 173.864C44.3565 170.604 43.2159 164.19 46.5045 159.536C49.793 154.882 56.2656 153.752 60.9612 157.011Z" fill="#FF3F87"/>
<path d="M66.6187 182.252L44.6553 164.655C44.3958 168.069 45.8633 171.526 48.8219 173.699L49.0524 173.864L77.0915 195.212C77.2476 195.32 77.4057 195.424 77.5656 195.523L92.1982 181.928C91.5041 180.641 90.5228 179.482 89.2726 178.555L89.0005 178.359L80.031 171.531L79.2305 171.97C76.4886 173.488 74.3733 174.786 72.8847 175.865C70.4769 177.61 68.3882 179.739 66.6187 182.252L44.6553 164.655L66.6187 182.252Z" fill="black" fill-opacity="0.275213"/>
<path d="M34.041 77.7349L0.217087 58.4518C0.164593 58.566 0.130119 58.689 0.116161 58.8165L0.109138 58.9454V161.634C0.109138 162.018 0.2953 162.375 0.603901 162.596L0.700092 162.658L34.0264 181.91C34.2232 182.024 34.4446 182.077 34.6641 182.068L34.614 77.9204C34.4155 77.8989 34.2202 77.8371 34.041 77.7349L0.217087 58.4518L34.041 77.7349Z" fill="#D6D9FB"/>
<path fill-rule="evenodd" clip-rule="evenodd" d="M8.15539 73.2526C7.84695 73.0771 7.46387 73.2998 7.46387 73.6547L7.46387 77.5456C7.46387 77.8787 7.64288 78.186 7.93259 78.3504L24.3654 87.6736C24.6738 87.8486 25.0564 87.6258 25.0564 87.2712V83.4094C25.0564 83.0767 24.8778 82.7697 24.5887 82.6051L8.15539 73.2526Z" fill="white"/>
<path d="M8.77734 73.6066L24.6908 82.6632C24.8886 82.7758 25.0202 82.9737 25.05 83.1957L25.0565 83.2921L25.0563 86.6752L9.1453 77.6906C8.94644 77.5783 8.81398 77.3799 8.78397 77.1573L8.77749 77.0605L8.77734 73.6066Z" fill="#959FFA"/>
<path d="M35.115 14.7161C31.2857 14.7161 26.2363 15.4246 23.4745 16.6076L19.3929 16.608C19.3929 16.608 19.0338 58.0387 19.0338 58.9532C19.0338 63.6551 26.2336 67.4667 35.115 67.4667C43.9964 67.4667 51.1962 63.6551 51.1962 58.9532C51.1962 58.0315 51.6191 16.6076 51.6191 16.6076H47.5376C44.7758 15.4246 38.9443 14.7161 35.115 14.7161Z" fill="#733DFF"/>
<path d="M35.5547 26.5893C26.4847 26.5893 19.1319 22.2127 19.1319 16.8138C19.1319 11.415 26.4847 7.03833 35.5547 7.03833C44.6248 7.03833 51.9775 11.415 51.9775 16.8138C51.9775 22.2127 44.6248 26.5893 35.5547 26.5893Z" fill="#FF3F87"/>
<path d="M35.3602 6.14221C32.2967 6.14221 28.2572 6.70907 26.0477 7.65547L22.7825 7.65574C22.7825 7.65574 22.4952 15.7751 22.4952 16.5067C22.4952 20.2682 28.255 23.3175 35.3602 23.3175C42.4653 23.3175 48.2251 20.2682 48.2251 16.5067C48.2251 15.7693 48.5635 7.65547 48.5635 7.65547H45.2982C43.0888 6.70907 38.4236 6.14221 35.3602 6.14221Z" fill="#733DFF"/>
<path d="M35.7123 15.6408C28.4563 15.6408 22.5741 12.1395 22.5741 7.82038C22.5741 3.5013 28.4563 0 35.7123 0C42.9684 0 48.8506 3.5013 48.8506 7.82038C48.8506 12.1395 42.9684 15.6408 35.7123 15.6408Z" fill="#293181"/>
<path d="M35.9464 11.7305C32.2752 11.7305 29.2991 9.97989 29.2991 7.82035C29.2991 5.66081 32.2752 3.91016 35.9464 3.91016C39.6176 3.91016 42.5938 5.66081 42.5938 7.82035C42.5938 9.97989 39.6176 11.7305 35.9464 11.7305Z" fill="#1B215B"/>
<path d="M290.18 140.423C290.493 140.242 290.686 139.909 290.686 139.547V115.445C290.686 115.079 290.488 114.742 290.169 114.563L257.191 96.0425C256.884 95.8697 256.508 95.8697 256.2 96.0425L223.222 114.563C222.903 114.742 222.706 115.079 222.706 115.445V139.547C222.706 139.908 222.899 140.242 223.212 140.423L256.208 159.485C256.522 159.666 256.908 159.666 257.221 159.485L290.18 140.423Z" fill="#F8FCFF" stroke="#D0D4FE"/>
<path d="M222.807 218.142C222.807 218.142 222.807 218.142 222.807 218.142C222.807 218.357 222.908 218.557 223.076 218.685L256.475 237.985C256.475 237.985 256.475 237.985 256.475 237.985C256.658 238.091 256.878 238.105 257.072 238.027L290.446 218.733C290.632 218.626 290.754 218.439 290.781 218.229L290.687 115.84L257.958 134.673C257.349 135.023 256.601 135.025 255.991 134.677L222.914 115.82L222.807 218.142Z" fill="#F8FCFF" stroke="#D0D4FF"/>
<path d="M277.463 141.14C278.427 140.619 279.597 141.317 279.597 142.412V150.684C279.597 151.759 279.001 152.745 278.049 153.244L271.503 156.682C270.54 157.187 269.385 156.489 269.385 155.402V147.23C269.385 146.168 269.967 145.191 270.902 144.686L277.463 141.14Z" fill="#1B215B"/>
<path d="M277.463 157.563C278.427 157.042 279.597 157.74 279.597 158.835V167.107C279.597 168.181 279.001 169.167 278.049 169.667L271.503 173.105C270.54 173.61 269.385 172.912 269.385 171.825V163.653C269.385 162.591 269.967 161.614 270.902 161.109L277.463 157.563Z" fill="#1B215B"/>
<path d="M277.463 173.204C278.427 172.683 279.597 173.381 279.597 174.476V182.748C279.597 183.822 279.001 184.808 278.049 185.308L271.503 188.745C270.54 189.251 269.385 188.553 269.385 187.465V179.294C269.385 178.231 269.967 177.255 270.902 176.75L277.463 173.204Z" fill="#FF3F87"/>
<path d="M256.139 134.042L222.315 114.759C222.262 114.873 222.228 114.996 222.214 115.123L222.207 115.252V217.941C222.207 218.325 222.393 218.682 222.702 218.903L222.798 218.965L256.124 238.217C256.321 238.331 256.542 238.383 256.762 238.375L256.712 134.227C256.513 134.206 256.318 134.144 256.139 134.042L222.315 114.759L256.139 134.042Z" fill="#D6D9FB"/>
<path fill-rule="evenodd" clip-rule="evenodd" d="M230.252 128.777C229.944 128.602 229.561 128.825 229.561 129.18V133.07C229.561 133.403 229.74 133.711 230.029 133.875L246.462 143.198C246.77 143.373 247.153 143.151 247.153 142.796V138.934C247.153 138.602 246.975 138.294 246.685 138.13L230.252 128.777Z" fill="white"/>
<path d="M230.874 129.131L246.787 138.188C246.985 138.301 247.117 138.498 247.147 138.72L247.153 138.817L247.153 142.2L231.242 133.215C231.043 133.103 230.911 132.905 230.881 132.682L230.874 132.585L230.874 129.131Z" fill="#959FFA"/>
<path d="M256.431 71.0229C252.602 71.0229 247.553 71.7315 244.791 72.9145L240.709 72.9149C240.709 72.9149 240.35 114.346 240.35 115.26C240.35 119.962 247.55 123.774 256.431 123.774C265.313 123.774 272.513 119.962 272.513 115.26C272.513 114.338 272.936 72.9145 272.936 72.9145H268.854C266.092 71.7315 260.261 71.0229 256.431 71.0229Z" fill="#733DFF"/>
<path d="M256.872 82.8962C247.802 82.8962 240.449 78.5195 240.449 73.1207C240.449 67.7218 247.802 63.3452 256.872 63.3452C265.942 63.3452 273.295 67.7218 273.295 73.1207C273.295 78.5195 265.942 82.8962 256.872 82.8962Z" fill="#FF3F87"/>
<path d="M256.677 62.4492C253.613 62.4492 249.574 63.0161 247.364 63.9625L244.099 63.9627C244.099 63.9627 243.812 72.0821 243.812 72.8137C243.812 76.5752 249.571 79.6245 256.677 79.6245C263.782 79.6245 269.542 76.5752 269.542 72.8137C269.542 72.0763 269.88 63.9625 269.88 63.9625H266.615C264.405 63.0161 259.74 62.4492 256.677 62.4492Z" fill="#733DFF"/>
<path d="M257.028 71.9478C249.772 71.9478 243.89 68.4465 243.89 64.1274C243.89 59.8083 249.772 56.307 257.028 56.307C264.284 56.307 270.166 59.8083 270.166 64.1274C270.166 68.4465 264.284 71.9478 257.028 71.9478Z" fill="#293181"/>
<path d="M257.263 68.0374C253.592 68.0374 250.616 66.2868 250.616 64.1272C250.616 61.9677 253.592 60.217 257.263 60.217C260.934 60.217 263.91 61.9677 263.91 64.1272C263.91 66.2868 260.934 68.0374 257.263 68.0374Z" fill="#1B215B"/>
<path d="M125.74 191.005C109.785 191.005 95.1319 193.957 83.6245 198.887L66.618 198.888C66.618 198.888 58.735 222.668 58.735 226.478C58.735 246.07 88.7342 261.952 125.74 261.952C162.746 261.952 192.745 246.07 192.745 226.478C192.745 222.638 184.862 198.887 184.862 198.887H167.856C156.348 193.957 141.695 191.005 125.74 191.005Z" fill="#5C66C0"/>
<path d="M67.1171 198.888C67.1171 207.321 73.5342 215.071 84.1689 220.743C94.7821 226.404 109.479 229.92 125.739 229.92C142 229.92 156.696 226.404 167.31 220.743C177.944 215.071 184.361 207.321 184.361 198.888C184.361 190.455 177.944 182.705 167.31 177.033C156.696 171.372 142 167.856 125.739 167.856C109.479 167.856 94.7821 171.372 84.1689 177.033C73.5342 182.705 67.1171 190.455 67.1171 198.888Z" fill="#F8FCFF" stroke="#D0D4FF"/>
<path d="M126.179 170.609C115.542 170.609 105.773 172.578 98.1015 175.864L86.7639 175.865C86.7639 175.865 81.5086 191.718 81.5086 194.258C81.5086 207.319 101.508 217.907 126.179 217.907C150.849 217.907 170.849 207.319 170.849 194.258C170.849 191.698 165.593 175.864 165.593 175.864H154.256C146.584 172.578 136.815 170.609 126.179 170.609Z" fill="#5C66C0"/>
<path d="M165.113 175.211L182.65 126.408H69.8947L87.2723 174.767L87.3089 174.869L87.3001 174.977C87.2761 175.271 87.264 175.567 87.264 175.865C87.264 181.395 91.4752 186.518 98.5436 190.288C105.59 194.046 115.36 196.386 126.179 196.386C136.997 196.386 146.767 194.046 153.814 190.288C160.882 186.518 165.093 181.395 165.093 175.865C165.093 175.71 165.09 175.555 165.084 175.401L165.079 175.303L165.113 175.211Z" fill="#F8FCFF" stroke="#D0D4FF"/>
<path d="M147.947 174.431C139.829 178.486 129.874 178.834 119.859 176.445L117.873 168.795C127.62 170.822 141.2 169.605 149.547 166.213L147.947 174.431Z" fill="#FF3F87"/>
<path d="M147.947 174.431L149.547 166.213C148.678 166.566 147.752 166.896 146.779 167.201L145.922 173.258C141.786 174.795 137.869 175.66 134.171 175.851C130.474 176.043 126.271 175.682 121.563 174.77L120.142 169.199C119.561 169.112 118.989 169.014 118.429 168.907L117.873 168.795L119.859 176.445C129.704 178.793 139.491 178.497 147.532 174.634L147.947 174.431L149.547 166.213L147.947 174.431Z" fill="#1B215B"/>
<path d="M126.272 155.626C94.7423 155.626 69.1828 142.146 69.1828 125.517C69.1828 108.889 94.7423 95.4087 126.272 95.4087C157.801 95.4087 183.36 108.889 183.36 125.517C183.36 142.146 157.801 155.626 126.272 155.626Z" fill="#1B215B"/>
<path d="M125.881 153.28C100.614 153.28 80.1314 142.426 80.1314 129.036C80.1314 115.647 100.614 104.793 125.881 104.793C151.147 104.793 171.63 115.647 171.63 129.036C171.63 142.426 151.147 153.28 125.881 153.28Z" fill="#733DFF"/>
<path d="M160.964 112.994L135.249 148.587L131.578 153.141C154.533 151.842 172.412 141.546 172.412 129.036C172.412 122.984 168.227 117.45 161.306 113.202L160.964 112.994Z" fill="black" fill-opacity="0.275213"/>
<path d="M125.49 154.062C119.443 154.062 114.541 151.611 114.541 148.587C114.541 145.564 119.443 143.113 125.49 143.113C131.537 143.113 136.438 145.564 136.438 148.587C136.438 151.611 131.537 154.062 125.49 154.062Z" fill="#1B215B"/>
<path d="M139.956 97.7549C134.989 97.7549 130.962 93.7284 130.962 88.7615C130.962 83.7946 134.989 79.7681 139.956 79.7681C144.923 79.7681 148.949 83.7946 148.949 88.7615C148.949 93.7284 144.923 97.7549 139.956 97.7549Z" fill="#FF3F87"/>
<path d="M111.412 91.4986L123.142 111.832L139.956 88.7615" stroke="#FF3F87" stroke-width="1.5" stroke-linecap="round"/>
<path d="M123.141 118.088C119.686 118.088 116.885 115.287 116.885 111.832C116.885 108.376 119.686 105.575 123.141 105.575C126.596 105.575 129.397 108.376 129.397 111.832C129.397 115.287 126.596 118.088 123.141 118.088Z" fill="#FF3F87"/>
<path d="M111.41 96.973C108.387 96.973 105.936 94.522 105.936 91.4987C105.936 88.4753 108.387 86.0244 111.41 86.0244C114.434 86.0244 116.885 88.4753 116.885 91.4987C116.885 94.522 114.434 96.973 111.41 96.973Z" fill="#FF3F87"/>
<path d="M89.2319 94.6268C89.2319 115.082 105.814 131.665 126.27 131.665C146.725 131.665 163.308 115.082 163.308 94.6268C163.308 74.1714 146.725 57.589 126.27 57.589C105.814 57.589 89.2319 74.1714 89.2319 94.6268Z" fill="#9286FF" fill-opacity="0.193018" stroke="#ECEAFE"/>
<path d="M94.6714 242.088C94.9842 241.907 95.1768 241.573 95.1768 241.212V217.11C95.1768 216.744 94.9793 216.407 94.6603 216.228L61.6825 197.707C61.3747 197.535 60.9992 197.535 60.6914 197.707L27.7136 216.228C27.3946 216.407 27.1971 216.744 27.1971 217.11V241.212C27.1971 241.573 27.3899 241.907 27.7029 242.088L60.6996 261.15C61.0129 261.331 61.3992 261.331 61.7124 261.15L94.6714 242.088Z" fill="#F8FCFF" stroke="#D0D4FE"/>
<path d="M27.2983 319.807C27.2983 319.807 27.2983 319.807 27.2983 319.807C27.2985 320.022 27.3991 320.222 27.567 320.35L60.9657 339.65C60.9657 339.65 60.9658 339.65 60.9658 339.65C61.1492 339.756 61.3697 339.77 61.5628 339.692L94.9372 320.398C95.1227 320.291 95.2456 320.103 95.2724 319.894L95.178 217.504L62.4488 236.338C61.8405 236.688 61.0923 236.69 60.4826 236.342L27.4054 217.485L27.2983 319.807Z" fill="#F8FCFF" stroke="#D0D4FF"/>
<path d="M82.691 245.149C83.6543 244.628 84.8242 245.326 84.8242 246.421V254.693C84.8242 255.767 84.2283 256.753 83.2769 257.253L76.7305 260.691C75.7677 261.196 74.6124 260.498 74.6124 259.411V251.239C74.6124 250.177 75.1948 249.2 76.1293 248.695L82.691 245.149Z" fill="#1B215B"/>
<path d="M82.691 261.572C83.6543 261.051 84.8242 261.749 84.8242 262.844V271.116C84.8242 272.19 84.2283 273.176 83.2769 273.676L76.7305 277.113C75.7677 277.619 74.6124 276.921 74.6124 275.833V267.662C74.6124 266.599 75.1948 265.623 76.1293 265.118L82.691 261.572Z" fill="#1B215B"/>
<path d="M82.691 277.212C83.6543 276.692 84.8242 277.389 84.8242 278.484V286.756C84.8242 287.831 84.2283 288.817 83.2769 289.316L76.7305 292.754C75.7677 293.26 74.6124 292.561 74.6124 291.474V283.302C74.6124 282.24 75.1948 281.263 76.1293 280.758L82.691 277.212Z" fill="#FF3F87"/>
<path d="M60.6289 235.707L26.805 216.423C26.7525 216.538 26.718 216.661 26.7041 216.788L26.697 216.917V319.606C26.697 319.99 26.8832 320.347 27.1918 320.568L27.288 320.63L60.6143 339.882C60.8111 339.996 61.0325 340.048 61.252 340.04L61.2019 235.892C61.0033 235.871 60.8081 235.809 60.6289 235.707L26.805 216.423L60.6289 235.707Z" fill="#D6D9FB"/>
<path fill-rule="evenodd" clip-rule="evenodd" d="M34.7443 232.789C34.4358 232.613 34.0527 232.836 34.0527 233.191V237.081C34.0527 237.415 34.2317 237.722 34.5215 237.886L50.9542 247.21C51.2627 247.385 51.6452 247.162 51.6452 246.807V242.945C51.6452 242.613 51.4667 242.306 51.1776 242.141L34.7443 232.789Z" fill="white"/>
<path d="M35.3662 233.142L51.2796 242.199C51.4775 242.312 51.6091 242.51 51.6389 242.732L51.6454 242.828L51.6451 246.211L35.7342 237.227C35.5353 237.114 35.4028 236.916 35.3728 236.693L35.3664 236.596L35.3662 233.142Z" fill="#959FFA"/>
<path d="M61.7039 171.906C57.8746 171.906 52.8251 172.614 50.0633 173.797L45.9818 173.798C45.9818 173.798 45.6227 215.228 45.6227 216.143C45.6227 220.845 52.8225 224.656 61.7039 224.656C70.5853 224.656 77.7851 220.845 77.7851 216.143C77.7851 215.221 78.208 173.797 78.208 173.797H74.1264C71.3647 172.614 65.5332 171.906 61.7039 171.906Z" fill="#733DFF"/>
<path d="M62.1446 183.779C53.0745 183.779 45.7218 179.402 45.7218 174.003C45.7218 168.605 53.0745 164.228 62.1446 164.228C71.2146 164.228 78.5674 168.605 78.5674 174.003C78.5674 179.402 71.2146 183.779 62.1446 183.779Z" fill="#FF3F87"/>
<path d="M61.949 163.332C58.8856 163.332 54.846 163.899 52.6366 164.845L49.3714 164.845C49.3714 164.845 49.0841 172.965 49.0841 173.696C49.0841 177.458 54.8439 180.507 61.949 180.507C69.0542 180.507 74.814 177.458 74.814 173.696C74.814 172.959 75.1523 164.845 75.1523 164.845H71.8871C69.6777 163.899 65.0125 163.332 61.949 163.332Z" fill="#733DFF"/>
<path d="M62.3012 172.83C55.0452 172.83 49.163 169.329 49.163 165.01C49.163 160.691 55.0452 157.19 62.3012 157.19C69.5573 157.19 75.4395 160.691 75.4395 165.01C75.4395 169.329 69.5573 172.83 62.3012 172.83Z" fill="#293181"/>
<path d="M62.5353 168.92C58.8641 168.92 55.888 167.169 55.888 165.01C55.888 162.85 58.8641 161.1 62.5353 161.1C66.2065 161.1 69.1826 162.85 69.1826 165.01C69.1826 167.169 66.2065 168.92 62.5353 168.92Z" fill="#1B215B"/>
<path d="M186.968 206.458H232.894C238.423 206.458 242.904 210.94 242.904 216.468C242.904 221.997 238.423 226.478 232.894 226.478H192.744L186.968 206.458Z" fill="#FF3F87"/>
<path d="M190.271 217.906L192.744 226.478H232.894C237.934 226.478 242.104 222.753 242.802 217.906L190.271 217.906Z" fill="black" fill-opacity="0.275213"/>
<path d="M138.841 390.695H146.716C147.115 390.695 147.506 390.815 147.837 391.039L149.239 391.988C150.339 392.733 150.416 394.318 149.363 395.129C148.201 396.024 146.726 397.107 145.417 397.901C144.172 398.657 141.02 400.352 138.014 401.944C135.097 403.489 131.632 401.226 131.853 397.932L132.284 391.478L138.841 390.695Z" fill="#733DFF"/>
<mask id="mask0_41_10503" style="mask-type:alpha" maskUnits="userSpaceOnUse" x="131" y="390" width="20" height="13">
<path d="M138.841 390.695H146.716C147.115 390.695 147.506 390.815 147.837 391.039L149.239 391.988C150.339 392.733 150.416 394.318 149.363 395.129C148.201 396.024 146.726 397.107 145.417 397.901C144.172 398.657 141.02 400.352 138.014 401.944C135.097 403.489 131.632 401.226 131.853 397.932L132.284 391.478L138.841 390.695Z" fill="white"/>
</mask>
<g mask="url(#mask0_41_10503)">
</g>
<path d="M99.8664 385.25C99.2521 385.593 98.8631 386.233 98.8418 386.936L98.7267 390.742L98.7267 391.271C98.7267 392.605 100.007 393.564 101.283 393.173C103.093 392.619 105.305 391.915 105.937 391.6C107.057 391.041 108.841 389.274 108.841 389.274L113.926 387.128C114.996 386.677 115.458 385.411 114.93 384.376L114.632 383.792C114.304 383.148 113.653 382.731 112.931 382.702L105.574 382.402C105.205 382.387 104.839 382.474 104.517 382.654L99.8664 385.25Z" fill="#733DFF"/>
<mask id="mask1_41_10503" style="mask-type:alpha" maskUnits="userSpaceOnUse" x="98" y="382" width="18" height="12">
<path d="M99.8664 385.25C99.2521 385.593 98.8631 386.233 98.8418 386.936L98.7267 390.742L98.7267 391.271C98.7267 392.605 100.007 393.564 101.283 393.173C103.093 392.619 105.305 391.915 105.937 391.6C107.057 391.041 108.841 389.274 108.841 389.274L113.926 387.128C114.996 386.677 115.458 385.411 114.93 384.376L114.632 383.792C114.304 383.148 113.653 382.731 112.931 382.702L105.574 382.402C105.205 382.387 104.839 382.474 104.517 382.654L99.8664 385.25Z" fill="white"/>
</mask>
<g mask="url(#mask1_41_10503)">
</g>
<path d="M145.773 282.611L155.652 272.705C156.175 272.181 156.291 271.374 155.937 270.723L145.599 264.594C145.214 264.366 144.724 264.421 144.399 264.73L134.349 274.284L145.773 282.611Z" fill="#733DFF"/>
<path d="M145.773 281.782L155.668 271.86C156.115 271.412 156.038 270.666 155.509 270.318L145.611 263.815C145.223 263.56 144.71 263.606 144.373 263.926L134.349 273.455L145.773 281.782Z" fill="#D6D9FB"/>
<path d="M145.877 280.682L154.802 271.828C155.209 271.424 155.139 270.747 154.658 270.434L145.724 264.627C145.376 264.401 144.919 264.442 144.617 264.726L135.561 273.243L145.877 280.682Z" fill="white"/>
<path d="M144.728 264.62L135.56 273.243L145.876 280.681L146.881 279.685C147.952 274.938 148.471 270.507 148.439 266.391L145.594 264.543C145.322 264.366 144.965 264.398 144.728 264.62Z" fill="black" fill-opacity="0.169362"/>
<path d="M130.475 265.963L129.924 258.784L131.379 245.091L116.335 239.576V255.866C116.335 256.635 116.916 257.279 117.68 257.359L119.998 257.599L119.63 263.482C119.63 263.482 118.881 266.107 122.619 266.962C126.358 267.817 130.475 265.963 130.475 265.963Z" fill="#FFAF8A"/>
<path d="M133.105 249.005C133.105 249.006 133.105 249.005 133.105 249.006L130.939 257.94C130.871 258.218 130.69 258.453 130.431 258.573C129.491 259.006 127.117 259.957 125.565 259.307C123.777 258.558 122.737 255.537 122.56 254.987C122.542 254.93 122.53 254.871 122.524 254.811L122.042 250.344C121.994 249.895 121.651 249.535 121.205 249.464L119.063 249.122C118.625 249.053 118.286 248.704 118.228 248.264L118.007 246.575C117.971 246.303 117.825 246.057 117.602 245.896L115.026 244.029C114.766 243.841 114.613 243.54 114.613 243.219V239.921C114.613 239.493 114.884 239.113 115.291 238.981C117.097 238.396 122.014 236.884 123.859 237.13C125.644 237.367 127.007 239.575 127.513 240.522C127.656 240.788 127.898 240.992 128.187 241.081C129.245 241.408 131.838 242.326 132.775 243.73C133.959 245.503 133.114 248.97 133.105 249.005Z" fill="#0D134E"/>
<path d="M87.586 263.44L89.18 256.653L89.0486 254.097C89.0261 253.659 88.6692 253.312 88.2304 253.302C87.8505 253.294 87.5126 253.543 87.4073 253.908L86.7755 256.098L86.6429 256.795C86.6429 256.795 79.521 250.409 78.6921 251.034C77.8631 251.659 81.4441 254.906 81.6949 256.795C81.8263 257.784 81.3475 258.805 80.8619 259.552C80.423 260.228 80.409 261.15 80.9601 261.737L84.9632 266.006L87.586 263.44Z" fill="#FFAF8A"/>
<path d="M119.998 261.085C116.408 259.624 113.682 259.363 111.819 260.303C109.988 261.226 105.962 264.674 99.7394 270.647L99.404 270.969L89.0947 260.438C88.4129 259.742 87.3223 259.654 86.5375 260.232C85.5774 260.939 84.987 261.631 84.7662 262.308C84.5846 262.864 84.467 264.042 84.6171 265.094C84.7284 265.873 85.0327 266.414 85.3261 267.465L86.3627 268.989C92.3755 277.77 96.245 282.361 97.9712 282.761C99.7947 283.183 103.035 281.806 107.693 278.628L107.955 280.377C109.194 288.784 109.813 295.104 109.813 299.338L109.808 300.021C109.757 303.518 108.514 308.55 107.693 314.443C106.872 320.335 102.553 357.424 102.553 357.424L101.57 362.413C98.7969 376.654 97.5973 384.367 97.9712 385.553C98.5945 387.53 103.36 387.439 104.918 386.756C105.912 386.32 107.043 385.33 108.309 383.785C108.392 383.684 108.458 383.569 108.503 383.447L108.541 383.323L114.949 357.424L119.023 333.4C119.05 333.24 119.17 333.11 119.328 333.069C119.524 333.018 119.725 333.118 119.807 333.296L119.832 333.366L127.85 361.953C127.85 361.953 130.475 393.199 131.151 394.494C131.828 395.789 132.38 396.249 133.441 396.045C135.465 395.657 136.741 395.279 137.27 394.912C137.921 394.461 138.921 392.996 140.272 390.518C140.406 390.273 141.313 388.591 141.333 388.313V359.738L139.6 327.159L139.604 327.091L138.843 292.369C138.843 292.369 143.796 300.425 144.992 301.216C146.187 302.007 146.407 302.477 148 302.433C149.592 302.388 151.614 301.031 151.614 301.031C152.825 300.024 153.447 298.48 153.28 296.922L153.254 296.719L150.411 277.955L146.187 282.127C144.611 275.583 142.993 271.349 141.333 269.424C139.673 267.499 136.054 265.456 130.475 263.293C126.803 263.829 124.139 263.829 122.482 263.293C120.826 262.756 119.998 262.02 119.998 261.085Z" fill="#380085"/>
<path d="M109.156 305.537C109.073 306.009 108.977 306.475 108.874 306.941L110.1 307.179C111.054 307.365 111.977 306.742 112.163 305.788C112.34 304.875 111.778 303.991 110.894 303.753L110.771 303.725L109.48 303.473C109.387 304.15 109.279 304.841 109.156 305.537Z" fill="#733DFF"/>
<path d="M139.17 307.291L134.248 307.291C133.277 307.291 132.489 308.079 132.489 309.051C132.489 309.982 133.212 310.744 134.128 310.806L134.248 310.81L139.247 310.81L139.17 307.291L134.248 307.291L139.17 307.291Z" fill="#733DFF"/>
<path d="M114.656 259.755L114.496 259.752C112.647 266.207 115.077 270.454 121.426 271.538C127.318 272.543 132.088 270.625 135.454 265.899L135.69 265.558C134.711 265.071 133.623 264.578 132.428 264.078C129.862 267.548 126.426 268.939 122.018 268.069C119.014 267.476 116.576 265.162 117.938 260.524L117.986 260.364C116.752 259.988 115.642 259.785 114.656 259.755L114.496 259.752L114.656 259.755Z" fill="#733DFF"/>
<path d="M119.104 333.215L117.502 327.916L116.546 333.88C114.238 348.156 112.665 356.951 111.826 360.266L111.766 360.496C111.034 363.276 110.878 367.167 111.3 372.169L114.949 357.424L119.023 333.4C119.035 333.331 119.063 333.268 119.104 333.215Z" fill="black" fill-opacity="0.275213"/>
<path d="M107.76 313.966L108.114 314.144C110.857 315.481 114.172 316.368 118.061 316.805C122.802 317.338 129.909 317.373 139.381 316.909L139.307 313.584L137.008 313.667C128.957 313.937 122.942 313.893 118.962 313.535C114.972 313.177 111.389 312.355 108.213 311.072C108.057 312.008 107.903 312.975 107.76 313.966Z" fill="#733DFF"/>
<path d="M85.3258 267.465L86.3624 268.989L87.1346 270.111C92.7076 278.161 96.3198 282.378 97.9709 282.761C99.7944 283.183 103.035 281.806 107.692 278.628L107.7 278.677L107.963 275.77L107.114 276.46C101.861 280.705 98.939 282.479 98.3479 281.782L85.0597 266.443C85.1372 266.768 85.2263 267.109 85.3258 267.465Z" fill="black" fill-opacity="0.275213"/>
<path d="M135.56 284.983L139.495 322.136L138.843 292.369L135.56 284.983Z" fill="black" fill-opacity="0.275213"/>
<path d="M268.329 202.947C268.329 202.947 264.699 202.445 264.465 199.312C264.23 196.179 264.465 189.919 264.465 189.919L256.03 194.426C256.03 194.426 256.112 198.008 255.581 199.672C255.487 199.969 254.101 199.784 252.851 199.961C251.459 200.157 250.183 200.721 249.965 201.217C249.646 201.942 252.851 203.61 252.851 203.61L254.482 209.298L259.934 208.975L268.329 202.947Z" fill="#FFAF8A"/>
<path d="M258.456 199.715C255.047 199.74 254.156 196.302 254.156 196.302L265.019 194.276C265.019 194.276 265.268 201.542 265.019 201.94C264.768 202.343 263.307 196.975 263.1 197.19C261.478 198.873 260.176 199.702 258.456 199.715Z" fill="black" fill-opacity="0.175153"/>
<path d="M250.508 183.299C250.508 183.299 249.918 199.025 248.697 199.999C247.476 200.973 255.76 200.61 256.31 197.586C257.141 194.064 252.341 184.555 252.341 184.555L250.508 183.299Z" fill="#0D134E"/>
<path d="M256.574 198.971C252.568 198.725 251.942 184.193 251.942 184.193L258.512 177.975L264.667 183.174L265.671 192.311C265.671 192.311 261.49 199.272 256.574 198.971Z" fill="#FFAF8A"/>
<path fill-rule="evenodd" clip-rule="evenodd" d="M250.935 200.069L255.581 199.731C254.863 200.823 255.374 202.253 257.45 202.7C259.526 203.148 264.455 202.508 264.834 200.86L264.85 200.865L264.66 200.401L265.88 200.814L275.231 205.694C276.082 206.139 276.625 207.011 276.648 207.971L277.207 231.62C277.222 232.253 277.1 232.881 276.85 233.462C275.89 235.692 273.304 236.722 271.073 235.762L268.206 234.528L270.482 247.957L270.492 248.032C270.501 248.148 270.488 248.261 270.454 248.365C271.315 251.698 271.746 255.437 271.746 259.583L271.746 259.816C271.72 264.326 270.958 269.059 269.459 277.141L267.951 285.189C268.771 302.159 267.319 312.264 266.892 313.282C266.682 313.781 266.418 313.896 266.2 313.991C265.974 314.089 265.798 314.166 265.787 314.629C265.751 316.166 265.778 318.335 265.867 321.137L265.918 322.597L254.04 328.37L254.565 326.465C256.511 323.858 258.003 321.9 259.044 320.592L259.526 319.992C260.156 319.22 260.378 317.771 260.508 315.503V314.256C260.513 314.136 260.4 314.006 260.261 313.847C260.062 313.619 259.811 313.332 259.787 312.93C259.749 312.294 259.716 311.482 259.676 310.492C259.52 306.659 259.256 300.157 258.176 290.901L257.45 284.735L255.581 261.657C254.477 264.611 252.823 269.902 251.443 274.321C250.579 277.087 249.821 279.511 249.372 280.807L248.814 282.43C248.991 290.077 245.711 303.052 244.23 308.103C244.001 308.882 243.454 309.234 243.064 309.484C242.818 309.642 242.635 309.76 242.635 309.919L241.875 316.089L233.254 320.807L231.339 319.79C231.339 319.79 234.142 317.873 235.411 316.559C236.679 315.245 237.689 313.212 237.689 313.212C237.689 313.212 237.446 310.814 237.452 309.587C237.454 309.251 237.257 309.074 237.055 308.892C236.841 308.699 236.621 308.502 236.624 308.103C236.671 302.285 238.445 281.544 238.445 281.544C238.445 281.543 238.482 281.357 238.551 281.011C239.436 276.587 245.54 246.06 245.54 244.503L246.088 227.799L243.835 222.839L242.477 226.521C242.369 226.814 242.213 227.087 242.015 227.329C241.03 228.532 239.257 228.709 238.055 227.724L220.716 213.531C220.465 213.325 220.322 213.016 220.329 212.692C220.367 210.932 220.606 209.816 221.046 209.343C221.442 208.918 222.043 208.501 222.851 208.091C223.186 207.921 223.587 207.943 223.903 208.148L237.955 217.276L244.009 202.381C244.352 201.538 245.105 200.931 246.002 200.775C248.318 200.372 249.962 200.137 250.935 200.069ZM269.567 227.001L269.509 219.755L267.619 226.064L269.567 227.001Z" fill="#380085"/>
<path d="M255.395 262.161L255.555 260.17L254.7 261.942C250.206 271.317 247.959 277.093 247.959 279.268C247.959 280.503 248.242 282.002 248.81 283.765C248.822 283.305 248.823 282.859 248.813 282.43L249.502 280.424C250.721 276.806 253.635 267.005 255.395 262.161Z" fill="black" fill-opacity="0.275213"/>
<path d="M246.049 228.989L245.901 233.506L246.692 233.911C246.854 233.993 247.033 234.036 247.214 234.036C247.847 234.036 248.36 233.523 248.36 232.89C248.36 231.769 247.906 230.7 247.107 229.923L246.953 229.781L246.049 228.989Z" fill="#733DFF"/>
<path d="M253.52 199.881L250.935 200.069C250.408 200.106 249.685 200.192 248.764 200.327L248.701 200.697C248.504 201.919 248.538 202.371 248.606 202.643C248.818 203.493 251.971 204.631 252.245 204.078L252.271 204.012C252.426 203.575 253.045 201.379 253.52 199.881Z" fill="#733DFF"/>
<path d="M255.581 199.731L250.935 200.069C250.384 200.108 249.619 200.2 248.639 200.345C248.47 200.681 248.378 201.031 248.378 201.393C248.378 203.865 252.659 205.899 256.368 205.899C258.104 205.899 259.686 205.459 260.878 204.738L263.946 206.069L263.947 201.832C263.567 202.049 263.091 202.231 262.565 202.378L262.298 202.449L261.996 202.52L261.678 202.586L261.597 202.601C261.398 202.638 261.197 202.671 260.994 202.699L260.793 202.726C260.581 202.753 260.37 202.775 260.16 202.792L259.773 202.819L259.846 202.814C259.573 202.831 259.305 202.839 259.047 202.839C258.889 202.839 258.735 202.836 258.586 202.83L258.296 202.814L258.117 202.799C257.873 202.776 257.648 202.743 257.45 202.7C255.374 202.253 254.863 200.823 255.581 199.731Z" fill="black" fill-opacity="0.275213"/>
<path d="M266.236 203.077L266.012 203.46C264.756 205.644 265.026 205.824 265.026 206.208C265.026 207.084 268.263 208.951 268.727 208.481L268.756 208.447C268.917 208.237 268.71 207.969 270.408 205.7C270.712 205.294 271.236 204.727 271.981 204L267.27 201.541L266.977 201.954C266.656 202.411 266.409 202.786 266.236 203.077Z" fill="#733DFF"/>
<path d="M253.821 239.894L253.448 239.885L253.923 220.901L254.137 220.939C256.445 221.356 259.237 221.072 260.312 219.755C261.415 218.405 265.001 210.043 266.48 206.621L266.841 206.717C265.299 210.388 261.745 218.591 260.601 219.991C259.466 221.381 256.609 221.716 254.285 221.343L253.821 239.894Z" fill="#733DFF"/>
<path d="M250.75 203.543C250.164 208.973 248.734 212.791 249.314 214.854C249.89 216.899 251.57 218.218 253.923 219.755L253.719 220.067C251.295 218.485 249.557 217.094 248.955 214.955C248.359 212.833 249.789 208.978 250.38 203.503L250.75 203.543Z" fill="#733DFF"/>
<path d="M268.572 236.27C268.572 236.27 257.424 240.237 253.448 239.372C247.74 238.129 245.925 234.91 245.925 234.91V237.538C245.925 237.538 247.755 240.955 253.549 241.972C257.726 242.706 268.923 238.407 268.923 238.407L268.572 236.27Z" fill="#733DFF"/>
<path d="M265.705 314.673C265.705 314.673 265.652 319.648 265.994 320.911C266.336 322.174 266.295 323.152 265.824 324.209C265.352 325.267 264.189 325.276 263.366 325.917C262.542 326.558 260.155 329.809 258.745 329.925C257.335 330.041 255.124 330.044 253.971 329.568C252.817 329.092 251.641 328.091 252.173 327.04C252.706 325.989 257.661 321.89 258.466 321.044C259.271 320.197 259.941 317.306 260.192 315.521C260.443 313.736 260.422 314.144 260.422 314.144L265.705 314.673Z" fill="#733DFF"/>
<path d="M260.359 314.1C260.359 314.1 260.261 315.037 260.193 315.521C259.942 317.306 259.272 320.197 258.467 321.044C257.662 321.89 252.707 325.989 252.175 327.04C252.084 327.219 252.043 327.397 252.043 327.57L252.752 327.21C257.035 325.017 258.893 323.347 259.89 322.201C260.864 321.081 261.329 314.233 261.329 314.233L260.359 314.1Z" fill="black" fill-opacity="0.275213"/>
<path d="M242.979 309.734C242.979 309.734 242.379 315.508 242.565 316.65C242.75 317.792 242.99 319.988 241.56 320.681C240.13 321.374 238.148 321.373 237.231 322.151C236.314 322.928 236.098 324.969 233.461 325.594C230.824 326.219 228.572 325.015 228.483 323.834C228.394 322.652 228.636 322.088 230.486 320.469C232.336 318.851 235.35 316.828 236.4 315.113C237.45 313.397 237.452 309.587 237.452 309.587C237.452 309.587 238.912 310.043 239.936 310.07C240.96 310.097 242.979 309.734 242.979 309.734Z" fill="#733DFF"/>
<path d="M239.006 309.629L237.451 309.588C237.45 312.128 237.099 313.969 236.399 315.113C235.35 316.829 232.336 318.851 230.486 320.469L230.149 320.768C228.773 322.012 228.46 322.596 228.467 323.491L229.457 322.904C234.16 320.088 236.828 318.043 237.464 316.769C238.146 315.4 238.66 313.02 239.006 309.629Z" fill="black" fill-opacity="0.275213"/>
<path d="M245.36 210.042L244.908 210.692C242.712 213.885 241.509 216.279 241.3 217.874C241.119 219.257 241.817 221.308 243.396 224.027L243.835 222.839L243.84 222.85C243.505 221.219 243.337 219.796 243.337 218.579C243.337 216.631 244.011 213.786 245.36 210.042Z" fill="black" fill-opacity="0.275213"/>
<path d="M264.996 232.988C264.996 232.988 264.604 233.655 264.682 234.036C265.037 235.753 268.206 234.529 268.206 234.529L264.996 232.988Z" fill="#733DFF"/>
<path fill-rule="evenodd" clip-rule="evenodd" d="M247.959 226.611L249.484 210.042L265.706 223.378L269.431 220.013L267.68 225.857L260.689 223.039L258.377 222.311L257.02 227.001L257.238 229.132L268.211 234.557L268.967 239.017L247.959 226.611ZM269.51 219.942L269.566 219.892L269.512 220.132L269.51 219.942Z" fill="black" fill-opacity="0.275213"/>
<path d="M260.601 211.307C260.803 211.348 260.951 211.522 260.96 211.727L261.493 223.497L258.376 222.311L257.061 226.739L257.237 229.133L260.124 230.439L250.047 227.36C249.865 227.304 249.737 227.14 249.729 226.949L248.961 209.491C248.948 209.199 249.213 208.972 249.5 209.031L260.601 211.307Z" fill="#733DFF"/>
<path d="M249.291 209.524C249.141 209.53 249.017 209.63 248.973 209.765L249.732 227.018C249.738 227.146 249.812 227.259 249.923 227.316L249.981 227.339L256.703 229.393L256.534 227.091L257.849 222.663L258.229 222.807L258.377 222.311L260.939 223.286L260.429 212.004C260.423 211.866 260.336 211.746 260.212 211.695L260.147 211.675L249.375 209.53C249.348 209.525 249.319 209.523 249.291 209.524Z" fill="#D6D9FB"/>
<path fill-rule="evenodd" clip-rule="evenodd" d="M250.896 211.25C250.882 211.04 250.723 210.868 250.515 210.836L250.194 210.787C249.91 210.744 249.658 210.975 249.677 211.262L249.792 212.969C249.806 213.179 249.964 213.352 250.173 213.384L250.494 213.432C250.778 213.476 251.03 213.245 251.01 212.958L250.896 211.25Z" fill="#ABBBD9"/>
<mask id="mask2_41_10503" style="mask-type:alpha" maskUnits="userSpaceOnUse" x="249" y="210" width="3" height="4">
<path fill-rule="evenodd" clip-rule="evenodd" d="M250.896 211.25C250.882 211.04 250.723 210.868 250.515 210.836L250.194 210.787C249.91 210.744 249.658 210.975 249.677 211.262L249.792 212.969C249.806 213.179 249.964 213.352 250.173 213.384L250.494 213.432C250.778 213.476 251.03 213.245 251.01 212.958L250.896 211.25Z" fill="white"/>
</mask>
<g mask="url(#mask2_41_10503)">
<path d="M251.072 211.25C251.058 211.04 250.899 210.868 250.691 210.836L250.37 210.787C250.085 210.744 249.834 210.975 249.853 211.262L249.968 212.969C249.982 213.179 250.14 213.352 250.349 213.384L250.67 213.432C250.954 213.476 251.205 213.245 251.186 212.958L251.072 211.25Z" fill="#733DFF"/>
</g>
<path fill-rule="evenodd" clip-rule="evenodd" d="M250.343 212.016C250.149 212.016 249.991 211.848 249.991 211.641C249.991 211.433 250.149 211.265 250.343 211.265C250.538 211.265 250.695 211.433 250.695 211.641C250.695 211.848 250.538 212.016 250.343 212.016Z" fill="url(#paint0_linear_41_10503)"/>
<path fill-rule="evenodd" clip-rule="evenodd" d="M250.343 213.048C250.149 213.048 249.991 212.88 249.991 212.673C249.991 212.465 250.149 212.297 250.343 212.297C250.538 212.297 250.695 212.465 250.695 212.673C250.695 212.88 250.538 213.048 250.343 213.048Z" fill="url(#paint1_linear_41_10503)"/>
<path opacity="0.212402" fill-rule="evenodd" clip-rule="evenodd" d="M258.618 222.989L256.072 219.783C255.991 219.681 255.917 219.573 255.851 219.459C255.618 219.056 255.035 218.051 254.854 217.738C254.273 216.737 252.983 215.821 252.694 216.087C252.405 216.353 252.761 217.174 253.223 218.116C253.488 218.658 253.23 219.362 253.23 219.362L250.563 218.504C250.256 218.405 249.948 218.652 249.978 218.974L250.357 223.063C250.454 224.109 251.149 225.003 252.138 225.355L253.793 225.945L256.52 227.09L256.613 226.777L259.437 223.32L258.618 222.989Z" fill="url(#paint2_linear_41_10503)"/>
<path fill-rule="evenodd" clip-rule="evenodd" d="M261.831 217.276L261.514 211.844C261.502 211.64 261.354 211.47 261.154 211.429L260.314 211.259L259.739 217.178L261.831 217.276Z" fill="url(#paint3_linear_41_10503)"/>
<path d="M221.687 211.442C222.611 210.923 223.119 209.888 222.966 208.84L222.459 205.384C222.364 204.732 222.063 204.127 221.599 203.659L220.387 202.432C220.204 202.247 219.911 202.232 219.71 202.397C219.537 202.54 219.48 202.781 219.571 202.987L220.055 204.083L220.346 205.712L217.738 203.807C215.845 202.424 213.184 203.776 213.184 206.12C213.184 206.569 213.38 206.996 213.72 207.289L218.138 211.089C219.129 211.942 220.548 212.083 221.687 211.442Z" fill="#FFAF8A"/>
<path d="M257.066 184.834C257.066 184.834 255.387 188.147 254.254 188.147C253.12 188.147 251.775 191.003 251.775 191.003L249.184 185.199L258.223 179.805L257.066 184.834Z" fill="black" fill-opacity="0.175153"/>
<path d="M256.646 184.377C256.646 184.377 256.592 186.92 258.511 187.879C260.43 188.838 261.909 191.443 261.305 194.169C260.7 196.895 264.17 207.042 264.17 207.042C264.17 207.042 264.812 203.453 266.183 202.643C267.553 201.833 268.63 199.024 268.868 197.027C269.313 193.281 268.101 182.549 265.9 180.285C263.698 178.02 261.305 178.549 261.305 178.549C261.305 178.549 257.084 177.248 254.216 178.549C251.348 179.85 250.652 183.182 249.401 184.079C248.15 184.976 250.827 189.037 252.593 188.509C254.358 187.981 256.646 184.377 256.646 184.377Z" fill="#0D134E"/>
<path d="M257.562 222.285L255.016 219.08C254.935 218.977 254.861 218.869 254.795 218.756C254.562 218.352 253.979 217.347 253.798 217.034C253.217 216.033 251.927 215.117 251.638 215.383C251.349 215.649 251.706 216.47 252.167 217.413C252.432 217.954 252.174 218.659 252.174 218.659L249.507 217.8C249.2 217.701 248.892 217.949 248.922 218.27L249.301 222.359C249.399 223.405 250.093 224.299 251.082 224.652L252.737 225.242L255.865 226.483L257.629 227.195L258.382 222.616L257.562 222.285Z" fill="#FFAF8A"/>
<defs>
<linearGradient id="paint0_linear_41_10503" x1="250.232" y1="211.354" x2="250.787" y2="211.663" gradientUnits="userSpaceOnUse">
<stop stop-color="#3D3D70"/>
<stop offset="1" stop-color="#292A5F"/>
</linearGradient>
<linearGradient id="paint1_linear_41_10503" x1="250.232" y1="212.386" x2="250.787" y2="212.695" gradientUnits="userSpaceOnUse">
<stop stop-color="#3D3D70"/>
<stop offset="1" stop-color="#292A5F"/>
</linearGradient>
<linearGradient id="paint2_linear_41_10503" x1="237.746" y1="203.7" x2="271.057" y2="215.392" gradientUnits="userSpaceOnUse">
<stop stop-color="#3D3D70" stop-opacity="0.0452616"/>
<stop offset="1" stop-color="#272858"/>
</linearGradient>
<linearGradient id="paint3_linear_41_10503" x1="264.241" y1="229.022" x2="254.434" y2="229.12" gradientUnits="userSpaceOnUse">
<stop stop-color="#3D3D70" stop-opacity="0.0452616"/>
<stop offset="1" stop-color="#272858"/>
</linearGradient>
</defs>
</svg>
