<svg width="186" height="182" viewBox="0 0 186 182" fill="none" xmlns="http://www.w3.org/2000/svg">
<path d="M161.726 35.5946C161.726 35.5946 164.332 28.3932 164.332 26.3287C164.332 24.2643 164.247 20.6374 165.348 18.9133C165.897 18.0552 169.077 15.4196 173.555 14.0518C174.978 13.617 176.025 11.8183 177.275 11.0395C179.874 9.42042 182.114 9.94276 183.484 10.4066C187.646 11.8161 183.98 18.0804 181.853 20.1039C179.727 22.1274 174.231 26.437 173.555 29.2241C172.878 32.0112 171.045 39.0847 171.045 39.0847L161.726 35.5946Z" fill="#959FFA"/>
<path d="M183.484 10.4066C185.296 11.02 185.624 12.5527 185.243 14.2552C182.622 17.9002 173.149 25.7323 166.89 22.6795C165.107 21.8098 164.979 20.1679 166.505 17.7537C167.908 16.5972 170.412 15.0121 173.555 14.0518C174.978 13.617 176.025 11.8183 177.275 11.0395C179.874 9.42042 182.115 9.94276 183.484 10.4066Z" fill="#733DFF"/>
<path d="M183.484 10.4067C187.572 11.791 184.109 17.8582 181.969 19.9915L181.854 20.1039C179.728 22.1274 174.231 26.437 173.555 29.2241L173.107 31.0356C172.626 32.9556 171.939 35.6387 171.046 39.0847L168.074 37.9711L167.129 35.273C169.333 28.2575 171.173 23.8779 172.65 22.1342L183.4 10.3789L183.484 10.4067Z" fill="black" fill-opacity="0.489401"/>
<path d="M183.484 10.4066C183.885 10.5424 184.213 10.7231 184.477 10.9408C184.462 11.6015 184.366 12.2407 184.188 12.8596C183.44 15.4749 172.614 23.6728 168.577 21.6934C166.726 20.7858 166.398 19.1993 167.592 16.9339C169.046 15.9268 171.106 14.7998 173.555 14.0518C174.978 13.617 176.025 11.8183 177.275 11.0395C179.874 9.42042 182.114 9.94276 183.484 10.4066Z" fill="#380085"/>
<path d="M133.06 25.4762C133.06 25.4762 134.17 16.7008 134.382 14.0483C134.526 12.2503 134.382 10.9777 134.382 10.245C134.382 7.52471 147.938 0 149.879 0C153.785 0 153.218 4.7571 152.403 6.68169C151.588 8.60628 144.847 14.6496 144.326 15.3523C142.907 17.2641 141.54 26.8598 141.54 26.8598L133.06 25.4762Z" fill="#959FFA"/>
<path d="M149.879 0C151.735 0 152.581 1.07391 152.871 2.40767C152.727 2.57135 152.572 2.73504 152.404 2.8984L149.25 5.95134C147.794 7.37223 146.354 8.81194 145.649 9.64336L145.408 9.942C143.456 12.5358 137.319 13.2709 134.439 11.9487L134.422 11.3614C134.405 10.9054 134.383 10.5334 134.383 10.245C134.383 7.52471 147.939 0 149.879 0Z" fill="#733DFF"/>
<path d="M152.404 6.68187C151.589 8.60646 144.848 14.6497 144.327 15.3524C143.394 16.609 142.479 20.355 141.579 26.5904L140.668 26.7176L139.634 26.5486L139.635 12.593C139.635 10.1325 143.576 6.05237 151.457 0.352539C153.594 1.4851 153.085 5.07309 152.404 6.68187Z" fill="black" fill-opacity="0.489401"/>
<path d="M149.879 0C151.049 0 151.818 0.426699 152.299 1.07621C152.119 1.26398 151.925 1.4595 151.717 1.66233C149.819 3.50694 145.822 6.33514 144.681 7.67556L144.566 7.81825C142.579 10.4576 137.04 12.057 134.4 10.8331L134.385 10.4216C134.384 10.3596 134.383 10.3007 134.383 10.245C134.383 7.52471 147.939 0 149.879 0Z" fill="#380085"/>
<path d="M99.5674 81.1528C99.5674 81.1528 115.57 62.2254 119.242 59.1412C122.914 56.0571 124.747 55.13 124.747 54.0187C124.747 52.9074 125.937 49.005 125.937 43.3805C125.937 37.7559 130.709 24.1511 133.718 23.4938C136.727 22.8365 141.215 23.3756 141.734 24.8723C142.253 26.3691 143.457 60.1347 140.376 64.4033C137.295 68.6718 131.182 74.9301 131.182 74.9301C131.182 74.9301 144.703 70.077 146.135 67.2401C147.566 64.4033 147.209 61.8804 148.358 57.9507C149.506 54.0209 159.183 34.7276 162.001 33.7451C164.818 32.7626 170.112 35.4342 171.503 38.1087C172.893 40.7833 164.661 75.4661 162.001 78.7405C159.34 82.0148 153.31 87.8835 145.254 91.2225C141.163 92.9183 136.487 95.1389 129.368 97.6726C127.142 98.465 121.315 100.067 121.315 100.067L99.5674 81.1528Z" fill="#733DFF"/>
<path d="M125.136 51.5803L125.177 51.3525C127.628 51.4583 129.99 51.7095 132.262 52.1061C134.935 52.5725 138.163 54.1314 141.948 56.7828L141.873 57.6251C141.557 60.9293 141.078 63.4317 140.376 64.404C139.274 65.9308 137.881 67.6485 136.197 69.5571C134.252 66.3341 132.432 63.6445 130.738 61.4871C129.102 59.4047 126.176 57.8948 121.958 56.9573L123.128 56.0385C124.14 55.2248 124.677 54.6918 124.741 54.1319L124.747 54.0194C124.747 53.7361 124.824 53.2715 124.939 52.6432L125.177 51.3525L125.136 51.5803Z" fill="#959FFA"/>
<path d="M141.734 24.8731C142.253 26.3698 143.457 60.1354 140.376 64.404C138.34 67.2254 135.31 70.6989 131.286 74.8243L131.117 74.9308L131.818 73.7163C135.12 67.94 137.181 63.5195 138.002 60.4548C138.903 57.0899 138.341 36.9211 138.832 23.4033C140.315 23.654 141.484 24.1526 141.734 24.8731Z" fill="black" fill-opacity="0.489401"/>
<path d="M147.174 64.0405L147.236 63.7012C150.292 64.3913 153.162 65.2761 155.847 66.3555C158.36 67.3655 161.188 69.5555 164.332 72.9255L164.091 73.6805C163.256 76.2549 162.522 78.1003 162.001 78.7414C160.205 80.9506 157.146 83.7842 153.789 86.2654C153.005 81.7091 152.073 78.3315 150.994 76.1316C149.808 73.7169 147.558 71.3685 144.242 69.0866C145.223 68.413 145.853 67.7979 146.134 67.2411C146.68 66.1604 146.966 65.1252 147.174 64.0405L147.236 63.7012L147.174 64.0405Z" fill="#959FFA"/>
<path d="M171.503 38.1104C172.894 40.7849 164.662 75.4677 162.001 78.7421C159.405 81.9366 153.603 87.6004 145.84 90.9754L143.583 91.9299C140.016 93.4566 135.871 95.3281 130.073 97.4219L129.369 97.6742C128.873 97.8506 128.244 98.0571 127.48 98.2937L129.369 83.7326C141.314 81.617 149.62 78.507 154.288 74.4026C159.71 69.6345 164.436 46.9764 167.145 34.4893C169.051 35.3685 170.79 36.739 171.503 38.1104Z" fill="black" fill-opacity="0.489401"/>
<path d="M122.841 100.007L130.414 97.4785C130.414 97.4785 133.059 81.3417 124.472 76.6271C115.885 71.9126 108.53 70.8916 108.53 70.8916L99.582 80.5593L121.315 100.069L122.841 100.007Z" fill="#6970B1"/>
<path d="M44.0594 110.378C44.0594 110.378 39.6021 124.63 36.7858 126.066C33.9694 127.502 33.8759 128.038 33.8759 128.038L28.075 138.15L25.8869 136.217L25.5647 134.602C25.5647 134.602 24.3059 134.128 23.8451 132.56C23.3843 130.992 24.9709 129.756 26.2962 127.655C27.6214 125.554 24.8333 124.843 25.5647 120.708C26.2962 116.573 32.298 101.097 35.302 99.4041C38.306 97.7114 51.9218 94.1214 59.1973 94.1214C66.4728 94.1214 100.798 74.9316 100.798 74.9316L123.212 85.7225C123.212 85.7225 126.253 96.8087 121.958 101.151C117.663 105.494 96.2379 122.494 87.6322 122.494C79.0264 122.494 61.8656 117.633 59.1973 114.664C57.3297 112.586 58.0815 109.247 55.3296 107.997C53.3652 107.105 44.0594 110.378 44.0594 110.378Z" fill="#733DFF"/>
<path d="M121.957 101.15L121.645 101.459C116.751 106.205 96.3644 122.242 87.8291 122.49C90.1756 119.593 90.7728 116.687 89.6224 113.772C88.4401 110.775 84.6116 108.849 78.137 107.996C71.9701 106.349 73.4506 103.399 82.5784 99.146L83.5934 98.6821C92.5559 94.6613 105.842 90.6462 123.451 86.6367C125.199 93.5384 124.701 98.376 121.957 101.15Z" fill="black" fill-opacity="0.489401"/>
<path d="M71.0154 80.5722C70.2695 80.878 69.7969 81.6003 69.7969 82.4064V91.5227C69.7969 92.2019 70.1416 92.8347 70.7123 93.2031L92.3707 107.182C92.9835 107.577 93.7631 107.608 94.405 107.261L128.322 88.959C128.966 88.6114 129.37 87.938 129.247 87.2164C128.989 85.7047 128.181 83.0522 125.643 81.1546C121.899 78.3556 107.561 70.8916 100.839 70.8916C95.021 70.8916 76.0222 78.5197 71.0154 80.5722Z" fill="#959FFA"/>
<path d="M91.3311 92.27L122.062 78.8916L122.81 79.3256C124.013 80.0343 124.99 80.6653 125.643 81.1541C127.613 82.6267 128.801 84.4403 129.209 86.5949C129.39 87.5502 128.971 88.5122 128.166 89.0345L128 89.1329L94.604 107.154C94.3802 107.275 94.1424 107.357 93.8997 107.401L94.2438 106.086C94.4031 105.465 94.5709 104.796 94.7474 104.08C95.8516 99.5956 94.8143 95.7581 91.6354 92.5672L91.3311 92.27Z" fill="black" fill-opacity="0.489401"/>
<path d="M100.839 70.8916C107.561 70.8916 121.899 78.3556 125.643 81.1546C126.035 81.4479 126.396 81.7757 126.727 82.1381L96.0977 96.4619C95.8071 96.5977 95.4763 96.6097 95.1797 96.4998L95.0345 96.4346L69.7969 83.0174V82.6626C69.7969 81.7643 70.3015 80.9485 71.0915 80.5438L71.265 80.4634L72.6899 79.8745C87.247 73.8859 96.6298 70.8916 100.839 70.8916Z" fill="#F8FCFF"/>
<path d="M90.9028 79.9922L103.553 71.1914C108.954 72.244 116.663 75.8498 121.638 78.6506L95.8265 85.2788C95.3929 85.3902 94.9382 85.3767 94.5143 85.2422L94.3052 85.1649L91.3081 83.895C90.9189 83.73 90.5843 83.4584 90.3429 83.1113C89.6734 82.1489 89.8631 80.8449 90.7488 80.1094L90.9028 79.9922L103.553 71.1914L90.9028 79.9922Z" fill="#380085"/>
<path d="M100.839 70.8916C104.442 70.8916 110.233 73.0358 115.407 75.4566C113.312 83.2746 100.385 89.2922 84.7519 89.2922C79.328 89.2922 74.2299 88.5679 69.7969 87.2954L69.7973 82.6626C69.7973 81.7002 70.3766 80.8324 71.2654 80.4634L72.6903 79.8745C87.2473 73.8859 96.6302 70.8916 100.839 70.8916Z" fill="#9593F3" fill-opacity="0.33143"/>
<path d="M57.4364 110.541C57.0612 109.481 56.5272 108.541 55.3291 107.997C54.0195 107.402 50.2628 109.784 44.059 110.378L43.7482 111.527C40.918 121.883 38.597 125.142 36.7853 126.066C34.9077 127.023 33.9378 127.681 33.8755 128.038L31.2804 132.56L25.0527 129.203C25.4999 128.727 25.941 128.218 26.2957 127.655C27.621 125.554 24.8329 124.843 25.5643 120.709L25.6465 120.289C26.6622 115.49 32.39 101.045 35.3016 99.4043C38.3055 97.7115 51.9213 94.1216 59.1968 94.1216C60.7033 94.1216 63.0795 93.5046 66.3254 92.2705L65.9901 93.454C63.2499 102.962 60.4629 108.619 57.6297 110.424L57.4364 110.541Z" fill="#380085"/>
<path d="M71.061 117.864C75.9924 117.864 79.9901 113.866 79.9901 108.935C79.9901 104.004 75.9924 100.006 71.061 100.006C66.1295 100.006 62.1318 104.004 62.1318 108.935C62.1318 113.866 66.1295 117.864 71.061 117.864Z" fill="#380085"/>
<path fill-rule="evenodd" clip-rule="evenodd" d="M70.4651 115.745C75.0678 115.745 78.3913 112.015 78.3913 107.412C78.3913 102.81 75.0678 100.006 70.4651 100.006C65.8625 100.006 61.4453 104.265 62.1313 108.34C62.8172 112.414 65.8625 115.745 70.4651 115.745Z" fill="#C5876A"/>
<path d="M75.7966 114.778L75.0183 117.637L74.4558 119.703C74.1727 120.743 73.1158 121.372 72.0665 121.124L66.9225 119.91C66.1549 119.728 65.5655 119.113 65.4176 118.338L64.5713 113.907C64.5713 113.907 67.1157 114.608 69.2967 114.778C71.4777 114.947 75.7966 114.778 75.7966 114.778Z" fill="#380085"/>
<path d="M64.5723 113.867L64.9521 113.896L65.125 113.95C66.6348 114.403 68.0253 114.679 69.2965 114.777C70.5194 114.872 72.2765 114.853 74.5677 114.72L73.1748 120.907C72.7222 121.101 72.2061 121.157 71.6912 121.035L67.1649 119.967C66.2499 119.751 65.5477 119.016 65.3726 118.093L64.5723 113.867Z" fill="#959FFA"/>
<path d="M30.5283 126.065C31.7138 126.372 32.9714 126.86 34.3012 127.53C34.0399 127.739 33.898 127.908 33.8754 128.037L33.7576 129.349C33.5724 131.267 33.3779 132.615 33.1742 133.393C32.8171 134.756 31.3848 136.551 31.0092 137.113L30.9568 137.195C30.8743 137.333 29.9892 138.35 30.2502 137.015L30.4105 136.257C30.7088 134.705 30.8684 132.785 30.1769 133.99C29.3344 135.458 28.6336 136.845 28.0745 138.149L27.607 139.009C26.3563 141.249 25.5052 142.256 25.0538 142.031C24.5481 141.778 24.8257 139.84 25.8864 136.216L25.5642 134.601L24.7949 134.105C23.6901 133.391 23.3728 131.918 24.0861 130.813L24.1857 130.67L24.7922 129.853C25.3724 129.056 25.8735 128.323 26.2956 127.654C26.7425 126.946 26.7217 126.395 26.5258 125.818C27.8466 125.634 29.1812 125.716 30.5283 126.065Z" fill="#959FFA"/>
<path d="M57.3252 100.182C58.0432 104.683 60.6221 109.067 62.4832 110.915C64.3443 112.764 66.9258 114.393 70.2012 113.772C73.4765 113.15 76.7698 110.575 77.5565 104.144C78.3431 97.7138 58.4029 88.3936 58.4029 88.3936C58.4029 88.3936 56.6072 95.6805 57.3252 100.182Z" fill="#FFAF8A"/>
<path fill-rule="evenodd" clip-rule="evenodd" d="M66.9363 111.686C67.8202 111.16 68.6964 110.899 69.5688 110.899C69.7331 110.899 69.8664 110.766 69.8664 110.601C69.8664 110.437 69.7331 110.304 69.5688 110.304C68.5846 110.304 67.6043 110.596 66.6317 111.175C66.4905 111.259 66.4442 111.442 66.5283 111.583C66.6124 111.724 66.7951 111.771 66.9363 111.686Z" fill="#D28A62"/>
<path d="M60.4596 95.3075C60.4596 95.3075 59.1746 98.7052 58.886 100.553C58.5973 102.4 58.886 105.379 58.886 105.379C58.886 105.379 60.4528 108.651 61.5832 110.056C62.7137 111.462 63.6055 112.177 63.6055 112.177C63.6055 112.177 59.5371 112.566 57.1199 108.408C54.7028 104.251 53.9736 100.443 53.9736 96.5395C53.9736 92.6354 55.558 85.6833 57.8002 85.1083C60.0424 84.5334 63.9623 80.7485 67.7804 81.4204C71.5985 82.0923 73.4692 83.1503 75.2026 85.1083C76.936 87.0664 78.7788 92.2185 81.6262 94.4971C84.4736 96.7757 85.0524 97.8563 84.3437 100.553C83.635 103.249 76.5524 110.056 76.5524 110.056C76.5524 110.056 75.9306 103.169 74.3305 102.771C72.7303 102.372 68.3027 99.3352 67.0679 97.5614C65.8331 95.7876 60.4596 95.3075 60.4596 95.3075Z" fill="#0D134E"/>
<path d="M56.7539 103.106C56.7539 103.106 58.1276 107.958 59.4512 108.519C60.7749 109.08 62.2343 109.27 62.9282 108.519C63.6221 107.769 64.2042 106.06 64.2042 106.06C64.2042 106.06 66.782 107.683 68.7018 107.683C70.6217 107.683 75.7792 102.581 75.7792 102.581L71.0726 99.1475C71.0726 99.1475 67.0689 102.099 63.7098 103.106C60.3506 104.112 56.7539 103.106 56.7539 103.106Z" fill="#F8FCFF"/>
<path d="M88.5934 96.5389C88.5934 108.427 78.9562 118.064 67.0682 118.064C55.1801 118.064 45.543 108.427 45.543 96.5389C45.543 84.6508 55.1801 75.0137 67.0682 75.0137C78.9562 75.0137 88.5934 84.6508 88.5934 96.5389Z" fill="#9286FF" fill-opacity="0.193018" stroke="#ECEAFE"/>
<path opacity="0.504464" fill-rule="evenodd" clip-rule="evenodd" d="M55.3134 87.8845C56.0841 86.0688 55.7276 84.1803 54.5171 83.6664C53.3066 83.1526 51.7005 84.208 50.9297 86.0238C50.159 87.8396 50.5155 89.7281 51.726 90.2419C52.9365 90.7557 54.5426 89.7003 55.3134 87.8845Z" fill="white"/>
<path d="M54.2673 123.629C51.2696 121.849 47.6149 121.562 44.3767 122.854L11.1777 136.098C8.68157 137.094 6.88461 139.318 6.43576 141.968L5.21037 149.201C5.07013 150.029 5.42176 150.864 6.11231 151.341L35.6428 171.769C36.3133 172.233 37.1876 172.281 37.9042 171.892L76.8612 150.765C77.4811 150.429 77.8981 149.812 77.9787 149.111L78.589 143.808C78.965 140.541 77.3872 137.358 74.5595 135.679L54.2673 123.629Z" fill="#F8FCFF" stroke="#E9EBFF" stroke-width="0.589824"/>
<path d="M30.6126 137.594C30.2892 138.079 30.3851 138.721 30.8148 139.092L30.9291 139.179L39.752 145.064C39.9928 145.225 40.2838 145.287 40.5662 145.242L40.7064 145.211L74.9657 135.215L56.7397 124.391C55.181 123.465 53.4756 122.869 51.725 122.613L30.9047 137.294C30.7897 137.375 30.6907 137.477 30.6126 137.594Z" fill="#733DFF"/>
<path d="M30.7592 136.309C30.4358 136.794 30.5317 137.436 30.9614 137.807L31.0757 137.894L39.9071 143.785C40.1475 143.945 40.438 144.008 40.72 143.963L40.86 143.932L74.4752 134.174L56.2572 123.355C54.7109 122.437 53.0204 121.844 51.2844 121.584L31.0464 136.013C30.9335 136.093 30.8361 136.193 30.7592 136.309Z" fill="#380085"/>
<path d="M5.93338 151.569L6.07538 151.674L35.3374 171.917C35.7401 172.195 36.1981 172.363 36.6685 172.417L38.8418 160.634L9.37073 139.282C8.22486 138.452 6.60515 139.104 6.35458 140.497L4.82824 148.98C4.73529 149.92 5.10221 150.84 5.79891 151.457L5.93338 151.569Z" fill="#959FFA"/>
<path d="M36.6684 172.417C37.1493 172.471 37.6346 172.409 38.0884 172.227L38.2384 172.162L76.9789 151.575C77.8837 151.153 78.5073 150.301 78.6413 149.32L78.6591 149.155L78.9262 143.609C79.0334 141.385 76.6838 139.886 74.7118 140.92L38.9398 159.683C38.375 159.979 37.9941 160.536 37.9234 161.17L36.6684 172.417Z" fill="#5C66C0"/>
<path d="M56.5248 151.593C56.5248 151.593 58.4108 147.118 59.7878 146.108C61.1648 145.097 66.6051 142.664 68.4269 142.037C70.2488 141.41 74.9199 145.839 74.1708 147.027C73.4218 148.215 72.0576 148.684 71.9895 150.435C71.9214 152.186 71.3826 154.702 70.0841 155.149C68.7857 155.596 63.0554 156.435 62.2061 155.805C61.3568 155.176 59.3934 150.605 59.3934 150.605L56.5248 151.593Z" fill="#959FFA"/>
<path d="M68.3447 147.524C69.729 149.208 73.0857 150.784 74.9022 150.159C76.7186 149.533 96.6719 140.845 98.1604 138.641C99.6488 136.437 103.497 119.485 103.772 115.051C104.047 110.618 99.6321 106.358 94.3856 109.123C89.1391 111.888 87.3999 130.179 85.0372 132.185C82.6745 134.191 69.011 138.567 67.5385 141.529C66.0659 144.492 66.9604 145.84 68.3447 147.524Z" fill="#380085"/>
<path d="M95.7504 118.849C95.9756 122.487 98.5372 125.29 101.472 125.108C104.407 124.926 106.604 121.83 106.378 118.191C106.153 114.553 103.592 111.751 100.657 111.932C97.7219 112.114 95.5253 115.211 95.7504 118.849Z" fill="#5C66C0"/>
<path d="M97.8913 118.766C98.0157 122.247 100.13 124.997 102.615 124.909C105.099 124.82 107.012 121.926 106.887 118.444C106.763 114.963 104.648 112.213 102.164 112.301C99.6798 112.39 97.7669 115.284 97.8913 118.766Z" fill="#F8FCFF"/>
</svg>
