<svg width="153" height="141" viewBox="0 0 153 141" fill="none" xmlns="http://www.w3.org/2000/svg">
<path d="M130.646 34.4354C130.646 34.4354 133.108 27.6304 133.108 25.6796C133.108 23.7288 133.028 20.3015 134.069 18.6724C134.587 17.8615 137.592 15.371 141.823 14.0784C143.168 13.6676 144.157 11.9679 145.339 11.232C147.795 9.70202 149.911 10.1956 151.206 10.6339C155.139 11.9658 151.675 17.8853 149.665 19.7974C147.656 21.7095 142.462 25.7819 141.823 28.4156C141.184 31.0492 139.452 37.7333 139.452 37.7333L130.646 34.4354Z" fill="#959FFA"/>
<path d="M151.205 10.6339C152.917 11.2135 153.228 12.6619 152.867 14.2707C150.391 17.715 141.439 25.116 135.525 22.2312C133.84 21.4094 133.719 19.8579 135.161 17.5766C136.486 16.4838 138.852 14.9859 141.823 14.0784C143.168 13.6676 144.157 11.9679 145.338 11.232C147.794 9.70202 149.911 10.1956 151.205 10.6339Z" fill="#733DFF"/>
<path d="M151.206 10.6336C155.069 11.9418 151.796 17.675 149.774 19.6909L149.665 19.7971C147.656 21.7092 142.462 25.7816 141.823 28.4153L141.4 30.127C140.945 31.9413 140.296 34.4767 139.452 37.7331L136.644 36.6807L135.751 34.1311C137.834 27.5019 139.573 23.3634 140.968 21.7156L151.126 10.6074L151.206 10.6336Z" fill="black" fill-opacity="0.489401"/>
<path d="M151.205 10.6339C151.584 10.7622 151.894 10.933 152.144 11.1388C152.129 11.7631 152.038 12.367 151.871 12.9519C151.163 15.4232 140.933 23.1698 137.119 21.2994C135.37 20.4418 135.06 18.9426 136.188 16.8019C137.562 15.8503 139.509 14.7852 141.823 14.0784C143.167 13.6676 144.157 11.9679 145.338 11.232C147.794 9.70202 149.911 10.1956 151.205 10.6339Z" fill="#380085"/>
<path d="M103.557 24.8736C103.557 24.8736 104.606 16.5813 104.807 14.0748C104.943 12.3758 104.807 11.1732 104.807 10.4808C104.807 7.91029 117.616 0.799805 119.45 0.799805C123.141 0.799805 122.605 5.29504 121.835 7.11368C121.065 8.93232 114.695 14.6429 114.202 15.307C112.862 17.1135 111.57 26.181 111.57 26.181L103.557 24.8736Z" fill="#959FFA"/>
<path d="M119.451 0.799805C121.205 0.799805 122.004 1.8146 122.278 3.07493C122.142 3.2296 121.995 3.38429 121.836 3.53865L118.857 6.42353C117.481 7.76621 116.119 9.12666 115.454 9.91231L115.226 10.1945C113.381 12.6455 107.582 13.3402 104.861 12.0908L104.845 11.5358C104.829 11.1049 104.808 10.7534 104.808 10.4808C104.808 7.91029 117.617 0.799805 119.451 0.799805Z" fill="#733DFF"/>
<path d="M121.836 7.11373C121.066 8.93237 114.696 14.643 114.203 15.307C113.322 16.4944 112.457 20.0341 111.607 25.9263L110.746 26.0465L109.769 25.8868L109.77 12.6994C109.77 10.3744 113.493 6.51888 120.941 1.13281C122.96 2.20303 122.48 5.5935 121.836 7.11373Z" fill="black" fill-opacity="0.489401"/>
<path d="M119.451 0.799805C120.556 0.799805 121.283 1.20301 121.737 1.81677C121.568 1.99421 121.384 2.17896 121.187 2.37063C119.394 4.11369 115.617 6.78621 114.539 8.05284L114.43 8.18767C112.552 10.6817 107.319 12.1931 104.824 11.0366L104.81 10.6477C104.808 10.5891 104.808 10.5335 104.808 10.4808C104.808 7.91029 117.617 0.799805 119.451 0.799805Z" fill="#380085"/>
<path d="M71.9082 77.4861C71.9082 77.4861 87.03 59.6005 90.4997 56.6862C93.9695 53.7718 95.7017 52.8958 95.7017 51.8456C95.7017 50.7955 96.8267 47.1079 96.8267 41.793C96.8267 36.4781 101.335 23.6222 104.179 23.0011C107.022 22.3799 111.263 22.8894 111.753 24.3037C112.244 25.718 113.382 57.625 110.47 61.6585C107.559 65.6921 101.782 71.6059 101.782 71.6059C101.782 71.6059 114.559 67.0199 115.912 64.3392C117.265 61.6585 116.927 59.2745 118.013 55.5611C119.098 51.8477 128.242 33.6165 130.905 32.6881C133.567 31.7597 138.569 34.2841 139.883 36.8115C141.198 39.3388 133.419 72.1124 130.905 75.2065C128.391 78.3006 122.692 83.8462 115.08 87.0015C111.214 88.6038 106.796 90.7022 100.069 93.0964C97.9648 93.8452 92.4589 95.3589 92.4589 95.3589L71.9082 77.4861Z" fill="#733DFF"/>
<path d="M96.0693 49.5414L96.1084 49.3262C98.4247 49.4261 100.656 49.6635 102.804 50.0382C105.329 50.479 108.38 51.9521 111.956 54.4575L111.885 55.2535C111.587 58.3757 111.134 60.7404 110.47 61.6591C109.429 63.1019 108.113 64.725 106.521 66.5286C104.683 63.483 102.964 60.9415 101.363 58.9029C99.8176 56.9351 97.0521 55.5083 93.0664 54.6224L94.1723 53.7542C95.1286 52.9852 95.636 52.4817 95.6957 51.9525L95.7017 51.8462C95.7017 51.5786 95.7748 51.1395 95.8837 50.5458L96.1084 49.3262L96.0693 49.5414Z" fill="#959FFA"/>
<path d="M111.753 24.3029C112.243 25.7172 113.382 57.6241 110.47 61.6577C108.546 64.3239 105.682 67.6061 101.88 71.5044L101.721 71.605L102.383 70.4574C105.503 64.999 107.451 60.8219 108.227 57.926C109.078 54.7463 108.547 35.6877 109.011 22.9141C110.412 23.1509 111.517 23.6221 111.753 24.3029Z" fill="black" fill-opacity="0.489401"/>
<path d="M116.894 61.3148L116.953 60.9941C119.841 61.6463 122.553 62.4824 125.09 63.5024C127.464 64.4567 130.137 66.5262 133.108 69.7107L132.88 70.4241C132.091 72.8569 131.397 74.6006 130.905 75.2065C129.209 77.2941 126.317 79.9716 123.145 82.3162C122.405 78.0108 121.524 74.8191 120.504 72.7403C119.384 70.4585 117.257 68.2394 114.124 66.0831C115.051 65.4466 115.647 64.8654 115.912 64.3392C116.428 63.318 116.698 62.3398 116.894 61.3148L116.953 60.9941L116.894 61.3148Z" fill="#959FFA"/>
<path d="M139.883 36.8114C141.198 39.3388 133.419 72.1123 130.905 75.2064C128.452 78.2251 122.968 83.5771 115.633 86.7663L113.5 87.6683C110.129 89.1109 106.213 90.8794 100.734 92.858L100.069 93.0964C99.6002 93.2631 99.0054 93.4582 98.2842 93.6817L100.069 79.9223C111.356 77.9231 119.205 74.9843 123.616 71.1058C128.74 66.6002 133.205 45.1894 135.765 33.3896C137.566 34.2205 139.209 35.5156 139.883 36.8114Z" fill="black" fill-opacity="0.489401"/>
<path d="M93.9019 95.3019L101.058 92.9124C101.058 92.9124 103.557 77.6639 95.4426 73.2089C87.328 68.7538 80.3786 67.7891 80.3786 67.7891L71.9229 76.9246L92.4591 95.3599L93.9019 95.3019Z" fill="#6970B1"/>
<path d="M19.4559 102.852C19.4559 102.852 15.2439 118.569 12.5826 119.926C9.92124 121.283 9.83295 121.789 9.83295 121.789L4.35132 131.345L2.28371 129.518L1.97926 127.992C1.97926 127.992 0.789754 127.544 0.3543 126.063C-0.0811543 124.581 1.41812 123.413 2.67043 121.427C3.92274 119.442 1.28809 118.771 1.97926 114.863C2.67043 110.956 8.34188 94.0813 11.1805 92.4817C14.0191 90.8821 26.8854 89.7398 33.7604 89.7398C40.6354 89.7398 73.071 71.6064 73.071 71.6064L94.2512 81.8033C94.2512 81.8033 97.125 92.2792 93.0665 96.3826C89.0079 100.486 68.762 116.551 60.63 116.551C52.498 116.551 36.2818 111.957 33.7604 109.152C31.9956 107.188 32.7061 104.032 30.1056 102.852C28.2494 102.009 19.4559 102.852 19.4559 102.852Z" fill="#733DFF"/>
<path d="M93.0665 96.3812L92.7711 96.6733C88.147 101.158 68.8823 116.312 60.8168 116.547C63.0341 113.809 63.5984 111.063 62.5114 108.308C61.3941 105.476 57.7764 103.657 51.6582 102.85C45.8308 101.294 47.2298 98.5068 55.8552 94.4877L56.8142 94.0493C65.2834 90.2498 77.838 86.4558 94.478 82.667C96.13 89.1887 95.659 93.7601 93.0665 96.3812Z" fill="black" fill-opacity="0.489401"/>
<path d="M43.7773 78.9111V87.0873C43.7773 87.8514 44.1652 88.5633 44.8072 88.9777L64.9296 101.965C65.619 102.41 66.4961 102.444 67.2182 102.055L98.776 85.0257C99.6384 84.5604 100.1 83.5903 99.9183 82.6274C99.5332 80.5914 98.4101 78.8777 96.549 77.4861L96.1625 77.2074C92.1163 74.3788 79.2504 67.7881 73.1103 67.7881C69.0049 67.7881 59.6897 70.8031 45.1647 76.833C44.3248 77.1817 43.7773 78.0017 43.7773 78.9111Z" fill="#959FFA"/>
<path d="M64.125 87.9896L93.1643 75.3477L93.8712 75.7578C95.0079 76.4274 95.9309 77.0237 96.5486 77.4856C98.4097 78.8771 99.5328 80.5909 99.9179 82.6269C100.089 83.5296 99.6932 84.4386 98.9325 84.9322L98.7755 85.0252L67.2178 102.054C67.0063 102.168 66.7816 102.246 66.5522 102.288L66.8774 101.045C67.0279 100.458 67.1865 99.8264 67.3532 99.1495C68.3967 94.912 67.4165 91.2856 64.4125 88.2705L64.125 87.9896Z" fill="black" fill-opacity="0.489401"/>
<path d="M73.1103 67.7881C79.4622 67.7881 93.0116 74.8412 96.549 77.4861C96.9197 77.7633 97.2611 78.0731 97.5732 78.4155L68.6303 91.9508C68.3558 92.0791 68.0432 92.0905 67.7629 91.9866L67.6257 91.925L43.7773 79.2463V78.9111C43.7773 78.0623 44.2542 77.2914 45.0007 76.9089L45.1647 76.833L46.5111 76.2765C60.2668 70.6176 69.1332 67.7881 73.1103 67.7881Z" fill="#F8FCFF"/>
<path d="M63.72 76.3886L75.6743 68.0723C80.7777 69.0669 88.0624 72.4742 92.7635 75.1208L68.3727 81.3842C67.9629 81.4894 67.5333 81.4767 67.1327 81.3496L66.9351 81.2766L64.103 80.0765C63.7352 79.9207 63.419 79.6639 63.1909 79.336C62.5583 78.4265 62.7376 77.1943 63.5745 76.4993L63.72 76.3886L75.6743 68.0723L63.72 76.3886Z" fill="#380085"/>
<path d="M73.1096 67.7881C76.5141 67.7881 81.9862 69.8142 86.8761 72.1018C84.896 79.4895 72.681 85.1758 57.9082 85.1758C52.7828 85.1758 47.9654 84.4913 43.7764 83.2888L43.7767 78.9111C43.7767 78.0017 44.3242 77.1817 45.1641 76.833L46.5105 76.2765C60.2662 70.6176 69.1326 67.7881 73.1096 67.7881Z" fill="#9593F3" fill-opacity="0.33143"/>
<path d="M32.2798 105.145L32.0971 105.255C31.7426 104.254 31.238 103.365 30.1058 102.851C28.8683 102.289 25.3184 102.289 19.4561 102.851L19.1624 103.936C16.488 113.723 14.2948 119.053 12.5828 119.925C10.8086 120.83 9.89204 121.451 9.83318 121.789L7.38097 126.062L1.49609 122.889C1.91861 122.44 2.3355 121.958 2.67066 121.427C3.92297 119.442 1.28832 118.77 1.97949 114.863L2.05721 114.466C3.01699 109.931 8.42945 94.0317 11.1807 92.4813C14.0194 90.8817 26.8856 89.7394 33.7606 89.7394C35.1841 89.7394 37.4295 89.1564 40.4968 87.9902L40.1799 89.1086C37.5906 98.0931 34.957 103.439 32.2798 105.145Z" fill="#380085"/>
<path d="M44.9708 112.176C49.6308 112.176 53.4084 108.398 53.4084 103.738C53.4084 99.0784 49.6308 95.3008 44.9708 95.3008C40.3108 95.3008 36.5332 99.0784 36.5332 103.738C36.5332 108.398 40.3108 112.176 44.9708 112.176Z" fill="#380085"/>
<path fill-rule="evenodd" clip-rule="evenodd" d="M44.4087 110.174C48.758 110.174 51.8985 106.649 51.8985 102.3C51.8985 97.9503 48.758 95.3008 44.4087 95.3008C40.0594 95.3008 35.8854 99.3258 36.5336 103.176C37.1818 107.026 40.0594 110.174 44.4087 110.174Z" fill="#C5876A"/>
<path d="M49.4452 109.258L48.2697 113.576C47.9512 114.747 46.7622 115.454 45.5817 115.175L41.2868 114.161C40.4233 113.957 39.7602 113.265 39.5938 112.394L38.8379 108.436C40.4408 108.877 41.9292 109.151 43.3032 109.258C44.6772 109.364 46.7245 109.364 49.4452 109.258Z" fill="#380085"/>
<path d="M38.8389 108.398L39.1977 108.425L39.3612 108.477C40.7878 108.905 42.1018 109.165 43.3031 109.258C44.4587 109.348 46.119 109.33 48.2841 109.204L46.9678 115.051C46.5402 115.234 46.0525 115.287 45.566 115.172L41.2887 114.162C40.4242 113.958 39.7606 113.264 39.5951 112.392L38.8389 108.398Z" fill="#959FFA"/>
<path d="M6.6703 119.925C7.79048 120.215 8.97887 120.677 10.2355 121.309C9.98857 121.506 9.85448 121.666 9.83314 121.789L9.72181 123.028C9.54676 124.84 9.363 126.114 9.17052 126.849C8.83308 128.138 7.47959 129.834 7.12473 130.365L7.07518 130.442C6.99725 130.573 6.16089 131.533 6.40749 130.273L6.55898 129.556C6.84081 128.089 6.99166 126.275 6.33818 127.414C5.54213 128.801 4.87991 130.111 4.35151 131.344L3.90975 132.156C2.72793 134.273 1.92372 135.225 1.49711 135.012C1.01931 134.773 1.28157 132.942 2.2839 129.517L1.97945 127.992L1.25253 127.522C0.208548 126.848 -0.0913561 125.455 0.58267 124.411L0.676865 124.277L1.24998 123.504C1.7982 122.752 2.27175 122.059 2.67062 121.427C3.09289 120.757 3.07322 120.237 2.88813 119.692C4.13616 119.518 5.39732 119.595 6.6703 119.925Z" fill="#959FFA"/>
<path d="M17.5723 132.976C17.5723 132.976 20.6341 129.558 22.1753 129.079C23.7164 128.599 29.3255 128.1 31.1463 128.1C32.9671 128.1 35.7781 133.494 34.7433 134.325C33.7086 135.156 32.3452 135.156 31.7458 136.699C31.1463 138.242 29.8908 140.324 28.5932 140.324C27.2955 140.324 21.9177 139.311 21.3524 138.487C20.7872 137.664 20.4392 132.976 20.4392 132.976H17.5723Z" fill="#959FFA"/>
<path d="M29.386 132.977C30.1048 134.907 32.6189 137.348 34.4343 137.348C36.2497 137.348 56.7501 135.724 58.7581 134.213C60.7662 132.701 69.42 118.739 71.0295 114.863C72.639 110.986 70.0049 105.822 64.4665 106.678C58.9282 107.535 51.7471 123.342 49.019 124.407C46.291 125.473 32.7369 125.179 30.5098 127.373C28.2827 129.566 28.6672 131.046 29.386 132.977Z" fill="#380085"/>
<path d="M62.6942 115.788C61.7761 119.108 63.2027 122.399 65.8808 123.14C68.5588 123.881 71.4741 121.79 72.3923 118.47C73.3104 115.15 71.8838 111.858 69.2057 111.117C66.5277 110.377 63.6124 112.468 62.6942 115.788Z" fill="#5C66C0"/>
<path d="M64.6331 116.37C63.6733 119.519 64.7166 122.627 66.9635 123.312C69.2104 123.997 71.81 122 72.7698 118.851C73.7297 115.702 72.6864 112.594 70.4395 111.909C68.1926 111.224 65.593 113.222 64.6331 116.37Z" fill="#F8FCFF"/>
<path d="M31.9917 95.4663C32.6701 99.7197 35.107 103.862 36.8657 105.609C38.6243 107.356 41.0638 108.895 44.1588 108.308C47.2538 107.721 50.3659 105.288 51.1092 99.211C51.8526 93.1343 33.01 84.3271 33.01 84.3271C33.01 84.3271 31.3132 91.2129 31.9917 95.4663Z" fill="#FFAF8A"/>
<path fill-rule="evenodd" clip-rule="evenodd" d="M41.0737 106.338C41.9089 105.84 42.7369 105.594 43.5612 105.594C43.7165 105.594 43.8424 105.468 43.8424 105.313C43.8424 105.157 43.7165 105.031 43.5612 105.031C42.6312 105.031 41.7049 105.307 40.7858 105.855C40.6524 105.934 40.6086 106.107 40.6881 106.24C40.7676 106.374 40.9402 106.417 41.0737 106.338Z" fill="#D28A62"/>
<path d="M34.9541 90.8609C34.9541 90.8609 33.7399 94.0716 33.4671 95.8174C33.1943 97.5632 33.4671 100.378 33.4671 100.378C33.4671 100.378 34.9477 103.47 36.0159 104.798C37.0842 106.126 37.9268 106.802 37.9268 106.802C37.9268 106.802 34.0824 107.169 31.7983 103.241C29.5142 99.3117 28.8252 95.7142 28.8252 92.0251C28.8252 88.336 30.3223 81.7665 32.4411 81.2232C34.5599 80.6799 38.2641 77.1034 41.8719 77.7383C45.4798 78.3732 47.2475 79.373 48.8856 81.2232C50.5236 83.0735 52.2648 87.942 54.9555 90.0951C57.6462 92.2483 58.1931 93.2695 57.5234 95.8174C56.8538 98.3654 50.1611 104.798 50.1611 104.798C50.1611 104.798 49.5735 98.2901 48.0614 97.9131C46.5493 97.5361 42.3654 94.6669 41.1986 92.9908C40.0318 91.3146 34.9541 90.8609 34.9541 90.8609Z" fill="#0D134E"/>
<path d="M31.4502 98.2286C31.4502 98.2286 32.7483 102.814 33.999 103.344C35.2498 103.874 36.6289 104.053 37.2846 103.344C37.9403 102.635 38.4904 101.02 38.4904 101.02C38.4904 101.02 40.9262 102.554 42.7404 102.554C44.5546 102.554 49.4282 97.7327 49.4282 97.7327L44.9806 94.4883C44.9806 94.4883 41.1974 97.2774 38.0232 98.2286C34.8489 99.1797 31.4502 98.2286 31.4502 98.2286Z" fill="#F8FCFF"/>
<path d="M61.5103 92.0247C61.5103 103.243 52.4159 112.337 41.1975 112.337C29.9791 112.337 20.8848 103.243 20.8848 92.0247C20.8848 80.8062 29.9791 71.7119 41.1975 71.7119C52.4159 71.7119 61.5103 80.8062 61.5103 92.0247Z" fill="#9286FF" fill-opacity="0.193018" stroke="#ECEAFE"/>
<path opacity="0.504464" fill-rule="evenodd" clip-rule="evenodd" d="M30.0913 83.846C30.8196 82.1302 30.4827 80.3457 29.3388 79.8601C28.195 79.3746 26.6773 80.3719 25.949 82.0877C25.2206 83.8035 25.5575 85.5881 26.7014 86.0736C27.8453 86.5592 29.363 85.5618 30.0913 83.846Z" fill="white"/>
</svg>
