<svg width="1055" height="1120" viewBox="0 0 1055 1120" fill="none" xmlns="http://www.w3.org/2000/svg">
<path d="M527.5 1119.59C818.83 1119.59 1055 883.417 1055 592.087C1055 300.756 818.83 64.5867 527.5 64.5867C236.17 64.5867 0 300.756 0 592.087C0 883.417 236.17 1119.59 527.5 1119.59Z" fill="url(#paint0_linear_41_10800)"/>
<path opacity="0.477214" fill-rule="evenodd" clip-rule="evenodd" d="M388.826 83.0042C164.769 143.893 0 348.748 0 592.087C0 804.844 125.957 988.182 307.369 1071.6C519.421 997.96 671.638 796.386 671.638 559.259C671.638 353.769 557.327 174.977 388.826 83.0042Z" fill="url(#paint1_linear_41_10800)"/>
<path opacity="0.313128" fill-rule="evenodd" clip-rule="evenodd" d="M977.032 315.943C884.193 165.133 717.588 64.5867 527.499 64.5867C495.805 64.5867 464.763 67.3819 434.607 72.7394C459.809 160.334 521.275 314.025 637.679 287.963C781.299 255.806 798.542 269.481 874.066 329.377C883.37 336.755 893.558 344.835 904.975 353.617C950.211 388.41 969.585 359.625 977.032 315.943Z" fill="url(#paint2_linear_41_10800)"/>
<path opacity="0.313128" fill-rule="evenodd" clip-rule="evenodd" d="M923.956 244.111C827.279 134.053 685.502 64.5867 527.501 64.5867C514.197 64.5867 501.008 65.0792 487.952 66.0469C507.962 135.959 557.12 259.828 650.516 238.911C765.335 213.197 779.119 224.132 839.498 272.028C846.936 277.928 855.08 284.389 864.208 291.412C906.047 323.601 920.213 287.739 923.956 244.111Z" fill="url(#paint3_linear_41_10800)"/>
<path opacity="0.180315" fill-rule="evenodd" clip-rule="evenodd" d="M230.642 1028.19C326.51 1071.31 426.557 1022.52 550.768 961.946C657.272 910.008 781.542 849.407 936.177 830.652C961.172 827.62 983.941 823.096 1004.64 817.299C1036.94 748.999 1055 672.652 1055 592.087C1055 538.68 1047.06 487.127 1032.3 438.542C1015.65 443.817 998.914 450.413 982.773 456.776C940.633 473.387 902.534 488.406 880.391 474.143C860.856 461.56 857.698 441.301 854.212 418.94C849.132 386.355 843.357 349.306 785.194 325.039C738.859 305.707 682.172 313.324 630.413 320.279C572.615 328.045 520.962 334.985 496.731 302.652C450.802 241.365 382.516 159.994 214.078 306.637C52.5006 447.307 26.4382 787.171 141.988 952.141C168.602 980.624 198.334 1006.16 230.642 1028.19Z" fill="url(#paint4_linear_41_10800)"/>
<path fill-rule="evenodd" clip-rule="evenodd" d="M1045.37 491.25C985.998 524.541 906.873 580.609 927.464 634.347C943.714 676.754 924.094 712.295 908.361 740.795C893.016 768.592 881.369 789.69 910.305 803.926C931.243 814.227 966.484 818.818 1003.14 820.465C1036.38 751.361 1055 673.899 1055 592.087C1055 557.601 1051.69 523.889 1045.37 491.25Z" fill="url(#paint5_linear_41_10800)"/>
<path opacity="0.63916" fill-rule="evenodd" clip-rule="evenodd" d="M968.697 881.335C874.426 1024.84 712.028 1119.59 527.5 1119.59C474.017 1119.59 422.393 1111.63 373.748 1096.83C408.815 1081.54 469.799 1054.26 493.547 1039.32C517.556 1024.22 539.6 1009.82 560.236 996.348C631.37 949.901 685.769 914.382 746.214 898.362C867.553 866.203 942.251 875.76 968.697 881.335Z" fill="url(#paint6_linear_41_10800)"/>
<path fill-rule="evenodd" clip-rule="evenodd" d="M955.223 900.874C926.419 904.778 893.922 910.962 858.125 920.447C719.548 957.164 579.832 1091.77 552.625 1119C718.298 1111.23 863.984 1027.03 955.223 900.874Z" fill="url(#paint7_linear_41_10800)"/>
<path d="M846.957 237.076C855.102 241.97 863.48 242.983 865.67 239.339C867.859 235.695 861.256 231.728 854.886 223.88C848.515 216.031 838.362 217.972 836.173 221.616C833.983 225.26 838.811 232.181 846.957 237.076Z" fill="url(#paint8_linear_41_10800)"/>
<path d="M845.557 239.404C853.703 244.299 862.081 245.312 864.27 241.668C866.46 238.024 859.999 233.819 853.486 226.208C846.973 218.597 836.963 220.301 834.773 223.945C832.584 227.589 837.412 234.51 845.557 239.404Z" fill="black" fill-opacity="0.28827"/>
<path opacity="0.129255" d="M336.384 323.431C414.227 323.431 347.741 401.016 434.871 401.016C541.237 401.016 482.817 476.277 559.163 470.596C635.508 464.916 617.486 562.449 672.47 538.823C727.453 515.197 804.111 543.224 844.649 643.811C864.919 694.109 799.616 845.997 634.075 862.01C468.534 878.022 360.17 1077.95 246.94 1011.93C-7.45474 863.612 197.237 323.431 336.384 323.431Z" fill="url(#paint9_linear_41_10800)"/>
<path opacity="0.134673" d="M787.463 499.808C782.913 510.207 785.686 522.554 806.633 527.48C827.58 532.406 887.946 521.002 855.373 517.605C802.239 512.064 822.258 481.153 813.242 481.153C804.225 481.153 792.012 489.41 787.463 499.808Z" fill="url(#paint10_linear_41_10800)"/>
<path fill-rule="evenodd" clip-rule="evenodd" d="M291.102 476.537C369.608 460.008 339.973 542.592 354.521 557.795C406.051 611.64 486.612 486.959 541.818 557.795C597.024 628.63 700.671 579.577 743.833 619.181C816.546 685.899 765.266 756.789 556.893 827.376C460.886 859.899 402.741 942.271 322.401 959.241C117.425 1002.54 199.38 495.848 291.102 476.537Z" fill="#9FB3F4" fill-opacity="0.0742188" stroke="#733DFF" stroke-opacity="0.448836" stroke-width="0.6"/>
<path fill-rule="evenodd" clip-rule="evenodd" d="M638.386 705.202C630.61 734.561 689.165 735.773 703.672 685.964C718.18 636.155 646.163 675.843 638.386 705.202Z" fill="#9FB3F4" fill-opacity="0.0742188" stroke="#733DFF" stroke-opacity="0.448836" stroke-width="0.6"/>
<path fill-rule="evenodd" clip-rule="evenodd" d="M344.337 884.157C424.649 842.934 390.88 790.297 487.358 783.394C583.836 776.491 548.474 717.772 599.017 669.63C649.56 621.488 538.338 663.691 511.192 617.161C484.046 570.63 418.523 674.303 299.294 629.54C261.632 615.401 243.335 726.753 250.074 790.969C257.083 857.753 303.393 905.173 344.337 884.157Z" fill="#9FB3F4" fill-opacity="0.0742188" stroke="#733DFF" stroke-opacity="0.448836" stroke-width="0.6"/>
<path opacity="0.0602679" d="M553.143 435.737C585.175 451.129 613.65 411.869 637.679 440.179C661.709 468.49 681.106 514.258 753.158 470.252C825.21 426.246 793.897 353.911 735.911 342.491C677.925 331.071 592.765 362.364 543.183 352.678C493.601 342.992 502.83 323.431 466.228 323.431C429.627 323.431 411.346 380.566 466.228 380.566C521.111 380.566 521.111 420.344 553.143 435.737Z" fill="url(#paint11_linear_41_10800)"/>
<path opacity="0.570103" d="M579.286 78.8212C579.286 78.8212 620.983 80.4131 623.377 90.7837C625.771 101.154 629.336 113.698 674.589 119.074C719.841 124.449 713.024 76.9705 713.024 76.9705L628.575 44.713L579.286 78.8212Z" fill="url(#paint12_linear_41_10800)"/>
<path d="M452.463 69.7574C452.463 69.7574 478.331 56.8248 493.074 53.4212C507.816 50.0176 552.265 62.3301 568.226 47.8072C584.186 33.2844 618.001 37.3055 632.202 21.3009C646.403 5.29632 676.566 35.5928 692.116 44.0225C707.666 52.4522 740.127 116.858 740.127 116.858C740.127 116.858 625.967 107.57 641.503 97.5218C649.799 92.1561 633.005 71.3908 600.727 78.8428C585.433 82.3737 555.708 81.0672 545.52 77.8669C523.659 70.9999 452.463 69.7574 452.463 69.7574Z" fill="url(#paint13_radial_41_10800)"/>
<path opacity="0.74349" d="M691.546 43.7077L692.116 44.0227C697.734 47.0681 705.007 55.5929 713.936 69.5971L712.233 98.76C697.315 101.047 686.746 101.261 680.528 99.4029C671.293 96.6432 686.39 87.5955 671.358 58.5579L670.893 57.6718C665.548 47.6124 666.872 39.147 674.866 32.2754L681.68 37.1743C685.316 39.7731 688.665 42.086 691.546 43.7077Z" fill="url(#paint14_linear_41_10800)"/>
<path opacity="0.570103" d="M521.443 64.1036C533.565 66.1294 540.966 74.8299 553.454 72.3236L554.154 72.1727C561.432 70.4924 566.87 73.3871 570.466 80.8569L568.797 80.7987C559.378 80.4303 550.734 79.406 545.933 77.9926L545.52 77.8669C534.985 74.5576 515.858 72.2281 488.138 70.8781L489.869 70.2703C504.71 65.1215 515.235 63.0662 521.443 64.1036Z" fill="url(#paint15_linear_41_10800)"/>
<path opacity="0.74349" d="M643.666 58.6096C653.81 62.6911 653.724 73.8476 643.407 92.0788C641.507 84.3401 626.082 73.2878 601.483 78.6726L600.727 78.8426C597.121 79.6751 592.713 80.2387 587.948 80.572C614.558 61.691 633.13 54.3703 643.666 58.6096Z" fill="url(#paint16_linear_41_10800)"/>
<defs>
<linearGradient id="paint0_linear_41_10800" x1="1225.72" y1="-260.588" x2="-222.741" y2="-220.933" gradientUnits="userSpaceOnUse">
<stop stop-color="#3C003B"/>
<stop offset="1" stop-color="#4A10FF"/>
</linearGradient>
<linearGradient id="paint1_linear_41_10800" x1="638.285" y1="97.5911" x2="22.7393" y2="97.5911" gradientUnits="userSpaceOnUse">
<stop stop-color="#5A168D" stop-opacity="0.01"/>
<stop offset="1" stop-color="#FFDD32"/>
</linearGradient>
<linearGradient id="paint2_linear_41_10800" x1="348.594" y1="84.4954" x2="161.028" y2="590.77" gradientUnits="userSpaceOnUse">
<stop stop-color="#3C003B"/>
<stop offset="1" stop-color="#3E00FF"/>
</linearGradient>
<linearGradient id="paint3_linear_41_10800" x1="418.814" y1="80.2257" x2="274.038" y2="480.091" gradientUnits="userSpaceOnUse">
<stop stop-color="#3C003B"/>
<stop offset="1" stop-color="#3E00FF"/>
</linearGradient>
<linearGradient id="paint4_linear_41_10800" x1="1160.98" y1="335.224" x2="395.554" y2="-265.106" gradientUnits="userSpaceOnUse">
<stop stop-color="#3B004E"/>
<stop offset="1" stop-color="#FFA7A7"/>
</linearGradient>
<linearGradient id="paint5_linear_41_10800" x1="1017.16" y1="143.202" x2="476.617" y2="143.202" gradientUnits="userSpaceOnUse">
<stop stop-color="#3C003B"/>
<stop offset="1" stop-color="#3E00FF"/>
</linearGradient>
<linearGradient id="paint6_linear_41_10800" x1="968.697" y1="755.792" x2="-109.941" y2="755.792" gradientUnits="userSpaceOnUse">
<stop stop-color="#3C003B"/>
<stop offset="1" stop-color="#3E00FF"/>
</linearGradient>
<linearGradient id="paint7_linear_41_10800" x1="1229.19" y1="959.05" x2="1054.54" y2="349.909" gradientUnits="userSpaceOnUse">
<stop stop-color="#3C003B"/>
<stop offset="1" stop-color="#3E00FF"/>
</linearGradient>
<linearGradient id="paint8_linear_41_10800" x1="850.58" y1="213.179" x2="860.482" y2="247.995" gradientUnits="userSpaceOnUse">
<stop stop-color="#3C003B"/>
<stop offset="1" stop-color="#3E00FF"/>
</linearGradient>
<linearGradient id="paint9_linear_41_10800" x1="711.234" y1="471.06" x2="100.979" y2="289.807" gradientUnits="userSpaceOnUse">
<stop stop-color="#AB3438"/>
<stop offset="1" stop-color="#FFA7A7"/>
</linearGradient>
<linearGradient id="paint10_linear_41_10800" x1="819.709" y1="387.339" x2="568.813" y2="609.639" gradientUnits="userSpaceOnUse">
<stop stop-color="#AB3438"/>
<stop offset="1" stop-color="#FFA7A7"/>
</linearGradient>
<linearGradient id="paint11_linear_41_10800" x1="882.059" y1="415.074" x2="790.233" y2="176.811" gradientUnits="userSpaceOnUse">
<stop stop-color="#AB3438"/>
<stop offset="1" stop-color="#FFA7A7"/>
</linearGradient>
<linearGradient id="paint12_linear_41_10800" x1="587.858" y1="80.0838" x2="543.674" y2="215.163" gradientUnits="userSpaceOnUse">
<stop stop-color="#2B002B"/>
<stop offset="1" stop-color="#120343"/>
</linearGradient>
<radialGradient id="paint13_radial_41_10800" cx="0" cy="0" r="1" gradientUnits="userSpaceOnUse" gradientTransform="translate(672.993 91.0468) rotate(-170.629) scale(445.852 314.783)">
<stop stop-color="#3C003B"/>
<stop offset="0.723428" stop-color="#3D00C0"/>
<stop offset="1" stop-color="#AC4DBB"/>
</radialGradient>
<linearGradient id="paint14_linear_41_10800" x1="637.539" y1="97.2265" x2="741.065" y2="276.484" gradientUnits="userSpaceOnUse">
<stop stop-color="#280028"/>
<stop offset="1" stop-color="#3E00FF"/>
</linearGradient>
<linearGradient id="paint15_linear_41_10800" x1="494.487" y1="76.9871" x2="488.888" y2="130.14" gradientUnits="userSpaceOnUse">
<stop stop-color="#2B002B"/>
<stop offset="1" stop-color="#120343"/>
</linearGradient>
<linearGradient id="paint16_linear_41_10800" x1="532.521" y1="108.467" x2="566.135" y2="208.683" gradientUnits="userSpaceOnUse">
<stop stop-color="#280028"/>
<stop offset="1" stop-color="#3E00FF"/>
</linearGradient>
</defs>
</svg>
