<svg width="1013" height="1013" viewBox="0 0 1013 1013" fill="none" xmlns="http://www.w3.org/2000/svg">
<path d="M506.5 1013C786.232 1013 1013 786.232 1013 506.5C1013 226.768 786.232 0 506.5 0C226.768 0 0 226.768 0 506.5C0 786.232 226.768 1013 506.5 1013Z" fill="url(#paint0_linear_41_11458)"/>
<path opacity="0.244001" fill-rule="evenodd" clip-rule="evenodd" d="M930.132 784.234C839.614 922.023 683.681 1013 506.5 1013C455.146 1013 405.577 1005.36 358.869 991.148C392.54 976.471 451.095 950.274 473.897 935.929C496.95 921.426 518.117 907.606 537.931 894.668C606.234 850.071 658.466 815.966 716.505 800.583C833.014 769.704 904.739 778.881 930.132 784.234Z" fill="url(#paint1_linear_41_11458)"/>
<path opacity="0.506975" fill-rule="evenodd" clip-rule="evenodd" d="M917.196 802.993C889.538 806.742 858.334 812.679 823.961 821.787C690.901 857.042 556.746 986.289 530.623 1012.43C689.702 1004.98 829.589 924.132 917.196 802.993Z" fill="url(#paint2_linear_41_11458)"/>
<path opacity="0.193522" fill-rule="evenodd" clip-rule="evenodd" d="M938.136 241.35C848.993 96.5436 689.021 0 506.5 0C476.067 0 446.261 2.68399 417.306 7.82816C441.504 91.936 500.523 239.509 612.292 214.484C750.196 183.607 766.752 196.737 839.269 254.249C848.203 261.334 857.985 269.092 868.948 277.524C912.383 310.932 930.986 283.292 938.136 241.35Z" fill="url(#paint3_linear_41_11458)"/>
<path opacity="0.150902" fill-rule="evenodd" clip-rule="evenodd" d="M887.172 172.378C794.344 66.7012 658.212 0 506.5 0C493.726 0 481.063 0.472873 468.526 1.40207C487.74 68.5313 534.94 187.468 624.619 167.384C734.866 142.694 748.102 153.193 806.077 199.183C813.218 204.848 821.039 211.052 829.803 217.795C869.977 248.702 883.579 214.268 887.172 172.378Z" fill="url(#paint4_linear_41_11458)"/>
<path opacity="0.477214" fill-rule="evenodd" clip-rule="evenodd" d="M373.345 17.6846C158.209 76.1497 0 272.849 0 506.5C0 710.787 120.942 886.826 295.132 966.924C498.742 896.215 644.899 702.666 644.899 474.98C644.899 277.67 535.139 105.996 373.345 17.6846Z" fill="url(#paint5_linear_41_11458)"/>
<path opacity="0.180315" fill-rule="evenodd" clip-rule="evenodd" d="M221.461 925.241C313.512 966.642 409.576 919.795 528.842 861.635C631.106 811.765 750.429 753.576 898.908 735.567C922.908 732.656 944.77 728.312 964.648 722.746C995.657 657.165 1013 583.857 1013 506.499C1013 455.219 1005.38 405.718 991.208 359.068C975.214 364.132 959.147 370.466 943.649 376.575C903.186 392.526 866.604 406.946 845.343 393.251C826.585 381.169 823.553 361.717 820.206 340.246C815.328 308.958 809.783 273.384 753.936 250.083C709.445 231.521 655.015 238.834 605.317 245.512C549.819 252.969 500.222 259.633 476.957 228.588C432.856 169.74 367.289 91.6089 205.556 232.414C50.411 367.484 25.3861 693.817 136.336 852.22C161.89 879.569 190.439 904.084 221.461 925.241Z" fill="url(#paint6_linear_41_11458)"/>
<path fill-rule="evenodd" clip-rule="evenodd" d="M1003.5 408.371C946.517 440.355 870.797 494.107 890.54 545.629C906.142 586.347 887.303 620.474 872.197 647.839C857.463 674.529 846.28 694.787 874.063 708.456C894.297 718.411 928.442 722.812 963.877 724.367C995.368 658.374 1013 584.495 1013 506.5C1013 472.927 1009.73 440.117 1003.5 408.371Z" fill="url(#paint7_linear_41_11458)"/>
<path d="M918.147 315.905C940.067 320.166 955.795 334.129 953.275 347.093C952.667 350.221 951.052 353.005 948.643 355.369C952.039 359.029 953.693 363.169 952.914 367.175C951.105 376.485 936.836 381.544 921.044 378.474C906.756 375.697 896.117 367.218 895.56 358.733C881.056 352.483 871.93 341.769 873.894 331.663C876.414 318.699 896.227 311.644 918.147 315.905Z" fill="url(#paint8_linear_41_11458)"/>
<path opacity="0.547224" d="M915.61 319.841C937.53 324.102 953.257 338.065 950.738 351.029C950.13 354.157 948.515 356.941 946.106 359.305C949.501 362.965 951.156 367.105 950.377 371.111C948.568 380.421 934.299 385.48 918.507 382.41C904.219 379.633 893.58 371.154 893.023 362.669C878.519 356.419 869.393 345.705 871.357 335.599C873.877 322.635 893.69 315.58 915.61 319.841Z" fill="black" fill-opacity="0.28827"/>
<path d="M932.03 316.832C955.306 321.356 972.016 336.134 969.352 349.838C968.709 353.145 966.997 356.087 964.442 358.585C968.05 362.458 969.81 366.836 968.987 371.071C967.333 379.579 955.792 384.72 941.861 383.851C953.539 383.389 962.669 378.507 964.126 371.012C964.949 366.777 963.19 362.399 959.581 358.526C962.136 356.028 963.848 353.086 964.491 349.779C967.155 336.075 950.446 321.297 927.169 316.773C923.699 316.098 920.278 315.69 916.961 315.528C921.754 315.408 926.836 315.822 932.03 316.832Z" fill="black" fill-opacity="0.28827"/>
<path d="M587.741 126.534C604.63 132.944 619.067 120.711 619.067 117.71C619.067 114.709 606.609 112.275 591.242 112.275C575.875 112.275 563.417 114.709 563.417 117.71C563.417 120.711 570.852 120.125 587.741 126.534Z" fill="black" fill-opacity="0.28827"/>
<path d="M560.601 114.59C564.406 123.533 578.829 112.639 581.949 116.694C585.069 120.75 583.488 124.203 590.528 125.049C597.569 125.895 598.262 118.179 605.187 117.754C612.112 117.33 616.215 118.91 618.627 111.653C621.04 104.396 609.884 101.387 609.314 98.4537C608.744 95.5207 608.962 87.9138 604.063 86.7746C599.164 85.6353 597.18 85.7805 585.999 92.3774C574.818 98.9744 556.796 105.647 560.601 114.59Z" fill="url(#paint9_linear_41_11458)"/>
<path opacity="0.180315" d="M585.53 92.6523L587.608 91.4362C597.385 85.7698 599.409 85.6929 604.063 86.7752C605.143 87.0264 605.974 87.592 606.62 88.3526C603.929 88.0379 601.004 88.5197 597.847 89.7972L597.348 90.0081C592.88 91.9702 580.48 99.0632 560.15 111.287C561.247 104.07 575.766 98.3219 585.53 92.6523Z" fill="url(#paint10_linear_41_11458)"/>
<path d="M608.476 92.6339L608.502 92.7507C608.962 94.9226 609.06 97.1494 609.313 98.453C609.4 98.8988 609.731 99.3464 610.222 99.8104C607.611 100.186 605.958 101 605.265 102.254C603.001 106.348 607.109 108.584 606.177 113.239C605.945 114.402 605.39 115.929 604.513 117.821C598.207 118.687 597.331 125.866 590.527 125.049C585.304 124.421 584.826 122.358 583.653 119.679C586.317 118.81 588.211 117.755 589.339 116.512C592.587 112.933 589.175 100.045 595.956 95.8108C599.107 93.843 603.281 92.784 608.476 92.6339Z" fill="black" fill-opacity="0.28827"/>
<path opacity="0.150902" d="M827.467 179.179C835.288 183.878 843.333 184.851 845.435 181.352C847.537 177.853 841.197 174.044 835.08 166.508C828.964 158.972 819.215 160.835 817.112 164.334C815.01 167.833 819.646 174.479 827.467 179.179Z" fill="url(#paint11_linear_41_11458)"/>
<path d="M826.123 181.415C833.944 186.114 841.989 187.087 844.091 183.588C846.193 180.089 839.99 176.052 833.736 168.744C827.483 161.436 817.871 163.072 815.769 166.57C813.666 170.069 818.302 176.715 826.123 181.415Z" fill="url(#paint12_linear_41_11458)"/>
<path opacity="0.129255" d="M322.992 248.541C397.737 248.541 333.898 323.036 417.559 323.036C519.69 323.036 463.597 395.301 536.903 389.847C610.209 384.392 592.904 478.043 645.699 455.357C698.493 432.672 772.099 459.583 811.023 556.166C830.487 604.461 767.783 750.303 608.832 765.678C449.882 781.053 345.832 973.019 237.109 909.63C-7.15736 767.216 189.385 248.541 322.992 248.541Z" fill="url(#paint13_linear_41_11458)"/>
<path opacity="0.134673" d="M756.115 417.896C751.746 427.881 754.409 439.736 774.522 444.466C794.635 449.196 852.597 438.246 821.321 434.984C770.302 429.664 789.525 399.984 780.867 399.984C772.21 399.984 760.483 407.912 756.115 417.896Z" fill="url(#paint14_linear_41_11458)"/>
<path fill-rule="evenodd" clip-rule="evenodd" d="M279.514 395.551C354.895 379.681 326.439 458.977 340.409 473.574C389.887 525.276 467.241 405.558 520.249 473.574C573.257 541.59 672.778 494.49 714.222 532.516C784.04 596.578 734.801 664.647 534.723 732.423C442.539 763.651 386.709 842.744 309.567 859.039C112.751 900.614 191.443 414.094 279.514 395.551Z" fill="#9FB3F4" fill-opacity="0.0742188" stroke="#733DFF" stroke-opacity="0.448836" stroke-width="0.6"/>
<path fill-rule="evenodd" clip-rule="evenodd" d="M612.973 615.112C605.506 643.303 661.729 644.466 675.659 596.64C689.59 548.814 620.439 586.922 612.973 615.112Z" fill="#9FB3F4" fill-opacity="0.0742188" stroke="#733DFF" stroke-opacity="0.448836" stroke-width="0.6"/>
<path fill-rule="evenodd" clip-rule="evenodd" d="M330.63 816.652C407.745 777.07 375.321 726.528 467.957 719.9C560.594 713.272 526.641 656.891 575.171 610.665C623.702 564.44 516.908 604.963 490.843 560.285C464.777 515.607 401.863 615.152 287.381 572.171C251.218 558.595 233.649 665.514 240.12 727.174C246.849 791.299 291.316 836.831 330.63 816.652Z" fill="#9FB3F4" fill-opacity="0.0742188" stroke="#733DFF" stroke-opacity="0.448836" stroke-width="0.6"/>
<path opacity="0.0602679" d="M531.122 356.375C561.879 371.155 589.22 333.457 612.293 360.64C635.366 387.824 653.991 431.77 723.174 389.516C792.358 347.262 762.292 277.807 706.614 266.841C650.936 255.876 569.167 285.924 521.558 276.623C473.95 267.322 482.812 248.541 447.668 248.541C412.524 248.541 394.97 303.401 447.668 303.401C500.366 303.401 500.366 341.595 531.122 356.375Z" fill="url(#paint15_linear_41_11458)"/>
<path d="M656.58 367.778C669.667 367.778 680.275 363.398 680.275 357.996C680.275 352.593 669.667 348.213 656.58 348.213C643.494 348.213 632.886 352.593 632.886 357.996C632.886 363.398 643.494 367.778 656.58 367.778Z" fill="black" fill-opacity="0.28827"/>
<path d="M662.019 355.111C660.256 355.801 648.703 367.084 642.902 365.143C637.101 363.203 625.818 355.233 628.062 351.346C630.306 347.46 638.147 344.422 636.374 340.305C634.601 336.188 640.949 335.14 640.949 335.14C640.949 335.14 639.145 332.15 642.079 330.425C645.012 328.7 668.129 322.158 669.993 325.075C671.856 327.993 667.897 332.093 667.897 332.093C667.897 332.093 675.68 337.141 675.162 339.861C674.645 342.581 672.961 343.836 672.47 347.146C671.979 350.457 671.063 355.773 668.404 355.972C665.746 356.171 663.782 354.422 662.019 355.111Z" fill="url(#paint16_linear_41_11458)"/>
<path opacity="0.180315" d="M643.264 336.886C644.607 338.198 643.5 340.892 639.945 344.967C640.33 342.428 640.437 340.504 640.264 339.193C640.144 338.274 639.806 337.05 639.251 335.521C639.757 335.37 640.324 335.244 640.95 335.141C640.89 335.041 640.834 334.942 640.781 334.844C641.694 335.478 642.52 336.159 643.264 336.886Z" fill="url(#paint17_linear_41_11458)"/>
<path opacity="0.180315" d="M667.899 332.093C669.349 333.033 670.583 333.913 671.601 334.733L664.711 345.332C663.679 341.072 663.337 338.099 663.686 336.411C663.946 335.156 665.422 333.64 668.116 331.862L667.899 332.093Z" fill="url(#paint18_linear_41_11458)"/>
<path d="M642.902 365.144C639.767 364.095 635.031 361.286 631.695 358.311C635.71 358.027 643.386 359.345 645.355 359.666C648.139 360.12 649.749 354.202 651.765 352.526C652.912 351.573 656.262 352.468 661.817 355.21C659.523 356.509 648.517 367.022 642.902 365.144Z" fill="black" fill-opacity="0.28827"/>
<defs>
<linearGradient id="paint0_linear_41_11458" x1="1148.72" y1="-6.62787" x2="19.1967" y2="-6.62787" gradientUnits="userSpaceOnUse">
<stop stop-color="#3C004A"/>
<stop offset="1" stop-color="#FF3F87"/>
</linearGradient>
<linearGradient id="paint1_linear_41_11458" x1="930.132" y1="663.689" x2="-105.563" y2="663.689" gradientUnits="userSpaceOnUse">
<stop stop-color="#3C003B"/>
<stop offset="1" stop-color="#3E00FF"/>
</linearGradient>
<linearGradient id="paint2_linear_41_11458" x1="912.562" y1="990.029" x2="886.924" y2="823.91" gradientUnits="userSpaceOnUse">
<stop stop-color="#FF3F5D"/>
<stop offset="1" stop-color="#FF3F87" stop-opacity="0.179223"/>
</linearGradient>
<linearGradient id="paint3_linear_41_11458" x1="509.205" y1="303.56" x2="626.56" y2="73.6447" gradientUnits="userSpaceOnUse">
<stop stop-color="#FFD73F"/>
<stop offset="1" stop-color="#FF3F87" stop-opacity="0.179223"/>
</linearGradient>
<linearGradient id="paint4_linear_41_11458" x1="402.14" y1="15.0164" x2="263.129" y2="398.963" gradientUnits="userSpaceOnUse">
<stop stop-color="#3C003B"/>
<stop offset="1" stop-color="#3E00FF"/>
</linearGradient>
<linearGradient id="paint5_linear_41_11458" x1="612.874" y1="31.6908" x2="21.834" y2="31.6908" gradientUnits="userSpaceOnUse">
<stop stop-color="#5A168D" stop-opacity="0.01"/>
<stop offset="1" stop-color="#FFDD32"/>
</linearGradient>
<linearGradient id="paint6_linear_41_11458" x1="1114.76" y1="259.863" x2="379.807" y2="-316.568" gradientUnits="userSpaceOnUse">
<stop stop-color="#3B004E"/>
<stop offset="1" stop-color="#FFA7A7"/>
</linearGradient>
<linearGradient id="paint7_linear_41_11458" x1="1000.81" y1="469.197" x2="841.279" y2="457.985" gradientUnits="userSpaceOnUse">
<stop stop-color="#3C003B"/>
<stop offset="1" stop-color="#6A1159"/>
</linearGradient>
<linearGradient id="paint8_linear_41_11458" x1="1041.67" y1="304.49" x2="860.901" y2="135.774" gradientUnits="userSpaceOnUse">
<stop stop-color="#3C004A"/>
<stop offset="1" stop-color="#FF3F87"/>
</linearGradient>
<linearGradient id="paint9_linear_41_11458" x1="634.139" y1="88.2599" x2="575.619" y2="63.0823" gradientUnits="userSpaceOnUse">
<stop stop-color="#3C004A"/>
<stop offset="1" stop-color="#FF3F87"/>
</linearGradient>
<linearGradient id="paint10_linear_41_11458" x1="619.538" y1="91.9919" x2="607.099" y2="67.7705" gradientUnits="userSpaceOnUse">
<stop stop-color="#9134AB"/>
<stop offset="1" stop-color="white"/>
</linearGradient>
<linearGradient id="paint11_linear_41_11458" x1="816.362" y1="155.411" x2="795.21" y2="174.198" gradientUnits="userSpaceOnUse">
<stop stop-color="#3C003B"/>
<stop offset="1" stop-color="#3E00FF"/>
</linearGradient>
<linearGradient id="paint12_linear_41_11458" x1="844.552" y1="177.81" x2="822.715" y2="153.728" gradientUnits="userSpaceOnUse">
<stop stop-color="#3C003B"/>
<stop offset="1" stop-color="#6A1159"/>
</linearGradient>
<linearGradient id="paint13_linear_41_11458" x1="682.92" y1="390.292" x2="96.9593" y2="216.255" gradientUnits="userSpaceOnUse">
<stop stop-color="#AB3438"/>
<stop offset="1" stop-color="#FFA7A7"/>
</linearGradient>
<linearGradient id="paint14_linear_41_11458" x1="787.077" y1="309.904" x2="546.169" y2="523.355" gradientUnits="userSpaceOnUse">
<stop stop-color="#AB3438"/>
<stop offset="1" stop-color="#FFA7A7"/>
</linearGradient>
<linearGradient id="paint15_linear_41_11458" x1="846.944" y1="336.535" x2="758.774" y2="107.757" gradientUnits="userSpaceOnUse">
<stop stop-color="#AB3438"/>
<stop offset="1" stop-color="#FFA7A7"/>
</linearGradient>
<linearGradient id="paint16_linear_41_11458" x1="688.099" y1="348.598" x2="656.478" y2="312.734" gradientUnits="userSpaceOnUse">
<stop stop-color="#3C004A"/>
<stop offset="1" stop-color="#FF3F87"/>
</linearGradient>
<linearGradient id="paint17_linear_41_11458" x1="643.704" y1="342.419" x2="640.13" y2="333.959" gradientUnits="userSpaceOnUse">
<stop stop-color="#9134AB"/>
<stop offset="1" stop-color="white"/>
</linearGradient>
<linearGradient id="paint18_linear_41_11458" x1="669.538" y1="341.252" x2="664.014" y2="332.252" gradientUnits="userSpaceOnUse">
<stop stop-color="#9134AB"/>
<stop offset="1" stop-color="white"/>
</linearGradient>
</defs>
</svg>
