<svg width="1298" height="1296" viewBox="0 0 1298 1296" fill="none" xmlns="http://www.w3.org/2000/svg">
<path d="M649 1296C1006.88 1296 1297 1005.88 1297 648C1297 290.119 1006.88 0 649 0C291.119 0 1 290.119 1 648C1 1005.88 291.119 1296 649 1296Z" fill="url(#paint0_radial_41_10281)"/>
<path opacity="0.477214" fill-rule="evenodd" clip-rule="evenodd" d="M526.807 11.504C227.346 68.6493 1 331.892 1 648C1 885.446 128.711 1093.06 319.191 1205.91C605.482 1131.29 816.794 870.983 816.794 561.322C816.794 333.002 701.916 131.514 526.807 11.504Z" fill="url(#paint1_linear_41_10281)"/>
<path fill-rule="evenodd" clip-rule="evenodd" d="M124.476 1028.58C127.034 1015.9 129.363 1001.14 131.862 985.321C140.876 928.225 152.087 857.222 184.125 819.811C248.809 744.278 280.817 685.163 276.1 648.468C268.844 592.011 229.283 575.284 156.497 558.429C115.445 548.923 63.8624 504.065 26.6872 466.757C9.96504 524.272 1 585.089 1 648C1 790.209 46.8092 921.718 124.476 1028.58Z" fill="#FDFEFF" fill-opacity="0.191597"/>
<path d="M131.862 985.321L131.566 985.274L131.862 985.321ZM124.476 1028.58L124.233 1028.75L124.635 1029.31L124.77 1028.64L124.476 1028.58ZM184.125 819.811L184.352 820.006L184.125 819.811ZM276.1 648.468L275.803 648.506L276.1 648.468ZM156.497 558.429L156.429 558.721L156.497 558.429ZM26.6872 466.757L26.8998 466.545L26.5411 466.185L26.3992 466.673L26.6872 466.757ZM131.566 985.274C129.067 1001.1 126.738 1015.85 124.182 1028.52L124.77 1028.64C127.329 1015.95 129.66 1001.19 132.158 985.368L131.566 985.274ZM183.897 819.616C167.833 838.373 157.007 865.529 149.07 895.107C141.131 924.689 136.072 956.729 131.566 985.274L132.158 985.368C136.666 956.817 141.72 924.808 149.649 895.262C157.58 865.711 168.378 838.66 184.352 820.006L183.897 819.616ZM275.803 648.506C278.149 666.759 271.363 690.642 255.874 719.433C240.39 748.214 216.231 781.858 183.897 819.616L184.352 820.006C216.702 782.231 240.89 748.551 256.402 719.717C271.909 690.894 278.768 666.872 276.398 648.429L275.803 648.506ZM156.429 558.721C192.824 567.149 220.86 575.535 240.705 588.847C260.524 602.141 272.185 620.358 275.803 648.506L276.398 648.429C272.759 620.121 261.011 601.746 241.039 588.349C221.092 574.969 192.955 566.564 156.564 558.137L156.429 558.721ZM26.4747 466.969C45.0677 485.628 67.2682 506.18 89.9577 523.258C112.641 540.332 135.84 553.954 156.429 558.721L156.564 558.137C136.101 553.398 112.983 539.838 90.3186 522.779C67.6602 505.725 45.482 485.194 26.8998 466.545L26.4747 466.969ZM26.3992 466.673C9.66913 524.216 0.7 585.061 0.7 648H1.3C1.3 585.118 10.2609 524.329 26.9753 466.841L26.3992 466.673ZM0.7 648C0.7 790.274 46.5305 921.845 124.233 1028.75L124.719 1028.4C47.0878 921.591 1.3 790.143 1.3 648H0.7Z" fill="#9BBBFF"/>
<path fill-rule="evenodd" clip-rule="evenodd" d="M162.596 1076.17C173.757 985.06 195.018 879.569 235.003 841.722C394.229 691.012 335.665 560.336 211.512 516.553C126.991 486.746 78.3277 443.055 51.2266 397.424C126.753 217.463 281.173 78.795 471.214 24.6928C490.38 135.61 539.13 325.287 649.001 332.043C719.18 336.358 768.141 331.332 810.633 326.971C862.359 321.662 904.499 317.337 963.654 332.043C1014.87 344.774 1048.97 391.966 1082.22 437.984C1118.92 488.782 1154.6 538.15 1211.11 538.15C1244.84 538.15 1266.78 523.863 1281 504.235C1291.47 550.475 1297 598.592 1297 648C1297 752.068 1272.47 850.407 1228.87 937.548C1221.95 935.998 1214.74 934.269 1207.21 932.463C1168.76 923.237 1121.82 911.974 1060.06 911.974C939.97 911.974 816.973 994.773 695.098 1076.82C628.948 1121.35 563.129 1165.66 498.284 1196.38C456.082 1216.38 414.984 1228.85 376.698 1236.18C294.557 1198.09 221.737 1143.3 162.596 1076.17Z" fill="url(#paint2_linear_41_10281)"/>
<path d="M162.596 1076.17L162.299 1076.13L162.282 1076.26L162.371 1076.36L162.596 1076.17ZM235.003 841.722L234.797 841.504L235.003 841.722ZM211.512 516.553L211.412 516.836L211.512 516.553ZM51.2266 397.424L50.9499 397.308L50.8915 397.447L50.9686 397.577L51.2266 397.424ZM471.214 24.6928L471.51 24.6417L471.453 24.3129L471.132 24.4043L471.214 24.6928ZM649.001 332.043L649.019 331.743L649.001 332.043ZM810.633 326.971L810.603 326.673L810.633 326.971ZM963.654 332.043L963.581 332.334L963.654 332.043ZM1082.22 437.984L1082.46 437.808L1082.22 437.984ZM1281 504.235L1281.29 504.169L1281.14 503.522L1280.75 504.059L1281 504.235ZM1228.87 937.548L1228.81 937.841L1229.03 937.892L1229.14 937.682L1228.87 937.548ZM1207.21 932.463L1207.28 932.171L1207.21 932.463ZM695.098 1076.82L694.93 1076.57L695.098 1076.82ZM498.284 1196.38L498.412 1196.65L498.284 1196.38ZM376.698 1236.18L376.572 1236.45L376.66 1236.49L376.755 1236.48L376.698 1236.18ZM162.894 1076.2C168.474 1030.66 176.577 981.523 188.28 939.051C199.987 896.564 215.282 860.802 235.21 841.94L234.797 841.504C214.739 860.489 199.411 896.396 187.701 938.892C175.987 981.404 167.88 1030.57 162.299 1076.13L162.894 1076.2ZM235.21 841.94C314.862 766.548 340.102 696.106 329.82 638.987C319.538 581.869 273.756 538.186 211.612 516.27L211.412 516.836C273.421 538.704 318.997 582.25 329.229 639.093C339.461 695.935 314.371 766.186 234.797 841.504L235.21 841.94ZM211.612 516.27C127.146 486.483 78.5445 442.833 51.4845 397.271L50.9686 397.577C78.1109 443.278 126.835 487.01 211.412 516.836L211.612 516.27ZM471.132 24.4043C281.003 78.5316 126.511 217.264 50.9499 397.308L51.5032 397.54C126.994 217.663 281.344 79.0583 471.296 24.9813L471.132 24.4043ZM470.918 24.7439C480.503 80.2109 497.487 155.389 525.82 217.553C554.141 279.691 593.863 328.953 648.983 332.342L649.019 331.743C594.267 328.377 554.678 279.422 526.366 217.304C498.065 155.211 481.091 80.092 471.51 24.6417L470.918 24.7439ZM648.983 332.342C719.187 336.659 768.168 331.631 810.664 327.27L810.603 326.673C768.114 331.034 719.173 336.057 649.019 331.743L648.983 332.342ZM810.664 327.27C862.388 321.961 904.481 317.642 963.581 332.334L963.726 331.752C904.516 317.033 862.331 321.364 810.603 326.673L810.664 327.27ZM963.581 332.334C989.117 338.682 1010.4 353.624 1029.46 372.743C1048.52 391.864 1065.35 415.146 1081.98 438.159L1082.46 437.808C1065.84 414.803 1048.99 391.481 1029.88 372.319C1010.78 353.155 989.405 338.135 963.726 331.752L963.581 332.334ZM1081.98 438.159C1100.32 463.552 1118.44 488.621 1139.04 507.338C1159.64 526.061 1182.76 538.45 1211.11 538.45V537.85C1182.95 537.85 1159.97 525.554 1139.44 506.894C1118.9 488.228 1100.82 463.214 1082.46 437.808L1081.98 438.159ZM1211.11 538.45C1244.94 538.45 1266.96 524.112 1281.24 504.411L1280.75 504.059C1266.59 523.613 1244.74 537.85 1211.11 537.85V538.45ZM1297.3 648C1297.3 598.569 1291.77 550.43 1281.29 504.169L1280.7 504.301C1291.17 550.52 1296.7 598.614 1296.7 648H1297.3ZM1229.14 937.682C1272.76 850.5 1297.3 752.116 1297.3 648H1296.7C1296.7 752.021 1272.18 850.313 1228.6 937.414L1229.14 937.682ZM1228.94 937.255C1222.01 935.705 1214.81 933.978 1207.28 932.171L1207.14 932.755C1214.67 934.561 1221.88 936.29 1228.81 937.841L1228.94 937.255ZM1207.28 932.171C1168.83 922.945 1121.86 911.674 1060.06 911.674V912.274C1121.78 912.274 1168.69 923.529 1207.14 932.755L1207.28 932.171ZM1060.06 911.674C999.948 911.674 939.127 932.396 878.113 963.362C817.098 994.327 755.865 1035.55 694.93 1076.57L695.265 1077.07C756.206 1036.04 817.409 994.842 878.384 963.897C939.36 932.951 1000.08 912.274 1060.06 912.274V911.674ZM694.93 1076.57C628.776 1121.1 562.976 1165.4 498.155 1196.11L498.412 1196.65C563.282 1165.92 629.12 1121.59 695.265 1077.07L694.93 1076.57ZM498.155 1196.11C455.978 1216.1 414.905 1228.56 376.642 1235.89L376.755 1236.48C415.064 1229.14 456.186 1216.66 498.412 1196.65L498.155 1196.11ZM162.371 1076.36C221.539 1143.53 294.393 1198.34 376.572 1236.45L376.824 1235.91C294.722 1197.84 221.935 1143.07 162.822 1075.97L162.371 1076.36Z" fill="#9BBBFF"/>
<path fill-rule="evenodd" clip-rule="evenodd" d="M145.324 240.273C142.031 302.152 162.833 426.286 369.206 473.766C553.258 516.11 482.235 701.984 420.584 863.33C388.514 947.26 358.979 1024.55 369.206 1071.55C399.092 1208.9 543.318 1128.52 649 1031.69C754.683 934.865 869.805 850.117 996.845 850.117C1123.88 850.117 1203.76 848.882 1250.38 785.991C1297 723.101 1261.23 634.031 1161.62 596.508C1110.19 577.136 1069.11 533.076 1031.24 492.453C995.747 454.386 963.069 419.336 927.327 410.449C893.833 402.121 838.652 400.427 775.807 398.498C700.023 396.171 613.093 393.503 539.61 378.446C429.663 355.917 366.053 149.274 346.535 74.7745C268.732 115.913 200.312 172.428 145.324 240.273Z" fill="url(#paint3_linear_41_10281)"/>
<path d="M369.206 473.766L369.139 474.058L369.206 473.766ZM145.324 240.273L145.091 240.084L145.029 240.159L145.024 240.257L145.324 240.273ZM420.584 863.33L420.864 863.437L420.584 863.33ZM369.206 1071.55L369.499 1071.49L369.206 1071.55ZM1250.38 785.991L1250.62 786.17L1250.38 785.991ZM1161.62 596.507L1161.51 596.788L1161.62 596.507ZM1031.24 492.453L1031.02 492.658L1031.24 492.453ZM927.327 410.449L927.254 410.74L927.327 410.449ZM775.807 398.498L775.816 398.198L775.807 398.498ZM539.61 378.445L539.67 378.152L539.61 378.445ZM346.535 74.7744L346.825 74.6984L346.73 74.3323L346.395 74.5092L346.535 74.7744ZM369.273 473.473C266.142 449.746 209.421 406.877 178.887 362.249C148.351 317.618 143.979 271.186 145.623 240.288L145.024 240.257C143.375 271.238 147.758 317.813 178.392 362.588C209.03 407.368 265.897 450.306 369.139 474.058L369.273 473.473ZM420.864 863.437C451.683 782.78 484.875 695.923 487.333 623.932C488.562 587.928 482.107 555.61 463.795 529.637C445.482 503.66 415.338 484.071 369.273 473.473L369.139 474.058C415.1 484.632 445.098 504.157 463.305 529.983C481.515 555.812 487.96 587.986 486.734 623.912C484.28 695.781 451.135 782.533 420.304 863.223L420.864 863.437ZM369.499 1071.49C364.403 1048.07 369.21 1017.06 379.322 981.372C389.432 945.698 404.828 905.406 420.864 863.437L420.304 863.223C404.27 905.184 388.863 945.504 378.745 981.209C368.629 1016.9 363.783 1048.04 368.913 1071.62L369.499 1071.49ZM648.797 1031.47C595.965 1079.87 533.53 1124.14 480.597 1139.15C454.134 1146.65 430.09 1146.84 410.811 1136.62C391.539 1126.41 376.959 1105.77 369.499 1071.49L368.913 1071.62C376.396 1106.01 391.051 1126.83 410.53 1137.15C430.001 1147.47 454.222 1147.25 480.761 1139.73C533.833 1124.68 596.353 1080.33 649.203 1031.91L648.797 1031.47ZM996.845 849.817C869.678 849.817 754.478 934.645 648.797 1031.47L649.203 1031.91C754.887 935.085 869.932 850.417 996.845 850.417V849.817ZM1250.14 785.813C1226.88 817.181 1195.34 833.183 1153.71 841.344C1112.07 849.507 1060.37 849.817 996.845 849.817V850.417C1060.36 850.417 1112.12 850.109 1153.83 841.932C1195.55 833.753 1227.25 817.693 1250.62 786.17L1250.14 785.813ZM1161.51 596.788C1211.26 615.527 1245.04 647.126 1260.56 681.859C1276.09 716.586 1273.38 754.46 1250.14 785.813L1250.62 786.17C1274 754.632 1276.72 716.525 1261.11 681.614C1245.51 646.709 1211.59 615.011 1161.72 596.227L1161.51 596.788ZM1031.02 492.658C1068.88 533.269 1110.01 577.388 1161.51 596.788L1161.72 596.227C1110.38 576.885 1069.34 532.884 1031.46 492.249L1031.02 492.658ZM927.254 410.74C945.059 415.167 962.122 426.117 979.181 440.736C996.24 455.355 1013.27 473.621 1031.02 492.658L1031.46 492.249C1013.72 473.218 996.661 454.926 979.572 440.281C962.483 425.637 945.336 414.618 927.399 410.158L927.254 410.74ZM775.798 398.797C838.66 400.727 893.8 402.422 927.254 410.74L927.399 410.158C893.866 401.82 838.644 400.126 775.816 398.198L775.798 398.797ZM539.549 378.739C613.063 393.803 700.02 396.471 775.798 398.797L775.816 398.198C700.025 395.871 613.123 393.203 539.67 378.152L539.549 378.739ZM346.245 74.8504C356.006 112.108 376.794 182.417 408.894 246.234C424.943 278.142 443.826 308.439 465.581 332.172C487.336 355.904 511.979 373.09 539.549 378.739L539.67 378.152C512.267 372.537 487.729 355.444 466.024 331.766C444.319 308.089 425.465 277.845 409.43 245.964C377.358 182.203 356.582 111.94 346.825 74.6984L346.245 74.8504ZM346.395 74.5092C268.555 115.667 200.104 172.208 145.091 240.084L145.557 240.461C200.52 172.648 268.908 116.159 346.675 75.0396L346.395 74.5092Z" fill="#9BBBFF"/>
<path opacity="0.395206" fill-rule="evenodd" clip-rule="evenodd" d="M1201.22 308.775C1087.17 123.514 882.512 0 649 0C610.065 0 571.932 3.43386 534.888 10.0153C565.847 117.62 641.353 306.42 784.348 274.403C960.777 234.901 981.958 251.699 1074.73 325.278C1086.16 334.342 1098.68 344.268 1112.7 355.056C1168.27 397.797 1192.07 362.435 1201.22 308.775Z" fill="url(#paint4_linear_41_10281)"/>
<path opacity="0.395206" fill-rule="evenodd" clip-rule="evenodd" d="M1136.02 220.535C1017.26 85.3355 843.095 0 649 0C632.657 0 616.456 0.60498 600.417 1.79377C624.998 87.6768 685.385 239.841 800.117 214.146C941.164 182.558 958.097 195.991 1032.27 254.829C1041.41 262.076 1051.41 270.013 1062.62 278.64C1114.02 318.182 1131.42 274.128 1136.02 220.535Z" fill="url(#paint5_linear_41_10281)"/>
<path opacity="0.21317" fill-rule="evenodd" clip-rule="evenodd" d="M1193.03 1000.19C1077.54 1178.22 877.022 1296 649 1296C583.3 1296 519.883 1286.22 460.126 1268.04C503.203 1249.27 578.118 1215.75 607.291 1197.4C627.723 1184.54 647.869 1171.68 667.684 1159.03C775.069 1090.48 872.74 1028.13 953.61 1006.69C1098.19 968.376 1168 988.46 1193.03 1000.19Z" fill="url(#paint6_linear_41_10281)"/>
<path opacity="0.342773" fill-rule="evenodd" clip-rule="evenodd" d="M1174.43 1027.32C1139.05 1032.12 1099.13 1039.72 1055.15 1051.37C884.92 1096.47 713.286 1261.83 679.865 1295.28C883.384 1285.73 1062.35 1182.31 1174.43 1027.32Z" fill="url(#paint7_linear_41_10281)"/>
<path opacity="0.563988" d="M1197.09 434.008C1222.31 447.42 1236.33 470.386 1228.4 485.304C1226.49 488.904 1223.47 491.706 1219.64 493.698C1222.42 499.446 1222.9 505.129 1220.45 509.739C1214.75 520.453 1195.4 521.305 1177.23 511.642C1160.79 502.9 1150.94 488.547 1153.43 477.957C1138.03 464.886 1130.87 448.364 1137.05 436.734C1144.98 421.816 1171.86 420.595 1197.09 434.008Z" fill="#D0D4FF"/>
<path d="M1192.51 437.874C1217.74 451.287 1231.76 474.253 1223.83 489.171C1221.91 492.771 1218.89 495.573 1215.06 497.564C1217.85 503.312 1218.32 508.996 1215.87 513.606C1210.18 524.319 1190.83 525.172 1172.65 515.509C1156.21 506.767 1146.37 492.414 1148.86 481.824C1133.45 468.752 1126.29 452.231 1132.48 440.6C1140.41 425.683 1167.29 424.462 1192.51 437.874Z" fill="#5E8ACD" fill-opacity="0.742652"/>
<path d="M1213.73 432.918C1240.51 447.16 1255.43 471.49 1247.04 487.261C1245.02 491.066 1241.83 494.026 1237.77 496.125C1240.73 502.214 1241.25 508.229 1238.66 513.102C1233.45 522.892 1217.41 524.865 1200.69 518.592C1215.15 522.394 1228.15 519.837 1232.73 511.211C1235.32 506.339 1234.81 500.324 1231.84 494.235C1235.9 492.135 1239.1 489.176 1241.12 485.37C1249.51 469.6 1234.59 445.27 1207.8 431.028C1203.81 428.905 1199.78 427.125 1195.78 425.687C1201.69 427.333 1207.75 429.74 1213.73 432.918Z" fill="#5E8ACD" fill-opacity="0.742652"/>
<path d="M752.936 161.884C774.543 170.083 793.013 154.434 793.013 150.594C793.013 146.754 777.075 143.641 757.415 143.641C737.754 143.641 721.816 146.754 721.816 150.594C721.816 154.434 731.329 153.684 752.936 161.884Z" fill="black" fill-opacity="0.28827"/>
<path d="M718.215 146.603C723.083 158.044 741.535 144.106 745.527 149.295C749.518 154.484 747.495 158.902 756.503 159.984C765.51 161.067 766.397 151.194 775.257 150.651C784.116 150.109 789.365 152.129 792.452 142.845C795.539 133.561 781.266 129.711 780.537 125.959C779.807 122.206 780.087 112.474 773.819 111.017C767.551 109.559 765.013 109.745 750.708 118.185C736.403 126.625 713.346 135.162 718.215 146.603Z" fill="#D0D4FF"/>
<path opacity="0.395206" d="M750.109 118.536L752.768 116.98C765.277 109.73 767.866 109.632 773.82 111.017C775.202 111.338 776.265 112.062 777.092 113.035C773.648 112.632 769.906 113.249 765.867 114.883L765.229 115.153C759.512 117.663 743.649 126.738 717.639 142.377C719.042 133.143 737.618 125.789 750.109 118.536V118.536Z" fill="url(#paint8_linear_41_10281)"/>
<path opacity="0.21317" d="M779.466 118.514L779.499 118.663C780.088 121.442 780.213 124.291 780.537 125.959C780.648 126.529 781.072 127.102 781.7 127.695C778.359 128.176 776.244 129.218 775.358 130.821C772.461 136.059 777.717 138.92 776.525 144.876C776.227 146.363 775.518 148.317 774.396 150.737C766.328 151.845 765.208 161.03 756.503 159.984C749.82 159.181 749.209 156.542 747.708 153.114C751.116 152.003 753.54 150.653 754.982 149.063C759.138 144.484 754.773 127.995 763.448 122.578C767.48 120.061 772.819 118.706 779.466 118.514Z" fill="url(#paint9_linear_41_10281)"/>
<path d="M1059.64 229.235C1069.64 235.247 1079.93 236.492 1082.62 232.015C1085.31 227.539 1077.2 222.665 1069.38 213.024C1061.55 203.383 1049.08 205.767 1046.39 210.243C1043.7 214.72 1049.63 223.222 1059.64 229.235Z" fill="#D0D4FF"/>
<path opacity="0.21317" d="M1057.92 232.095C1067.92 238.107 1078.22 239.353 1080.91 234.876C1083.59 230.4 1075.66 225.235 1067.66 215.885C1059.66 206.535 1047.36 208.628 1044.67 213.104C1041.98 217.58 1047.91 226.083 1057.92 232.095Z" fill="url(#paint10_linear_41_10281)"/>
<path fill-rule="evenodd" clip-rule="evenodd" d="M541.196 937.626C605.057 1015.45 779.024 723.188 1041.52 789.583C1139.23 814.298 1277.87 745.888 1140.33 662.284C1002.79 578.681 944.596 457.25 779.024 490.25C613.451 523.251 504.554 435.074 576.777 561.322C648.999 687.57 477.336 859.801 541.196 937.626Z" fill="url(#paint11_linear_41_10281)" stroke="#9BBBFF" stroke-width="0.6"/>
<defs>
<radialGradient id="paint0_radial_41_10281" cx="0" cy="0" r="1" gradientUnits="userSpaceOnUse" gradientTransform="translate(1748.76 887.409) rotate(-162.22) scale(1786.69 1769.69)">
<stop stop-color="#2B71CF"/>
<stop offset="1" stop-color="#D0D4FF"/>
</radialGradient>
<linearGradient id="paint1_linear_41_10281" x1="776.282" y1="29.1277" x2="28.6199" y2="29.1277" gradientUnits="userSpaceOnUse">
<stop stop-color="white" stop-opacity="0.01"/>
<stop offset="1" stop-color="white"/>
</linearGradient>
<linearGradient id="paint2_linear_41_10281" x1="58.6493" y1="975.895" x2="1183.96" y2="1329.18" gradientUnits="userSpaceOnUse">
<stop stop-color="white" stop-opacity="0.218859"/>
<stop offset="1" stop-color="#5271D6" stop-opacity="0.0742188"/>
</linearGradient>
<linearGradient id="paint3_linear_41_10281" x1="-291.253" y1="1081.83" x2="1216.63" y2="2217.87" gradientUnits="userSpaceOnUse">
<stop stop-color="white" stop-opacity="0.218859"/>
<stop offset="1" stop-color="#5271D6" stop-opacity="0.0742188"/>
</linearGradient>
<linearGradient id="paint4_linear_41_10281" x1="1806.19" y1="449.239" x2="1585.93" y2="-337.327" gradientUnits="userSpaceOnUse">
<stop stop-color="#5D9CFF"/>
<stop offset="1" stop-color="#D0D4FF"/>
</linearGradient>
<linearGradient id="paint5_linear_41_10281" x1="1769.1" y1="449.059" x2="1588.43" y2="-233.03" gradientUnits="userSpaceOnUse">
<stop stop-color="#5D9CFF"/>
<stop offset="1" stop-color="#D0D4FF"/>
</linearGradient>
<linearGradient id="paint6_linear_41_10281" x1="1432.15" y1="1287.77" x2="1380.59" y2="947.792" gradientUnits="userSpaceOnUse">
<stop stop-color="#5D9CFF"/>
<stop offset="1" stop-color="#D0D4FF"/>
</linearGradient>
<linearGradient id="paint7_linear_41_10281" x1="1391.35" y1="1331.18" x2="1311.26" y2="1077.62" gradientUnits="userSpaceOnUse">
<stop stop-color="#656776"/>
<stop offset="1" stop-color="#A3BEFF"/>
</linearGradient>
<linearGradient id="paint8_linear_41_10281" x1="753.184" y1="148.354" x2="767.102" y2="84.9312" gradientUnits="userSpaceOnUse">
<stop stop-color="#5D9CFF"/>
<stop offset="1" stop-color="#D0D4FF"/>
</linearGradient>
<linearGradient id="paint9_linear_41_10281" x1="805.802" y1="145.168" x2="815.507" y2="102.415" gradientUnits="userSpaceOnUse">
<stop stop-color="#5D9CFF"/>
<stop offset="1" stop-color="#D0D4FF"/>
</linearGradient>
<linearGradient id="paint10_linear_41_10281" x1="1096.85" y1="251.985" x2="1113.85" y2="233.74" gradientUnits="userSpaceOnUse">
<stop stop-color="#5D9CFF"/>
<stop offset="1" stop-color="#D0D4FF"/>
</linearGradient>
<linearGradient id="paint11_linear_41_10281" x1="3.73719" y1="1065.93" x2="1065.65" y2="1839.59" gradientUnits="userSpaceOnUse">
<stop stop-color="white" stop-opacity="0.218859"/>
<stop offset="1" stop-color="#5271D6" stop-opacity="0.0742188"/>
</linearGradient>
</defs>
</svg>
