<svg width="197" height="40" viewBox="0 0 197 40" fill="none" xmlns="http://www.w3.org/2000/svg">
<path fill-rule="evenodd" clip-rule="evenodd" d="M17.5523 8.49664L11.8478 11.8623V18.7542L8.86831 20.4568L8.6827 20.3532L0 15.3513V5.14195L0.166308 5.00198L8.79547 0L17.5523 5.11782V8.49664ZM0.877617 14.8883L8.77617 19.4282V10.5823L0.877617 6.04458V14.8883ZM8.90254 0.925008L1.23876 5.34995L9.10264 9.88854L16.7664 5.46536L8.90254 0.925008ZM22.9215 5.00198L31.4875 0L40.3703 5.11782V15.3508L31.5296 20.4568L31.3124 20.3532L28.5225 18.7586V11.8623L22.818 8.49664V5.14195L22.9215 5.00198ZM23.6052 5.46536L31.269 9.88854L39.1329 5.34995L31.4691 0.925008L23.6052 5.46536ZM31.5941 19.4282L39.4927 14.8883V6.04458L31.5941 10.5823V19.4282ZM26.1898 23.0529L20.1852 26.52L14.145 23.0328L11.5437 24.5462L11.409 24.6853V34.8951L20.0289 39.8966L20.1834 40.0002L28.9613 34.8951V24.6612L26.1898 23.0529ZM19.7463 38.8338L12.2866 34.4321V25.3685L19.7463 29.7794V38.8338ZM28.0837 34.4321L20.624 38.8347V29.7794L28.0837 25.369V34.4321ZM28.0837 12.1132V12.5875L20.6239 16.9795V25.764L20.1851 26.0172L19.7463 25.764V16.9795L12.2866 12.5871V12.1132L12.6078 11.8815L20.1575 16.2853L27.7524 11.8845L28.0837 12.1132Z" fill="white"/>
<path d="M66.1145 5.88721C67.3508 5.91244 68.625 5.97552 69.9371 6.07644C71.2491 6.17737 72.5611 6.36661 73.8732 6.64415L73.6461 9.06637C72.5611 9.01591 71.3626 8.97806 70.0506 8.95283C68.7386 8.90237 67.477 8.87714 66.2659 8.87714C65.3323 8.87714 64.5249 8.91498 63.8437 8.99068C63.1876 9.04114 62.6452 9.19253 62.2162 9.44484C61.7873 9.67193 61.4719 10.063 61.2701 10.6181C61.0934 11.148 61.0051 11.8923 61.0051 12.8511C61.0051 14.2893 61.2574 15.2985 61.7621 15.8789C62.2919 16.434 63.1372 16.8503 64.2978 17.1278L69.5964 18.4525C71.615 18.9319 72.9901 19.7771 73.7218 20.9882C74.4787 22.1741 74.8572 23.7763 74.8572 25.7948C74.8572 27.3087 74.6806 28.5325 74.3273 29.466C73.9993 30.3996 73.4821 31.1187 72.7756 31.6233C72.0691 32.1027 71.1608 32.4307 70.0506 32.6073C68.9404 32.8092 67.6284 32.9101 66.1145 32.9101C65.2566 32.9101 64.1338 32.8723 62.7461 32.7966C61.3836 32.7209 59.8066 32.519 58.0152 32.191L58.2423 29.731C59.7309 29.7814 60.9294 29.8319 61.8378 29.8823C62.7461 29.9076 63.5283 29.9202 64.1843 29.9202C64.8403 29.9202 65.5216 29.9202 66.228 29.9202C67.5653 29.9202 68.6124 29.8193 69.3694 29.6174C70.1515 29.4156 70.694 29.0119 70.9968 28.4063C71.3248 27.8007 71.4888 26.905 71.4888 25.7191C71.4888 24.7099 71.3753 23.9277 71.1482 23.3726C70.9211 22.8175 70.5552 22.4012 70.0506 22.1237C69.5712 21.8209 68.953 21.5812 68.1961 21.4046L62.7839 20.0421C60.8916 19.5627 59.5543 18.73 58.7721 17.5441C58.0152 16.3583 57.6367 14.7687 57.6367 12.7754C57.6367 11.2615 57.8007 10.0504 58.1287 9.14207C58.482 8.2085 58.9992 7.51464 59.6805 7.06047C60.3869 6.58107 61.2701 6.26568 62.3298 6.11429C63.3895 5.9629 64.6511 5.88721 66.1145 5.88721Z" fill="white"/>
<path d="M87.2918 13.5702C90.0672 13.5702 92.0732 14.0748 93.3095 15.0841C94.5711 16.0933 95.2019 17.5946 95.2019 19.5879C95.2271 21.2279 94.8865 22.5148 94.18 23.4483C93.4735 24.3566 92.3507 24.8108 90.8116 24.8108H80.063V22.3129H89.9789C90.8116 22.3129 91.3541 22.0354 91.6064 21.4803C91.8587 20.8999 91.9848 20.2691 91.9848 19.5879C91.9596 18.402 91.6064 17.5568 90.9251 17.0521C90.2439 16.5475 89.0832 16.2952 87.4432 16.2952C86.1059 16.2952 85.0462 16.497 84.264 16.9007C83.5071 17.2792 82.9646 17.9605 82.6366 18.9445C82.3338 19.9033 82.1824 21.2532 82.1824 22.9941C82.1824 24.9622 82.3716 26.4635 82.7501 27.498C83.1538 28.5325 83.7846 29.2389 84.6425 29.6174C85.5004 29.9959 86.6358 30.1851 88.0487 30.1851C89.0328 30.1851 90.1051 30.1473 91.2657 30.0716C92.4516 29.9707 93.5113 29.8571 94.4449 29.731L94.7855 31.8882C94.2052 32.1153 93.4861 32.3046 92.6282 32.456C91.7956 32.6073 90.9251 32.7209 90.0168 32.7966C89.1337 32.8723 88.3389 32.9101 87.6324 32.9101C85.513 32.9101 83.8098 32.5947 82.523 31.9639C81.2362 31.3079 80.2901 30.2734 79.6845 28.8605C79.1042 27.4223 78.814 25.5299 78.814 23.1834C78.814 20.7612 79.1042 18.8562 79.6845 17.4685C80.2901 16.0555 81.211 15.0588 82.4473 14.4785C83.7089 13.873 85.3237 13.5702 87.2918 13.5702Z" fill="white"/>
<path d="M111.253 13.5702C114.584 13.5702 116.249 15.2607 116.249 18.6417V32.456H113.032V19.5501C113.032 18.3137 112.83 17.4685 112.426 17.0143C112.023 16.5349 111.342 16.2952 110.383 16.2952C109.247 16.2952 108.112 16.5727 106.976 17.1278C105.841 17.6829 104.491 18.4399 102.927 19.3987L102.775 17.09C104.214 15.9798 105.639 15.1219 107.052 14.5164C108.465 13.8856 109.865 13.5702 111.253 13.5702ZM102.775 14.0244L103.04 17.5441L103.267 18.1119V32.456H100.05V14.0244H102.775Z" fill="white"/>
<path d="M126.659 8.57436V27.3844C126.659 28.2675 126.848 28.8983 127.227 29.2768C127.605 29.6553 128.249 29.8445 129.157 29.8445H131.958L132.336 32.3046C131.932 32.4055 131.466 32.4938 130.936 32.5695C130.406 32.6452 129.889 32.6956 129.384 32.7209C128.879 32.7713 128.476 32.7966 128.173 32.7966C126.634 32.7966 125.461 32.3676 124.653 31.5098C123.846 30.6519 123.442 29.4156 123.442 27.8007V8.57436H126.659ZM132.525 14.0244V16.5601H120.112V14.2136L123.745 14.0244H132.525Z" fill="white"/>
<path d="M139.787 14.0244V32.456H136.608V14.0244H139.787ZM138.954 6.18999C139.61 6.18999 139.938 6.51799 139.938 7.17401V9.3313C139.938 9.98732 139.61 10.3153 138.954 10.3153H137.44C136.784 10.3153 136.456 9.98732 136.456 9.3313V7.17401C136.456 6.51799 136.784 6.18999 137.44 6.18999H138.954Z" fill="white"/>
<path d="M157.047 13.5702C160.377 13.5702 162.043 15.2607 162.043 18.6417V32.456H158.826V19.5501C158.826 18.3137 158.624 17.4685 158.22 17.0143C157.816 16.5349 157.135 16.2952 156.176 16.2952C155.041 16.2952 153.906 16.5727 152.77 17.1278C151.635 17.6829 150.285 18.4399 148.72 19.3987L148.569 17.09C150.007 15.9798 151.433 15.1219 152.846 14.5164C154.259 13.8856 155.659 13.5702 157.047 13.5702ZM148.569 14.0244L148.834 17.5441L149.061 18.1119V32.456H145.844V14.0244H148.569Z" fill="white"/>
<path d="M175.405 13.5702C178.18 13.5702 180.186 14.0748 181.423 15.0841C182.684 16.0933 183.315 17.5946 183.315 19.5879C183.34 21.2279 182.999 22.5148 182.293 23.4483C181.587 24.3566 180.464 24.8108 178.925 24.8108H168.176V22.3129H178.092C178.925 22.3129 179.467 22.0354 179.719 21.4803C179.972 20.8999 180.098 20.2691 180.098 19.5879C180.073 18.402 179.719 17.5568 179.038 17.0521C178.357 16.5475 177.196 16.2952 175.556 16.2952C174.219 16.2952 173.159 16.497 172.377 16.9007C171.62 17.2792 171.078 17.9605 170.75 18.9445C170.447 19.9033 170.295 21.2532 170.295 22.9941C170.295 24.9622 170.485 26.4635 170.863 27.498C171.267 28.5325 171.898 29.2389 172.756 29.6174C173.613 29.9959 174.749 30.1851 176.162 30.1851C177.146 30.1851 178.218 30.1473 179.379 30.0716C180.565 29.9707 181.624 29.8571 182.558 29.731L182.899 31.8882C182.318 32.1153 181.599 32.3046 180.741 32.456C179.909 32.6073 179.038 32.7209 178.13 32.7966C177.247 32.8723 176.452 32.9101 175.745 32.9101C173.626 32.9101 171.923 32.5947 170.636 31.9639C169.349 31.3079 168.403 30.2734 167.798 28.8605C167.217 27.4223 166.927 25.5299 166.927 23.1834C166.927 20.7612 167.217 18.8562 167.798 17.4685C168.403 16.0555 169.324 15.0588 170.56 14.4785C171.822 13.873 173.437 13.5702 175.405 13.5702Z" fill="white"/>
<path d="M191.418 5.9629L191.38 27.3844C191.38 28.1918 191.595 28.81 192.024 29.2389C192.478 29.6426 193.109 29.8445 193.916 29.8445H195.695L196.074 32.3046C195.846 32.4055 195.518 32.4938 195.09 32.5695C194.686 32.6452 194.257 32.6956 193.803 32.7209C193.374 32.7713 193.008 32.7966 192.705 32.7966C191.343 32.7966 190.245 32.3929 189.412 31.5855C188.605 30.7781 188.201 29.6174 188.201 28.1035V5.9629H191.418Z" fill="white"/>
</svg>
