<svg width="322" height="290" viewBox="0 0 322 290" fill="none" xmlns="http://www.w3.org/2000/svg">
<path fill-rule="evenodd" clip-rule="evenodd" d="M259.936 202.379L261.153 192.45L252.732 197.307L259.936 202.379Z" stroke="#467FFF" stroke-width="0.5"/>
<path fill-rule="evenodd" clip-rule="evenodd" d="M247.422 158.254L254.128 165.542L251.484 171.717L246.11 166.028L247.422 158.254Z" stroke="#467FFF" stroke-width="0.5"/>
<path d="M280.304 148.898C288.09 146.663 296.477 148.719 302.346 154.302C308.33 159.994 310.765 168.512 308.73 176.516C306.722 184.412 300.672 190.692 292.846 192.958L270.459 199.44L265.291 193.811L254.833 197.089L259.937 202.379L254.535 204.051L235.47 185.501L242.066 159.782L247.423 158.254L246.11 166.028L256.27 163.31L257.714 155.383L280.304 148.898Z" fill="#733DFF"/>
<path d="M271.994 151.284L280.161 148.939C284.118 147.803 288.23 147.763 292.094 148.722C289.578 152.93 288.653 158.901 289.319 166.636C290.028 174.879 292.46 183.158 296.613 191.471C295.371 192.093 294.064 192.606 292.702 193L276.571 197.67L271.994 151.284Z" fill="black" fill-opacity="0.275213"/>
<path d="M291.561 175.252C288.733 172.521 287.59 168.432 288.551 164.614C290.609 156.436 300.753 153.386 306.835 159.194C309.707 161.936 310.865 166.07 309.878 169.921C307.783 178.096 297.615 181.098 291.561 175.252Z" fill="#F8FCFF" stroke="#E9EBFF"/>
<path d="M308.043 168.681L308.768 168.872L308.043 168.681L307.939 169.075C306.277 175.399 298.423 177.597 293.72 173.055C291.502 170.914 290.608 167.745 291.379 164.761L291.481 164.366C293.115 158.04 300.949 155.805 305.675 160.316C307.927 162.466 308.834 165.67 308.043 168.681Z" fill="#0D134E" stroke="#959FFA" stroke-width="1.5"/>
<path fill-rule="evenodd" clip-rule="evenodd" d="M263.752 161.173L261.819 170.129L281.796 158.457L263.752 161.173Z" stroke="#467FFF" stroke-width="0.5"/>
<path fill-rule="evenodd" clip-rule="evenodd" d="M271.724 192.573L266.187 185.273L288.04 182.602L271.724 192.573Z" stroke="#467FFF" stroke-width="0.5"/>
<path fill-rule="evenodd" clip-rule="evenodd" d="M254.968 196.688L242.151 183.718L245.705 165.784L255.981 162.96L253.075 179.759L265.37 193.637L254.968 196.688Z" stroke="#467FFF" stroke-width="0.5"/>
<path fill-rule="evenodd" clip-rule="evenodd" d="M249.101 164.836L246.19 182.613L258.807 195.564L254.968 196.688L242.151 183.718L245.705 165.784L249.101 164.836Z" stroke="#467FFF" stroke-width="0.5"/>
<path d="M208.154 18.8349L211.315 28.2196L206.389 32.7859L203.793 25.4026L208.154 18.8349Z" fill="#D0D4FF"/>
<path fill-rule="evenodd" clip-rule="evenodd" d="M202.768 63.3834L207.918 54.8075L198.25 55.8204L202.768 63.3834Z" stroke="#467FFF" stroke-width="0.5"/>
<path d="M243.127 22.8106C251.149 23.9355 257.974 29.2252 261.066 36.7124C264.217 44.3463 262.977 53.1179 257.863 59.6024C252.817 65.9997 244.735 69.2759 236.664 68.1627L213.576 64.9787L211.144 57.7343L200.257 56.4745L202.768 63.3833L197.153 62.7138L187.281 38.0133L203.056 18.1004C203.497 17.5433 204.201 17.2623 204.904 17.3622L206.145 17.5382C207.601 17.7449 208.343 19.3996 207.53 20.6247L204.922 24.5515L215.309 26.2011L219.153 20.5721C219.581 19.9442 220.329 19.6137 221.082 19.7193L243.127 22.8106Z" fill="#733DFF"/>
<path d="M202.178 57.0529L195.448 40.1063L205.727 24.9865L216.289 26.402L207.051 40.73L212.946 58.3092L202.178 57.0529Z" fill="black" fill-opacity="0.275213"/>
<path d="M197.166 25.5765L248.586 36.7317L258.226 59.1354L257.931 59.516C252.827 65.9857 244.679 69.2681 236.516 68.1424L213.576 64.9787L211.144 57.7344L200.257 56.4745L202.768 63.3833L197.153 62.7138L187.281 38.0133L197.102 25.6153L197.166 25.5765Z" fill="black" fill-opacity="0.275213"/>
<path d="M243.93 54.6265C241.674 49.0439 242.593 42.6568 246.312 37.9187C250.62 32.4291 259.272 33.5944 261.92 40.0416L263.151 43.0399C264.661 46.7159 264.068 50.9203 261.601 54.0358L259.374 56.8482C255.077 62.2749 246.523 61.0443 243.93 54.6265Z" fill="#F8FCFF" stroke="#E9EBFF"/>
<path d="M260.229 52.4307L260.814 52.8999L260.229 52.4307L259.974 52.7485C255.884 57.8496 247.815 56.6635 245.366 50.601C244.211 47.7429 244.683 44.4846 246.601 42.0715L246.854 41.7527C250.92 36.6379 258.986 37.7823 261.469 43.8261C262.652 46.7063 262.177 50.0016 260.229 52.4307Z" fill="#0D134E" stroke="#959FFA" stroke-width="1.5"/>
<path fill-rule="evenodd" clip-rule="evenodd" d="M217.525 59.2202L215.435 50.2993L236.486 56.747L217.525 59.2202Z" stroke="#467FFF" stroke-width="0.5"/>
<path d="M208.14 24.6794L198.25 39.7347L204.509 56.6983L200.544 56.1639L194.111 39.1023L204.652 24.1642L208.14 24.6794Z" fill="#FF3F87"/>
<path d="M97.8779 56.772L82.3779 163.117L166.77 246.912L277.975 185.972L274.548 94.772L230.36 45.9145L176.95 31.9752L97.8779 56.772Z" fill="#0D124E"/>
<path d="M140.378 194.772C178.486 194.772 209.378 163.88 209.378 125.772C209.378 87.6644 178.486 56.772 140.378 56.772C102.27 56.772 71.3779 87.6644 71.3779 125.772C71.3779 163.88 102.27 194.772 140.378 194.772Z" fill="black" fill-opacity="0.161932"/>
<path d="M188.437 102.262L272.128 149.574L288.175 134.163L286.445 124.826L207.495 79.772L188.437 102.262Z" fill="white"/>
<path d="M211.017 89.272L232.344 103.118" stroke="#467FFF" stroke-width="3.5"/>
<path d="M244.58 110.615L256.876 117.711C257.725 118.202 258.81 117.941 259.344 117.118C259.844 116.349 259.625 115.321 258.856 114.821L258.782 114.776L246.486 107.679C245.636 107.189 244.551 107.449 244.017 108.272C243.518 109.041 243.736 110.07 244.506 110.569L244.58 110.615Z" fill="#FF3F87"/>
<path d="M236.952 52.6782C236.952 52.6782 242.064 69.8979 244.218 80.7721C246.373 91.6462 247.419 102.709 247.419 102.709L277.974 121.285L269.578 88.5807L236.952 52.6782Z" fill="#D0D4FF"/>
<path d="M239.952 50.6782C239.952 50.6782 245.064 67.8979 247.218 78.7721C249.373 89.6462 250.419 100.709 250.419 100.709L280.974 119.285L272.578 86.5807L239.952 50.6782Z" fill="#BBBEFB"/>
<path d="M256.621 72.3812L259.184 88.4771C259.308 89.2556 258.524 89.8647 257.8 89.5527L253.474 87.6882C252.757 87.3789 251.978 87.9752 252.089 88.7487L254.152 103.118" stroke="white" stroke-width="0.5"/>
<path d="M202.957 36.772C202.957 36.772 207.064 48.8979 209.218 59.772C211.373 70.6462 211.528 81.1235 211.528 81.1235L242.974 100.285C242.974 100.285 241.578 90.1184 238.906 76.272C236.233 62.4257 230.737 48.9704 230.737 48.9704L202.957 36.772Z" fill="#D0D4FF"/>
<path d="M207.378 41.772C207.378 41.772 210.662 53.5089 212.385 62.2407C214.108 70.9725 214.232 79.3857 214.232 79.3857L239.378 94.772C239.378 94.772 238.261 86.6084 236.124 75.49C233.987 64.3715 229.592 51.5671 229.592 51.5671L207.378 41.772Z" fill="#BBBEFB"/>
<path d="M214.608 42.6074L216.287 58.2191C216.385 59.1304 217.09 59.8585 217.998 59.9859L225.553 61.0459C226.456 61.1725 227.159 61.8934 227.263 62.7989L230.737 93.1382" stroke="white" stroke-width="0.5"/>
<path d="M222.378 66.772C230.662 66.772 237.378 73.4878 237.378 81.772C237.378 84.4629 236.669 86.9882 235.429 89.1717L235.616 89.272C237.303 89.8657 238.557 90.7747 239.378 91.9991L239.506 92.2035C240.771 94.2977 247.757 107.416 260.464 131.56L253.622 134.156L230.077 114.673L225.052 96.5344C224.184 96.6905 223.29 96.772 222.378 96.772C214.094 96.772 207.378 90.0563 207.378 81.772C207.378 73.4878 214.094 66.772 222.378 66.772Z" fill="black" fill-opacity="0.161932"/>
<path d="M193.275 56.9618C193.017 56.8424 192.718 56.8518 192.468 56.9871L161.89 73.5502C161.579 73.719 161.395 74.0552 161.421 74.4087L166.801 146.317C166.823 146.614 166.992 146.881 167.25 147.03L217.987 176.148L227.461 215.912L244.615 205.155L241.557 193.337L243.76 191.779L265.36 178.923L280.927 187.092L287.181 180.356L268.949 136.453L227.131 112.464L201.278 60.8845C201.187 60.7024 201.036 60.5567 200.852 60.4711L193.275 56.9618Z" fill="#F8FCFF"/>
<path d="M174.177 142.458V170.272L230.737 209.933L220.162 169.901L174.177 142.458Z" fill="#5C66C0"/>
<path fill-rule="evenodd" clip-rule="evenodd" d="M180.092 156.742L166.77 165.087V184.632L205.777 206.605V171.423L180.092 156.742Z" stroke="#467FFF" stroke-width="0.5"/>
<path fill-rule="evenodd" clip-rule="evenodd" d="M191.314 159.288L183.983 170.27C183.797 170.548 183.693 170.872 183.681 171.206L182.597 201.851C182.574 202.509 182.912 203.127 183.478 203.463L212.817 220.859C213.364 221.183 214.042 221.195 214.599 220.89L228.502 213.279L218.968 175.656L191.314 159.288Z" stroke="#467FFF" stroke-width="0.5"/>
<path d="M175.852 78.2689C175.522 78.4542 175.344 78.8262 175.405 79.1997L184.829 136.486C184.92 137.039 185.239 137.529 185.708 137.835L221.628 161.32L236.11 210.479L244.66 205.4L232.307 154.837L193.552 131.259C193.111 130.991 192.791 130.563 192.658 130.065L180.452 84.252C180.217 83.373 180.606 82.4466 181.397 81.9976L199.002 72.0078C200.043 71.4169 201.366 71.8669 201.832 72.9699L220.101 116.283C220.269 116.681 220.56 117.013 220.932 117.231L262.077 141.353L280.927 187.092L287.181 179.37L268.949 136.453L227.622 112.745C227.301 112.561 227.038 112.292 226.861 111.967L200.851 64.2291L175.852 78.2689Z" fill="#5C66C0"/>
<path d="M165.878 83.772C174.99 83.772 182.378 91.1593 182.378 100.272C182.378 105.976 179.483 111.005 175.082 113.968L182.829 138.649L224.146 162.652L213.666 173.668L167.25 147.03C167.024 146.9 166.867 146.679 166.816 146.427L166.801 146.317L162.153 84.1941C163.35 83.918 164.597 83.772 165.878 83.772Z" fill="black" fill-opacity="0.161932"/>
<path d="M265.36 179.013L250.785 142.929L220.359 116.895L201.831 72.9699C201.366 71.8669 200.043 71.4169 199.001 72.0078L181.397 81.9976C180.606 82.4466 180.217 83.373 180.451 84.252L192.865 130.841L232.306 154.837L241.557 193.337L265.36 179.013Z" fill="#1B215B"/>
<path d="M204.294 66.903L227.131 112.464L248.697 124.836L257.378 132.873L220.803 148.606L204.115 137.65L199.007 122.893C195.493 123.133 193.431 122.521 192.821 121.055L192.767 120.91C192.272 119.45 189.701 107.128 185.055 83.9454L183.98 78.5776L194.887 90.3684L204.798 86.3324C202.653 83.5477 201.378 80.0589 201.378 76.2721C201.378 72.7924 202.455 69.5643 204.294 66.903Z" fill="black" fill-opacity="0.219542"/>
<path fill-rule="evenodd" clip-rule="evenodd" d="M269.438 140.545L279.658 146.036L273.023 149.465L269.438 140.545Z" stroke="#467FFF" stroke-width="0.5"/>
<path d="M236.705 94.2989C235.42 94.3324 234.623 95.712 235.237 96.8422L237.899 101.743C238.519 102.886 240.116 102.998 240.89 101.952C241.308 101.387 241.353 100.628 241.006 100.016L238.247 95.1686C237.933 94.6166 237.34 94.2824 236.705 94.2989Z" fill="#959FFA"/>
<path d="M240.741 101.529L236.951 94.7345C237.5 94.8252 237.991 95.1422 238.299 95.6133L238.386 95.7592L240.619 99.9044C240.893 100.412 240.93 101.003 240.741 101.529L236.951 94.7345L240.741 101.529Z" fill="#F8FCFF"/>
<path d="M240.029 127.388C241.377 128.752 253.924 136.444 255.43 136.444C256.935 136.444 258.466 136.558 258.466 136.953C258.466 137.349 258.983 141.561 259.843 142.386C260.704 143.212 261.855 144.213 261.855 143.085C261.855 141.957 261.325 139.393 261.855 138.755C262.384 138.118 269.577 141.431 271.264 141.431C272.952 141.431 275.559 138.454 273.787 136.196C272.015 133.937 265.023 132.047 263.835 132.047C262.647 132.047 261.382 130.734 260.855 130.067C260.327 129.4 247.288 120.581 246.434 118.427C245.58 116.272 235.67 92.272 232.359 91.2572C229.049 90.2424 227.075 90.2624 227.075 90.2624C227.075 90.2624 230.691 103.993 232.359 109.087C235.712 119.325 239.429 126.78 240.029 127.388Z" fill="#380085"/>
<path d="M230.737 93.8358C234.274 97.0446 237.371 102.475 240.029 110.128C241.062 113.104 240.717 118.261 238.992 125.6L238.552 124.715C237.065 121.662 234.734 116.248 232.533 109.613L232.359 109.087C232.176 108.526 231.974 107.886 231.755 107.168L230.737 93.8358Z" fill="black" fill-opacity="0.275213"/>
<path fill-rule="evenodd" clip-rule="evenodd" d="M258.009 136.644L262.451 131.559C262.836 131.809 263.25 131.995 263.659 132.037L263.834 132.047C265.022 132.047 272.014 133.937 273.786 136.196C275.559 138.454 272.951 141.431 271.264 141.431C269.577 141.431 262.384 138.118 261.854 138.755C261.324 139.393 261.854 141.957 261.854 143.085C261.854 144.213 260.703 143.212 259.843 142.386C258.982 141.561 258.466 137.349 258.466 136.953C258.466 136.821 258.294 136.72 258.009 136.644L262.451 131.559L258.009 136.644Z" stroke="#467FFF" stroke-width="0.5"/>
<path d="M198.378 95.0056C196.589 100.024 201.16 119.938 204.128 131.665C205.354 136.509 210.35 139.304 215.153 137.927L235.034 132.229C235.034 132.229 229.099 90.1184 225.495 87.3256C221.891 84.5328 200.957 87.7721 198.378 95.0056Z" fill="#959FFA"/>
<path d="M221.9 86.421L221.995 86.3859C223.596 86.5056 224.835 86.8146 225.495 87.3256C226.6 88.1822 227.87 91.8132 229.305 98.2185L224.857 135.145L215.118 137.936L215.019 137.963C212.643 138.586 210.24 138.199 208.264 137.067L206.522 130.702C204.788 124.309 203.6 119.717 202.958 116.926C202.831 116.375 201.797 116.585 200.508 117.017L200.216 115.659C199.036 110.083 198.303 105.55 198.015 102.062C199.246 99.6414 200.422 97.8887 200.807 97.2171L200.851 97.1388C202.101 94.8523 208.38 91.557 219.686 87.253L221.995 86.3859L221.9 86.421Z" fill="black" fill-opacity="0.275213"/>
<path d="M220.335 89.7773C220.335 89.7773 228.019 89.9051 229.419 90.6055C230.82 91.3058 237.351 106.675 237.351 110.765C237.351 112.822 236.178 122.845 236.881 128.382C237.577 133.852 240.141 134.839 241.578 136.505C244.471 139.857 259.304 147.372 259.304 147.372L233.786 161.069L232.345 155.133C232.345 155.133 209.54 141.998 209.748 141.068C210.719 136.717 211.271 134.147 210.099 130.404C208.457 125.157 200.851 99.7276 200.851 99.7276C200.851 99.7276 203.671 97.0801 205.437 95.6356C207.202 94.191 214.54 90.6055 214.54 90.6055L220.335 89.7773Z" fill="#733DFF"/>
<path d="M236.881 128.381C237.561 133.73 240.027 134.792 241.48 136.394L241.578 136.504C242.018 137.014 242.664 137.596 243.518 138.25L240.609 142.458L227.714 144.17L236.837 128.013L236.881 128.381Z" fill="black" fill-opacity="0.275213"/>
<path d="M217.207 90.2241L220.335 89.7773L221.644 89.8043C225.564 89.9025 228.059 90.1305 229.129 90.4883C229.18 90.6017 229.217 90.7193 229.24 90.841C229.609 92.7385 226.612 94.9174 222.546 95.7077C218.48 96.4981 214.885 95.6006 214.516 93.7031C214.286 92.5175 215.369 91.2221 217.207 90.2241Z" fill="black" fill-opacity="0.275213"/>
<path d="M241.578 136.504C242.334 137.38 243.701 138.469 245.679 139.771C243.415 141.419 241.657 142.93 240.403 144.303C238.91 145.94 236.912 148.719 234.409 152.642L234.129 153.082L227.075 151.879C223.558 150.015 220.392 148.204 217.577 146.446L216.578 145.816C214.721 144.634 212.429 143.121 209.702 141.277L210.045 139.721C210.112 139.412 210.175 139.113 210.234 138.82C214.361 139.265 217.565 139.912 219.848 140.765C222.935 141.917 227.104 144.12 232.356 147.372L232.762 146.417C234.101 143.31 235.271 140.971 236.271 139.398C237.187 137.958 238.565 136.211 240.405 134.156C240.763 135.2 241.154 136.013 241.578 136.504Z" fill="#959FFA"/>
<path d="M203.442 108.383L208.279 103.365L208.868 105.423C212.632 118.703 214.545 127.772 214.608 132.629L214.609 132.873C214.609 137.908 218.769 143.118 227.087 148.503L226.149 151.542L222.626 149.473C213.936 144.339 209.643 141.537 209.748 141.068L210.035 139.771C210.815 136.173 211.149 133.76 210.099 130.404L207.593 122.188C206.508 118.597 205.124 113.995 203.442 108.383Z" fill="black" fill-opacity="0.275213"/>
<path d="M214.539 90.6055L220.334 89.7773L221.896 89.8109C222.725 89.8332 223.487 89.8614 224.184 89.8957C224.389 90.3146 224.494 90.7873 224.494 91.3115C224.494 93.7967 222.136 96.4992 217.994 96.4992C214.324 96.4992 211.744 94.9177 211.203 92.8288L214.539 90.6055Z" fill="#380085"/>
<path d="M207.318 106.347C206.168 108.668 198.067 116.914 193.495 115.926C189.681 115.101 185.193 98.3593 183.107 90.772C182.692 89.2639 183.41 88.3737 183.107 87.7606C181.278 84.0631 188.395 84.2158 189.208 86.5072C189.356 86.927 190.637 87.2906 191.045 88.2205C192.121 90.6746 196.973 101.223 196.973 101.223C196.973 101.223 203.55 95.8686 207.318 94.372C211.087 92.8754 208.469 104.027 207.318 106.347Z" fill="#380085"/>
<path d="M208.279 103.365L208.297 103.427C207.958 104.713 207.595 105.787 207.318 106.347C206.394 108.21 200.993 113.891 196.532 115.549L208.279 103.365Z" fill="black" fill-opacity="0.275213"/>
<path d="M190.378 87.4991L191.254 88.6952L193.769 94.2422C194.647 96.1611 195.715 98.4882 196.973 101.223C197.675 100.652 198.353 100.113 199.008 99.607L194.888 105.922L190.378 87.4991Z" fill="black" fill-opacity="0.275213"/>
<path d="M186.949 73.0345L187.167 73.6518C188.154 76.3869 189.225 78.5266 189.225 79.2324C189.225 80.9213 188.191 83.7669 188.922 85.8291L188.952 85.8784C188.297 86.1394 187.63 86.3191 186.949 86.4177C185.978 86.5585 184.618 86.5863 182.869 86.5011L182.835 86.4075L182.203 85.1191C180.791 82.1895 179.624 79.2618 181.009 77.6845C182.597 75.8753 183.907 75.1368 183.907 73.6159L183.9 73.3601C183.808 71.4888 182.887 65.7143 183.907 65.2414C184.498 64.9674 185.672 69.3165 186.949 73.0345Z" fill="#959FFA"/>
<path d="M187.837 75.4097L188.437 76.8864C188.522 77.4365 188.503 78.0639 188.38 78.7677C188.044 80.7047 185.902 82.6484 181.956 84.5989L181.718 84.0842C180.551 81.5175 179.788 79.0758 181.009 77.6845C182.49 75.9968 183.73 75.2409 183.89 73.9124C185.801 73.9689 187.117 74.4686 187.837 75.4097Z" fill="black" fill-opacity="0.275213"/>
<path d="M183.906 74.5989C186.14 75.1847 187.356 75.8759 187.554 76.6726C187.852 77.8677 184.68 82.7256 183.504 82.9462C182.72 83.0932 182.246 83.0248 182.082 82.7409L181.776 83.8962L181.59 83.8021L181.371 83.2949C180.415 81.0248 179.914 78.9322 181.009 77.6845C182.2 76.3271 183.235 75.5724 183.678 74.6378L183.906 74.5989Z" fill="#959FFA"/>
<path d="M185.934 75.3027C185.482 76.5281 188.133 77.8803 188.375 78.9675C188.512 79.5895 187.397 81.2335 187.742 82.2206C188 82.9588 188.899 83.0914 189.082 82.8084C189.935 81.4966 191.292 78.8406 190.758 78.2666C189.953 77.4031 186.385 74.0774 185.934 75.3027Z" fill="#959FFA"/>
<path d="M213.514 88.7052C213.514 88.7052 211.71 90.3684 209.193 90.3684C206.677 90.3684 206.335 90.0923 206.335 90.0923C206.335 90.0923 207.949 85.0413 206.72 81.9932C204.743 77.0896 207.401 66.3908 214.61 67.9747C216.873 66.3908 218.809 66.3908 221.216 67.9747C223.623 69.5586 225.764 74.0313 225.366 78.702C224.968 83.3727 226.93 86.3187 226.93 86.3187C226.93 86.3187 222.888 88.2977 220.598 88.7052C218.307 89.1126 213.514 88.7052 213.514 88.7052Z" fill="#380085"/>
<path d="M218.427 95.0156C221.163 95.0156 222.806 92.3989 222.806 92.3989C222.806 92.3989 221.928 91.4022 221.928 89.2253C221.928 87.0484 222.379 81.7175 222.379 81.7175C222.379 81.7175 223.319 82.0892 223.805 81.5325C224.29 80.9758 224.99 79.2004 224.183 77.8281C223.984 77.4888 222.806 77.2354 222.806 77.2354C222.806 77.2354 220.886 77.5072 219.083 76.889C217.279 76.2709 214.485 72.2604 214.485 72.2604C214.485 72.2604 213.853 73.105 211.851 75.172C209.848 77.239 209.193 78.6058 209.193 80.156C209.193 81.7062 211.203 87.4991 212.26 88.5225C213.318 89.5458 214.182 89.9162 214.182 91.621C214.182 93.3258 214.155 93.1749 214.155 93.1749C214.155 93.1749 215.692 95.0156 218.427 95.0156Z" fill="#FFAF8A"/>
<path d="M220.886 86.0924C220.182 88.8845 218.792 90.4422 216.716 90.7654C215.669 90.9284 214.737 90.8184 213.921 90.4351C213.753 90.0678 213.518 89.7598 213.273 89.4958C214.189 89.902 215.24 89.9956 216.424 89.7772C218.274 89.436 219.761 88.2077 220.886 86.0924Z" fill="black" fill-opacity="0.175153"/>
<path d="M164.725 47.3648C164.478 46.3797 165.119 45.3918 166.119 45.2156L210.952 37.3189C211.809 37.1679 212.647 37.6698 212.918 38.4967L219.989 60.0434C220.302 60.9985 219.748 62.0206 218.777 62.2798L173.338 74.4069C172.394 74.6588 171.427 74.0893 171.189 73.1418L164.725 47.3648Z" fill="#FF3F87" fill-opacity="0.280021" stroke="#F8458D" stroke-width="0.5"/>
<path d="M211.818 107.871C211.568 108.122 211.469 108.485 211.557 108.828L213.109 114.856C213.254 115.421 213.847 115.744 214.4 115.558C216.549 114.835 221.61 113.159 224.844 112.309C228.461 111.358 233.307 110.503 234.572 110.286C234.777 110.25 234.964 110.153 235.111 110.006L235.391 109.726C235.687 109.43 235.767 108.979 235.591 108.599L233.195 103.43C233.003 103.015 232.553 102.783 232.103 102.87C230.381 103.203 226.098 104.047 222.861 104.813C220.615 105.345 214.1 106.879 212.687 107.211C212.506 107.254 212.345 107.345 212.214 107.476L211.818 107.871Z" fill="#959FFA"/>
<path d="M213.291 106.981C212.795 107.146 212.516 107.666 212.646 108.173L214.109 113.856C214.254 114.421 214.847 114.744 215.4 114.558C217.549 113.835 222.61 112.159 225.844 111.309C228.931 110.498 232.914 109.756 234.801 109.42C235.383 109.317 235.752 108.738 235.599 108.168L234.108 102.619C233.973 102.114 233.473 101.798 232.96 101.898C231.153 102.248 227.011 103.068 223.861 103.813C220.59 104.588 215.354 106.295 213.291 106.981Z" fill="#F8FCFF"/>
<path d="M178.647 47.4312C178.401 46.4473 179.041 45.4616 180.039 45.2847L200.15 41.7214C201.009 41.5693 201.849 42.0727 202.119 42.9019L204.994 51.7152C205.305 52.6687 204.753 53.688 203.784 53.948L183.467 59.4026C182.522 59.6564 181.552 59.0855 181.315 58.1358L178.647 47.4312Z" fill="#9286FF" fill-opacity="0.193018" stroke="#F8F8F8" stroke-width="0.5"/>
<path d="M174.91 65.861C174.682 64.8981 175.297 63.9378 176.267 63.7423L188.021 61.3733C188.9 61.1962 189.771 61.7117 190.038 62.5674L190.276 62.4929L190.038 62.5674L190.501 64.0505C190.803 65.0188 190.221 66.0404 189.234 66.2747L177.469 69.0668C176.528 69.29 175.584 68.7081 175.362 67.7673L174.91 65.861Z" fill="#FF3F87" fill-opacity="0.280021" stroke="#F8458D" stroke-width="0.5"/>
<path d="M199.845 61.0738C199.472 60.0694 200.081 58.9688 201.13 58.7513L212.789 56.3342C213.587 56.1688 214.393 56.5757 214.734 57.3157L214.929 57.7405C215.387 58.7344 214.831 59.8998 213.77 60.1688L202.26 63.088C201.393 63.3078 200.5 62.8389 200.189 62.0006L199.845 61.0738Z" fill="#FF3F87" fill-opacity="0.280021" stroke="#F8458D" stroke-width="0.5"/>
<path d="M216.796 95.0055V96.7868L219.996 100.57C220.231 100.849 220.6 100.977 220.958 100.904L224.162 100.254C224.624 100.16 224.958 99.7559 224.963 99.2841L224.963 99.2523C224.965 99.0683 224.916 98.8875 224.822 98.7295L221.9 93.8358C221.9 93.8358 220.917 94.0319 219.963 94.372C219.008 94.7122 216.796 95.0055 216.796 95.0055Z" fill="#380085"/>
<path d="M221.945 93.5897L224.789 98.7456C224.735 98.7767 224.677 98.8031 224.616 98.8239L224.523 98.851L221.396 99.5951C221.084 99.6693 220.758 99.5892 220.517 99.3847L220.431 99.3023L216.81 95.3967L216.796 95.0055C218.157 94.825 219.162 94.6312 219.809 94.4241L219.963 94.372C220.44 94.2019 220.931 94.0127 221.436 93.8044L221.945 93.5897Z" fill="#959FFA"/>
<path d="M231.878 79.272C231.878 88.1086 224.714 95.272 215.878 95.272C207.041 95.272 199.878 88.1086 199.878 79.272C199.878 70.4355 207.041 63.272 215.878 63.272C224.714 63.272 231.878 70.4355 231.878 79.272Z" fill="#9286FF" fill-opacity="0.193018" stroke="#ECEAFE"/>
<path opacity="0.504464" fill-rule="evenodd" clip-rule="evenodd" d="M205.852 73.7574C206.448 72.3519 206.172 70.89 205.235 70.4922C204.298 70.0945 203.055 70.9115 202.458 72.317C201.862 73.7226 202.138 75.1845 203.075 75.5823C204.012 75.98 205.255 75.163 205.852 73.7574Z" fill="white"/>
<path d="M132.262 87.956C132.011 87.8399 131.721 87.8453 131.475 87.9709L100.869 103.577C100.568 103.731 100.378 104.041 100.378 104.379L100.378 173.517C100.378 173.837 100.548 174.133 100.824 174.294L156.987 207.148L166.461 246.912L183.615 236.155L180.557 224.337L182.76 222.779L204.36 209.923L219.927 218.092L226.854 213.494L207.949 167.453L166.131 143.464L140.278 91.8845C140.187 91.7024 140.036 91.5567 139.852 91.4711L132.262 87.956Z" fill="#F8FCFF"/>
<path d="M113.177 173.458V197.925L166.737 229.933L159.162 200.901L113.177 173.458Z" fill="#5C66C0"/>
<path fill-rule="evenodd" clip-rule="evenodd" d="M130.314 190.288L157.968 206.656L162.543 224.71L123.079 201.126L130.314 190.288Z" stroke="#467FFF" stroke-width="0.5"/>
<path fill-rule="evenodd" clip-rule="evenodd" d="M119.092 187.742L105.77 196.087V215.632L144.777 237.605V202.423L119.092 187.742Z" stroke="#467FFF" stroke-width="0.5"/>
<path fill-rule="evenodd" clip-rule="evenodd" d="M130.314 190.288L122.983 201.27C122.797 201.548 122.693 201.872 122.681 202.206L121.597 232.851C121.574 233.509 121.912 234.127 122.478 234.463L151.817 251.859C152.364 252.183 153.042 252.195 153.599 251.89L167.502 244.279L157.968 206.656L130.314 190.288Z" stroke="#467FFF" stroke-width="0.5"/>
<path fill-rule="evenodd" clip-rule="evenodd" d="M158.077 207.085L167.503 244.279L153.6 251.89C153.409 251.994 153.203 252.062 152.994 252.092L152.994 217.25C152.994 217.017 153.039 216.788 153.126 216.573L153.199 216.416L158.077 207.085Z" stroke="#467FFF" stroke-width="0.5"/>
<path d="M167.503 149.574L169.749 163.117L190.683 181.674L205.777 171.423L167.503 149.574Z" fill="#D0D4FF"/>
<path d="M114.489 108.635C113.71 109.053 113.298 109.933 113.476 110.799L125.109 167.559C125.214 168.07 125.515 168.52 125.947 168.813L160.627 192.32L175.109 241.479L183.659 236.4L171.306 185.837L131.864 161.841L119.451 115.252C119.216 114.373 119.605 113.447 120.396 112.998L138.001 103.008C139.042 102.417 140.365 102.867 140.831 103.97L159.359 147.895L201.077 172.353L219.927 218.092L226.854 213.494L207.948 167.453L166.13 143.464L140.378 94.7347L114.489 108.635Z" fill="#5C66C0"/>
<path d="M107.013 126.852C109.986 156.443 118.873 176.079 161.249 200.94L163.899 202.488C185.564 215.259 183.92 219.58 158.968 215.452L156.987 207.148L100.824 174.294C100.582 174.153 100.422 173.909 100.386 173.636L100.378 173.517V104.379C100.378 104.078 100.528 103.8 100.773 103.634L100.869 103.577L110.23 98.8033C107.117 107.854 106.044 117.204 107.013 126.852Z" fill="black" fill-opacity="0.161932"/>
<path d="M204.36 210.013L189.785 173.929L159.359 147.895L140.831 103.97C140.366 102.867 139.043 102.417 138.001 103.008L120.397 112.998C119.606 113.447 119.217 114.373 119.451 115.252L131.865 161.841L171.306 185.837L180.557 224.337L204.36 210.013Z" fill="#1B215B"/>
<path d="M141.189 93.7023L165.945 143.091C166.001 147.13 165.901 151.59 165.645 156.469L165.544 158.288L142.781 168.818L136.762 164.787C135.133 163.697 133.904 162.104 133.264 160.252L132.804 158.915C127.453 143.253 125.161 132.952 125.926 128.013C126.524 124.154 132.252 119.543 138.985 116.568C136.728 113.747 135.378 110.167 135.378 106.272C135.378 101.237 137.633 96.7288 141.189 93.7023Z" fill="black" fill-opacity="0.219542"/>
<path d="M127.925 127.522C126.678 135.575 134.027 164.633 139.236 166.819C144.445 169.004 164.543 161.288 164.543 161.288C164.543 161.288 166.637 125.845 158.202 118.737C149.767 111.63 129.173 119.469 127.925 127.522Z" fill="#959FFA"/>
<path d="M141.539 118.886L142.388 116.857C145.523 116.056 148.772 115.74 151.693 116.116L147.372 166.541L142.666 167.295C141.347 167.33 140.276 167.199 139.454 166.903L139.291 166.84L138.752 165.568C130.243 145.368 127.188 132.735 129.587 127.668C130.735 125.244 134.566 122.393 141.081 119.115L141.539 118.886L142.388 116.857L141.539 118.886Z" fill="black" fill-opacity="0.275213"/>
<path d="M169.541 120.291C168.256 120.324 167.459 121.704 168.073 122.834L170.735 127.735C171.355 128.878 172.952 128.99 173.725 127.944C174.144 127.379 174.189 126.62 173.841 126.008L171.083 121.161C170.769 120.609 170.176 120.274 169.541 120.291Z" fill="#959FFA"/>
<path d="M173.551 127.668L169.682 120.732C170.23 120.815 170.724 121.123 171.038 121.586L171.127 121.73L173.462 125.885C173.774 126.44 173.799 127.101 173.551 127.668L169.682 120.732L173.551 127.668Z" fill="#F8FCFF"/>
<path d="M162.73 118.088C162.73 118.088 167.793 119.083 168.769 120.656C169.745 122.229 182.661 139.937 183.888 140.978C185.114 142.018 196.44 150.805 197.139 152.705C197.838 154.604 199.119 155.609 199.119 155.609C199.119 155.609 193.571 160.679 192.854 160.291C192.136 159.903 190.987 160.875 187.62 158.946C184.254 157.017 174.226 147.9 174.226 147.9L168.537 140.738L162.73 118.088Z" fill="#380085"/>
<path d="M164.131 123.552L164.96 120.91L165.829 123.009C169.305 131.334 171.869 136.644 173.522 138.937L174.167 139.799C176.067 142.381 180.224 148.556 186.638 158.326L186.257 158.064C183.767 156.316 179.756 152.928 174.226 147.9L168.537 140.739L164.131 123.552Z" fill="black" fill-opacity="0.275213"/>
<path d="M149.377 117.37C149.377 117.37 132.685 125.896 132.685 128.761C132.685 131.625 141.031 152.011 141.031 155.731C141.031 157.528 140.75 161.182 140.189 166.693C140.071 167.851 171.306 185.837 171.306 185.837L172.509 194.052L177.131 192.322L171.603 182.061L182.377 187.507L202.957 176.272C202.957 176.272 173.414 165.558 172.509 163.288C171.603 161.017 173.486 160.29 173.486 159.228C173.486 158.167 166.529 119.859 163.873 118.614C161.218 117.37 149.377 117.37 149.377 117.37Z" fill="#733DFF"/>
<path d="M149.378 117.37L150.51 117.373C155.322 117.399 158.906 117.591 161.26 117.949C161.473 118.368 161.588 118.812 161.588 119.272C161.588 121.757 158.23 123.772 154.088 123.772C149.946 123.772 146.588 121.757 146.588 119.272C146.588 119.111 146.602 118.952 146.629 118.796L147.973 118.093C148.431 117.856 148.899 117.615 149.378 117.37Z" fill="black" fill-opacity="0.275213"/>
<path d="M171.016 180.744L187.035 184.964L182.378 187.507L171.603 182.061L171.016 180.744Z" fill="black" fill-opacity="0.275213"/>
<path d="M172.683 163.602C172.683 163.602 170.367 164.067 168.737 165.22C167.106 166.373 164.543 169.356 164.543 169.356C164.543 169.356 155.523 168.542 151.377 168.734C147.232 168.926 144.776 170.272 144.776 170.272L151.069 174.034C151.069 174.034 151.803 171.904 155.116 171.605C158.428 171.306 165.877 173.356 165.877 173.356C165.877 173.356 169.688 170.171 171.877 168.734C174.067 167.297 177.033 166.035 177.033 166.035L172.683 163.602Z" fill="#959FFA"/>
<path d="M139.69 132.873C143.782 142.111 148.659 149.454 154.322 154.902L154.809 155.364C160.68 160.856 164.551 165.982 166.423 170.742L170.431 185.333L163.053 181.06C147.743 172.144 140.122 167.355 140.189 166.693L140.468 163.871C140.843 159.915 141.031 157.201 141.031 155.731C141.031 154.17 139.561 149.673 137.854 144.768L139.69 132.873Z" fill="black" fill-opacity="0.275213"/>
<path d="M149.378 117.37C153.895 117.37 157.409 117.506 159.921 117.777C159.539 120.957 157.421 123.063 153.568 124.096C150.013 125.049 146.23 124.083 142.218 121.199C144.272 120.035 146.659 118.759 149.378 117.37Z" fill="#380085"/>
<path d="M158.757 181.68C158.009 182.036 157.653 182.9 157.933 183.679L167.501 210.348L157.017 215.45L152.529 182.328C152.429 181.589 152.85 180.878 153.546 180.612L170.858 173.974C171.287 173.809 171.771 174.003 171.967 174.419C172.174 174.857 171.988 175.38 171.55 175.588L158.757 181.68Z" fill="#1B215B" stroke="#E5EAED" stroke-width="0.514585"/>
<path d="M132.685 128.658C132.685 128.658 136.065 128.268 138.259 129.894C140.453 131.52 145.383 150.243 149.378 154.944C153.374 159.646 163.683 164.875 164.535 168.533C165.388 172.19 168.687 172.343 170.032 173.356C171.378 174.37 172.42 179.709 171.226 180.575C170.032 181.441 162.866 183.993 161.928 183.652C160.991 183.312 159.18 182.026 159.18 182.026C159.18 182.026 159.553 181.632 159.984 181.385C160.415 181.138 161.279 180.767 161.279 180.767C161.279 180.767 161.51 179.75 161.279 179.093C161.048 178.437 160.483 178.096 160.387 177.987C160.158 177.728 159.18 178.268 159.18 178.268C159.18 178.268 159.078 174.37 158.393 174.37C157.708 174.37 155.181 174.303 153.87 172.823C152.558 171.343 139.448 162.784 138.259 159.646C137.071 156.508 129.588 138.24 129.588 134.067C129.588 129.894 132.685 128.658 132.685 128.658Z" fill="#380085"/>
<path d="M142.725 158.84L143.234 159.224C145.608 161.053 151.489 166.179 160.878 174.602L158.84 174.97C158.721 174.57 158.572 174.37 158.393 174.37L158.203 174.368C157.363 174.352 155.265 174.202 154.026 172.988L153.87 172.823C152.558 171.343 139.448 162.784 138.259 159.646L137.601 157.958C135.884 153.599 131.925 143.631 130.302 137.765L131.121 139.384C136.944 150.85 140.812 157.335 142.725 158.84Z" fill="black" fill-opacity="0.275213"/>
<path d="M170.032 173.356C171.378 174.37 172.42 179.709 171.226 180.575C170.032 181.441 162.865 183.993 161.928 183.652C161.303 183.425 160.387 182.883 159.18 182.026C159.428 181.763 159.696 181.549 159.984 181.385C160.271 181.22 160.703 181.014 161.278 180.767C161.432 180.089 161.432 179.531 161.278 179.093C161.066 178.492 160.574 178.155 160.42 178.02L160.386 177.987C160.234 177.815 159.831 177.908 159.18 178.268L159.16 177.68C159.086 175.894 158.905 174.831 158.615 174.49L158.643 174.439C159.193 173.094 160.214 171.862 161.706 170.742C162.447 170.186 163.463 169.694 164.754 169.266C165.851 172.217 168.783 172.416 170.032 173.356Z" fill="#959FFA"/>
<path d="M145.401 137.779C145.159 138.021 145.057 138.371 145.133 138.706L146.624 145.319C146.756 145.906 147.372 146.245 147.939 146.044C150.257 145.221 155.804 143.283 158.978 142.44C162.524 141.498 167.635 140.52 168.923 140.279C169.122 140.241 169.303 140.145 169.446 140.002L169.747 139.701C170.036 139.412 170.12 138.976 169.959 138.6L167.796 133.557C167.622 133.151 167.205 132.907 166.766 132.963C165.19 133.163 161.359 133.686 158.036 134.435C155.75 134.95 147.868 136.746 146.289 137.105C146.105 137.147 145.941 137.239 145.808 137.372L145.401 137.779Z" fill="#959FFA"/>
<path d="M146.886 136.894C146.39 137.049 146.099 137.558 146.214 138.064L147.624 144.319C147.756 144.906 148.372 145.245 148.939 145.044C151.257 144.221 156.804 142.283 159.978 141.44C163.04 140.627 167.268 139.787 169.195 139.417C169.756 139.309 170.117 138.756 169.986 138.2L168.706 132.739C168.59 132.245 168.123 131.917 167.62 131.982C165.962 132.194 162.261 132.708 159.036 133.435C155.556 134.219 149.201 136.172 146.886 136.894Z" fill="#F8FCFF"/>
<path d="M151.377 122.639L150.658 124.451L154.533 129.14C154.791 129.452 155.212 129.578 155.599 129.458L158.252 128.638C158.667 128.509 158.952 128.127 158.956 127.692L158.958 127.479C158.959 127.361 158.94 127.243 158.9 127.131L156.618 120.772C156.618 120.772 155.499 121.666 154.544 122.006C153.59 122.346 151.377 122.639 151.377 122.639Z" fill="#380085"/>
<path d="M156.382 120.264L159.049 127.207C158.97 127.277 158.878 127.335 158.777 127.378L158.672 127.416L156.079 128.186C155.723 128.292 155.341 128.191 155.084 127.932L155.004 127.84L151.397 123.177L151.378 122.639L152.029 122.548C153.064 122.394 153.852 122.23 154.391 122.058L154.545 122.006C155.128 121.798 155.692 121.293 156.235 120.49L156.382 120.264Z" fill="#959FFA"/>
<path d="M146.4 120.744C146.4 120.744 148.8 122.66 150.72 122.873C152.64 123.085 157.17 121.643 156.287 119.176C155.405 116.71 155.978 116.859 155.978 116.859C155.978 116.859 157.956 117.103 159.191 115.933C160.426 114.763 160.647 110.886 159.919 109.206C159.191 107.526 156.229 100.09 154.946 98.8842C153.663 97.6785 151.799 97.001 149.673 97.5631C147.546 98.1252 141.407 99.4609 141.003 103.742C140.599 108.023 146.688 113.81 146.688 116.237C146.688 118.665 146.4 120.744 146.4 120.744Z" fill="#FFAF8A"/>
<path d="M151.378 115.423L152.212 115.771C152.888 116.046 153.513 116.283 154.088 116.483C154.803 116.732 155.38 116.858 155.82 116.863L155.862 116.861C155.627 116.957 155.769 117.728 156.287 119.176C156.454 119.644 156.427 120.074 156.26 120.464C155.427 120.226 154.54 119.591 153.599 118.558L153.163 118.068C152.198 116.959 151.603 116.077 151.378 115.423Z" fill="black" fill-opacity="0.175153"/>
<path d="M146.565 114.958C146.565 114.958 144.511 114.007 142.774 112.558C141.038 111.109 137.913 104.897 138.718 103.452C139.523 102.006 141.068 101.877 141.068 100.481C141.068 99.0851 144.321 96.3546 147.018 95.6704C149.714 94.9862 150.687 92.2278 151.694 92.2278C152.7 92.2278 155.085 98.1376 154.038 98.9789C152.991 99.8202 146.452 102.323 146.452 103.452C146.452 104.58 149.233 108.969 148.44 109.314C147.648 109.658 144.62 105.231 143.86 107.053C142.774 109.658 146.565 111.293 146.565 112.186C146.565 113.079 146.565 114.958 146.565 114.958Z" fill="#380085"/>
<path d="M165.878 107.272C165.878 116.109 158.714 123.272 149.878 123.272C141.041 123.272 133.878 116.109 133.878 107.272C133.878 98.4355 141.041 91.272 149.878 91.272C158.714 91.272 165.878 98.4355 165.878 107.272Z" fill="#9286FF" fill-opacity="0.193018" stroke="#ECEAFE"/>
<path opacity="0.504464" fill-rule="evenodd" clip-rule="evenodd" d="M139.852 102.757C140.448 101.352 140.172 99.89 139.235 99.4922C138.298 99.0945 137.055 99.9115 136.458 101.317C135.862 102.723 136.138 104.185 137.075 104.582C138.012 104.98 139.255 104.163 139.852 102.757Z" fill="white"/>
<path d="M156.71 208.171L163.312 193.155L273.086 130.187L287.181 140.916L285.244 171.59L180.054 235.272L156.71 208.171Z" fill="#D0D4FF"/>
<path d="M233.031 168.266L205.167 185.538C204.557 185.916 204.532 186.795 205.12 187.207L208.353 189.471C208.957 189.894 208.911 190.803 208.268 191.163L178.56 207.772" stroke="white" stroke-width="0.5"/>
<path d="M248.497 174.59L234.28 183.826C233.993 184.012 233.63 184.039 233.319 183.896L228.12 181.514C227.815 181.374 227.461 181.396 227.176 181.573L219.127 186.562C218.527 186.934 218.491 187.793 219.057 188.214L223.421 191.463C224.002 191.896 223.944 192.784 223.312 193.138L193.56 209.772" stroke="white" stroke-width="0.5"/>
<path d="M273.086 130.187L287.181 140.916L285.244 171.59L180.054 235.272L156.71 208.171L158.192 204.804C193.932 209.027 222.374 197.672 243.518 170.742C252.864 158.838 259.234 147.32 262.627 136.188L273.086 130.187Z" fill="#9593F3" fill-opacity="0.33143"/>
<path d="M197.208 153.897L197.467 154.076L198.1 153.762C200.458 152.614 202.051 152.114 202.878 152.262L203.086 152.308C204.638 152.696 208.736 154.623 207.847 155.115C207.226 155.46 205.885 155.658 203.824 155.711L204.396 155.941C206.872 156.964 208.023 157.86 207.847 158.629L207.805 158.779C207.296 160.373 203.551 167.295 201.079 165.74C199.372 164.666 197.129 162.842 194.35 160.269L193.645 160.003C194.094 158.95 194.547 157.965 195.003 157.05C195.481 156.091 196.216 155.039 197.208 153.897Z" fill="#959FFA"/>
<path d="M206.727 155.462L206.592 155.488C205.892 155.608 204.969 155.682 203.824 155.711C204.806 156.094 205.609 156.46 206.233 156.809L200.378 165.081L199.79 164.861C198.643 164.026 197.312 162.934 195.798 161.585L196.296 160.823C198.988 156.738 200.846 154.388 201.869 153.772C203.012 153.084 204.632 153.647 206.727 155.462Z" fill="black" fill-opacity="0.275213"/>
<path d="M203.194 154.834C203.486 154.366 204.103 154.223 204.572 154.516C205.04 154.809 205.182 155.425 204.89 155.894L204.36 156.742L202.664 155.682L203.194 154.834Z" fill="#FF3F87"/>
<path d="M201.391 156.094C201.909 155.298 202.97 155.063 203.775 155.566C204.602 156.083 204.844 157.177 204.312 157.994L197.015 169.21C196.497 170.006 195.437 170.241 194.631 169.738C193.804 169.221 193.562 168.127 194.094 167.31L201.391 156.094Z" fill="#1B215B" stroke="#E5EAED" stroke-width="0.514585"/>
<path d="M196.571 170.1C195.634 169.514 195.35 168.28 195.935 167.344L197.525 164.8C198.11 163.863 199.344 163.578 200.281 164.163L202.825 165.753L199.115 171.689L196.571 170.1Z" fill="#B0C1E9"/>
<path d="M198.421 171.174C199.337 171.791 200.956 170.993 202.037 169.39C203.118 167.788 203.252 165.988 202.336 165.37C201.42 164.753 199.801 165.551 198.721 167.154C197.64 168.756 197.506 170.556 198.421 171.174Z" fill="#1B215B"/>
<path d="M200.118 169.852C199.427 169.401 199.224 168.48 199.662 167.781C200.105 167.071 201.04 166.855 201.749 167.299L204.906 169.271L202.127 171.165L200.118 169.852Z" fill="#5C66C0"/>
<path d="M207.878 158.293C207.878 158.293 199.875 153.986 200.851 156.742C202.075 160.201 199.859 162.105 199.703 162.763C199.35 164.252 202.457 165.624 202.457 165.624C202.457 165.624 204.185 164.881 205.532 162.763C206.878 160.645 207.878 158.293 207.878 158.293Z" fill="#959FFA"/>
<path d="M207.421 158.335C207.471 158.361 207.516 158.385 207.556 158.406C207.533 158.458 207.505 158.52 207.473 158.591C207.359 158.842 207.193 159.2 206.985 159.624C206.569 160.472 205.987 161.581 205.321 162.629C204.666 163.658 203.92 164.352 203.339 164.788C203.049 165.006 202.8 165.159 202.626 165.257C202.557 165.296 202.5 165.326 202.456 165.348C202.448 165.344 202.441 165.341 202.433 165.337C202.351 165.298 202.234 165.24 202.095 165.166C201.815 165.017 201.448 164.805 201.094 164.549C200.738 164.292 200.407 163.999 200.188 163.693C199.969 163.387 199.881 163.096 199.946 162.821C199.956 162.78 199.989 162.707 200.062 162.586C200.114 162.499 200.177 162.402 200.251 162.289C200.276 162.25 200.303 162.21 200.33 162.167C200.543 161.839 200.806 161.416 201.025 160.9C201.466 159.861 201.722 158.455 201.086 156.658C200.974 156.34 201.026 156.222 201.062 156.18C201.11 156.125 201.239 156.064 201.53 156.072C202.095 156.086 202.967 156.35 203.908 156.717C204.838 157.079 205.801 157.528 206.533 157.888C206.898 158.067 207.206 158.224 207.421 158.335Z" stroke="white" stroke-opacity="0.264751" stroke-width="0.5"/>
<path d="M250.727 178.729L220.803 160.566L220.885 143.589L259.303 120.91L285.037 149.464L250.727 178.729Z" fill="#D0D4FF"/>
<path d="M238.306 132.873L262.244 157.884" stroke="white" stroke-width="0.5"/>
<path d="M271.658 153.365L258.375 138.589C257.825 137.977 257.706 137.091 258.074 136.356L260.332 131.849C260.708 131.1 260.576 130.196 260.003 129.585L254.809 124.043" stroke="white" stroke-width="0.5"/>
<path d="M261.378 171.541L245.898 155.32C245.651 155.06 245.283 154.953 244.935 155.039L242.522 155.637C242.182 155.721 241.823 155.621 241.576 155.374L226.737 140.574" stroke="white" stroke-width="0.5"/>
<path d="M264.769 126.975L285.037 149.464L250.727 178.729L241.557 173.164C242.216 172.374 242.87 171.566 243.518 170.742C255.467 155.522 262.551 140.933 264.769 126.975Z" fill="#9593F3" fill-opacity="0.33143"/>
<path d="M220.882 144.17L251.253 178.291L250.727 178.729L220.803 160.566L220.882 144.17Z" fill="#1B215B"/>
<mask id="path-129-inside-1_41_10323" fill="white">
<path fill-rule="evenodd" clip-rule="evenodd" d="M292.378 150.272C292.378 82.6171 237.533 27.772 169.878 27.772C102.223 27.772 47.3779 82.6171 47.3779 150.272C47.3779 217.927 102.223 272.772 169.878 272.772C237.533 272.772 292.378 217.927 292.378 150.272ZM100.378 124.272C100.378 77.604 138.21 39.772 184.878 39.772C231.546 39.772 269.378 77.604 269.378 124.272C269.378 170.94 231.546 208.772 184.878 208.772C138.21 208.772 100.378 170.94 100.378 124.272Z"/>
</mask>
<path fill-rule="evenodd" clip-rule="evenodd" d="M292.378 150.272C292.378 82.6171 237.533 27.772 169.878 27.772C102.223 27.772 47.3779 82.6171 47.3779 150.272C47.3779 217.927 102.223 272.772 169.878 272.772C237.533 272.772 292.378 217.927 292.378 150.272ZM100.378 124.272C100.378 77.604 138.21 39.772 184.878 39.772C231.546 39.772 269.378 77.604 269.378 124.272C269.378 170.94 231.546 208.772 184.878 208.772C138.21 208.772 100.378 170.94 100.378 124.272Z" fill="#F8FCFF"/>
<path d="M169.878 28.772C236.981 28.772 291.378 83.1694 291.378 150.272H293.378C293.378 82.0649 238.085 26.772 169.878 26.772V28.772ZM48.3779 150.272C48.3779 83.1694 102.775 28.772 169.878 28.772V26.772C101.671 26.772 46.3779 82.0649 46.3779 150.272H48.3779ZM169.878 271.772C102.775 271.772 48.3779 217.375 48.3779 150.272H46.3779C46.3779 218.479 101.671 273.772 169.878 273.772V271.772ZM291.378 150.272C291.378 217.375 236.981 271.772 169.878 271.772V273.772C238.085 273.772 293.378 218.479 293.378 150.272H291.378ZM184.878 38.772C137.658 38.772 99.3779 77.0517 99.3779 124.272H101.378C101.378 78.1563 138.762 40.772 184.878 40.772V38.772ZM270.378 124.272C270.378 77.0517 232.098 38.772 184.878 38.772V40.772C230.994 40.772 268.378 78.1563 268.378 124.272H270.378ZM184.878 209.772C232.098 209.772 270.378 171.492 270.378 124.272H268.378C268.378 170.388 230.994 207.772 184.878 207.772V209.772ZM99.3779 124.272C99.3779 171.492 137.658 209.772 184.878 209.772V207.772C138.762 207.772 101.378 170.388 101.378 124.272H99.3779Z" fill="#E9EBFF" mask="url(#path-129-inside-1_41_10323)"/>
<path d="M268.877 188.772C273.593 188.772 277.582 191.88 278.908 196.16L284.956 192.36C267.79 239.282 222.744 272.772 169.877 272.772C168.012 272.772 166.157 272.73 164.312 272.648L165.897 271.94C176.873 267.01 185.366 262.658 191.377 258.88C197.851 254.812 203.52 250.107 208.384 244.764C204.832 243.08 202.377 239.463 202.377 235.272C202.377 229.473 207.078 224.772 212.877 224.772C218.317 224.772 222.79 228.908 223.324 234.206C232.787 231.483 240.238 227.978 245.679 223.692C251.14 219.389 256.953 214.176 263.116 208.053C260.262 206.176 258.377 202.944 258.377 199.272C258.377 193.473 263.078 188.772 268.877 188.772Z" fill="#9593F3" fill-opacity="0.33143"/>
<path d="M212.878 243.772C217.572 243.772 221.378 239.966 221.378 235.272C221.378 230.578 217.572 226.772 212.878 226.772C208.184 226.772 204.378 230.578 204.378 235.272C204.378 239.966 208.184 243.772 212.878 243.772Z" fill="#733DFF"/>
<path d="M268.878 207.772C273.572 207.772 277.378 203.966 277.378 199.272C277.378 194.578 273.572 190.772 268.878 190.772C264.184 190.772 260.378 194.578 260.378 199.272C260.378 203.966 264.184 207.772 268.878 207.772Z" fill="#733DFF"/>
<path fill-rule="evenodd" clip-rule="evenodd" d="M277.378 125.772C277.378 74.4096 235.74 32.772 184.378 32.772C133.015 32.772 91.3779 74.4096 91.3779 125.772C91.3779 177.135 133.015 218.772 184.378 218.772C235.74 218.772 277.378 177.135 277.378 125.772ZM100.378 124.272C100.378 77.604 138.21 39.772 184.878 39.772C231.546 39.772 269.378 77.604 269.378 124.272C269.378 170.94 231.546 208.772 184.878 208.772C138.21 208.772 100.378 170.94 100.378 124.272Z" fill="#733DFF"/>
<path d="M175.441 193.543C174.342 193.026 174.28 191.487 175.333 190.884L218.53 166.142C219.032 165.855 219.655 165.882 220.131 166.211L223.197 168.338C223.497 168.546 223.48 168.995 223.166 169.18L179.658 194.802C179.231 195.053 178.707 195.078 178.259 194.867L175.441 193.543Z" fill="#FF3F87" stroke="white"/>
<path d="M268.878 124.272C268.878 170.664 231.27 208.272 184.878 208.272C138.486 208.272 100.878 170.664 100.878 124.272C100.878 77.8801 138.486 40.272 184.878 40.272C231.27 40.272 268.878 77.8801 268.878 124.272Z" fill="#9286FF" fill-opacity="0.193018" stroke="#ECEAFE"/>
<path d="M82.3779 123.769C82.3779 141.955 59.4232 153.915 61.3159 170.272L61.4514 171.386C63.4856 187.322 69.4613 202.086 77.0411 206.605C84.7972 211.23 98.1489 209.872 107.81 221.786C112.933 228.102 118.054 242.024 123.176 263.55C78.6865 245.193 47.3779 201.389 47.3779 150.272C47.3779 126.034 54.4171 103.441 66.5626 84.4242C77.1069 100.343 82.3779 113.458 82.3779 123.769Z" fill="#9593F3" fill-opacity="0.33143"/>
<path d="M213.878 240.772C216.915 240.772 219.378 238.31 219.378 235.272C219.378 232.234 216.915 229.772 213.878 229.772C210.84 229.772 208.378 232.234 208.378 235.272C208.378 238.31 210.84 240.772 213.878 240.772Z" fill="#1B215B"/>
<path d="M269.878 204.772C272.915 204.772 275.378 202.31 275.378 199.272C275.378 196.234 272.915 193.772 269.878 193.772C266.84 193.772 264.378 196.234 264.378 199.272C264.378 202.31 266.84 204.772 269.878 204.772Z" fill="#1B215B"/>
<path d="M217.628 235.272C217.628 237.895 215.501 240.022 212.878 240.022C210.255 240.022 208.128 237.895 208.128 235.272C208.128 232.649 210.255 230.522 212.878 230.522C215.501 230.522 217.628 232.649 217.628 235.272Z" fill="#0D134E" stroke="#959FFA" stroke-width="1.5"/>
<path d="M273.628 199.272C273.628 201.895 271.501 204.022 268.878 204.022C266.255 204.022 264.128 201.895 264.128 199.272C264.128 196.649 266.255 194.522 268.878 194.522C271.501 194.522 273.628 196.649 273.628 199.272Z" fill="#0D134E" stroke="#959FFA" stroke-width="1.5"/>
<path d="M22.9327 140.806L27.1577 131.738L17.6484 133.756L22.9327 140.806Z" fill="#D0D4FF"/>
<path d="M24.6665 95.9738L28.7918 104.977L24.3697 110.033L21.0161 102.961L24.6665 95.9738Z" fill="#D0D4FF"/>
<path d="M60.8288 97.2365C68.9241 97.5168 76.2653 102.064 80.1221 109.187C84.0544 116.45 83.7383 125.303 79.3294 132.287C74.9797 139.176 67.2853 143.279 59.1417 143.016L37.0866 142.303C36.3275 142.278 35.6478 141.826 35.3322 141.135L32.6718 135.312L21.7124 135.197L23.5089 138.885C24.1614 140.224 23.1728 141.781 21.683 141.76L20.4655 141.743C19.7333 141.733 19.0653 141.324 18.724 140.676L7.41814 119.218C7.08408 118.584 7.11478 117.82 7.49862 117.215L20.4844 96.7408C20.8651 96.1406 21.5357 95.7875 22.2459 95.8133L23.4977 95.8588C24.9674 95.9121 25.8788 97.4801 25.1978 98.7835L23.0152 102.961L33.5173 103.516L36.7517 97.5163C37.1125 96.847 37.8215 96.4402 38.5814 96.4665L60.8288 97.2365Z" fill="#733DFF"/>
<path d="M25.8164 118.61L40.6263 118.824C48.7372 118.941 55.7955 124.402 57.9455 132.223C59.0316 136.174 57.7857 140.216 55.0409 142.884" stroke="#491A9C"/>
<path d="M63.3685 125.814C61.5226 122.343 61.6996 118.101 63.7932 114.767C68.2774 107.625 78.8675 107.859 82.8575 115.262C84.7417 118.758 84.5655 123.047 82.4365 126.405C77.9181 133.533 67.3194 133.245 63.3685 125.814Z" fill="#F8FCFF" stroke="#E9EBFF"/>
<path d="M80.934 124.907L81.5649 125.312L80.934 124.907L80.7138 125.249C77.1789 130.75 69.0304 130.414 65.9607 124.641C64.5135 121.919 64.6422 118.629 66.2975 116.029L66.5163 115.685C70.025 110.173 78.1668 110.469 81.2674 116.22C82.7449 118.96 82.6172 122.287 80.934 124.907Z" fill="#0D134E" stroke="#959FFA" stroke-width="1.5"/>
<path d="M21.9655 134.858L14.2599 119.51C13.9624 118.918 13.978 118.216 14.3016 117.637L22.7055 102.605L33.3511 103.094L25.397 118.173L32.8016 135.171L21.9655 134.858Z" fill="black" fill-opacity="0.275213"/>
<path d="M26.2283 102.752L18.4292 117.862C18.1381 118.426 18.132 119.095 18.4127 119.664L25.9643 134.975L21.9655 134.858L14.2599 119.51C13.9624 118.918 13.978 118.216 14.3016 117.637L22.7055 102.605L26.2283 102.752Z" fill="#FF3F87"/>
<path d="M72.1197 273.012L70.7247 263.106L63.8486 269.978L72.1197 273.012Z" fill="#D0D4FF"/>
<path d="M48.6121 234.63L56.9752 239.933L56.0203 246.582L49.3562 242.478L48.6121 234.63Z" fill="#D0D4FF"/>
<path d="M79.9509 216.082C86.8929 211.908 95.5263 211.723 102.64 215.597C109.894 219.546 114.451 227.143 114.556 235.401C114.661 243.548 110.442 251.18 103.469 255.395L84.5839 266.809C83.9338 267.201 83.1174 267.192 82.4764 266.785L77.0739 263.35L67.8201 269.223L71.335 271.337C72.6118 272.105 72.6307 273.949 71.3699 274.743L70.3396 275.392C69.72 275.782 68.9367 275.803 68.2976 275.445L47.1292 263.607C46.5037 263.257 46.1132 262.6 46.1055 261.883L45.8453 237.639C45.8377 236.929 46.2078 236.267 46.8175 235.902L47.8921 235.259C49.1537 234.503 50.772 235.321 50.9109 236.786L51.3558 241.478L60.4658 236.224L59.9106 229.43C59.8486 228.672 60.2217 227.945 60.8733 227.553L79.9509 216.082Z" fill="#733DFF"/>
<path d="M61.9219 252.727L75.3679 244.268C81.7633 240.245 90.004 240.708 95.9089 245.422C99.6119 248.378 100.771 253.34 99.0745 257.517" stroke="#491A9C"/>
<path d="M97.6461 238.624C94.2073 236.718 92.0455 233.064 91.9854 229.128C91.8565 220.696 100.866 215.125 108.244 219.16C111.728 221.065 113.916 224.758 113.96 228.735C114.052 237.173 105.007 242.704 97.6461 238.624Z" fill="#F8FCFF" stroke="#E9EBFF"/>
<path d="M111.865 228.011L112.615 228.008L111.865 228.011L111.867 228.419C111.898 234.957 104.881 239.113 99.1623 235.943C96.4663 234.449 94.7825 231.62 94.7545 228.537L94.7508 228.13C94.6915 221.597 101.681 217.41 107.413 220.544C110.145 222.038 111.85 224.898 111.865 228.011Z" fill="#0D134E" stroke="#959FFA" stroke-width="1.5"/>
<path d="M67.8479 268.801L52.1112 259.59L50.9019 241.347L60.0967 235.96L61.6382 252.938L77.1063 263.161L67.8479 268.801Z" fill="black" fill-opacity="0.275213"/>
<path d="M53.9369 239.553L55.7256 257.477L71.2654 266.721L67.8479 268.801L52.1112 259.59L50.9019 241.347L53.9369 239.553Z" fill="#FF3F87"/>
</svg>
