<svg width="1442" height="575" viewBox="0 0 1442 575" fill="none" xmlns="http://www.w3.org/2000/svg">
<g opacity="0.49914" filter="url(#filter0_f_1_3)">
<path d="M1286.8 41.8771C1286.8 41.8771 1284.36 40.5148 1282.57 38.7252C1280.78 36.9355 1280.56 34.7185 1280.56 34.7185C1280.56 34.7185 1279.64 37.6589 1278.07 39.2348C1276.49 40.8108 1274.32 41.8771 1274.32 41.8771C1274.32 41.8771 1276.84 43.0499 1278.55 44.7568C1280.26 46.4638 1280.56 49.0357 1280.56 49.0357C1280.56 49.0357 1280.77 46.5621 1282.57 44.7568C1284.38 42.9516 1286.8 41.8771 1286.8 41.8771Z" fill="#D3D8FF" fill-opacity="0.8"/>
</g>
<g filter="url(#filter1_f_1_3)">
<path d="M1154.44 60.7441C1154.44 60.7441 1153.56 60.2488 1152.91 59.598C1152.26 58.9472 1152.17 58.141 1152.17 58.141C1152.17 58.141 1151.84 59.2102 1151.27 59.7833C1150.69 60.3564 1149.91 60.7441 1149.91 60.7441C1149.91 60.7441 1150.82 61.1706 1151.44 61.7913C1152.06 62.412 1152.17 63.3473 1152.17 63.3473C1152.17 63.3473 1152.25 62.4478 1152.91 61.7913C1153.56 61.1349 1154.44 60.7441 1154.44 60.7441Z" fill="#D3D8FF" fill-opacity="0.8"/>
</g>
<g filter="url(#filter2_f_1_3)">
<path d="M1264.88 97.5577C1264.88 97.5577 1264 97.0624 1263.35 96.4116C1262.7 95.7608 1262.61 94.9546 1262.61 94.9546C1262.61 94.9546 1262.28 96.0238 1261.71 96.5969C1261.13 97.17 1260.35 97.5577 1260.35 97.5577C1260.35 97.5577 1261.26 97.9842 1261.88 98.6049C1262.5 99.2256 1262.61 100.161 1262.61 100.161C1262.61 100.161 1262.69 99.2614 1263.35 98.6049C1264 97.9485 1264.88 97.5577 1264.88 97.5577Z" fill="#D3D8FF" fill-opacity="0.8"/>
</g>
<g opacity="0.394206" filter="url(#filter3_f_1_3)">
<path d="M1127.75 115.965C1127.75 115.965 1126.87 115.469 1126.22 114.818C1125.57 114.168 1125.49 113.361 1125.49 113.361C1125.49 113.361 1125.15 114.431 1124.58 115.004C1124.01 115.577 1123.22 115.965 1123.22 115.965C1123.22 115.965 1124.13 116.391 1124.75 117.012C1125.38 117.632 1125.49 118.568 1125.49 118.568C1125.49 118.568 1125.56 117.668 1126.22 117.012C1126.87 116.355 1127.75 115.965 1127.75 115.965Z" fill="#D3D8FF" fill-opacity="0.8"/>
</g>
<g opacity="0.394206" filter="url(#filter4_f_1_3)">
<path d="M1008.11 69.9475C1008.11 69.9475 1007.22 69.4521 1006.57 68.8014C1005.92 68.1506 1005.84 67.3444 1005.84 67.3444C1005.84 67.3444 1005.51 68.4136 1004.94 68.9867C1004.36 69.5598 1003.57 69.9475 1003.57 69.9475C1003.57 69.9475 1004.49 70.374 1005.11 70.9947C1005.73 71.6154 1005.84 72.5506 1005.84 72.5506C1005.84 72.5506 1005.92 71.6512 1006.57 70.9947C1007.23 70.3382 1008.11 69.9475 1008.11 69.9475Z" fill="#D3D8FF" fill-opacity="0.8"/>
</g>
<g opacity="0.394206" filter="url(#filter5_f_1_3)">
<path d="M1063.33 13.8066C1063.33 13.8066 1062.44 13.3113 1061.79 12.6605C1061.14 12.0097 1061.06 11.2035 1061.06 11.2035C1061.06 11.2035 1060.73 12.2727 1060.16 12.8458C1059.58 13.4189 1058.79 13.8066 1058.79 13.8066C1058.79 13.8066 1059.71 14.2331 1060.33 14.8538C1060.95 15.4745 1061.06 16.4098 1061.06 16.4098C1061.06 16.4098 1061.14 15.5103 1061.79 14.8538C1062.45 14.1974 1063.33 13.8066 1063.33 13.8066Z" fill="#D3D8FF" fill-opacity="0.8"/>
</g>
<g opacity="0.394206" filter="url(#filter6_f_1_3)">
<path d="M1026.52 125.168C1026.52 125.168 1025.63 124.673 1024.98 124.022C1024.33 123.371 1024.25 122.565 1024.25 122.565C1024.25 122.565 1023.91 123.634 1023.34 124.207C1022.77 124.78 1021.98 125.168 1021.98 125.168C1021.98 125.168 1022.9 125.595 1023.52 126.215C1024.14 126.836 1024.25 127.771 1024.25 127.771C1024.25 127.771 1024.32 126.872 1024.98 126.215C1025.64 125.559 1026.52 125.168 1026.52 125.168Z" fill="#D3D8FF" fill-opacity="0.8"/>
</g>
<g opacity="0.394206" filter="url(#filter7_f_1_3)">
<path d="M1440.67 226.406C1440.67 226.406 1439.78 225.91 1439.13 225.26C1438.48 224.609 1438.4 223.803 1438.4 223.803C1438.4 223.803 1438.06 224.872 1437.49 225.445C1436.92 226.018 1436.13 226.406 1436.13 226.406C1436.13 226.406 1437.05 226.832 1437.67 227.453C1438.29 228.074 1438.4 229.009 1438.4 229.009C1438.4 229.009 1438.47 228.109 1439.13 227.453C1439.79 226.797 1440.67 226.406 1440.67 226.406Z" fill="#D3D8FF" fill-opacity="0.8"/>
</g>
<g opacity="0.419968" filter="url(#filter8_f_1_3)">
<path d="M851.655 33.1338C851.655 33.1338 850.769 32.6384 850.119 31.9876C849.468 31.3369 849.386 30.5307 849.386 30.5307C849.386 30.5307 849.053 31.5999 848.48 32.173C847.906 32.746 847.118 33.1338 847.118 33.1338C847.118 33.1338 848.035 33.5603 848.656 34.181C849.276 34.8017 849.386 35.7369 849.386 35.7369C849.386 35.7369 849.462 34.8375 850.119 34.181C850.775 33.5245 851.655 33.1338 851.655 33.1338Z" fill="#D3D8FF" fill-opacity="0.8"/>
</g>
<g filter="url(#filter9_f_1_3)">
<path d="M851.655 60.7441C851.655 60.7441 850.769 60.2488 850.119 59.598C849.468 58.9472 849.386 58.141 849.386 58.141C849.386 58.141 849.053 59.2102 848.48 59.7833C847.906 60.3564 847.118 60.7441 847.118 60.7441C847.118 60.7441 848.035 61.1706 848.656 61.7913C849.276 62.412 849.386 63.3473 849.386 63.3473C849.386 63.3473 849.462 62.4478 850.119 61.7913C850.775 61.1349 851.655 60.7441 851.655 60.7441Z" fill="#D3D8FF" fill-opacity="0.8"/>
</g>
<g filter="url(#filter10_f_1_3)">
<path d="M778.028 60.7441C778.028 60.7441 777.143 60.2488 776.492 59.598C775.841 58.9472 775.76 58.141 775.76 58.141C775.76 58.141 775.426 59.2102 774.853 59.7833C774.28 60.3564 773.491 60.7441 773.491 60.7441C773.491 60.7441 774.408 61.1706 775.029 61.7913C775.65 62.412 775.76 63.3473 775.76 63.3473C775.76 63.3473 775.836 62.4478 776.492 61.7913C777.149 61.1349 778.028 60.7441 778.028 60.7441Z" fill="#D3D8FF" fill-opacity="0.8"/>
</g>
<g filter="url(#filter11_f_1_3)">
<path d="M649.182 97.5577C649.182 97.5577 648.296 97.0624 647.646 96.4116C646.995 95.7608 646.913 94.9546 646.913 94.9546C646.913 94.9546 646.58 96.0238 646.007 96.5969C645.434 97.17 644.645 97.5577 644.645 97.5577C644.645 97.5577 645.562 97.9842 646.183 98.6049C646.803 99.2256 646.913 100.161 646.913 100.161C646.913 100.161 646.989 99.2614 647.646 98.6049C648.302 97.9485 649.182 97.5577 649.182 97.5577Z" fill="#D3D8FF" fill-opacity="0.8"/>
</g>
<g filter="url(#filter12_f_1_3)">
<path d="M1247.61 181.309C1247.61 181.309 1246.28 180.566 1245.31 179.59C1244.33 178.614 1244.21 177.404 1244.21 177.404C1244.21 177.404 1243.71 179.008 1242.85 179.868C1241.99 180.727 1240.8 181.309 1240.8 181.309C1240.8 181.309 1242.18 181.949 1243.11 182.88C1244.04 183.811 1244.21 185.214 1244.21 185.214C1244.21 185.214 1244.32 183.865 1245.31 182.88C1246.29 181.895 1247.61 181.309 1247.61 181.309Z" fill="#D3D8FF" fill-opacity="0.8"/>
</g>
<g filter="url(#filter13_f_1_3)">
<path d="M1398.16 171.645C1398.16 171.645 1395.72 170.283 1393.93 168.494C1392.14 166.704 1391.92 164.487 1391.92 164.487C1391.92 164.487 1391 167.427 1389.43 169.003C1387.85 170.579 1385.68 171.645 1385.68 171.645C1385.68 171.645 1388.2 172.818 1389.91 174.525C1391.62 176.232 1391.92 178.804 1391.92 178.804C1391.92 178.804 1392.13 176.331 1393.93 174.525C1395.74 172.72 1398.16 171.645 1398.16 171.645Z" fill="#D3D8FF" fill-opacity="0.8"/>
</g>
<g opacity="0.322963" filter="url(#filter14_f_1_3)">
<path d="M910.384 98.0179C910.384 98.0179 907.949 96.6557 906.159 94.866C904.37 93.0764 904.146 90.8594 904.146 90.8594C904.146 90.8594 903.228 93.7997 901.652 95.3757C900.076 96.9516 897.907 98.0179 897.907 98.0179C897.907 98.0179 900.429 99.1908 902.136 100.898C903.843 102.605 904.146 105.177 904.146 105.177C904.146 105.177 904.354 102.703 906.159 100.898C907.965 99.0924 910.384 98.0179 910.384 98.0179Z" fill="#D3D8FF" fill-opacity="0.8"/>
</g>
<g opacity="0.670759" filter="url(#filter15_f_1_3)">
<path d="M689.505 23.4702C689.505 23.4702 687.07 22.108 685.28 20.3183C683.491 18.5287 683.267 16.3116 683.267 16.3116C683.267 16.3116 682.349 19.252 680.773 20.828C679.197 22.4039 677.028 23.4702 677.028 23.4702C677.028 23.4702 679.55 24.6431 681.257 26.35C682.964 28.0569 683.267 30.6288 683.267 30.6288C683.267 30.6288 683.475 28.1553 685.28 26.35C687.086 24.5447 689.505 23.4702 689.505 23.4702Z" fill="#D3D8FF" fill-opacity="0.8"/>
</g>
<g filter="url(#filter16_f_1_3)">
<path d="M981.635 51.5406C981.635 51.5406 980.307 50.7976 979.33 49.8214C978.354 48.8453 978.232 47.636 978.232 47.636C978.232 47.636 977.732 49.2398 976.872 50.0994C976.012 50.959 974.829 51.5406 974.829 51.5406C974.829 51.5406 976.205 52.1804 977.136 53.1114C978.067 54.0425 978.232 55.4453 978.232 55.4453C978.232 55.4453 978.346 54.0961 979.33 53.1114C980.315 52.1267 981.635 51.5406 981.635 51.5406Z" fill="#D3D8FF" fill-opacity="0.8"/>
</g>
<g filter="url(#filter17_f_1_3)">
<path d="M777.921 115.505C777.921 115.505 777.257 115.133 776.769 114.645C776.281 114.157 776.22 113.552 776.22 113.552C776.22 113.552 775.97 114.354 775.54 114.784C775.11 115.214 774.519 115.505 774.519 115.505C774.519 115.505 775.206 115.824 775.672 116.29C776.137 116.755 776.22 117.457 776.22 117.457C776.22 117.457 776.277 116.782 776.769 116.29C777.261 115.798 777.921 115.505 777.921 115.505Z" fill="#D3D8FF" fill-opacity="0.8"/>
</g>
<g filter="url(#filter18_f_1_3)">
<path d="M521.256 59.8237C521.256 59.8237 520.371 59.3284 519.72 58.6776C519.069 58.0268 518.988 57.2206 518.988 57.2206C518.988 57.2206 518.654 58.2898 518.081 58.8629C517.508 59.436 516.719 59.8237 516.719 59.8237C516.719 59.8237 517.636 60.2502 518.257 60.8709C518.878 61.4916 518.988 62.4269 518.988 62.4269C518.988 62.4269 519.063 61.5274 519.72 60.8709C520.376 60.2145 521.256 59.8237 521.256 59.8237Z" fill="#D3D8FF" fill-opacity="0.8"/>
</g>
<g opacity="0.575823" filter="url(#filter19_f_1_3)">
<path d="M349.903 32.6736C349.903 32.6736 347.468 31.3113 345.679 29.5217C343.889 27.732 343.665 25.515 343.665 25.515C343.665 25.515 342.747 28.4554 341.171 30.0313C339.595 31.6073 337.427 32.6736 337.427 32.6736C337.427 32.6736 339.948 33.8464 341.655 35.5534C343.362 37.2603 343.665 39.8322 343.665 39.8322C343.665 39.8322 343.873 37.3587 345.679 35.5534C347.484 33.7481 349.903 32.6736 349.903 32.6736Z" fill="#D3D8FF" fill-opacity="0.8"/>
</g>
<g filter="url(#filter20_f_1_3)">
<path d="M414.326 87.8942C414.326 87.8942 411.891 86.5319 410.102 84.7423C408.312 82.9526 408.088 80.7356 408.088 80.7356C408.088 80.7356 407.17 83.676 405.594 85.2519C404.018 86.8279 401.849 87.8942 401.849 87.8942C401.849 87.8942 404.371 89.067 406.078 90.7739C407.785 92.4809 408.088 95.0528 408.088 95.0528C408.088 95.0528 408.296 92.5792 410.102 90.7739C411.907 88.9686 414.326 87.8942 414.326 87.8942Z" fill="#D3D8FF" fill-opacity="0.8"/>
</g>
<g opacity="0.393438" filter="url(#filter21_f_1_3)">
<path d="M221.057 115.505C221.057 115.505 218.622 114.142 216.833 112.353C215.043 110.563 214.819 108.346 214.819 108.346C214.819 108.346 213.901 111.286 212.325 112.862C210.749 114.438 208.581 115.505 208.581 115.505C208.581 115.505 211.103 116.677 212.809 118.384C214.516 120.091 214.819 122.663 214.819 122.663C214.819 122.663 215.027 120.19 216.833 118.384C218.638 116.579 221.057 115.505 221.057 115.505Z" fill="#D3D8FF" fill-opacity="0.8"/>
</g>
<g filter="url(#filter22_f_1_3)">
<path d="M254.575 88.3544C254.575 88.3544 253.247 87.6113 252.27 86.6351C251.294 85.659 251.172 84.4497 251.172 84.4497C251.172 84.4497 250.671 86.0535 249.812 86.9131C248.952 87.7728 247.769 88.3544 247.769 88.3544C247.769 88.3544 249.145 88.9941 250.076 89.9252C251.007 90.8562 251.172 92.2591 251.172 92.2591C251.172 92.2591 251.286 90.9099 252.27 89.9252C253.255 88.9405 254.575 88.3544 254.575 88.3544Z" fill="#D3D8FF" fill-opacity="0.8"/>
</g>
<g filter="url(#filter23_f_1_3)">
<path d="M226.75 69.0272C226.75 69.0272 225.865 68.5319 225.214 67.8811C224.564 67.2303 224.482 66.4241 224.482 66.4241C224.482 66.4241 224.148 67.4933 223.575 68.0664C223.002 68.6395 222.214 69.0272 222.214 69.0272C222.214 69.0272 223.131 69.4537 223.751 70.0744C224.372 70.6951 224.482 71.6303 224.482 71.6303C224.482 71.6303 224.558 70.7309 225.214 70.0744C225.871 69.4179 226.75 69.0272 226.75 69.0272Z" fill="#D3D8FF" fill-opacity="0.8"/>
</g>
<g filter="url(#filter24_f_1_3)">
<path d="M83.0075 69.4873C83.0075 69.4873 80.5729 68.125 78.7833 66.3354C76.9937 64.5458 76.7694 62.3287 76.7694 62.3287C76.7694 62.3287 75.8518 65.2691 74.2759 66.8451C72.7 68.421 70.5312 69.4873 70.5312 69.4873C70.5312 69.4873 73.0531 70.6602 74.76 72.3671C76.4669 74.074 76.7694 76.6459 76.7694 76.6459C76.7694 76.6459 76.978 74.1724 78.7833 72.3671C80.5886 70.5618 83.0075 69.4873 83.0075 69.4873Z" fill="#D3D8FF" fill-opacity="0.8"/>
</g>
<g filter="url(#filter25_f_1_3)">
<path d="M89.9425 14.2667C89.9425 14.2667 88.3932 13.3998 87.2543 12.261C86.1155 11.1221 85.9727 9.71126 85.9727 9.71126C85.9727 9.71126 85.3888 11.5824 84.386 12.5853C83.3831 13.5882 82.003 14.2667 82.003 14.2667C82.003 14.2667 83.6078 15.0131 84.694 16.0993C85.7802 17.1855 85.9727 18.8222 85.9727 18.8222C85.9727 18.8222 86.1055 17.2481 87.2543 16.0993C88.4031 14.9505 89.9425 14.2667 89.9425 14.2667Z" fill="#D3D8FF" fill-opacity="0.8"/>
</g>
<g filter="url(#filter26_f_1_3)">
<path d="M4.84431 51.0804C4.84431 51.0804 4.18032 50.7089 3.69224 50.2208C3.20416 49.7327 3.14299 49.1281 3.14299 49.1281C3.14299 49.1281 2.89276 49.93 2.46296 50.3598C2.03316 50.7896 1.44168 51.0804 1.44168 51.0804C1.44168 51.0804 2.12946 51.4003 2.59497 51.8658C3.06049 52.3314 3.14299 53.0328 3.14299 53.0328C3.14299 53.0328 3.1999 52.3582 3.69224 51.8658C4.18459 51.3735 4.84431 51.0804 4.84431 51.0804Z" fill="#D3D8FF" fill-opacity="0.8"/>
</g>
<g opacity="0.700823" filter="url(#filter27_f_1_3)">
<path d="M566.352 4.60315C566.352 4.60315 565.467 4.10778 564.816 3.45699C564.165 2.8062 564.084 2 564.084 2C564.084 2 563.75 3.06924 563.177 3.64232C562.604 4.2154 561.815 4.60315 561.815 4.60315C561.815 4.60315 562.732 5.02964 563.353 5.65035C563.974 6.27106 564.084 7.2063 564.084 7.2063C564.084 7.2063 564.16 6.30683 564.816 5.65035C565.473 4.99387 566.352 4.60315 566.352 4.60315Z" fill="#D3D8FF" fill-opacity="0.8"/>
</g>
<g opacity="0.49914" filter="url(#filter28_f_1_3)">
<path d="M155.201 207.539C155.201 207.539 157.636 206.176 159.425 204.387C161.215 202.597 161.439 200.38 161.439 200.38C161.439 200.38 162.357 203.321 163.933 204.897C165.509 206.472 167.678 207.539 167.678 207.539C167.678 207.539 165.156 208.712 163.449 210.419C161.742 212.125 161.439 214.697 161.439 214.697C161.439 214.697 161.231 212.224 159.425 210.419C157.62 208.613 155.201 207.539 155.201 207.539Z" fill="#D3D8FF" fill-opacity="0.8"/>
</g>
<g filter="url(#filter29_f_1_3)">
<path d="M287.557 226.406C287.557 226.406 288.443 225.91 289.093 225.26C289.744 224.609 289.826 223.803 289.826 223.803C289.826 223.803 290.159 224.872 290.732 225.445C291.305 226.018 292.094 226.406 292.094 226.406C292.094 226.406 291.177 226.832 290.556 227.453C289.936 228.074 289.826 229.009 289.826 229.009C289.826 229.009 289.75 228.109 289.093 227.453C288.437 226.797 287.557 226.406 287.557 226.406Z" fill="#D3D8FF" fill-opacity="0.8"/>
</g>
<g filter="url(#filter30_f_1_3)">
<path d="M177.117 263.219C177.117 263.219 178.003 262.724 178.654 262.073C179.304 261.423 179.386 260.616 179.386 260.616C179.386 260.616 179.72 261.686 180.293 262.259C180.866 262.832 181.654 263.219 181.654 263.219C181.654 263.219 180.737 263.646 180.117 264.267C179.496 264.887 179.386 265.823 179.386 265.823C179.386 265.823 179.31 264.923 178.654 264.267C177.997 263.61 177.117 263.219 177.117 263.219Z" fill="#D3D8FF" fill-opacity="0.8"/>
</g>
<g opacity="0.394206" filter="url(#filter31_f_1_3)">
<path d="M314.246 281.626C314.246 281.626 315.132 281.131 315.782 280.48C316.433 279.829 316.515 279.023 316.515 279.023C316.515 279.023 316.848 280.093 317.422 280.666C317.995 281.239 318.783 281.626 318.783 281.626C318.783 281.626 317.866 282.053 317.245 282.674C316.625 283.294 316.515 284.23 316.515 284.23C316.515 284.23 316.439 283.33 315.782 282.674C315.126 282.017 314.246 281.626 314.246 281.626Z" fill="#D3D8FF" fill-opacity="0.8"/>
</g>
<g opacity="0.394206" filter="url(#filter32_f_1_3)">
<path d="M433.89 235.609C433.89 235.609 434.775 235.114 435.426 234.463C436.077 233.812 436.158 233.006 436.158 233.006C436.158 233.006 436.492 234.075 437.065 234.648C437.638 235.222 438.427 235.609 438.427 235.609C438.427 235.609 437.51 236.036 436.889 236.656C436.268 237.277 436.158 238.212 436.158 238.212C436.158 238.212 436.082 237.313 435.426 236.656C434.769 236 433.89 235.609 433.89 235.609Z" fill="#D3D8FF" fill-opacity="0.8"/>
</g>
<g opacity="0.394206" filter="url(#filter33_f_1_3)">
<path d="M378.67 179.468C378.67 179.468 379.555 178.973 380.206 178.322C380.857 177.671 380.938 176.865 380.938 176.865C380.938 176.865 381.272 177.934 381.845 178.508C382.418 179.081 383.207 179.468 383.207 179.468C383.207 179.468 382.29 179.895 381.669 180.516C381.048 181.136 380.938 182.071 380.938 182.071C380.938 182.071 380.862 181.172 380.206 180.516C379.549 179.859 378.67 179.468 378.67 179.468Z" fill="#D3D8FF" fill-opacity="0.8"/>
</g>
<g opacity="0.394206" filter="url(#filter34_f_1_3)">
<path d="M415.483 290.83C415.483 290.83 416.368 290.334 417.019 289.684C417.67 289.033 417.751 288.227 417.751 288.227C417.751 288.227 418.085 289.296 418.658 289.869C419.231 290.442 420.02 290.83 420.02 290.83C420.02 290.83 419.103 291.256 418.482 291.877C417.862 292.498 417.751 293.433 417.751 293.433C417.751 293.433 417.676 292.533 417.019 291.877C416.363 291.221 415.483 290.83 415.483 290.83Z" fill="#D3D8FF" fill-opacity="0.8"/>
</g>
<g opacity="0.394206" filter="url(#filter35_f_1_3)">
<path d="M1.3347 392.068C1.3347 392.068 2.22002 391.572 2.87079 390.921C3.52156 390.271 3.60312 389.464 3.60312 389.464C3.60312 389.464 3.93677 390.534 4.50984 391.107C5.08291 391.68 5.87154 392.068 5.87154 392.068C5.87154 392.068 4.95451 392.494 4.33382 393.115C3.71313 393.735 3.60312 394.671 3.60312 394.671C3.60312 394.671 3.52725 393.771 2.87079 393.115C2.21433 392.458 1.3347 392.068 1.3347 392.068Z" fill="#D3D8FF" fill-opacity="0.8"/>
</g>
<g opacity="0.419968" filter="url(#filter36_f_1_3)">
<path d="M590.345 198.796C590.345 198.796 591.231 198.3 591.881 197.649C592.532 196.999 592.614 196.192 592.614 196.192C592.614 196.192 592.947 197.262 593.52 197.835C594.094 198.408 594.882 198.796 594.882 198.796C594.882 198.796 593.965 199.222 593.344 199.843C592.724 200.463 592.614 201.399 592.614 201.399C592.614 201.399 592.538 200.499 591.881 199.843C591.225 199.186 590.345 198.796 590.345 198.796Z" fill="#D3D8FF" fill-opacity="0.8"/>
</g>
<g filter="url(#filter37_f_1_3)">
<path d="M590.345 226.406C590.345 226.406 591.231 225.91 591.881 225.26C592.532 224.609 592.614 223.803 592.614 223.803C592.614 223.803 592.947 224.872 593.52 225.445C594.094 226.018 594.882 226.406 594.882 226.406C594.882 226.406 593.965 226.832 593.344 227.453C592.724 228.074 592.614 229.009 592.614 229.009C592.614 229.009 592.538 228.109 591.881 227.453C591.225 226.797 590.345 226.406 590.345 226.406Z" fill="#D3D8FF" fill-opacity="0.8"/>
</g>
<g filter="url(#filter38_f_1_3)">
<path d="M663.972 226.406C663.972 226.406 664.857 225.91 665.508 225.26C666.159 224.609 666.24 223.803 666.24 223.803C666.24 223.803 666.574 224.872 667.147 225.445C667.72 226.018 668.509 226.406 668.509 226.406C668.509 226.406 667.592 226.832 666.971 227.453C666.35 228.074 666.24 229.009 666.24 229.009C666.24 229.009 666.164 228.109 665.508 227.453C664.851 226.797 663.972 226.406 663.972 226.406Z" fill="#D3D8FF" fill-opacity="0.8"/>
</g>
<g filter="url(#filter39_f_1_3)">
<path d="M792.818 263.219C792.818 263.219 793.704 262.724 794.354 262.073C795.005 261.423 795.087 260.616 795.087 260.616C795.087 260.616 795.42 261.686 795.993 262.259C796.566 262.832 797.355 263.219 797.355 263.219C797.355 263.219 796.438 263.646 795.817 264.267C795.197 264.887 795.087 265.823 795.087 265.823C795.087 265.823 795.011 264.923 794.354 264.267C793.698 263.61 792.818 263.219 792.818 263.219Z" fill="#D3D8FF" fill-opacity="0.8"/>
</g>
<g filter="url(#filter40_f_1_3)">
<path d="M194.39 346.971C194.39 346.971 195.718 346.228 196.694 345.252C197.67 344.275 197.793 343.066 197.793 343.066C197.793 343.066 198.293 344.67 199.153 345.53C200.012 346.389 201.195 346.971 201.195 346.971C201.195 346.971 199.82 347.611 198.889 348.542C197.958 349.473 197.793 350.875 197.793 350.875C197.793 350.875 197.679 349.526 196.694 348.542C195.709 347.557 194.39 346.971 194.39 346.971Z" fill="#D3D8FF" fill-opacity="0.8"/>
</g>
<g filter="url(#filter41_f_1_3)">
<path d="M43.8419 337.307C43.8419 337.307 46.2765 335.945 48.0661 334.155C49.8557 332.366 50.08 330.149 50.08 330.149C50.08 330.149 50.9976 333.089 52.5735 334.665C54.1494 336.241 56.3182 337.307 56.3182 337.307C56.3182 337.307 53.7963 338.48 52.0894 340.187C50.3825 341.894 50.08 344.466 50.08 344.466C50.08 344.466 49.8714 341.992 48.0661 340.187C46.2609 338.382 43.8419 337.307 43.8419 337.307Z" fill="#D3D8FF" fill-opacity="0.8"/>
</g>
<g opacity="0.322963" filter="url(#filter42_f_1_3)">
<path d="M531.616 263.68C531.616 263.68 534.051 262.317 535.841 260.528C537.63 258.738 537.854 256.521 537.854 256.521C537.854 256.521 538.772 259.461 540.348 261.037C541.924 262.613 544.093 263.68 544.093 263.68C544.093 263.68 541.571 264.853 539.864 266.559C538.157 268.266 537.854 270.838 537.854 270.838C537.854 270.838 537.646 268.365 535.841 266.559C534.035 264.754 531.616 263.68 531.616 263.68Z" fill="#D3D8FF" fill-opacity="0.8"/>
</g>
<g opacity="0.670759" filter="url(#filter43_f_1_3)">
<path d="M752.495 189.132C752.495 189.132 754.93 187.77 756.72 185.98C758.509 184.19 758.733 181.973 758.733 181.973C758.733 181.973 759.651 184.914 761.227 186.49C762.803 188.066 764.972 189.132 764.972 189.132C764.972 189.132 762.45 190.305 760.743 192.012C759.036 193.719 758.733 196.291 758.733 196.291C758.733 196.291 758.525 193.817 756.72 192.012C754.914 190.206 752.495 189.132 752.495 189.132Z" fill="#D3D8FF" fill-opacity="0.8"/>
</g>
<g filter="url(#filter44_f_1_3)">
<path d="M460.365 217.202C460.365 217.202 461.693 216.459 462.67 215.483C463.646 214.507 463.768 213.298 463.768 213.298C463.768 213.298 464.268 214.902 465.128 215.761C465.988 216.621 467.171 217.202 467.171 217.202C467.171 217.202 465.795 217.842 464.864 218.773C463.933 219.704 463.768 221.107 463.768 221.107C463.768 221.107 463.654 219.758 462.67 218.773C461.685 217.788 460.365 217.202 460.365 217.202Z" fill="#D3D8FF" fill-opacity="0.8"/>
</g>
<g filter="url(#filter45_f_1_3)">
<path d="M664.079 281.166C664.079 281.166 664.743 280.795 665.231 280.307C665.719 279.819 665.781 279.214 665.781 279.214C665.781 279.214 666.031 280.016 666.461 280.446C666.89 280.875 667.482 281.166 667.482 281.166C667.482 281.166 666.794 281.486 666.329 281.952C665.863 282.417 665.781 283.119 665.781 283.119C665.781 283.119 665.724 282.444 665.231 281.952C664.739 281.459 664.079 281.166 664.079 281.166Z" fill="#D3D8FF" fill-opacity="0.8"/>
</g>
<g filter="url(#filter46_f_1_3)">
<path d="M920.744 225.485C920.744 225.485 921.629 224.99 922.28 224.339C922.931 223.689 923.012 222.882 923.012 222.882C923.012 222.882 923.346 223.952 923.919 224.525C924.492 225.098 925.281 225.485 925.281 225.485C925.281 225.485 924.364 225.912 923.743 226.533C923.122 227.153 923.012 228.089 923.012 228.089C923.012 228.089 922.937 227.189 922.28 226.533C921.624 225.876 920.744 225.485 920.744 225.485Z" fill="#D3D8FF" fill-opacity="0.8"/>
</g>
<g opacity="0.575823" filter="url(#filter47_f_1_3)">
<path d="M1092.1 198.335C1092.1 198.335 1094.53 196.973 1096.32 195.183C1098.11 193.394 1098.34 191.177 1098.34 191.177C1098.34 191.177 1099.25 194.117 1100.83 195.693C1102.4 197.269 1104.57 198.335 1104.57 198.335C1104.57 198.335 1102.05 199.508 1100.34 201.215C1098.64 202.922 1098.34 205.494 1098.34 205.494C1098.34 205.494 1098.13 203.02 1096.32 201.215C1094.52 199.41 1092.1 198.335 1092.1 198.335Z" fill="#D3D8FF" fill-opacity="0.8"/>
</g>
<g filter="url(#filter48_f_1_3)">
<path d="M1027.67 253.556C1027.67 253.556 1030.11 252.194 1031.9 250.404C1033.69 248.614 1033.91 246.397 1033.91 246.397C1033.91 246.397 1034.83 249.338 1036.41 250.914C1037.98 252.49 1040.15 253.556 1040.15 253.556C1040.15 253.556 1037.63 254.729 1035.92 256.436C1034.21 258.143 1033.91 260.715 1033.91 260.715C1033.91 260.715 1033.7 258.241 1031.9 256.436C1030.09 254.63 1027.67 253.556 1027.67 253.556Z" fill="#D3D8FF" fill-opacity="0.8"/>
</g>
<g opacity="0.393438" filter="url(#filter49_f_1_3)">
<path d="M1220.94 281.166C1220.94 281.166 1223.38 279.804 1225.17 278.014C1226.96 276.225 1227.18 274.008 1227.18 274.008C1227.18 274.008 1228.1 276.948 1229.67 278.524C1231.25 280.1 1233.42 281.166 1233.42 281.166C1233.42 281.166 1230.9 282.339 1229.19 284.046C1227.48 285.753 1227.18 288.325 1227.18 288.325C1227.18 288.325 1226.97 285.851 1225.17 284.046C1223.36 282.241 1220.94 281.166 1220.94 281.166Z" fill="#D3D8FF" fill-opacity="0.8"/>
</g>
<g filter="url(#filter50_f_1_3)">
<path d="M1187.43 254.016C1187.43 254.016 1188.75 253.273 1189.73 252.297C1190.71 251.321 1190.83 250.111 1190.83 250.111C1190.83 250.111 1191.33 251.715 1192.19 252.575C1193.05 253.434 1194.23 254.016 1194.23 254.016C1194.23 254.016 1192.86 254.656 1191.92 255.587C1190.99 256.518 1190.83 257.921 1190.83 257.921C1190.83 257.921 1190.71 256.572 1189.73 255.587C1188.74 254.602 1187.43 254.016 1187.43 254.016Z" fill="#D3D8FF" fill-opacity="0.8"/>
</g>
<g filter="url(#filter51_f_1_3)">
<path d="M1215.25 234.689C1215.25 234.689 1216.13 234.194 1216.79 233.543C1217.44 232.892 1217.52 232.086 1217.52 232.086C1217.52 232.086 1217.85 233.155 1218.42 233.728C1219 234.301 1219.79 234.689 1219.79 234.689C1219.79 234.689 1218.87 235.115 1218.25 235.736C1217.63 236.357 1217.52 237.292 1217.52 237.292C1217.52 237.292 1217.44 236.393 1216.79 235.736C1216.13 235.08 1215.25 234.689 1215.25 234.689Z" fill="#D3D8FF" fill-opacity="0.8"/>
</g>
<g filter="url(#filter52_f_1_3)">
<path d="M1358.99 235.149C1358.99 235.149 1361.43 233.787 1363.22 231.997C1365.01 230.208 1365.23 227.991 1365.23 227.991C1365.23 227.991 1366.15 230.931 1367.72 232.507C1369.3 234.083 1371.47 235.149 1371.47 235.149C1371.47 235.149 1368.95 236.322 1367.24 238.029C1365.53 239.736 1365.23 242.308 1365.23 242.308C1365.23 242.308 1365.02 239.834 1363.22 238.029C1361.41 236.224 1358.99 235.149 1358.99 235.149Z" fill="#D3D8FF" fill-opacity="0.8"/>
</g>
<g filter="url(#filter53_f_1_3)">
<path d="M1352.06 179.929C1352.06 179.929 1353.61 179.062 1354.75 177.923C1355.88 176.784 1356.03 175.373 1356.03 175.373C1356.03 175.373 1356.61 177.244 1357.61 178.247C1358.62 179.25 1360 179.929 1360 179.929C1360 179.929 1358.39 180.675 1357.31 181.761C1356.22 182.847 1356.03 184.484 1356.03 184.484C1356.03 184.484 1355.89 182.91 1354.75 181.761C1353.6 180.612 1352.06 179.929 1352.06 179.929Z" fill="#D3D8FF" fill-opacity="0.8"/>
</g>
<g filter="url(#filter54_f_1_3)">
<path d="M1437.16 216.742C1437.16 216.742 1437.82 216.371 1438.31 215.883C1438.8 215.395 1438.86 214.79 1438.86 214.79C1438.86 214.79 1439.11 215.592 1439.54 216.022C1439.97 216.451 1440.56 216.742 1440.56 216.742C1440.56 216.742 1439.87 217.062 1439.41 217.528C1438.94 217.993 1438.86 218.695 1438.86 218.695C1438.86 218.695 1438.8 218.02 1438.31 217.528C1437.82 217.035 1437.16 216.742 1437.16 216.742Z" fill="#D3D8FF" fill-opacity="0.8"/>
</g>
<g opacity="0.700823" filter="url(#filter55_f_1_3)">
<path d="M875.648 170.265C875.648 170.265 876.533 169.77 877.184 169.119C877.835 168.468 877.916 167.662 877.916 167.662C877.916 167.662 878.25 168.731 878.823 169.304C879.396 169.877 880.185 170.265 880.185 170.265C880.185 170.265 879.268 170.691 878.647 171.312C878.026 171.933 877.916 172.868 877.916 172.868C877.916 172.868 877.84 171.969 877.184 171.312C876.527 170.656 875.648 170.265 875.648 170.265Z" fill="#D3D8FF" fill-opacity="0.8"/>
</g>
<g opacity="0.49914" filter="url(#filter56_f_1_3)">
<path d="M1286.8 386.085C1286.8 386.085 1284.36 384.723 1282.57 382.933C1280.78 381.144 1280.56 378.927 1280.56 378.927C1280.56 378.927 1279.64 381.867 1278.07 383.443C1276.49 385.019 1274.32 386.085 1274.32 386.085C1274.32 386.085 1276.84 387.258 1278.55 388.965C1280.26 390.672 1280.56 393.244 1280.56 393.244C1280.56 393.244 1280.77 390.77 1282.57 388.965C1284.38 387.16 1286.8 386.085 1286.8 386.085Z" fill="#D3D8FF" fill-opacity="0.8"/>
</g>
<g filter="url(#filter57_f_1_3)">
<path d="M1154.44 404.952C1154.44 404.952 1153.56 404.457 1152.91 403.806C1152.26 403.155 1152.17 402.349 1152.17 402.349C1152.17 402.349 1151.84 403.419 1151.27 403.992C1150.69 404.565 1149.91 404.952 1149.91 404.952C1149.91 404.952 1150.82 405.379 1151.44 406C1152.06 406.62 1152.17 407.556 1152.17 407.556C1152.17 407.556 1152.25 406.656 1152.91 406C1153.56 405.343 1154.44 404.952 1154.44 404.952Z" fill="#D3D8FF" fill-opacity="0.8"/>
</g>
<g filter="url(#filter58_f_1_3)">
<path d="M1264.88 441.766C1264.88 441.766 1264 441.271 1263.35 440.62C1262.7 439.969 1262.61 439.163 1262.61 439.163C1262.61 439.163 1262.28 440.232 1261.71 440.805C1261.13 441.378 1260.35 441.766 1260.35 441.766C1260.35 441.766 1261.26 442.193 1261.88 442.813C1262.5 443.434 1262.61 444.369 1262.61 444.369C1262.61 444.369 1262.69 443.47 1263.35 442.813C1264 442.157 1264.88 441.766 1264.88 441.766Z" fill="#D3D8FF" fill-opacity="0.8"/>
</g>
<g opacity="0.394206" filter="url(#filter59_f_1_3)">
<path d="M1127.75 460.173C1127.75 460.173 1126.87 459.678 1126.22 459.027C1125.57 458.376 1125.49 457.57 1125.49 457.57C1125.49 457.57 1125.15 458.639 1124.58 459.212C1124.01 459.785 1123.22 460.173 1123.22 460.173C1123.22 460.173 1124.13 460.599 1124.75 461.22C1125.38 461.841 1125.49 462.776 1125.49 462.776C1125.49 462.776 1125.56 461.877 1126.22 461.22C1126.87 460.564 1127.75 460.173 1127.75 460.173Z" fill="#D3D8FF" fill-opacity="0.8"/>
</g>
<g opacity="0.394206" filter="url(#filter60_f_1_3)">
<path d="M1008.11 414.156C1008.11 414.156 1007.22 413.66 1006.57 413.01C1005.92 412.359 1005.84 411.553 1005.84 411.553C1005.84 411.553 1005.51 412.622 1004.94 413.195C1004.36 413.768 1003.57 414.156 1003.57 414.156C1003.57 414.156 1004.49 414.582 1005.11 415.203C1005.73 415.824 1005.84 416.759 1005.84 416.759C1005.84 416.759 1005.92 415.859 1006.57 415.203C1007.23 414.547 1008.11 414.156 1008.11 414.156Z" fill="#D3D8FF" fill-opacity="0.8"/>
</g>
<g opacity="0.394206" filter="url(#filter61_f_1_3)">
<path d="M1063.33 358.015C1063.33 358.015 1062.44 357.52 1061.79 356.869C1061.14 356.218 1061.06 355.412 1061.06 355.412C1061.06 355.412 1060.73 356.481 1060.16 357.054C1059.58 357.627 1058.79 358.015 1058.79 358.015C1058.79 358.015 1059.71 358.441 1060.33 359.062C1060.95 359.683 1061.06 360.618 1061.06 360.618C1061.06 360.618 1061.14 359.719 1061.79 359.062C1062.45 358.406 1063.33 358.015 1063.33 358.015Z" fill="#D3D8FF" fill-opacity="0.8"/>
</g>
<g opacity="0.394206" filter="url(#filter62_f_1_3)">
<path d="M1026.52 469.376C1026.52 469.376 1025.63 468.881 1024.98 468.23C1024.33 467.579 1024.25 466.773 1024.25 466.773C1024.25 466.773 1023.91 467.842 1023.34 468.416C1022.77 468.989 1021.98 469.376 1021.98 469.376C1021.98 469.376 1022.9 469.803 1023.52 470.424C1024.14 471.044 1024.25 471.979 1024.25 471.979C1024.25 471.979 1024.32 471.08 1024.98 470.424C1025.64 469.767 1026.52 469.376 1026.52 469.376Z" fill="#D3D8FF" fill-opacity="0.8"/>
</g>
<g opacity="0.394206" filter="url(#filter63_f_1_3)">
<path d="M1440.67 570.614C1440.67 570.614 1439.78 570.119 1439.13 569.468C1438.48 568.817 1438.4 568.011 1438.4 568.011C1438.4 568.011 1438.06 569.08 1437.49 569.653C1436.92 570.226 1436.13 570.614 1436.13 570.614C1436.13 570.614 1437.05 571.041 1437.67 571.661C1438.29 572.282 1438.4 573.217 1438.4 573.217C1438.4 573.217 1438.47 572.318 1439.13 571.661C1439.79 571.005 1440.67 570.614 1440.67 570.614Z" fill="#D3D8FF" fill-opacity="0.8"/>
</g>
<g opacity="0.419968" filter="url(#filter64_f_1_3)">
<path d="M851.655 377.342C851.655 377.342 850.769 376.847 850.119 376.196C849.468 375.545 849.386 374.739 849.386 374.739C849.386 374.739 849.053 375.808 848.48 376.381C847.906 376.954 847.118 377.342 847.118 377.342C847.118 377.342 848.035 377.769 848.656 378.389C849.276 379.01 849.386 379.945 849.386 379.945C849.386 379.945 849.462 379.046 850.119 378.389C850.775 377.733 851.655 377.342 851.655 377.342Z" fill="#D3D8FF" fill-opacity="0.8"/>
</g>
<g filter="url(#filter65_f_1_3)">
<path d="M851.655 404.952C851.655 404.952 850.769 404.457 850.119 403.806C849.468 403.155 849.386 402.349 849.386 402.349C849.386 402.349 849.053 403.419 848.48 403.992C847.906 404.565 847.118 404.952 847.118 404.952C847.118 404.952 848.035 405.379 848.656 406C849.276 406.62 849.386 407.556 849.386 407.556C849.386 407.556 849.462 406.656 850.119 406C850.775 405.343 851.655 404.952 851.655 404.952Z" fill="#D3D8FF" fill-opacity="0.8"/>
</g>
<g filter="url(#filter66_f_1_3)">
<path d="M778.028 404.952C778.028 404.952 777.143 404.457 776.492 403.806C775.841 403.155 775.76 402.349 775.76 402.349C775.76 402.349 775.426 403.419 774.853 403.992C774.28 404.565 773.491 404.952 773.491 404.952C773.491 404.952 774.408 405.379 775.029 406C775.65 406.62 775.76 407.556 775.76 407.556C775.76 407.556 775.836 406.656 776.492 406C777.149 405.343 778.028 404.952 778.028 404.952Z" fill="#D3D8FF" fill-opacity="0.8"/>
</g>
<g filter="url(#filter67_f_1_3)">
<path d="M649.182 441.766C649.182 441.766 648.296 441.271 647.646 440.62C646.995 439.969 646.913 439.163 646.913 439.163C646.913 439.163 646.58 440.232 646.007 440.805C645.434 441.378 644.645 441.766 644.645 441.766C644.645 441.766 645.562 442.193 646.183 442.813C646.803 443.434 646.913 444.369 646.913 444.369C646.913 444.369 646.989 443.47 647.646 442.813C648.302 442.157 649.182 441.766 649.182 441.766Z" fill="#D3D8FF" fill-opacity="0.8"/>
</g>
<g filter="url(#filter68_f_1_3)">
<path d="M1247.61 525.517C1247.61 525.517 1246.28 524.774 1245.31 523.798C1244.33 522.822 1244.21 521.613 1244.21 521.613C1244.21 521.613 1243.71 523.216 1242.85 524.076C1241.99 524.936 1240.8 525.517 1240.8 525.517C1240.8 525.517 1242.18 526.157 1243.11 527.088C1244.04 528.019 1244.21 529.422 1244.21 529.422C1244.21 529.422 1244.32 528.073 1245.31 527.088C1246.29 526.103 1247.61 525.517 1247.61 525.517Z" fill="#D3D8FF" fill-opacity="0.8"/>
</g>
<g filter="url(#filter69_f_1_3)">
<path d="M1398.16 515.854C1398.16 515.854 1395.72 514.491 1393.93 512.702C1392.14 510.912 1391.92 508.695 1391.92 508.695C1391.92 508.695 1391 511.635 1389.43 513.211C1387.85 514.787 1385.68 515.854 1385.68 515.854C1385.68 515.854 1388.2 517.027 1389.91 518.733C1391.62 520.44 1391.92 523.012 1391.92 523.012C1391.92 523.012 1392.13 520.539 1393.93 518.733C1395.74 516.928 1398.16 515.854 1398.16 515.854Z" fill="#D3D8FF" fill-opacity="0.8"/>
</g>
<g opacity="0.322963" filter="url(#filter70_f_1_3)">
<path d="M910.384 442.226C910.384 442.226 907.949 440.864 906.159 439.074C904.37 437.285 904.146 435.068 904.146 435.068C904.146 435.068 903.228 438.008 901.652 439.584C900.076 441.16 897.907 442.226 897.907 442.226C897.907 442.226 900.429 443.399 902.136 445.106C903.843 446.813 904.146 449.385 904.146 449.385C904.146 449.385 904.354 446.911 906.159 445.106C907.965 443.301 910.384 442.226 910.384 442.226Z" fill="#D3D8FF" fill-opacity="0.8"/>
</g>
<g opacity="0.670759" filter="url(#filter71_f_1_3)">
<path d="M689.505 367.678C689.505 367.678 687.07 366.316 685.28 364.527C683.491 362.737 683.267 360.52 683.267 360.52C683.267 360.52 682.349 363.46 680.773 365.036C679.197 366.612 677.028 367.678 677.028 367.678C677.028 367.678 679.55 368.851 681.257 370.558C682.964 372.265 683.267 374.837 683.267 374.837C683.267 374.837 683.475 372.364 685.28 370.558C687.086 368.753 689.505 367.678 689.505 367.678Z" fill="#D3D8FF" fill-opacity="0.8"/>
</g>
<g filter="url(#filter72_f_1_3)">
<path d="M981.635 395.749C981.635 395.749 980.307 395.006 979.33 394.03C978.354 393.054 978.232 391.844 978.232 391.844C978.232 391.844 977.732 393.448 976.872 394.308C976.012 395.167 974.829 395.749 974.829 395.749C974.829 395.749 976.205 396.389 977.136 397.32C978.067 398.251 978.232 399.654 978.232 399.654C978.232 399.654 978.346 398.304 979.33 397.32C980.315 396.335 981.635 395.749 981.635 395.749Z" fill="#D3D8FF" fill-opacity="0.8"/>
</g>
<g filter="url(#filter73_f_1_3)">
<path d="M777.921 459.713C777.921 459.713 777.257 459.341 776.769 458.853C776.281 458.365 776.22 457.76 776.22 457.76C776.22 457.76 775.97 458.562 775.54 458.992C775.11 459.422 774.519 459.713 774.519 459.713C774.519 459.713 775.206 460.033 775.672 460.498C776.137 460.964 776.22 461.665 776.22 461.665C776.22 461.665 776.277 460.991 776.769 460.498C777.261 460.006 777.921 459.713 777.921 459.713Z" fill="#D3D8FF" fill-opacity="0.8"/>
</g>
<g filter="url(#filter74_f_1_3)">
<path d="M521.256 404.032C521.256 404.032 520.371 403.537 519.72 402.886C519.069 402.235 518.988 401.429 518.988 401.429C518.988 401.429 518.654 402.498 518.081 403.071C517.508 403.644 516.719 404.032 516.719 404.032C516.719 404.032 517.636 404.458 518.257 405.079C518.878 405.7 518.988 406.635 518.988 406.635C518.988 406.635 519.063 405.736 519.72 405.079C520.376 404.423 521.256 404.032 521.256 404.032Z" fill="#D3D8FF" fill-opacity="0.8"/>
</g>
<g opacity="0.575823" filter="url(#filter75_f_1_3)">
<path d="M349.903 376.882C349.903 376.882 347.468 375.52 345.679 373.73C343.889 371.94 343.665 369.723 343.665 369.723C343.665 369.723 342.747 372.664 341.171 374.24C339.595 375.816 337.427 376.882 337.427 376.882C337.427 376.882 339.948 378.055 341.655 379.762C343.362 381.469 343.665 384.04 343.665 384.04C343.665 384.04 343.873 381.567 345.679 379.762C347.484 377.956 349.903 376.882 349.903 376.882Z" fill="#D3D8FF" fill-opacity="0.8"/>
</g>
<g filter="url(#filter76_f_1_3)">
<path d="M414.326 432.102C414.326 432.102 411.891 430.74 410.102 428.951C408.312 427.161 408.088 424.944 408.088 424.944C408.088 424.944 407.17 427.884 405.594 429.46C404.018 431.036 401.849 432.102 401.849 432.102C401.849 432.102 404.371 433.275 406.078 434.982C407.785 436.689 408.088 439.261 408.088 439.261C408.088 439.261 408.296 436.788 410.102 434.982C411.907 433.177 414.326 432.102 414.326 432.102Z" fill="#D3D8FF" fill-opacity="0.8"/>
</g>
<g opacity="0.393438" filter="url(#filter77_f_1_3)">
<path d="M221.057 459.713C221.057 459.713 218.622 458.351 216.833 456.561C215.043 454.771 214.819 452.554 214.819 452.554C214.819 452.554 213.901 455.495 212.325 457.071C210.749 458.646 208.581 459.713 208.581 459.713C208.581 459.713 211.103 460.886 212.809 462.593C214.516 464.299 214.819 466.871 214.819 466.871C214.819 466.871 215.027 464.398 216.833 462.593C218.638 460.787 221.057 459.713 221.057 459.713Z" fill="#D3D8FF" fill-opacity="0.8"/>
</g>
<g filter="url(#filter78_f_1_3)">
<path d="M254.575 432.563C254.575 432.563 253.247 431.82 252.27 430.843C251.294 429.867 251.172 428.658 251.172 428.658C251.172 428.658 250.671 430.262 249.812 431.121C248.952 431.981 247.769 432.563 247.769 432.563C247.769 432.563 249.145 433.202 250.076 434.133C251.007 435.065 251.172 436.467 251.172 436.467C251.172 436.467 251.286 435.118 252.27 434.133C253.255 433.149 254.575 432.563 254.575 432.563Z" fill="#D3D8FF" fill-opacity="0.8"/>
</g>
<g filter="url(#filter79_f_1_3)">
<path d="M226.75 413.235C226.75 413.235 225.865 412.74 225.214 412.089C224.564 411.439 224.482 410.632 224.482 410.632C224.482 410.632 224.148 411.702 223.575 412.275C223.002 412.848 222.214 413.235 222.214 413.235C222.214 413.235 223.131 413.662 223.751 414.283C224.372 414.903 224.482 415.839 224.482 415.839C224.482 415.839 224.558 414.939 225.214 414.283C225.871 413.626 226.75 413.235 226.75 413.235Z" fill="#D3D8FF" fill-opacity="0.8"/>
</g>
<g filter="url(#filter80_f_1_3)">
<path d="M83.0075 413.696C83.0075 413.696 80.5729 412.333 78.7833 410.544C76.9937 408.754 76.7694 406.537 76.7694 406.537C76.7694 406.537 75.8518 409.477 74.2759 411.053C72.7 412.629 70.5312 413.696 70.5312 413.696C70.5312 413.696 73.0531 414.868 74.76 416.575C76.4669 418.282 76.7694 420.854 76.7694 420.854C76.7694 420.854 76.978 418.381 78.7833 416.575C80.5886 414.77 83.0075 413.696 83.0075 413.696Z" fill="#D3D8FF" fill-opacity="0.8"/>
</g>
<g filter="url(#filter81_f_1_3)">
<path d="M89.9425 358.475C89.9425 358.475 88.3932 357.608 87.2543 356.469C86.1155 355.33 85.9727 353.92 85.9727 353.92C85.9727 353.92 85.3888 355.791 84.386 356.794C83.3831 357.796 82.003 358.475 82.003 358.475C82.003 358.475 83.6078 359.221 84.694 360.308C85.7802 361.394 85.9727 363.031 85.9727 363.031C85.9727 363.031 86.1055 361.456 87.2543 360.308C88.4031 359.159 89.9425 358.475 89.9425 358.475Z" fill="#D3D8FF" fill-opacity="0.8"/>
</g>
<g filter="url(#filter82_f_1_3)">
<path d="M4.84431 395.289C4.84431 395.289 4.18032 394.917 3.69224 394.429C3.20416 393.941 3.14299 393.336 3.14299 393.336C3.14299 393.336 2.89276 394.138 2.46296 394.568C2.03316 394.998 1.44168 395.289 1.44168 395.289C1.44168 395.289 2.12946 395.609 2.59497 396.074C3.06049 396.54 3.14299 397.241 3.14299 397.241C3.14299 397.241 3.1999 396.567 3.69224 396.074C4.18459 395.582 4.84431 395.289 4.84431 395.289Z" fill="#D3D8FF" fill-opacity="0.8"/>
</g>
<g opacity="0.700823" filter="url(#filter83_f_1_3)">
<path d="M566.352 348.811C566.352 348.811 565.467 348.316 564.816 347.665C564.165 347.014 564.084 346.208 564.084 346.208C564.084 346.208 563.75 347.277 563.177 347.851C562.604 348.424 561.815 348.811 561.815 348.811C561.815 348.811 562.732 349.238 563.353 349.859C563.974 350.479 564.084 351.415 564.084 351.415C564.084 351.415 564.16 350.515 564.816 349.859C565.473 349.202 566.352 348.811 566.352 348.811Z" fill="#D3D8FF" fill-opacity="0.8"/>
</g>
<defs>
<filter id="filter0_f_1_3" x="1271.6" y="32.0002" width="17.9129" height="19.7537" filterUnits="userSpaceOnUse" color-interpolation-filters="sRGB">
<feFlood flood-opacity="0" result="BackgroundImageFix"/>
<feBlend mode="normal" in="SourceGraphic" in2="BackgroundImageFix" result="shape"/>
<feGaussianBlur stdDeviation="1.35914" result="effect1_foregroundBlur_1_3"/>
</filter>
<filter id="filter1_f_1_3" x="1148.82" y="57.0537" width="6.71146" height="7.38092" filterUnits="userSpaceOnUse" color-interpolation-filters="sRGB">
<feFlood flood-opacity="0" result="BackgroundImageFix"/>
<feBlend mode="normal" in="SourceGraphic" in2="BackgroundImageFix" result="shape"/>
<feGaussianBlur stdDeviation="0.543656" result="effect1_foregroundBlur_1_3"/>
</filter>
<filter id="filter2_f_1_3" x="1259.26" y="93.8673" width="6.71143" height="7.38092" filterUnits="userSpaceOnUse" color-interpolation-filters="sRGB">
<feFlood flood-opacity="0" result="BackgroundImageFix"/>
<feBlend mode="normal" in="SourceGraphic" in2="BackgroundImageFix" result="shape"/>
<feGaussianBlur stdDeviation="0.543656" result="effect1_foregroundBlur_1_3"/>
</filter>
<filter id="filter3_f_1_3" x="1122.13" y="112.274" width="6.71146" height="7.38092" filterUnits="userSpaceOnUse" color-interpolation-filters="sRGB">
<feFlood flood-opacity="0" result="BackgroundImageFix"/>
<feBlend mode="normal" in="SourceGraphic" in2="BackgroundImageFix" result="shape"/>
<feGaussianBlur stdDeviation="0.543656" result="effect1_foregroundBlur_1_3"/>
</filter>
<filter id="filter4_f_1_3" x="1002.49" y="66.257" width="6.71146" height="7.38092" filterUnits="userSpaceOnUse" color-interpolation-filters="sRGB">
<feFlood flood-opacity="0" result="BackgroundImageFix"/>
<feBlend mode="normal" in="SourceGraphic" in2="BackgroundImageFix" result="shape"/>
<feGaussianBlur stdDeviation="0.543656" result="effect1_foregroundBlur_1_3"/>
</filter>
<filter id="filter5_f_1_3" x="1057.71" y="10.1162" width="6.71146" height="7.38092" filterUnits="userSpaceOnUse" color-interpolation-filters="sRGB">
<feFlood flood-opacity="0" result="BackgroundImageFix"/>
<feBlend mode="normal" in="SourceGraphic" in2="BackgroundImageFix" result="shape"/>
<feGaussianBlur stdDeviation="0.543656" result="effect1_foregroundBlur_1_3"/>
</filter>
<filter id="filter6_f_1_3" x="1020.89" y="121.478" width="6.71146" height="7.38092" filterUnits="userSpaceOnUse" color-interpolation-filters="sRGB">
<feFlood flood-opacity="0" result="BackgroundImageFix"/>
<feBlend mode="normal" in="SourceGraphic" in2="BackgroundImageFix" result="shape"/>
<feGaussianBlur stdDeviation="0.543656" result="effect1_foregroundBlur_1_3"/>
</filter>
<filter id="filter7_f_1_3" x="1435.04" y="222.715" width="6.71143" height="7.38092" filterUnits="userSpaceOnUse" color-interpolation-filters="sRGB">
<feFlood flood-opacity="0" result="BackgroundImageFix"/>
<feBlend mode="normal" in="SourceGraphic" in2="BackgroundImageFix" result="shape"/>
<feGaussianBlur stdDeviation="0.543656" result="effect1_foregroundBlur_1_3"/>
</filter>
<filter id="filter8_f_1_3" x="846.031" y="29.4433" width="6.71147" height="7.38092" filterUnits="userSpaceOnUse" color-interpolation-filters="sRGB">
<feFlood flood-opacity="0" result="BackgroundImageFix"/>
<feBlend mode="normal" in="SourceGraphic" in2="BackgroundImageFix" result="shape"/>
<feGaussianBlur stdDeviation="0.543656" result="effect1_foregroundBlur_1_3"/>
</filter>
<filter id="filter9_f_1_3" x="846.031" y="57.0537" width="6.71147" height="7.38092" filterUnits="userSpaceOnUse" color-interpolation-filters="sRGB">
<feFlood flood-opacity="0" result="BackgroundImageFix"/>
<feBlend mode="normal" in="SourceGraphic" in2="BackgroundImageFix" result="shape"/>
<feGaussianBlur stdDeviation="0.543656" result="effect1_foregroundBlur_1_3"/>
</filter>
<filter id="filter10_f_1_3" x="772.404" y="57.0537" width="6.71147" height="7.38092" filterUnits="userSpaceOnUse" color-interpolation-filters="sRGB">
<feFlood flood-opacity="0" result="BackgroundImageFix"/>
<feBlend mode="normal" in="SourceGraphic" in2="BackgroundImageFix" result="shape"/>
<feGaussianBlur stdDeviation="0.543656" result="effect1_foregroundBlur_1_3"/>
</filter>
<filter id="filter11_f_1_3" x="643.558" y="93.8673" width="6.71147" height="7.38092" filterUnits="userSpaceOnUse" color-interpolation-filters="sRGB">
<feFlood flood-opacity="0" result="BackgroundImageFix"/>
<feBlend mode="normal" in="SourceGraphic" in2="BackgroundImageFix" result="shape"/>
<feGaussianBlur stdDeviation="0.543656" result="effect1_foregroundBlur_1_3"/>
</filter>
<filter id="filter12_f_1_3" x="1239.45" y="176.045" width="9.52352" height="10.5276" filterUnits="userSpaceOnUse" color-interpolation-filters="sRGB">
<feFlood flood-opacity="0" result="BackgroundImageFix"/>
<feBlend mode="normal" in="SourceGraphic" in2="BackgroundImageFix" result="shape"/>
<feGaussianBlur stdDeviation="0.67957" result="effect1_foregroundBlur_1_3"/>
</filter>
<filter id="filter13_f_1_3" x="1382.96" y="161.769" width="17.9129" height="19.7537" filterUnits="userSpaceOnUse" color-interpolation-filters="sRGB">
<feFlood flood-opacity="0" result="BackgroundImageFix"/>
<feBlend mode="normal" in="SourceGraphic" in2="BackgroundImageFix" result="shape"/>
<feGaussianBlur stdDeviation="1.35914" result="effect1_foregroundBlur_1_3"/>
</filter>
<filter id="filter14_f_1_3" x="895.189" y="88.1411" width="17.9129" height="19.7537" filterUnits="userSpaceOnUse" color-interpolation-filters="sRGB">
<feFlood flood-opacity="0" result="BackgroundImageFix"/>
<feBlend mode="normal" in="SourceGraphic" in2="BackgroundImageFix" result="shape"/>
<feGaussianBlur stdDeviation="1.35914" result="effect1_foregroundBlur_1_3"/>
</filter>
<filter id="filter15_f_1_3" x="674.31" y="13.5934" width="17.9129" height="19.7537" filterUnits="userSpaceOnUse" color-interpolation-filters="sRGB">
<feFlood flood-opacity="0" result="BackgroundImageFix"/>
<feBlend mode="normal" in="SourceGraphic" in2="BackgroundImageFix" result="shape"/>
<feGaussianBlur stdDeviation="1.35914" result="effect1_foregroundBlur_1_3"/>
</filter>
<filter id="filter16_f_1_3" x="973.47" y="46.2768" width="9.52355" height="10.5276" filterUnits="userSpaceOnUse" color-interpolation-filters="sRGB">
<feFlood flood-opacity="0" result="BackgroundImageFix"/>
<feBlend mode="normal" in="SourceGraphic" in2="BackgroundImageFix" result="shape"/>
<feGaussianBlur stdDeviation="0.67957" result="effect1_foregroundBlur_1_3"/>
</filter>
<filter id="filter17_f_1_3" x="773.703" y="112.737" width="5.0336" height="5.53575" filterUnits="userSpaceOnUse" color-interpolation-filters="sRGB">
<feFlood flood-opacity="0" result="BackgroundImageFix"/>
<feBlend mode="normal" in="SourceGraphic" in2="BackgroundImageFix" result="shape"/>
<feGaussianBlur stdDeviation="0.407742" result="effect1_foregroundBlur_1_3"/>
</filter>
<filter id="filter18_f_1_3" x="515.632" y="56.1333" width="6.71146" height="7.38092" filterUnits="userSpaceOnUse" color-interpolation-filters="sRGB">
<feFlood flood-opacity="0" result="BackgroundImageFix"/>
<feBlend mode="normal" in="SourceGraphic" in2="BackgroundImageFix" result="shape"/>
<feGaussianBlur stdDeviation="0.543656" result="effect1_foregroundBlur_1_3"/>
</filter>
<filter id="filter19_f_1_3" x="334.708" y="22.7967" width="17.9129" height="19.7537" filterUnits="userSpaceOnUse" color-interpolation-filters="sRGB">
<feFlood flood-opacity="0" result="BackgroundImageFix"/>
<feBlend mode="normal" in="SourceGraphic" in2="BackgroundImageFix" result="shape"/>
<feGaussianBlur stdDeviation="1.35914" result="effect1_foregroundBlur_1_3"/>
</filter>
<filter id="filter20_f_1_3" x="399.131" y="78.0173" width="17.9129" height="19.7537" filterUnits="userSpaceOnUse" color-interpolation-filters="sRGB">
<feFlood flood-opacity="0" result="BackgroundImageFix"/>
<feBlend mode="normal" in="SourceGraphic" in2="BackgroundImageFix" result="shape"/>
<feGaussianBlur stdDeviation="1.35914" result="effect1_foregroundBlur_1_3"/>
</filter>
<filter id="filter21_f_1_3" x="205.862" y="105.628" width="17.9129" height="19.7537" filterUnits="userSpaceOnUse" color-interpolation-filters="sRGB">
<feFlood flood-opacity="0" result="BackgroundImageFix"/>
<feBlend mode="normal" in="SourceGraphic" in2="BackgroundImageFix" result="shape"/>
<feGaussianBlur stdDeviation="1.35914" result="effect1_foregroundBlur_1_3"/>
</filter>
<filter id="filter22_f_1_3" x="246.41" y="83.0906" width="9.52355" height="10.5276" filterUnits="userSpaceOnUse" color-interpolation-filters="sRGB">
<feFlood flood-opacity="0" result="BackgroundImageFix"/>
<feBlend mode="normal" in="SourceGraphic" in2="BackgroundImageFix" result="shape"/>
<feGaussianBlur stdDeviation="0.67957" result="effect1_foregroundBlur_1_3"/>
</filter>
<filter id="filter23_f_1_3" x="221.126" y="65.3368" width="6.71146" height="7.38092" filterUnits="userSpaceOnUse" color-interpolation-filters="sRGB">
<feFlood flood-opacity="0" result="BackgroundImageFix"/>
<feBlend mode="normal" in="SourceGraphic" in2="BackgroundImageFix" result="shape"/>
<feGaussianBlur stdDeviation="0.543656" result="effect1_foregroundBlur_1_3"/>
</filter>
<filter id="filter24_f_1_3" x="67.813" y="59.6105" width="17.9129" height="19.7537" filterUnits="userSpaceOnUse" color-interpolation-filters="sRGB">
<feFlood flood-opacity="0" result="BackgroundImageFix"/>
<feBlend mode="normal" in="SourceGraphic" in2="BackgroundImageFix" result="shape"/>
<feGaussianBlur stdDeviation="1.35914" result="effect1_foregroundBlur_1_3"/>
</filter>
<filter id="filter25_f_1_3" x="80.372" y="8.08033" width="11.2014" height="12.3728" filterUnits="userSpaceOnUse" color-interpolation-filters="sRGB">
<feFlood flood-opacity="0" result="BackgroundImageFix"/>
<feBlend mode="normal" in="SourceGraphic" in2="BackgroundImageFix" result="shape"/>
<feGaussianBlur stdDeviation="0.815485" result="effect1_foregroundBlur_1_3"/>
</filter>
<filter id="filter26_f_1_3" x="0.626166" y="48.3126" width="5.03362" height="5.53575" filterUnits="userSpaceOnUse" color-interpolation-filters="sRGB">
<feFlood flood-opacity="0" result="BackgroundImageFix"/>
<feBlend mode="normal" in="SourceGraphic" in2="BackgroundImageFix" result="shape"/>
<feGaussianBlur stdDeviation="0.407742" result="effect1_foregroundBlur_1_3"/>
</filter>
<filter id="filter27_f_1_3" x="560.728" y="0.912687" width="6.71151" height="7.38092" filterUnits="userSpaceOnUse" color-interpolation-filters="sRGB">
<feFlood flood-opacity="0" result="BackgroundImageFix"/>
<feBlend mode="normal" in="SourceGraphic" in2="BackgroundImageFix" result="shape"/>
<feGaussianBlur stdDeviation="0.543656" result="effect1_foregroundBlur_1_3"/>
</filter>
<filter id="filter28_f_1_3" x="152.483" y="197.662" width="17.9129" height="19.7537" filterUnits="userSpaceOnUse" color-interpolation-filters="sRGB">
<feFlood flood-opacity="0" result="BackgroundImageFix"/>
<feBlend mode="normal" in="SourceGraphic" in2="BackgroundImageFix" result="shape"/>
<feGaussianBlur stdDeviation="1.35914" result="effect1_foregroundBlur_1_3"/>
</filter>
<filter id="filter29_f_1_3" x="286.47" y="222.715" width="6.71146" height="7.38092" filterUnits="userSpaceOnUse" color-interpolation-filters="sRGB">
<feFlood flood-opacity="0" result="BackgroundImageFix"/>
<feBlend mode="normal" in="SourceGraphic" in2="BackgroundImageFix" result="shape"/>
<feGaussianBlur stdDeviation="0.543656" result="effect1_foregroundBlur_1_3"/>
</filter>
<filter id="filter30_f_1_3" x="176.03" y="259.529" width="6.71143" height="7.38092" filterUnits="userSpaceOnUse" color-interpolation-filters="sRGB">
<feFlood flood-opacity="0" result="BackgroundImageFix"/>
<feBlend mode="normal" in="SourceGraphic" in2="BackgroundImageFix" result="shape"/>
<feGaussianBlur stdDeviation="0.543656" result="effect1_foregroundBlur_1_3"/>
</filter>
<filter id="filter31_f_1_3" x="313.159" y="277.936" width="6.71146" height="7.38092" filterUnits="userSpaceOnUse" color-interpolation-filters="sRGB">
<feFlood flood-opacity="0" result="BackgroundImageFix"/>
<feBlend mode="normal" in="SourceGraphic" in2="BackgroundImageFix" result="shape"/>
<feGaussianBlur stdDeviation="0.543656" result="effect1_foregroundBlur_1_3"/>
</filter>
<filter id="filter32_f_1_3" x="432.802" y="231.919" width="6.71146" height="7.38092" filterUnits="userSpaceOnUse" color-interpolation-filters="sRGB">
<feFlood flood-opacity="0" result="BackgroundImageFix"/>
<feBlend mode="normal" in="SourceGraphic" in2="BackgroundImageFix" result="shape"/>
<feGaussianBlur stdDeviation="0.543656" result="effect1_foregroundBlur_1_3"/>
</filter>
<filter id="filter33_f_1_3" x="377.583" y="175.778" width="6.71146" height="7.38092" filterUnits="userSpaceOnUse" color-interpolation-filters="sRGB">
<feFlood flood-opacity="0" result="BackgroundImageFix"/>
<feBlend mode="normal" in="SourceGraphic" in2="BackgroundImageFix" result="shape"/>
<feGaussianBlur stdDeviation="0.543656" result="effect1_foregroundBlur_1_3"/>
</filter>
<filter id="filter34_f_1_3" x="414.396" y="287.139" width="6.71146" height="7.38092" filterUnits="userSpaceOnUse" color-interpolation-filters="sRGB">
<feFlood flood-opacity="0" result="BackgroundImageFix"/>
<feBlend mode="normal" in="SourceGraphic" in2="BackgroundImageFix" result="shape"/>
<feGaussianBlur stdDeviation="0.543656" result="effect1_foregroundBlur_1_3"/>
</filter>
<filter id="filter35_f_1_3" x="0.247404" y="388.377" width="6.71143" height="7.38092" filterUnits="userSpaceOnUse" color-interpolation-filters="sRGB">
<feFlood flood-opacity="0" result="BackgroundImageFix"/>
<feBlend mode="normal" in="SourceGraphic" in2="BackgroundImageFix" result="shape"/>
<feGaussianBlur stdDeviation="0.543656" result="effect1_foregroundBlur_1_3"/>
</filter>
<filter id="filter36_f_1_3" x="589.258" y="195.105" width="6.71147" height="7.38092" filterUnits="userSpaceOnUse" color-interpolation-filters="sRGB">
<feFlood flood-opacity="0" result="BackgroundImageFix"/>
<feBlend mode="normal" in="SourceGraphic" in2="BackgroundImageFix" result="shape"/>
<feGaussianBlur stdDeviation="0.543656" result="effect1_foregroundBlur_1_3"/>
</filter>
<filter id="filter37_f_1_3" x="589.258" y="222.715" width="6.71147" height="7.38092" filterUnits="userSpaceOnUse" color-interpolation-filters="sRGB">
<feFlood flood-opacity="0" result="BackgroundImageFix"/>
<feBlend mode="normal" in="SourceGraphic" in2="BackgroundImageFix" result="shape"/>
<feGaussianBlur stdDeviation="0.543656" result="effect1_foregroundBlur_1_3"/>
</filter>
<filter id="filter38_f_1_3" x="662.884" y="222.715" width="6.71147" height="7.38092" filterUnits="userSpaceOnUse" color-interpolation-filters="sRGB">
<feFlood flood-opacity="0" result="BackgroundImageFix"/>
<feBlend mode="normal" in="SourceGraphic" in2="BackgroundImageFix" result="shape"/>
<feGaussianBlur stdDeviation="0.543656" result="effect1_foregroundBlur_1_3"/>
</filter>
<filter id="filter39_f_1_3" x="791.731" y="259.529" width="6.71147" height="7.38092" filterUnits="userSpaceOnUse" color-interpolation-filters="sRGB">
<feFlood flood-opacity="0" result="BackgroundImageFix"/>
<feBlend mode="normal" in="SourceGraphic" in2="BackgroundImageFix" result="shape"/>
<feGaussianBlur stdDeviation="0.543656" result="effect1_foregroundBlur_1_3"/>
</filter>
<filter id="filter40_f_1_3" x="193.031" y="341.707" width="9.52352" height="10.5276" filterUnits="userSpaceOnUse" color-interpolation-filters="sRGB">
<feFlood flood-opacity="0" result="BackgroundImageFix"/>
<feBlend mode="normal" in="SourceGraphic" in2="BackgroundImageFix" result="shape"/>
<feGaussianBlur stdDeviation="0.67957" result="effect1_foregroundBlur_1_3"/>
</filter>
<filter id="filter41_f_1_3" x="41.1236" y="327.43" width="17.9129" height="19.7537" filterUnits="userSpaceOnUse" color-interpolation-filters="sRGB">
<feFlood flood-opacity="0" result="BackgroundImageFix"/>
<feBlend mode="normal" in="SourceGraphic" in2="BackgroundImageFix" result="shape"/>
<feGaussianBlur stdDeviation="1.35914" result="effect1_foregroundBlur_1_3"/>
</filter>
<filter id="filter42_f_1_3" x="528.898" y="253.803" width="17.9129" height="19.7537" filterUnits="userSpaceOnUse" color-interpolation-filters="sRGB">
<feFlood flood-opacity="0" result="BackgroundImageFix"/>
<feBlend mode="normal" in="SourceGraphic" in2="BackgroundImageFix" result="shape"/>
<feGaussianBlur stdDeviation="1.35914" result="effect1_foregroundBlur_1_3"/>
</filter>
<filter id="filter43_f_1_3" x="749.777" y="179.255" width="17.9129" height="19.7537" filterUnits="userSpaceOnUse" color-interpolation-filters="sRGB">
<feFlood flood-opacity="0" result="BackgroundImageFix"/>
<feBlend mode="normal" in="SourceGraphic" in2="BackgroundImageFix" result="shape"/>
<feGaussianBlur stdDeviation="1.35914" result="effect1_foregroundBlur_1_3"/>
</filter>
<filter id="filter44_f_1_3" x="459.006" y="211.939" width="9.52355" height="10.5276" filterUnits="userSpaceOnUse" color-interpolation-filters="sRGB">
<feFlood flood-opacity="0" result="BackgroundImageFix"/>
<feBlend mode="normal" in="SourceGraphic" in2="BackgroundImageFix" result="shape"/>
<feGaussianBlur stdDeviation="0.67957" result="effect1_foregroundBlur_1_3"/>
</filter>
<filter id="filter45_f_1_3" x="663.264" y="278.398" width="5.0336" height="5.53563" filterUnits="userSpaceOnUse" color-interpolation-filters="sRGB">
<feFlood flood-opacity="0" result="BackgroundImageFix"/>
<feBlend mode="normal" in="SourceGraphic" in2="BackgroundImageFix" result="shape"/>
<feGaussianBlur stdDeviation="0.407742" result="effect1_foregroundBlur_1_3"/>
</filter>
<filter id="filter46_f_1_3" x="919.657" y="221.795" width="6.71146" height="7.38092" filterUnits="userSpaceOnUse" color-interpolation-filters="sRGB">
<feFlood flood-opacity="0" result="BackgroundImageFix"/>
<feBlend mode="normal" in="SourceGraphic" in2="BackgroundImageFix" result="shape"/>
<feGaussianBlur stdDeviation="0.543656" result="effect1_foregroundBlur_1_3"/>
</filter>
<filter id="filter47_f_1_3" x="1089.38" y="188.458" width="17.9129" height="19.7537" filterUnits="userSpaceOnUse" color-interpolation-filters="sRGB">
<feFlood flood-opacity="0" result="BackgroundImageFix"/>
<feBlend mode="normal" in="SourceGraphic" in2="BackgroundImageFix" result="shape"/>
<feGaussianBlur stdDeviation="1.35914" result="effect1_foregroundBlur_1_3"/>
</filter>
<filter id="filter48_f_1_3" x="1024.96" y="243.679" width="17.9129" height="19.7537" filterUnits="userSpaceOnUse" color-interpolation-filters="sRGB">
<feFlood flood-opacity="0" result="BackgroundImageFix"/>
<feBlend mode="normal" in="SourceGraphic" in2="BackgroundImageFix" result="shape"/>
<feGaussianBlur stdDeviation="1.35914" result="effect1_foregroundBlur_1_3"/>
</filter>
<filter id="filter49_f_1_3" x="1218.22" y="271.289" width="17.9129" height="19.7537" filterUnits="userSpaceOnUse" color-interpolation-filters="sRGB">
<feFlood flood-opacity="0" result="BackgroundImageFix"/>
<feBlend mode="normal" in="SourceGraphic" in2="BackgroundImageFix" result="shape"/>
<feGaussianBlur stdDeviation="1.35914" result="effect1_foregroundBlur_1_3"/>
</filter>
<filter id="filter50_f_1_3" x="1186.07" y="248.752" width="9.52355" height="10.5276" filterUnits="userSpaceOnUse" color-interpolation-filters="sRGB">
<feFlood flood-opacity="0" result="BackgroundImageFix"/>
<feBlend mode="normal" in="SourceGraphic" in2="BackgroundImageFix" result="shape"/>
<feGaussianBlur stdDeviation="0.67957" result="effect1_foregroundBlur_1_3"/>
</filter>
<filter id="filter51_f_1_3" x="1214.16" y="230.998" width="6.71146" height="7.38092" filterUnits="userSpaceOnUse" color-interpolation-filters="sRGB">
<feFlood flood-opacity="0" result="BackgroundImageFix"/>
<feBlend mode="normal" in="SourceGraphic" in2="BackgroundImageFix" result="shape"/>
<feGaussianBlur stdDeviation="0.543656" result="effect1_foregroundBlur_1_3"/>
</filter>
<filter id="filter52_f_1_3" x="1356.27" y="225.272" width="17.9129" height="19.7537" filterUnits="userSpaceOnUse" color-interpolation-filters="sRGB">
<feFlood flood-opacity="0" result="BackgroundImageFix"/>
<feBlend mode="normal" in="SourceGraphic" in2="BackgroundImageFix" result="shape"/>
<feGaussianBlur stdDeviation="1.35914" result="effect1_foregroundBlur_1_3"/>
</filter>
<filter id="filter53_f_1_3" x="1350.43" y="173.742" width="11.2014" height="12.3729" filterUnits="userSpaceOnUse" color-interpolation-filters="sRGB">
<feFlood flood-opacity="0" result="BackgroundImageFix"/>
<feBlend mode="normal" in="SourceGraphic" in2="BackgroundImageFix" result="shape"/>
<feGaussianBlur stdDeviation="0.815485" result="effect1_foregroundBlur_1_3"/>
</filter>
<filter id="filter54_f_1_3" x="1436.34" y="213.974" width="5.03362" height="5.53563" filterUnits="userSpaceOnUse" color-interpolation-filters="sRGB">
<feFlood flood-opacity="0" result="BackgroundImageFix"/>
<feBlend mode="normal" in="SourceGraphic" in2="BackgroundImageFix" result="shape"/>
<feGaussianBlur stdDeviation="0.407742" result="effect1_foregroundBlur_1_3"/>
</filter>
<filter id="filter55_f_1_3" x="874.56" y="166.574" width="6.71151" height="7.38092" filterUnits="userSpaceOnUse" color-interpolation-filters="sRGB">
<feFlood flood-opacity="0" result="BackgroundImageFix"/>
<feBlend mode="normal" in="SourceGraphic" in2="BackgroundImageFix" result="shape"/>
<feGaussianBlur stdDeviation="0.543656" result="effect1_foregroundBlur_1_3"/>
</filter>
<filter id="filter56_f_1_3" x="1271.6" y="376.208" width="17.9129" height="19.7537" filterUnits="userSpaceOnUse" color-interpolation-filters="sRGB">
<feFlood flood-opacity="0" result="BackgroundImageFix"/>
<feBlend mode="normal" in="SourceGraphic" in2="BackgroundImageFix" result="shape"/>
<feGaussianBlur stdDeviation="1.35914" result="effect1_foregroundBlur_1_3"/>
</filter>
<filter id="filter57_f_1_3" x="1148.82" y="401.262" width="6.71146" height="7.38092" filterUnits="userSpaceOnUse" color-interpolation-filters="sRGB">
<feFlood flood-opacity="0" result="BackgroundImageFix"/>
<feBlend mode="normal" in="SourceGraphic" in2="BackgroundImageFix" result="shape"/>
<feGaussianBlur stdDeviation="0.543656" result="effect1_foregroundBlur_1_3"/>
</filter>
<filter id="filter58_f_1_3" x="1259.26" y="438.076" width="6.71143" height="7.38092" filterUnits="userSpaceOnUse" color-interpolation-filters="sRGB">
<feFlood flood-opacity="0" result="BackgroundImageFix"/>
<feBlend mode="normal" in="SourceGraphic" in2="BackgroundImageFix" result="shape"/>
<feGaussianBlur stdDeviation="0.543656" result="effect1_foregroundBlur_1_3"/>
</filter>
<filter id="filter59_f_1_3" x="1122.13" y="456.483" width="6.71146" height="7.38092" filterUnits="userSpaceOnUse" color-interpolation-filters="sRGB">
<feFlood flood-opacity="0" result="BackgroundImageFix"/>
<feBlend mode="normal" in="SourceGraphic" in2="BackgroundImageFix" result="shape"/>
<feGaussianBlur stdDeviation="0.543656" result="effect1_foregroundBlur_1_3"/>
</filter>
<filter id="filter60_f_1_3" x="1002.49" y="410.465" width="6.71146" height="7.38092" filterUnits="userSpaceOnUse" color-interpolation-filters="sRGB">
<feFlood flood-opacity="0" result="BackgroundImageFix"/>
<feBlend mode="normal" in="SourceGraphic" in2="BackgroundImageFix" result="shape"/>
<feGaussianBlur stdDeviation="0.543656" result="effect1_foregroundBlur_1_3"/>
</filter>
<filter id="filter61_f_1_3" x="1057.71" y="354.324" width="6.71146" height="7.38092" filterUnits="userSpaceOnUse" color-interpolation-filters="sRGB">
<feFlood flood-opacity="0" result="BackgroundImageFix"/>
<feBlend mode="normal" in="SourceGraphic" in2="BackgroundImageFix" result="shape"/>
<feGaussianBlur stdDeviation="0.543656" result="effect1_foregroundBlur_1_3"/>
</filter>
<filter id="filter62_f_1_3" x="1020.89" y="465.686" width="6.71146" height="7.38092" filterUnits="userSpaceOnUse" color-interpolation-filters="sRGB">
<feFlood flood-opacity="0" result="BackgroundImageFix"/>
<feBlend mode="normal" in="SourceGraphic" in2="BackgroundImageFix" result="shape"/>
<feGaussianBlur stdDeviation="0.543656" result="effect1_foregroundBlur_1_3"/>
</filter>
<filter id="filter63_f_1_3" x="1435.04" y="566.924" width="6.71143" height="7.38092" filterUnits="userSpaceOnUse" color-interpolation-filters="sRGB">
<feFlood flood-opacity="0" result="BackgroundImageFix"/>
<feBlend mode="normal" in="SourceGraphic" in2="BackgroundImageFix" result="shape"/>
<feGaussianBlur stdDeviation="0.543656" result="effect1_foregroundBlur_1_3"/>
</filter>
<filter id="filter64_f_1_3" x="846.031" y="373.652" width="6.71147" height="7.38092" filterUnits="userSpaceOnUse" color-interpolation-filters="sRGB">
<feFlood flood-opacity="0" result="BackgroundImageFix"/>
<feBlend mode="normal" in="SourceGraphic" in2="BackgroundImageFix" result="shape"/>
<feGaussianBlur stdDeviation="0.543656" result="effect1_foregroundBlur_1_3"/>
</filter>
<filter id="filter65_f_1_3" x="846.031" y="401.262" width="6.71147" height="7.38092" filterUnits="userSpaceOnUse" color-interpolation-filters="sRGB">
<feFlood flood-opacity="0" result="BackgroundImageFix"/>
<feBlend mode="normal" in="SourceGraphic" in2="BackgroundImageFix" result="shape"/>
<feGaussianBlur stdDeviation="0.543656" result="effect1_foregroundBlur_1_3"/>
</filter>
<filter id="filter66_f_1_3" x="772.404" y="401.262" width="6.71147" height="7.38092" filterUnits="userSpaceOnUse" color-interpolation-filters="sRGB">
<feFlood flood-opacity="0" result="BackgroundImageFix"/>
<feBlend mode="normal" in="SourceGraphic" in2="BackgroundImageFix" result="shape"/>
<feGaussianBlur stdDeviation="0.543656" result="effect1_foregroundBlur_1_3"/>
</filter>
<filter id="filter67_f_1_3" x="643.558" y="438.076" width="6.71147" height="7.38092" filterUnits="userSpaceOnUse" color-interpolation-filters="sRGB">
<feFlood flood-opacity="0" result="BackgroundImageFix"/>
<feBlend mode="normal" in="SourceGraphic" in2="BackgroundImageFix" result="shape"/>
<feGaussianBlur stdDeviation="0.543656" result="effect1_foregroundBlur_1_3"/>
</filter>
<filter id="filter68_f_1_3" x="1239.45" y="520.253" width="9.52352" height="10.5276" filterUnits="userSpaceOnUse" color-interpolation-filters="sRGB">
<feFlood flood-opacity="0" result="BackgroundImageFix"/>
<feBlend mode="normal" in="SourceGraphic" in2="BackgroundImageFix" result="shape"/>
<feGaussianBlur stdDeviation="0.67957" result="effect1_foregroundBlur_1_3"/>
</filter>
<filter id="filter69_f_1_3" x="1382.96" y="505.977" width="17.9129" height="19.7537" filterUnits="userSpaceOnUse" color-interpolation-filters="sRGB">
<feFlood flood-opacity="0" result="BackgroundImageFix"/>
<feBlend mode="normal" in="SourceGraphic" in2="BackgroundImageFix" result="shape"/>
<feGaussianBlur stdDeviation="1.35914" result="effect1_foregroundBlur_1_3"/>
</filter>
<filter id="filter70_f_1_3" x="895.189" y="432.349" width="17.9129" height="19.7537" filterUnits="userSpaceOnUse" color-interpolation-filters="sRGB">
<feFlood flood-opacity="0" result="BackgroundImageFix"/>
<feBlend mode="normal" in="SourceGraphic" in2="BackgroundImageFix" result="shape"/>
<feGaussianBlur stdDeviation="1.35914" result="effect1_foregroundBlur_1_3"/>
</filter>
<filter id="filter71_f_1_3" x="674.31" y="357.802" width="17.9129" height="19.7537" filterUnits="userSpaceOnUse" color-interpolation-filters="sRGB">
<feFlood flood-opacity="0" result="BackgroundImageFix"/>
<feBlend mode="normal" in="SourceGraphic" in2="BackgroundImageFix" result="shape"/>
<feGaussianBlur stdDeviation="1.35914" result="effect1_foregroundBlur_1_3"/>
</filter>
<filter id="filter72_f_1_3" x="973.47" y="390.485" width="9.52355" height="10.5276" filterUnits="userSpaceOnUse" color-interpolation-filters="sRGB">
<feFlood flood-opacity="0" result="BackgroundImageFix"/>
<feBlend mode="normal" in="SourceGraphic" in2="BackgroundImageFix" result="shape"/>
<feGaussianBlur stdDeviation="0.67957" result="effect1_foregroundBlur_1_3"/>
</filter>
<filter id="filter73_f_1_3" x="773.703" y="456.945" width="5.0336" height="5.53563" filterUnits="userSpaceOnUse" color-interpolation-filters="sRGB">
<feFlood flood-opacity="0" result="BackgroundImageFix"/>
<feBlend mode="normal" in="SourceGraphic" in2="BackgroundImageFix" result="shape"/>
<feGaussianBlur stdDeviation="0.407742" result="effect1_foregroundBlur_1_3"/>
</filter>
<filter id="filter74_f_1_3" x="515.632" y="400.342" width="6.71146" height="7.38092" filterUnits="userSpaceOnUse" color-interpolation-filters="sRGB">
<feFlood flood-opacity="0" result="BackgroundImageFix"/>
<feBlend mode="normal" in="SourceGraphic" in2="BackgroundImageFix" result="shape"/>
<feGaussianBlur stdDeviation="0.543656" result="effect1_foregroundBlur_1_3"/>
</filter>
<filter id="filter75_f_1_3" x="334.708" y="367.005" width="17.9129" height="19.7537" filterUnits="userSpaceOnUse" color-interpolation-filters="sRGB">
<feFlood flood-opacity="0" result="BackgroundImageFix"/>
<feBlend mode="normal" in="SourceGraphic" in2="BackgroundImageFix" result="shape"/>
<feGaussianBlur stdDeviation="1.35914" result="effect1_foregroundBlur_1_3"/>
</filter>
<filter id="filter76_f_1_3" x="399.131" y="422.226" width="17.9129" height="19.7537" filterUnits="userSpaceOnUse" color-interpolation-filters="sRGB">
<feFlood flood-opacity="0" result="BackgroundImageFix"/>
<feBlend mode="normal" in="SourceGraphic" in2="BackgroundImageFix" result="shape"/>
<feGaussianBlur stdDeviation="1.35914" result="effect1_foregroundBlur_1_3"/>
</filter>
<filter id="filter77_f_1_3" x="205.862" y="449.836" width="17.9129" height="19.7537" filterUnits="userSpaceOnUse" color-interpolation-filters="sRGB">
<feFlood flood-opacity="0" result="BackgroundImageFix"/>
<feBlend mode="normal" in="SourceGraphic" in2="BackgroundImageFix" result="shape"/>
<feGaussianBlur stdDeviation="1.35914" result="effect1_foregroundBlur_1_3"/>
</filter>
<filter id="filter78_f_1_3" x="246.41" y="427.299" width="9.52355" height="10.5276" filterUnits="userSpaceOnUse" color-interpolation-filters="sRGB">
<feFlood flood-opacity="0" result="BackgroundImageFix"/>
<feBlend mode="normal" in="SourceGraphic" in2="BackgroundImageFix" result="shape"/>
<feGaussianBlur stdDeviation="0.67957" result="effect1_foregroundBlur_1_3"/>
</filter>
<filter id="filter79_f_1_3" x="221.126" y="409.545" width="6.71146" height="7.38092" filterUnits="userSpaceOnUse" color-interpolation-filters="sRGB">
<feFlood flood-opacity="0" result="BackgroundImageFix"/>
<feBlend mode="normal" in="SourceGraphic" in2="BackgroundImageFix" result="shape"/>
<feGaussianBlur stdDeviation="0.543656" result="effect1_foregroundBlur_1_3"/>
</filter>
<filter id="filter80_f_1_3" x="67.813" y="403.819" width="17.9129" height="19.7537" filterUnits="userSpaceOnUse" color-interpolation-filters="sRGB">
<feFlood flood-opacity="0" result="BackgroundImageFix"/>
<feBlend mode="normal" in="SourceGraphic" in2="BackgroundImageFix" result="shape"/>
<feGaussianBlur stdDeviation="1.35914" result="effect1_foregroundBlur_1_3"/>
</filter>
<filter id="filter81_f_1_3" x="80.372" y="352.289" width="11.2014" height="12.3729" filterUnits="userSpaceOnUse" color-interpolation-filters="sRGB">
<feFlood flood-opacity="0" result="BackgroundImageFix"/>
<feBlend mode="normal" in="SourceGraphic" in2="BackgroundImageFix" result="shape"/>
<feGaussianBlur stdDeviation="0.815485" result="effect1_foregroundBlur_1_3"/>
</filter>
<filter id="filter82_f_1_3" x="0.626166" y="392.521" width="5.03362" height="5.53563" filterUnits="userSpaceOnUse" color-interpolation-filters="sRGB">
<feFlood flood-opacity="0" result="BackgroundImageFix"/>
<feBlend mode="normal" in="SourceGraphic" in2="BackgroundImageFix" result="shape"/>
<feGaussianBlur stdDeviation="0.407742" result="effect1_foregroundBlur_1_3"/>
</filter>
<filter id="filter83_f_1_3" x="560.728" y="345.121" width="6.71151" height="7.38092" filterUnits="userSpaceOnUse" color-interpolation-filters="sRGB">
<feFlood flood-opacity="0" result="BackgroundImageFix"/>
<feBlend mode="normal" in="SourceGraphic" in2="BackgroundImageFix" result="shape"/>
<feGaussianBlur stdDeviation="0.543656" result="effect1_foregroundBlur_1_3"/>
</filter>
</defs>
</svg>
